ISO-10303-21;
HEADER;
FILE_DESCRIPTION(('FreeCAD Model'),'2;1');
FILE_NAME('Open CASCADE Shape Model','2025-08-28T21:37:53',(''),(''),
  'Open CASCADE STEP processor 7.9','FreeCAD','Unknown');
FILE_SCHEMA(('AUTOMOTIVE_DESIGN { 1 0 10303 214 1 1 1 1 }'));
ENDSEC;
DATA;
#1 = APPLICATION_PROTOCOL_DEFINITION('international standard',
  'automotive_design',2000,#2);
#2 = APPLICATION_CONTEXT(
  'core data for automotive mechanical design processes');
#3 = SHAPE_DEFINITION_REPRESENTATION(#4,#10);
#4 = PRODUCT_DEFINITION_SHAPE('','',#5);
#5 = PRODUCT_DEFINITION('design','',#6,#9);
#6 = PRODUCT_DEFINITION_FORMATION('','',#7);
#7 = PRODUCT('Body','Body','',(#8));
#8 = PRODUCT_CONTEXT('',#2,'mechanical');
#9 = PRODUCT_DEFINITION_CONTEXT('part definition',#2,'design');
#10 = ADVANCED_BREP_SHAPE_REPRESENTATION('',(#11,#15),#447);
#11 = AXIS2_PLACEMENT_3D('',#12,#13,#14);
#12 = CARTESIAN_POINT('',(0.,0.,0.));
#13 = DIRECTION('',(0.,0.,1.));
#14 = DIRECTION('',(1.,0.,-0.));
#15 = MANIFOLD_SOLID_BREP('',#16);
#16 = CLOSED_SHELL('',(#17,#59,#90,#121,#206,#280,#297,#314,#331,#348,
    #360,#377,#410,#427));
#17 = ADVANCED_FACE('',(#18),#54,.T.);
#18 = FACE_BOUND('',#19,.F.);
#19 = EDGE_LOOP('',(#20,#30,#39,#47));
#20 = ORIENTED_EDGE('',*,*,#21,.T.);
#21 = EDGE_CURVE('',#22,#24,#26,.T.);
#22 = VERTEX_POINT('',#23);
#23 = CARTESIAN_POINT('',(3.260384293448,12.272750666484,0.));
#24 = VERTEX_POINT('',#25);
#25 = CARTESIAN_POINT('',(3.260384293448,12.272750666484,2.));
#26 = LINE('',#27,#28);
#27 = CARTESIAN_POINT('',(3.260384293448,12.272750666484,0.));
#28 = VECTOR('',#29,1.);
#29 = DIRECTION('',(0.,0.,1.));
#30 = ORIENTED_EDGE('',*,*,#31,.T.);
#31 = EDGE_CURVE('',#24,#32,#34,.T.);
#32 = VERTEX_POINT('',#33);
#33 = CARTESIAN_POINT('',(-3.260384268875,12.272750729432,2.));
#34 = CIRCLE('',#35,3.5);
#35 = AXIS2_PLACEMENT_3D('',#36,#37,#38);
#36 = CARTESIAN_POINT('',(3.351134548929E-22,11.,2.));
#37 = DIRECTION('',(0.,0.,1.));
#38 = DIRECTION('',(1.,0.,0.));
#39 = ORIENTED_EDGE('',*,*,#40,.F.);
#40 = EDGE_CURVE('',#41,#32,#43,.T.);
#41 = VERTEX_POINT('',#42);
#42 = CARTESIAN_POINT('',(-3.260384268875,12.272750729432,0.));
#43 = LINE('',#44,#45);
#44 = CARTESIAN_POINT('',(-3.260384268875,12.272750729432,0.));
#45 = VECTOR('',#46,1.);
#46 = DIRECTION('',(0.,0.,1.));
#47 = ORIENTED_EDGE('',*,*,#48,.F.);
#48 = EDGE_CURVE('',#22,#41,#49,.T.);
#49 = CIRCLE('',#50,3.5);
#50 = AXIS2_PLACEMENT_3D('',#51,#52,#53);
#51 = CARTESIAN_POINT('',(3.351134548929E-22,11.,0.));
#52 = DIRECTION('',(0.,0.,1.));
#53 = DIRECTION('',(1.,0.,0.));
#54 = CYLINDRICAL_SURFACE('',#55,3.5);
#55 = AXIS2_PLACEMENT_3D('',#56,#57,#58);
#56 = CARTESIAN_POINT('',(3.351134548929E-22,11.,0.));
#57 = DIRECTION('',(-0.,-0.,-1.));
#58 = DIRECTION('',(1.,0.,0.));
#59 = ADVANCED_FACE('',(#60),#85,.T.);
#60 = FACE_BOUND('',#61,.T.);
#61 = EDGE_LOOP('',(#62,#63,#71,#79));
#62 = ORIENTED_EDGE('',*,*,#21,.T.);
#63 = ORIENTED_EDGE('',*,*,#64,.T.);
#64 = EDGE_CURVE('',#24,#65,#67,.T.);
#65 = VERTEX_POINT('',#66);
#66 = CARTESIAN_POINT('',(6.986557340427,2.727272727273,2.));
#67 = LINE('',#68,#69);
#68 = CARTESIAN_POINT('',(3.260384293448,12.272750666484,2.));
#69 = VECTOR('',#70,1.);
#70 = DIRECTION('',(0.363636363645,-0.93154097872,0.));
#71 = ORIENTED_EDGE('',*,*,#72,.F.);
#72 = EDGE_CURVE('',#73,#65,#75,.T.);
#73 = VERTEX_POINT('',#74);
#74 = CARTESIAN_POINT('',(6.986557340427,2.727272727273,0.));
#75 = LINE('',#76,#77);
#76 = CARTESIAN_POINT('',(6.986557340427,2.727272727273,0.));
#77 = VECTOR('',#78,1.);
#78 = DIRECTION('',(0.,0.,1.));
#79 = ORIENTED_EDGE('',*,*,#80,.F.);
#80 = EDGE_CURVE('',#22,#73,#81,.T.);
#81 = LINE('',#82,#83);
#82 = CARTESIAN_POINT('',(3.260384293448,12.272750666484,0.));
#83 = VECTOR('',#84,1.);
#84 = DIRECTION('',(0.363636363645,-0.93154097872,0.));
#85 = PLANE('',#86);
#86 = AXIS2_PLACEMENT_3D('',#87,#88,#89);
#87 = CARTESIAN_POINT('',(3.260384293448,12.272750666484,0.));
#88 = DIRECTION('',(0.93154097872,0.363636363645,0.));
#89 = DIRECTION('',(0.363636363645,-0.93154097872,0.));
#90 = ADVANCED_FACE('',(#91),#116,.F.);
#91 = FACE_BOUND('',#92,.F.);
#92 = EDGE_LOOP('',(#93,#94,#102,#110));
#93 = ORIENTED_EDGE('',*,*,#40,.T.);
#94 = ORIENTED_EDGE('',*,*,#95,.T.);
#95 = EDGE_CURVE('',#32,#96,#98,.T.);
#96 = VERTEX_POINT('',#97);
#97 = CARTESIAN_POINT('',(-6.986557340427,2.727272727273,2.));
#98 = LINE('',#99,#100);
#99 = CARTESIAN_POINT('',(-3.260384268875,12.272750729432,2.));
#100 = VECTOR('',#101,1.);
#101 = DIRECTION('',(-0.363636363645,-0.93154097872,0.));
#102 = ORIENTED_EDGE('',*,*,#103,.F.);
#103 = EDGE_CURVE('',#104,#96,#106,.T.);
#104 = VERTEX_POINT('',#105);
#105 = CARTESIAN_POINT('',(-6.986557340427,2.727272727273,0.));
#106 = LINE('',#107,#108);
#107 = CARTESIAN_POINT('',(-6.986557340427,2.727272727273,0.));
#108 = VECTOR('',#109,1.);
#109 = DIRECTION('',(0.,0.,1.));
#110 = ORIENTED_EDGE('',*,*,#111,.F.);
#111 = EDGE_CURVE('',#41,#104,#112,.T.);
#112 = LINE('',#113,#114);
#113 = CARTESIAN_POINT('',(-3.260384268875,12.272750729432,0.));
#114 = VECTOR('',#115,1.);
#115 = DIRECTION('',(-0.363636363645,-0.93154097872,0.));
#116 = PLANE('',#117);
#117 = AXIS2_PLACEMENT_3D('',#118,#119,#120);
#118 = CARTESIAN_POINT('',(-3.260384268875,12.272750729432,0.));
#119 = DIRECTION('',(0.93154097872,-0.363636363645,0.));
#120 = DIRECTION('',(-0.363636363645,-0.93154097872,0.));
#121 = ADVANCED_FACE('',(#122,#168,#179,#190),#201,.F.);
#122 = FACE_BOUND('',#123,.F.);
#123 = EDGE_LOOP('',(#124,#125,#126,#135,#143,#152,#160,#167));
#124 = ORIENTED_EDGE('',*,*,#48,.T.);
#125 = ORIENTED_EDGE('',*,*,#111,.T.);
#126 = ORIENTED_EDGE('',*,*,#127,.T.);
#127 = EDGE_CURVE('',#104,#128,#130,.T.);
#128 = VERTEX_POINT('',#129);
#129 = CARTESIAN_POINT('',(-6.986557340427,-2.727272727273,0.));
#130 = CIRCLE('',#131,7.5);
#131 = AXIS2_PLACEMENT_3D('',#132,#133,#134);
#132 = CARTESIAN_POINT('',(1.901134237475E-22,-9.528505920021E-22,0.));
#133 = DIRECTION('',(0.,0.,1.));
#134 = DIRECTION('',(1.,0.,0.));
#135 = ORIENTED_EDGE('',*,*,#136,.F.);
#136 = EDGE_CURVE('',#137,#128,#139,.T.);
#137 = VERTEX_POINT('',#138);
#138 = CARTESIAN_POINT('',(-3.260393425533,-12.27272727272,0.));
#139 = LINE('',#140,#141);
#140 = CARTESIAN_POINT('',(-3.260393425533,-12.27272727272,0.));
#141 = VECTOR('',#142,1.);
#142 = DIRECTION('',(-0.363636363636,0.931540978724,0.));
#143 = ORIENTED_EDGE('',*,*,#144,.T.);
#144 = EDGE_CURVE('',#137,#145,#147,.T.);
#145 = VERTEX_POINT('',#146);
#146 = CARTESIAN_POINT('',(3.260393425533,-12.27272727272,0.));
#147 = CIRCLE('',#148,3.5);
#148 = AXIS2_PLACEMENT_3D('',#149,#150,#151);
#149 = CARTESIAN_POINT('',(-1.771554622856E-32,-11.,0.));
#150 = DIRECTION('',(0.,0.,1.));
#151 = DIRECTION('',(1.,0.,0.));
#152 = ORIENTED_EDGE('',*,*,#153,.F.);
#153 = EDGE_CURVE('',#154,#145,#156,.T.);
#154 = VERTEX_POINT('',#155);
#155 = CARTESIAN_POINT('',(6.986557340427,-2.727272727273,0.));
#156 = LINE('',#157,#158);
#157 = CARTESIAN_POINT('',(6.986557340427,-2.727272727273,0.));
#158 = VECTOR('',#159,1.);
#159 = DIRECTION('',(-0.363636363636,-0.931540978724,0.));
#160 = ORIENTED_EDGE('',*,*,#161,.T.);
#161 = EDGE_CURVE('',#154,#73,#162,.T.);
#162 = CIRCLE('',#163,7.5);
#163 = AXIS2_PLACEMENT_3D('',#164,#165,#166);
#164 = CARTESIAN_POINT('',(1.901134237475E-22,-9.528505920021E-22,0.));
#165 = DIRECTION('',(0.,0.,1.));
#166 = DIRECTION('',(1.,0.,0.));
#167 = ORIENTED_EDGE('',*,*,#80,.F.);
#168 = FACE_BOUND('',#169,.F.);
#169 = EDGE_LOOP('',(#170));
#170 = ORIENTED_EDGE('',*,*,#171,.T.);
#171 = EDGE_CURVE('',#172,#172,#174,.T.);
#172 = VERTEX_POINT('',#173);
#173 = CARTESIAN_POINT('',(-1.7,-11.,0.));
#174 = CIRCLE('',#175,1.7);
#175 = AXIS2_PLACEMENT_3D('',#176,#177,#178);
#176 = CARTESIAN_POINT('',(0.,-11.,0.));
#177 = DIRECTION('',(0.,0.,-1.));
#178 = DIRECTION('',(-1.,0.,0.));
#179 = FACE_BOUND('',#180,.F.);
#180 = EDGE_LOOP('',(#181));
#181 = ORIENTED_EDGE('',*,*,#182,.T.);
#182 = EDGE_CURVE('',#183,#183,#185,.T.);
#183 = VERTEX_POINT('',#184);
#184 = CARTESIAN_POINT('',(3.,0.,0.));
#185 = CIRCLE('',#186,3.);
#186 = AXIS2_PLACEMENT_3D('',#187,#188,#189);
#187 = CARTESIAN_POINT('',(0.,0.,0.));
#188 = DIRECTION('',(0.,0.,-1.));
#189 = DIRECTION('',(1.,0.,0.));
#190 = FACE_BOUND('',#191,.F.);
#191 = EDGE_LOOP('',(#192));
#192 = ORIENTED_EDGE('',*,*,#193,.T.);
#193 = EDGE_CURVE('',#194,#194,#196,.T.);
#194 = VERTEX_POINT('',#195);
#195 = CARTESIAN_POINT('',(-1.7,11.,0.));
#196 = CIRCLE('',#197,1.7);
#197 = AXIS2_PLACEMENT_3D('',#198,#199,#200);
#198 = CARTESIAN_POINT('',(0.,11.,0.));
#199 = DIRECTION('',(0.,0.,-1.));
#200 = DIRECTION('',(-1.,0.,0.));
#201 = PLANE('',#202);
#202 = AXIS2_PLACEMENT_3D('',#203,#204,#205);
#203 = CARTESIAN_POINT('',(-2.53424558136E-10,1.02065019559E-06,0.));
#204 = DIRECTION('',(0.,0.,1.));
#205 = DIRECTION('',(1.,0.,0.));
#206 = ADVANCED_FACE('',(#207,#253,#264),#275,.T.);
#207 = FACE_BOUND('',#208,.T.);
#208 = EDGE_LOOP('',(#209,#210,#211,#220,#228,#237,#245,#252));
#209 = ORIENTED_EDGE('',*,*,#31,.T.);
#210 = ORIENTED_EDGE('',*,*,#95,.T.);
#211 = ORIENTED_EDGE('',*,*,#212,.T.);
#212 = EDGE_CURVE('',#96,#213,#215,.T.);
#213 = VERTEX_POINT('',#214);
#214 = CARTESIAN_POINT('',(-6.986557340427,-2.727272727273,2.));
#215 = CIRCLE('',#216,7.5);
#216 = AXIS2_PLACEMENT_3D('',#217,#218,#219);
#217 = CARTESIAN_POINT('',(1.901134237475E-22,-9.528505920021E-22,2.));
#218 = DIRECTION('',(0.,0.,1.));
#219 = DIRECTION('',(1.,0.,0.));
#220 = ORIENTED_EDGE('',*,*,#221,.F.);
#221 = EDGE_CURVE('',#222,#213,#224,.T.);
#222 = VERTEX_POINT('',#223);
#223 = CARTESIAN_POINT('',(-3.260393425533,-12.27272727272,2.));
#224 = LINE('',#225,#226);
#225 = CARTESIAN_POINT('',(-3.260393425533,-12.27272727272,2.));
#226 = VECTOR('',#227,1.);
#227 = DIRECTION('',(-0.363636363636,0.931540978724,0.));
#228 = ORIENTED_EDGE('',*,*,#229,.T.);
#229 = EDGE_CURVE('',#222,#230,#232,.T.);
#230 = VERTEX_POINT('',#231);
#231 = CARTESIAN_POINT('',(3.260393425533,-12.27272727272,2.));
#232 = CIRCLE('',#233,3.5);
#233 = AXIS2_PLACEMENT_3D('',#234,#235,#236);
#234 = CARTESIAN_POINT('',(-1.771554622856E-32,-11.,2.));
#235 = DIRECTION('',(0.,0.,1.));
#236 = DIRECTION('',(1.,0.,0.));
#237 = ORIENTED_EDGE('',*,*,#238,.F.);
#238 = EDGE_CURVE('',#239,#230,#241,.T.);
#239 = VERTEX_POINT('',#240);
#240 = CARTESIAN_POINT('',(6.986557340427,-2.727272727273,2.));
#241 = LINE('',#242,#243);
#242 = CARTESIAN_POINT('',(6.986557340427,-2.727272727273,2.));
#243 = VECTOR('',#244,1.);
#244 = DIRECTION('',(-0.363636363636,-0.931540978724,0.));
#245 = ORIENTED_EDGE('',*,*,#246,.T.);
#246 = EDGE_CURVE('',#239,#65,#247,.T.);
#247 = CIRCLE('',#248,7.5);
#248 = AXIS2_PLACEMENT_3D('',#249,#250,#251);
#249 = CARTESIAN_POINT('',(1.901134237475E-22,-9.528505920021E-22,2.));
#250 = DIRECTION('',(0.,0.,1.));
#251 = DIRECTION('',(1.,0.,0.));
#252 = ORIENTED_EDGE('',*,*,#64,.F.);
#253 = FACE_BOUND('',#254,.T.);
#254 = EDGE_LOOP('',(#255));
#255 = ORIENTED_EDGE('',*,*,#256,.F.);
#256 = EDGE_CURVE('',#257,#257,#259,.T.);
#257 = VERTEX_POINT('',#258);
#258 = CARTESIAN_POINT('',(-1.7,-11.,2.));
#259 = CIRCLE('',#260,1.7);
#260 = AXIS2_PLACEMENT_3D('',#261,#262,#263);
#261 = CARTESIAN_POINT('',(0.,-11.,2.));
#262 = DIRECTION('',(0.,0.,1.));
#263 = DIRECTION('',(-1.,0.,0.));
#264 = FACE_BOUND('',#265,.T.);
#265 = EDGE_LOOP('',(#266));
#266 = ORIENTED_EDGE('',*,*,#267,.F.);
#267 = EDGE_CURVE('',#268,#268,#270,.T.);
#268 = VERTEX_POINT('',#269);
#269 = CARTESIAN_POINT('',(-1.7,11.,2.));
#270 = CIRCLE('',#271,1.7);
#271 = AXIS2_PLACEMENT_3D('',#272,#273,#274);
#272 = CARTESIAN_POINT('',(0.,11.,2.));
#273 = DIRECTION('',(0.,0.,1.));
#274 = DIRECTION('',(-1.,0.,0.));
#275 = PLANE('',#276);
#276 = AXIS2_PLACEMENT_3D('',#277,#278,#279);
#277 = CARTESIAN_POINT('',(-2.53424558136E-10,1.02065019559E-06,2.));
#278 = DIRECTION('',(0.,0.,1.));
#279 = DIRECTION('',(1.,0.,0.));
#280 = ADVANCED_FACE('',(#281),#292,.T.);
#281 = FACE_BOUND('',#282,.F.);
#282 = EDGE_LOOP('',(#283,#289,#290,#291));
#283 = ORIENTED_EDGE('',*,*,#284,.T.);
#284 = EDGE_CURVE('',#154,#239,#285,.T.);
#285 = LINE('',#286,#287);
#286 = CARTESIAN_POINT('',(6.986557340427,-2.727272727273,0.));
#287 = VECTOR('',#288,1.);
#288 = DIRECTION('',(0.,0.,1.));
#289 = ORIENTED_EDGE('',*,*,#246,.T.);
#290 = ORIENTED_EDGE('',*,*,#72,.F.);
#291 = ORIENTED_EDGE('',*,*,#161,.F.);
#292 = CYLINDRICAL_SURFACE('',#293,7.5);
#293 = AXIS2_PLACEMENT_3D('',#294,#295,#296);
#294 = CARTESIAN_POINT('',(1.901134237475E-22,-9.528505920021E-22,0.));
#295 = DIRECTION('',(-0.,-0.,-1.));
#296 = DIRECTION('',(1.,0.,0.));
#297 = ADVANCED_FACE('',(#298),#309,.T.);
#298 = FACE_BOUND('',#299,.F.);
#299 = EDGE_LOOP('',(#300,#301,#302,#308));
#300 = ORIENTED_EDGE('',*,*,#103,.T.);
#301 = ORIENTED_EDGE('',*,*,#212,.T.);
#302 = ORIENTED_EDGE('',*,*,#303,.F.);
#303 = EDGE_CURVE('',#128,#213,#304,.T.);
#304 = LINE('',#305,#306);
#305 = CARTESIAN_POINT('',(-6.986557340427,-2.727272727273,0.));
#306 = VECTOR('',#307,1.);
#307 = DIRECTION('',(0.,0.,1.));
#308 = ORIENTED_EDGE('',*,*,#127,.F.);
#309 = CYLINDRICAL_SURFACE('',#310,7.5);
#310 = AXIS2_PLACEMENT_3D('',#311,#312,#313);
#311 = CARTESIAN_POINT('',(1.901134237475E-22,-9.528505920021E-22,0.));
#312 = DIRECTION('',(-0.,-0.,-1.));
#313 = DIRECTION('',(1.,0.,0.));
#314 = ADVANCED_FACE('',(#315),#326,.T.);
#315 = FACE_BOUND('',#316,.T.);
#316 = EDGE_LOOP('',(#317,#318,#319,#325));
#317 = ORIENTED_EDGE('',*,*,#284,.T.);
#318 = ORIENTED_EDGE('',*,*,#238,.T.);
#319 = ORIENTED_EDGE('',*,*,#320,.F.);
#320 = EDGE_CURVE('',#145,#230,#321,.T.);
#321 = LINE('',#322,#323);
#322 = CARTESIAN_POINT('',(3.260393425533,-12.27272727272,0.));
#323 = VECTOR('',#324,1.);
#324 = DIRECTION('',(0.,0.,1.));
#325 = ORIENTED_EDGE('',*,*,#153,.F.);
#326 = PLANE('',#327);
#327 = AXIS2_PLACEMENT_3D('',#328,#329,#330);
#328 = CARTESIAN_POINT('',(6.986557340427,-2.727272727273,0.));
#329 = DIRECTION('',(0.931540978724,-0.363636363636,0.));
#330 = DIRECTION('',(-0.363636363636,-0.931540978724,0.));
#331 = ADVANCED_FACE('',(#332),#343,.T.);
#332 = FACE_BOUND('',#333,.T.);
#333 = EDGE_LOOP('',(#334,#340,#341,#342));
#334 = ORIENTED_EDGE('',*,*,#335,.T.);
#335 = EDGE_CURVE('',#137,#222,#336,.T.);
#336 = LINE('',#337,#338);
#337 = CARTESIAN_POINT('',(-3.260393425533,-12.27272727272,0.));
#338 = VECTOR('',#339,1.);
#339 = DIRECTION('',(0.,0.,1.));
#340 = ORIENTED_EDGE('',*,*,#221,.T.);
#341 = ORIENTED_EDGE('',*,*,#303,.F.);
#342 = ORIENTED_EDGE('',*,*,#136,.F.);
#343 = PLANE('',#344);
#344 = AXIS2_PLACEMENT_3D('',#345,#346,#347);
#345 = CARTESIAN_POINT('',(-3.260393425533,-12.27272727272,0.));
#346 = DIRECTION('',(-0.931540978724,-0.363636363636,0.));
#347 = DIRECTION('',(-0.363636363636,0.931540978724,0.));
#348 = ADVANCED_FACE('',(#349),#355,.T.);
#349 = FACE_BOUND('',#350,.F.);
#350 = EDGE_LOOP('',(#351,#352,#353,#354));
#351 = ORIENTED_EDGE('',*,*,#335,.T.);
#352 = ORIENTED_EDGE('',*,*,#229,.T.);
#353 = ORIENTED_EDGE('',*,*,#320,.F.);
#354 = ORIENTED_EDGE('',*,*,#144,.F.);
#355 = CYLINDRICAL_SURFACE('',#356,3.5);
#356 = AXIS2_PLACEMENT_3D('',#357,#358,#359);
#357 = CARTESIAN_POINT('',(-1.771554622856E-32,-11.,0.));
#358 = DIRECTION('',(-0.,-0.,-1.));
#359 = DIRECTION('',(1.,0.,0.));
#360 = ADVANCED_FACE('',(#361),#372,.F.);
#361 = FACE_BOUND('',#362,.T.);
#362 = EDGE_LOOP('',(#363,#369,#370,#371));
#363 = ORIENTED_EDGE('',*,*,#364,.F.);
#364 = EDGE_CURVE('',#172,#257,#365,.T.);
#365 = LINE('',#366,#367);
#366 = CARTESIAN_POINT('',(-1.7,-11.,0.));
#367 = VECTOR('',#368,1.);
#368 = DIRECTION('',(6.217248937901E-17,0.,1.));
#369 = ORIENTED_EDGE('',*,*,#171,.T.);
#370 = ORIENTED_EDGE('',*,*,#364,.T.);
#371 = ORIENTED_EDGE('',*,*,#256,.T.);
#372 = CYLINDRICAL_SURFACE('',#373,1.7);
#373 = AXIS2_PLACEMENT_3D('',#374,#375,#376);
#374 = CARTESIAN_POINT('',(0.,-11.,0.));
#375 = DIRECTION('',(0.,0.,1.));
#376 = DIRECTION('',(-1.,0.,0.));
#377 = ADVANCED_FACE('',(#378),#405,.T.);
#378 = FACE_BOUND('',#379,.T.);
#379 = EDGE_LOOP('',(#380,#387,#388,#389,#398));
#380 = ORIENTED_EDGE('',*,*,#381,.F.);
#381 = EDGE_CURVE('',#183,#382,#384,.T.);
#382 = VERTEX_POINT('',#383);
#383 = CARTESIAN_POINT('',(2.844697898691,0.,-4.44727030844));
#384 = B_SPLINE_CURVE_WITH_KNOTS('',1,(#385,#386),.UNSPECIFIED.,.F.,.F.,
  (2,2),(0.,1.),.PIECEWISE_BEZIER_KNOTS.);
#385 = CARTESIAN_POINT('',(3.,0.,0.));
#386 = CARTESIAN_POINT('',(2.79047538305,0.,-6.));
#387 = ORIENTED_EDGE('',*,*,#182,.T.);
#388 = ORIENTED_EDGE('',*,*,#381,.T.);
#389 = ORIENTED_EDGE('',*,*,#390,.T.);
#390 = EDGE_CURVE('',#382,#391,#393,.T.);
#391 = VERTEX_POINT('',#392);
#392 = CARTESIAN_POINT('',(-2.844697898691,-9.874923786323E-16,
    -4.44727030844));
#393 = CIRCLE('',#394,2.844697898691);
#394 = AXIS2_PLACEMENT_3D('',#395,#396,#397);
#395 = CARTESIAN_POINT('',(0.,-1.213230152794E-15,-4.44727030844));
#396 = DIRECTION('',(0.,-1.489329693872E-17,1.));
#397 = DIRECTION('',(0.,-1.,-1.489329693872E-17));
#398 = ORIENTED_EDGE('',*,*,#399,.T.);
#399 = EDGE_CURVE('',#391,#382,#400,.T.);
#400 = CIRCLE('',#401,2.844697898691);
#401 = AXIS2_PLACEMENT_3D('',#402,#403,#404);
#402 = CARTESIAN_POINT('',(0.,-1.213230152794E-15,-4.44727030844));
#403 = DIRECTION('',(0.,-1.489329693872E-17,1.));
#404 = DIRECTION('',(0.,-1.,-1.489329693872E-17));
#405 = CONICAL_SURFACE('',#406,3.,3.490658503989E-02);
#406 = AXIS2_PLACEMENT_3D('',#407,#408,#409);
#407 = CARTESIAN_POINT('',(0.,0.,0.));
#408 = DIRECTION('',(0.,0.,1.));
#409 = DIRECTION('',(1.,0.,0.));
#410 = ADVANCED_FACE('',(#411),#422,.F.);
#411 = FACE_BOUND('',#412,.T.);
#412 = EDGE_LOOP('',(#413,#419,#420,#421));
#413 = ORIENTED_EDGE('',*,*,#414,.F.);
#414 = EDGE_CURVE('',#194,#268,#415,.T.);
#415 = LINE('',#416,#417);
#416 = CARTESIAN_POINT('',(-1.7,11.,0.));
#417 = VECTOR('',#418,1.);
#418 = DIRECTION('',(6.217248937901E-17,0.,1.));
#419 = ORIENTED_EDGE('',*,*,#193,.T.);
#420 = ORIENTED_EDGE('',*,*,#414,.T.);
#421 = ORIENTED_EDGE('',*,*,#267,.T.);
#422 = CYLINDRICAL_SURFACE('',#423,1.7);
#423 = AXIS2_PLACEMENT_3D('',#424,#425,#426);
#424 = CARTESIAN_POINT('',(0.,11.,0.));
#425 = DIRECTION('',(0.,0.,1.));
#426 = DIRECTION('',(-1.,0.,0.));
#427 = ADVANCED_FACE('',(#428),#442,.F.);
#428 = FACE_BOUND('',#429,.F.);
#429 = EDGE_LOOP('',(#430,#439,#440,#441));
#430 = ORIENTED_EDGE('',*,*,#431,.F.);
#431 = EDGE_CURVE('',#432,#391,#434,.T.);
#432 = VERTEX_POINT('',#433);
#433 = CARTESIAN_POINT('',(-1.83697021945E-16,-5.329070518201E-16,-2.4)
  );
#434 = CIRCLE('',#435,3.);
#435 = AXIS2_PLACEMENT_3D('',#436,#437,#438);
#436 = CARTESIAN_POINT('',(0.,-1.199040866595E-15,-5.4));
#437 = DIRECTION('',(0.,-1.,2.22044604925E-16));
#438 = DIRECTION('',(1.,0.,0.));
#439 = ORIENTED_EDGE('',*,*,#431,.T.);
#440 = ORIENTED_EDGE('',*,*,#399,.T.);
#441 = ORIENTED_EDGE('',*,*,#390,.T.);
#442 = SPHERICAL_SURFACE('',#443,3.);
#443 = AXIS2_PLACEMENT_3D('',#444,#445,#446);
#444 = CARTESIAN_POINT('',(0.,-1.199040866595E-15,-5.4));
#445 = DIRECTION('',(-0.,-2.22044604925E-16,-1.));
#446 = DIRECTION('',(-1.,0.,0.));
#447 = ( GEOMETRIC_REPRESENTATION_CONTEXT(3) 
GLOBAL_UNCERTAINTY_ASSIGNED_CONTEXT((#451)) GLOBAL_UNIT_ASSIGNED_CONTEXT
((#448,#449,#450)) REPRESENTATION_CONTEXT('Context #1',
  '3D Context with UNIT and UNCERTAINTY') );
#448 = ( LENGTH_UNIT() NAMED_UNIT(*) SI_UNIT(.MILLI.,.METRE.) );
#449 = ( NAMED_UNIT(*) PLANE_ANGLE_UNIT() SI_UNIT($,.RADIAN.) );
#450 = ( NAMED_UNIT(*) SI_UNIT($,.STERADIAN.) SOLID_ANGLE_UNIT() );
#451 = UNCERTAINTY_MEASURE_WITH_UNIT(LENGTH_MEASURE(1.E-07),#448,
  'distance_accuracy_value','confusion accuracy');
#452 = PRODUCT_RELATED_PRODUCT_CATEGORY('part',$,(#7));
#453 = MECHANICAL_DESIGN_GEOMETRIC_PRESENTATION_REPRESENTATION('',(#454)
  ,#447);
#454 = STYLED_ITEM('color',(#455),#15);
#455 = PRESENTATION_STYLE_ASSIGNMENT((#456,#462));
#456 = SURFACE_STYLE_USAGE(.BOTH.,#457);
#457 = SURFACE_SIDE_STYLE('',(#458));
#458 = SURFACE_STYLE_FILL_AREA(#459);
#459 = FILL_AREA_STYLE('',(#460));
#460 = FILL_AREA_STYLE_COLOUR('',#461);
#461 = COLOUR_RGB('',0.168627456984,0.207843135047,0.949019609525);
#462 = CURVE_STYLE('',#463,POSITIVE_LENGTH_MEASURE(0.1),#464);
#463 = DRAUGHTING_PRE_DEFINED_CURVE_FONT('continuous');
#464 = COLOUR_RGB('',9.803921802644E-02,9.803921802644E-02,
  9.803921802644E-02);
ENDSEC;
END-ISO-10303-21;
