ISO-10303-21;
HEADER;
FILE_DESCRIPTION(('FreeCAD Model'),'2;1');
FILE_NAME('Open CASCADE Shape Model','2025-08-28T21:37:40',(''),(''),
  'Open CASCADE STEP processor 7.9','FreeCAD','Unknown');
FILE_SCHEMA(('AUTOMOTIVE_DESIGN { 1 0 10303 214 1 1 1 1 }'));
ENDSEC;
DATA;
#1 = APPLICATION_PROTOCOL_DEFINITION('international standard',
  'automotive_design',2000,#2);
#2 = APPLICATION_CONTEXT(
  'core data for automotive mechanical design processes');
#3 = SHAPE_DEFINITION_REPRESENTATION(#4,#10);
#4 = PRODUCT_DEFINITION_SHAPE('','',#5);
#5 = PRODUCT_DEFINITION('design','',#6,#9);
#6 = PRODUCT_DEFINITION_FORMATION('','',#7);
#7 = PRODUCT('Body007','Body007','',(#8));
#8 = PRODUCT_CONTEXT('',#2,'mechanical');
#9 = PRODUCT_DEFINITION_CONTEXT('part definition',#2,'design');
#10 = ADVANCED_BREP_SHAPE_REPRESENTATION('',(#11,#15),#658);
#11 = AXIS2_PLACEMENT_3D('',#12,#13,#14);
#12 = CARTESIAN_POINT('',(0.,0.,0.));
#13 = DIRECTION('',(0.,0.,1.));
#14 = DIRECTION('',(1.,0.,-0.));
#15 = MANIFOLD_SOLID_BREP('',#16);
#16 = CLOSED_SHELL('',(#17,#50,#76,#113,#214,#291,#323,#347,#371,#396,
    #421,#445,#469,#487,#512,#537,#557,#590,#616,#641));
#17 = ADVANCED_FACE('',(#18),#45,.T.);
#18 = FACE_BOUND('',#19,.F.);
#19 = EDGE_LOOP('',(#20,#30,#37,#38));
#20 = ORIENTED_EDGE('',*,*,#21,.F.);
#21 = EDGE_CURVE('',#22,#24,#26,.T.);
#22 = VERTEX_POINT('',#23);
#23 = CARTESIAN_POINT('',(5.,0.,-0.5));
#24 = VERTEX_POINT('',#25);
#25 = CARTESIAN_POINT('',(5.,-2.22044604925E-16,-1.));
#26 = LINE('',#27,#28);
#27 = CARTESIAN_POINT('',(5.,0.,0.));
#28 = VECTOR('',#29,1.);
#29 = DIRECTION('',(0.,0.,-1.));
#30 = ORIENTED_EDGE('',*,*,#31,.F.);
#31 = EDGE_CURVE('',#22,#22,#32,.T.);
#32 = CIRCLE('',#33,5.);
#33 = AXIS2_PLACEMENT_3D('',#34,#35,#36);
#34 = CARTESIAN_POINT('',(0.,0.,-0.5));
#35 = DIRECTION('',(0.,0.,-1.));
#36 = DIRECTION('',(1.,0.,0.));
#37 = ORIENTED_EDGE('',*,*,#21,.T.);
#38 = ORIENTED_EDGE('',*,*,#39,.F.);
#39 = EDGE_CURVE('',#24,#24,#40,.T.);
#40 = CIRCLE('',#41,5.);
#41 = AXIS2_PLACEMENT_3D('',#42,#43,#44);
#42 = CARTESIAN_POINT('',(0.,-2.22044604925E-16,-1.));
#43 = DIRECTION('',(-0.,2.22044604925E-16,1.));
#44 = DIRECTION('',(1.,0.,0.));
#45 = CYLINDRICAL_SURFACE('',#46,5.);
#46 = AXIS2_PLACEMENT_3D('',#47,#48,#49);
#47 = CARTESIAN_POINT('',(0.,0.,0.));
#48 = DIRECTION('',(0.,0.,1.));
#49 = DIRECTION('',(1.,0.,0.));
#50 = ADVANCED_FACE('',(#51),#71,.F.);
#51 = FACE_BOUND('',#52,.F.);
#52 = EDGE_LOOP('',(#53,#62,#63,#64));
#53 = ORIENTED_EDGE('',*,*,#54,.F.);
#54 = EDGE_CURVE('',#22,#55,#57,.T.);
#55 = VERTEX_POINT('',#56);
#56 = CARTESIAN_POINT('',(5.5,0.,0.));
#57 = CIRCLE('',#58,0.5);
#58 = AXIS2_PLACEMENT_3D('',#59,#60,#61);
#59 = CARTESIAN_POINT('',(5.5,0.,-0.5));
#60 = DIRECTION('',(-0.,1.,0.));
#61 = DIRECTION('',(1.,0.,0.));
#62 = ORIENTED_EDGE('',*,*,#31,.T.);
#63 = ORIENTED_EDGE('',*,*,#54,.T.);
#64 = ORIENTED_EDGE('',*,*,#65,.F.);
#65 = EDGE_CURVE('',#55,#55,#66,.T.);
#66 = CIRCLE('',#67,5.5);
#67 = AXIS2_PLACEMENT_3D('',#68,#69,#70);
#68 = CARTESIAN_POINT('',(0.,0.,0.));
#69 = DIRECTION('',(0.,0.,-1.));
#70 = DIRECTION('',(1.,0.,0.));
#71 = TOROIDAL_SURFACE('',#72,5.5,0.5);
#72 = AXIS2_PLACEMENT_3D('',#73,#74,#75);
#73 = CARTESIAN_POINT('',(0.,0.,-0.5));
#74 = DIRECTION('',(-0.,-0.,-1.));
#75 = DIRECTION('',(1.,0.,0.));
#76 = ADVANCED_FACE('',(#77),#108,.T.);
#77 = FACE_BOUND('',#78,.T.);
#78 = EDGE_LOOP('',(#79,#88,#106,#107));
#79 = ORIENTED_EDGE('',*,*,#80,.F.);
#80 = EDGE_CURVE('',#81,#24,#83,.T.);
#81 = VERTEX_POINT('',#82);
#82 = CARTESIAN_POINT('',(3.307189138831,-1.054711873394E-15,-4.75));
#83 = CIRCLE('',#84,5.);
#84 = AXIS2_PLACEMENT_3D('',#85,#86,#87);
#85 = CARTESIAN_POINT('',(0.,-2.22044604925E-16,-1.));
#86 = DIRECTION('',(0.,-1.,2.22044604925E-16));
#87 = DIRECTION('',(1.,0.,0.));
#88 = ORIENTED_EDGE('',*,*,#89,.T.);
#89 = EDGE_CURVE('',#81,#81,#90,.T.);
#90 = ( BOUNDED_CURVE() B_SPLINE_CURVE(14,(#91,#92,#93,#94,#95,#96,#97,
    #98,#99,#100,#101,#102,#103,#104,#105),.UNSPECIFIED.,.T.,.F.) 
B_SPLINE_CURVE_WITH_KNOTS((15,15),(3.727866610708E-16,18.849555921539),
.PIECEWISE_BEZIER_KNOTS.) CURVE() GEOMETRIC_REPRESENTATION_ITEM() 
RATIONAL_B_SPLINE_CURVE((1.,1.,0.999999999999,1.000000000002,
    0.999999999996,1.000000000006,0.999999999994,1.000000000006,
    0.999999999995,1.000000000003,0.999999999998,1.000000000001,1.,1.,1.
)) REPRESENTATION_ITEM('') );
#91 = CARTESIAN_POINT('',(3.307189138831,-1.054711873394E-15,-4.75));
#92 = CARTESIAN_POINT('',(3.30718913883,1.462792105895,-4.75));
#93 = CARTESIAN_POINT('',(2.610536519661,2.956722447145,-4.75));
#94 = CARTESIAN_POINT('',(1.168104970529,4.092408713569,-4.75));
#95 = CARTESIAN_POINT('',(-0.799267880963,4.465768349472,-4.75));
#96 = CARTESIAN_POINT('',(-2.837239870043,3.72673448974,-4.75));
#97 = CARTESIAN_POINT('',(-4.204387338462,2.263497118113,-4.75));
#98 = CARTESIAN_POINT('',(-5.069258061218,5.42066669329E-11,-4.75));
#99 = CARTESIAN_POINT('',(-4.204387338455,-2.263497118208,-4.75));
#100 = CARTESIAN_POINT('',(-2.837239870051,-3.726734489674,-4.75));
#101 = CARTESIAN_POINT('',(-0.799267880961,-4.465768349509,-4.75));
#102 = CARTESIAN_POINT('',(1.168104970531,-4.092408713552,-4.75));
#103 = CARTESIAN_POINT('',(2.610536519659,-2.956722447151,-4.75));
#104 = CARTESIAN_POINT('',(3.307189138831,-1.462792105893,-4.75));
#105 = CARTESIAN_POINT('',(3.307189138831,-1.864739592003E-15,-4.75));
#106 = ORIENTED_EDGE('',*,*,#80,.T.);
#107 = ORIENTED_EDGE('',*,*,#39,.F.);
#108 = SPHERICAL_SURFACE('',#109,5.);
#109 = AXIS2_PLACEMENT_3D('',#110,#111,#112);
#110 = CARTESIAN_POINT('',(0.,-2.22044604925E-16,-1.));
#111 = DIRECTION('',(0.,2.22044604925E-16,1.));
#112 = DIRECTION('',(1.,0.,0.));
#113 = ADVANCED_FACE('',(#114,#117,#187,#198),#209,.F.);
#114 = FACE_BOUND('',#115,.F.);
#115 = EDGE_LOOP('',(#116));
#116 = ORIENTED_EDGE('',*,*,#65,.T.);
#117 = FACE_BOUND('',#118,.F.);
#118 = EDGE_LOOP('',(#119,#130,#138,#147,#155,#164,#172,#181));
#119 = ORIENTED_EDGE('',*,*,#120,.T.);
#120 = EDGE_CURVE('',#121,#123,#125,.T.);
#121 = VERTEX_POINT('',#122);
#122 = CARTESIAN_POINT('',(3.260393353904,12.27272745622,0.));
#123 = VERTEX_POINT('',#124);
#124 = CARTESIAN_POINT('',(-3.260393359084,12.272727442952,0.));
#125 = CIRCLE('',#126,3.5);
#126 = AXIS2_PLACEMENT_3D('',#127,#128,#129);
#127 = CARTESIAN_POINT('',(-7.49636572124E-25,11.,0.));
#128 = DIRECTION('',(0.,0.,1.));
#129 = DIRECTION('',(1.,0.,0.));
#130 = ORIENTED_EDGE('',*,*,#131,.T.);
#131 = EDGE_CURVE('',#123,#132,#134,.T.);
#132 = VERTEX_POINT('',#133);
#133 = CARTESIAN_POINT('',(-6.986557340427,2.727272727273,0.));
#134 = LINE('',#135,#136);
#135 = CARTESIAN_POINT('',(-3.260393359084,12.272727442952,0.));
#136 = VECTOR('',#137,1.);
#137 = DIRECTION('',(-0.363636363636,-0.931540978724,0.));
#138 = ORIENTED_EDGE('',*,*,#139,.T.);
#139 = EDGE_CURVE('',#132,#140,#142,.T.);
#140 = VERTEX_POINT('',#141);
#141 = CARTESIAN_POINT('',(-6.986557340427,-2.727272727273,0.));
#142 = CIRCLE('',#143,7.5);
#143 = AXIS2_PLACEMENT_3D('',#144,#145,#146);
#144 = CARTESIAN_POINT('',(0.,9.37267238615E-45,0.));
#145 = DIRECTION('',(0.,0.,1.));
#146 = DIRECTION('',(1.,0.,0.));
#147 = ORIENTED_EDGE('',*,*,#148,.F.);
#148 = EDGE_CURVE('',#149,#140,#151,.T.);
#149 = VERTEX_POINT('',#150);
#150 = CARTESIAN_POINT('',(-3.260393495533,-12.2727270934,0.));
#151 = LINE('',#152,#153);
#152 = CARTESIAN_POINT('',(-3.260393495533,-12.2727270934,0.));
#153 = VECTOR('',#154,1.);
#154 = DIRECTION('',(-0.363636363636,0.931540978724,0.));
#155 = ORIENTED_EDGE('',*,*,#156,.T.);
#156 = EDGE_CURVE('',#149,#157,#159,.T.);
#157 = VERTEX_POINT('',#158);
#158 = CARTESIAN_POINT('',(3.260387848531,-12.27274155944,0.));
#159 = CIRCLE('',#160,3.5);
#160 = AXIS2_PLACEMENT_3D('',#161,#162,#163);
#161 = CARTESIAN_POINT('',(-1.071627355353E-22,-11.,0.));
#162 = DIRECTION('',(0.,0.,1.));
#163 = DIRECTION('',(1.,0.,0.));
#164 = ORIENTED_EDGE('',*,*,#165,.T.);
#165 = EDGE_CURVE('',#157,#166,#168,.T.);
#166 = VERTEX_POINT('',#167);
#167 = CARTESIAN_POINT('',(6.986557340427,-2.727272727273,0.));
#168 = LINE('',#169,#170);
#169 = CARTESIAN_POINT('',(3.260387848531,-12.27274155944,0.));
#170 = VECTOR('',#171,1.);
#171 = DIRECTION('',(0.363636363639,0.931540978722,0.));
#172 = ORIENTED_EDGE('',*,*,#173,.T.);
#173 = EDGE_CURVE('',#166,#174,#176,.T.);
#174 = VERTEX_POINT('',#175);
#175 = CARTESIAN_POINT('',(6.986557340427,2.727272727273,0.));
#176 = CIRCLE('',#177,7.5);
#177 = AXIS2_PLACEMENT_3D('',#178,#179,#180);
#178 = CARTESIAN_POINT('',(0.,9.37267238615E-45,0.));
#179 = DIRECTION('',(0.,0.,1.));
#180 = DIRECTION('',(1.,0.,0.));
#181 = ORIENTED_EDGE('',*,*,#182,.F.);
#182 = EDGE_CURVE('',#121,#174,#183,.T.);
#183 = LINE('',#184,#185);
#184 = CARTESIAN_POINT('',(3.260393353904,12.27272745622,0.));
#185 = VECTOR('',#186,1.);
#186 = DIRECTION('',(0.363636363636,-0.931540978724,0.));
#187 = FACE_BOUND('',#188,.F.);
#188 = EDGE_LOOP('',(#189));
#189 = ORIENTED_EDGE('',*,*,#190,.T.);
#190 = EDGE_CURVE('',#191,#191,#193,.T.);
#191 = VERTEX_POINT('',#192);
#192 = CARTESIAN_POINT('',(-1.7,-11.,0.));
#193 = CIRCLE('',#194,1.7);
#194 = AXIS2_PLACEMENT_3D('',#195,#196,#197);
#195 = CARTESIAN_POINT('',(0.,-11.,0.));
#196 = DIRECTION('',(0.,0.,-1.));
#197 = DIRECTION('',(-1.,0.,0.));
#198 = FACE_BOUND('',#199,.F.);
#199 = EDGE_LOOP('',(#200));
#200 = ORIENTED_EDGE('',*,*,#201,.T.);
#201 = EDGE_CURVE('',#202,#202,#204,.T.);
#202 = VERTEX_POINT('',#203);
#203 = CARTESIAN_POINT('',(-1.7,11.,0.));
#204 = CIRCLE('',#205,1.7);
#205 = AXIS2_PLACEMENT_3D('',#206,#207,#208);
#206 = CARTESIAN_POINT('',(0.,11.,0.));
#207 = DIRECTION('',(0.,0.,-1.));
#208 = DIRECTION('',(-1.,0.,0.));
#209 = PLANE('',#210);
#210 = AXIS2_PLACEMENT_3D('',#211,#212,#213);
#211 = CARTESIAN_POINT('',(5.829855075116E-08,-2.996291743716E-07,0.));
#212 = DIRECTION('',(0.,0.,1.));
#213 = DIRECTION('',(1.,0.,0.));
#214 = ADVANCED_FACE('',(#215),#245,.T.);
#215 = FACE_BOUND('',#216,.T.);
#216 = EDGE_LOOP('',(#217,#225,#243,#244));
#217 = ORIENTED_EDGE('',*,*,#218,.T.);
#218 = EDGE_CURVE('',#81,#219,#221,.T.);
#219 = VERTEX_POINT('',#220);
#220 = CARTESIAN_POINT('',(2.645751311065,-1.110223024625E-15,-5.));
#221 = ( BOUNDED_CURVE() B_SPLINE_CURVE(2,(#222,#223,#224),
.UNSPECIFIED.,.F.,.F.) B_SPLINE_CURVE_WITH_KNOTS((3,3),(0.,
18.849555921539),.PIECEWISE_BEZIER_KNOTS.) CURVE() 
GEOMETRIC_REPRESENTATION_ITEM() RATIONAL_B_SPLINE_CURVE((1.,
0.935414346693,1.)) REPRESENTATION_ITEM('') );
#222 = CARTESIAN_POINT('',(3.307189138831,-1.054711873394E-15,-4.75));
#223 = CARTESIAN_POINT('',(3.023715784074,6.175615574477E-16,-5.));
#224 = CARTESIAN_POINT('',(2.645751311065,-1.110223024625E-15,-5.));
#225 = ORIENTED_EDGE('',*,*,#226,.T.);
#226 = EDGE_CURVE('',#219,#219,#227,.T.);
#227 = ( BOUNDED_CURVE() B_SPLINE_CURVE(14,(#228,#229,#230,#231,#232,
    #233,#234,#235,#236,#237,#238,#239,#240,#241,#242),.UNSPECIFIED.,.T.
,.F.) B_SPLINE_CURVE_WITH_KNOTS((15,15),(3.727866610708E-16,
18.849555921539),.PIECEWISE_BEZIER_KNOTS.) CURVE() 
GEOMETRIC_REPRESENTATION_ITEM() RATIONAL_B_SPLINE_CURVE((1.,1.,
    0.999999999999,1.000000000002,0.999999999996,1.000000000006,
    0.999999999994,1.000000000006,0.999999999995,1.000000000003,
0.999999999998,1.000000000001,1.,1.,1.)) REPRESENTATION_ITEM('') );
#228 = CARTESIAN_POINT('',(2.645751311065,-1.110223024625E-15,-5.));
#229 = CARTESIAN_POINT('',(2.645751311065,1.170233684716,-5.));
#230 = CARTESIAN_POINT('',(2.088429215727,2.365377957716,-5.));
#231 = CARTESIAN_POINT('',(0.934483976428,3.273926970854,-5.));
#232 = CARTESIAN_POINT('',(-0.639414304779,3.57261467958,-5.));
#233 = CARTESIAN_POINT('',(-2.269791896021,2.981387591789,
    -4.999999999999));
#234 = CARTESIAN_POINT('',(-3.363509870788,1.810797694495,
    -5.000000000001));
#235 = CARTESIAN_POINT('',(-4.055406448954,3.818925731203E-11,
    -4.999999999999));
#236 = CARTESIAN_POINT('',(-3.363509870782,-1.810797694562,
    -5.000000000001));
#237 = CARTESIAN_POINT('',(-2.269791896028,-2.981387591742,
    -4.999999999999));
#238 = CARTESIAN_POINT('',(-0.639414304776,-3.572614679606,-5.));
#239 = CARTESIAN_POINT('',(0.934483976429,-3.273926970841,-5.));
#240 = CARTESIAN_POINT('',(2.088429215726,-2.365377957721,-5.));
#241 = CARTESIAN_POINT('',(2.645751311065,-1.170233684715,-5.));
#242 = CARTESIAN_POINT('',(2.645751311065,-1.110223024625E-15,-5.));
#243 = ORIENTED_EDGE('',*,*,#218,.F.);
#244 = ORIENTED_EDGE('',*,*,#89,.F.);
#245 = ( BOUNDED_SURFACE() B_SPLINE_SURFACE(2,14,(
    (#246,#247,#248,#249,#250,#251,#252,#253,#254,#255,#256,#257,#258
      ,#259,#260)
    ,(#261,#262,#263,#264,#265,#266,#267,#268,#269,#270,#271,#272,#273
      ,#274,#275)
    ,(#276,#277,#278,#279,#280,#281,#282,#283,#284,#285,#286,#287,#288
      ,#289,#290
)),.UNSPECIFIED.,.F.,.T.,.F.) B_SPLINE_SURFACE_WITH_KNOTS((3,3),(15,15),
  (0.,18.849555921539),(3.727866610708E-16,18.849555921539),
.PIECEWISE_BEZIER_KNOTS.) GEOMETRIC_REPRESENTATION_ITEM() 
RATIONAL_B_SPLINE_SURFACE((
    (1.,1.,0.999999999999,1.000000000002,0.999999999996,1.000000000006
      ,0.999999999994,1.000000000006,0.999999999995,1.000000000003
      ,0.999999999998,1.000000000001,1.,1.,1.)
    ,(0.935414346693,0.935414346694,0.935414346693,0.935414346695
      ,0.935414346691,0.935414346696,0.935414346691,0.935414346696
      ,0.935414346692,0.935414346694,0.935414346693,0.935414346694
      ,0.935414346693,0.935414346693,0.935414346693)
    ,(1.,1.,0.999999999999,1.000000000002,0.999999999996,1.000000000006
      ,0.999999999994,1.000000000006,0.999999999995,1.000000000003
,0.999999999998,1.000000000001,1.,1.,1.
))) REPRESENTATION_ITEM('') SURFACE() );
#246 = CARTESIAN_POINT('',(3.307189138831,-1.054711873394E-15,-4.75));
#247 = CARTESIAN_POINT('',(3.30718913883,1.462792105895,-4.75));
#248 = CARTESIAN_POINT('',(2.610536519661,2.956722447145,-4.75));
#249 = CARTESIAN_POINT('',(1.168104970529,4.092408713569,-4.75));
#250 = CARTESIAN_POINT('',(-0.799267880963,4.465768349472,-4.75));
#251 = CARTESIAN_POINT('',(-2.837239870043,3.72673448974,-4.75));
#252 = CARTESIAN_POINT('',(-4.204387338462,2.263497118113,-4.75));
#253 = CARTESIAN_POINT('',(-5.069258061218,5.42066669329E-11,-4.75));
#254 = CARTESIAN_POINT('',(-4.204387338455,-2.263497118208,-4.75));
#255 = CARTESIAN_POINT('',(-2.837239870051,-3.726734489674,-4.75));
#256 = CARTESIAN_POINT('',(-0.799267880961,-4.465768349509,-4.75));
#257 = CARTESIAN_POINT('',(1.168104970531,-4.092408713552,-4.75));
#258 = CARTESIAN_POINT('',(2.610536519659,-2.956722447151,-4.75));
#259 = CARTESIAN_POINT('',(3.307189138831,-1.462792105893,-4.75));
#260 = CARTESIAN_POINT('',(3.307189138831,-1.864739592003E-15,-4.75));
#261 = CARTESIAN_POINT('',(3.023715784074,6.175615574477E-16,-5.));
#262 = CARTESIAN_POINT('',(3.023715784074,1.33740992539,-5.));
#263 = CARTESIAN_POINT('',(2.386776246546,2.703289094531,-5.));
#264 = CARTESIAN_POINT('',(1.067981687343,3.741630823838,-5.));
#265 = CARTESIAN_POINT('',(-0.730759205453,4.082988205224,-5.));
#266 = CARTESIAN_POINT('',(-2.594047881185,3.407300104917,-5.));
#267 = CARTESIAN_POINT('',(-3.844011280874,2.069483079407,-5.));
#268 = CARTESIAN_POINT('',(-4.634750227407,5.483490614702E-11,-5.));
#269 = CARTESIAN_POINT('',(-3.84401128087,-2.069483079504,-5.));
#270 = CARTESIAN_POINT('',(-2.594047881188,-3.407300104847,-5.));
#271 = CARTESIAN_POINT('',(-0.730759205453,-4.082988205264,-5.));
#272 = CARTESIAN_POINT('',(1.067981687345,-3.741630823819,-5.));
#273 = CARTESIAN_POINT('',(2.386776246544,-2.703289094538,-5.));
#274 = CARTESIAN_POINT('',(3.023715784074,-1.337409925388,-5.));
#275 = CARTESIAN_POINT('',(3.023715784074,4.415738608099E-15,-5.));
#276 = CARTESIAN_POINT('',(2.645751311065,-1.110223024625E-15,-5.));
#277 = CARTESIAN_POINT('',(2.645751311065,1.170233684716,-5.));
#278 = CARTESIAN_POINT('',(2.088429215727,2.365377957716,-5.));
#279 = CARTESIAN_POINT('',(0.934483976428,3.273926970854,-5.));
#280 = CARTESIAN_POINT('',(-0.639414304779,3.57261467958,-5.));
#281 = CARTESIAN_POINT('',(-2.269791896021,2.981387591789,
    -4.999999999999));
#282 = CARTESIAN_POINT('',(-3.363509870788,1.810797694495,
    -5.000000000001));
#283 = CARTESIAN_POINT('',(-4.055406448954,3.818925731203E-11,
    -4.999999999999));
#284 = CARTESIAN_POINT('',(-3.363509870782,-1.810797694562,
    -5.000000000001));
#285 = CARTESIAN_POINT('',(-2.269791896028,-2.981387591742,
    -4.999999999999));
#286 = CARTESIAN_POINT('',(-0.639414304776,-3.572614679606,-5.));
#287 = CARTESIAN_POINT('',(0.934483976429,-3.273926970841,-5.));
#288 = CARTESIAN_POINT('',(2.088429215726,-2.365377957721,-5.));
#289 = CARTESIAN_POINT('',(2.645751311065,-1.170233684715,-5.));
#290 = CARTESIAN_POINT('',(2.645751311065,-1.110223024625E-15,-5.));
#291 = ADVANCED_FACE('',(#292),#318,.T.);
#292 = FACE_BOUND('',#293,.F.);
#293 = EDGE_LOOP('',(#294,#302,#311,#317));
#294 = ORIENTED_EDGE('',*,*,#295,.T.);
#295 = EDGE_CURVE('',#121,#296,#298,.T.);
#296 = VERTEX_POINT('',#297);
#297 = CARTESIAN_POINT('',(3.260393353904,12.27272745622,2.));
#298 = LINE('',#299,#300);
#299 = CARTESIAN_POINT('',(3.260393353904,12.27272745622,0.));
#300 = VECTOR('',#301,1.);
#301 = DIRECTION('',(0.,0.,1.));
#302 = ORIENTED_EDGE('',*,*,#303,.T.);
#303 = EDGE_CURVE('',#296,#304,#306,.T.);
#304 = VERTEX_POINT('',#305);
#305 = CARTESIAN_POINT('',(-3.260393359084,12.272727442952,2.));
#306 = CIRCLE('',#307,3.5);
#307 = AXIS2_PLACEMENT_3D('',#308,#309,#310);
#308 = CARTESIAN_POINT('',(-7.49636572124E-25,11.,2.));
#309 = DIRECTION('',(0.,0.,1.));
#310 = DIRECTION('',(1.,0.,0.));
#311 = ORIENTED_EDGE('',*,*,#312,.F.);
#312 = EDGE_CURVE('',#123,#304,#313,.T.);
#313 = LINE('',#314,#315);
#314 = CARTESIAN_POINT('',(-3.260393359084,12.272727442952,0.));
#315 = VECTOR('',#316,1.);
#316 = DIRECTION('',(0.,0.,1.));
#317 = ORIENTED_EDGE('',*,*,#120,.F.);
#318 = CYLINDRICAL_SURFACE('',#319,3.5);
#319 = AXIS2_PLACEMENT_3D('',#320,#321,#322);
#320 = CARTESIAN_POINT('',(-7.49636572124E-25,11.,0.));
#321 = DIRECTION('',(-0.,-0.,-1.));
#322 = DIRECTION('',(1.,0.,0.));
#323 = ADVANCED_FACE('',(#324),#342,.T.);
#324 = FACE_BOUND('',#325,.T.);
#325 = EDGE_LOOP('',(#326,#327,#335,#341));
#326 = ORIENTED_EDGE('',*,*,#295,.T.);
#327 = ORIENTED_EDGE('',*,*,#328,.T.);
#328 = EDGE_CURVE('',#296,#329,#331,.T.);
#329 = VERTEX_POINT('',#330);
#330 = CARTESIAN_POINT('',(6.986557340427,2.727272727273,2.));
#331 = LINE('',#332,#333);
#332 = CARTESIAN_POINT('',(3.260393353904,12.27272745622,2.));
#333 = VECTOR('',#334,1.);
#334 = DIRECTION('',(0.363636363636,-0.931540978724,0.));
#335 = ORIENTED_EDGE('',*,*,#336,.F.);
#336 = EDGE_CURVE('',#174,#329,#337,.T.);
#337 = LINE('',#338,#339);
#338 = CARTESIAN_POINT('',(6.986557340427,2.727272727273,0.));
#339 = VECTOR('',#340,1.);
#340 = DIRECTION('',(0.,0.,1.));
#341 = ORIENTED_EDGE('',*,*,#182,.F.);
#342 = PLANE('',#343);
#343 = AXIS2_PLACEMENT_3D('',#344,#345,#346);
#344 = CARTESIAN_POINT('',(3.260393353904,12.27272745622,0.));
#345 = DIRECTION('',(0.931540978724,0.363636363636,0.));
#346 = DIRECTION('',(0.363636363636,-0.931540978724,0.));
#347 = ADVANCED_FACE('',(#348),#366,.F.);
#348 = FACE_BOUND('',#349,.F.);
#349 = EDGE_LOOP('',(#350,#351,#359,#365));
#350 = ORIENTED_EDGE('',*,*,#312,.T.);
#351 = ORIENTED_EDGE('',*,*,#352,.T.);
#352 = EDGE_CURVE('',#304,#353,#355,.T.);
#353 = VERTEX_POINT('',#354);
#354 = CARTESIAN_POINT('',(-6.986557340427,2.727272727273,2.));
#355 = LINE('',#356,#357);
#356 = CARTESIAN_POINT('',(-3.260393359084,12.272727442952,2.));
#357 = VECTOR('',#358,1.);
#358 = DIRECTION('',(-0.363636363636,-0.931540978724,0.));
#359 = ORIENTED_EDGE('',*,*,#360,.F.);
#360 = EDGE_CURVE('',#132,#353,#361,.T.);
#361 = LINE('',#362,#363);
#362 = CARTESIAN_POINT('',(-6.986557340427,2.727272727273,0.));
#363 = VECTOR('',#364,1.);
#364 = DIRECTION('',(0.,0.,1.));
#365 = ORIENTED_EDGE('',*,*,#131,.F.);
#366 = PLANE('',#367);
#367 = AXIS2_PLACEMENT_3D('',#368,#369,#370);
#368 = CARTESIAN_POINT('',(-3.260393359084,12.272727442952,0.));
#369 = DIRECTION('',(0.931540978724,-0.363636363636,0.));
#370 = DIRECTION('',(-0.363636363636,-0.931540978724,0.));
#371 = ADVANCED_FACE('',(#372),#391,.T.);
#372 = FACE_BOUND('',#373,.F.);
#373 = EDGE_LOOP('',(#374,#382,#389,#390));
#374 = ORIENTED_EDGE('',*,*,#375,.T.);
#375 = EDGE_CURVE('',#166,#376,#378,.T.);
#376 = VERTEX_POINT('',#377);
#377 = CARTESIAN_POINT('',(6.986557340427,-2.727272727273,2.));
#378 = LINE('',#379,#380);
#379 = CARTESIAN_POINT('',(6.986557340427,-2.727272727273,0.));
#380 = VECTOR('',#381,1.);
#381 = DIRECTION('',(0.,0.,1.));
#382 = ORIENTED_EDGE('',*,*,#383,.T.);
#383 = EDGE_CURVE('',#376,#329,#384,.T.);
#384 = CIRCLE('',#385,7.5);
#385 = AXIS2_PLACEMENT_3D('',#386,#387,#388);
#386 = CARTESIAN_POINT('',(0.,9.37267238615E-45,2.));
#387 = DIRECTION('',(0.,0.,1.));
#388 = DIRECTION('',(1.,0.,0.));
#389 = ORIENTED_EDGE('',*,*,#336,.F.);
#390 = ORIENTED_EDGE('',*,*,#173,.F.);
#391 = CYLINDRICAL_SURFACE('',#392,7.5);
#392 = AXIS2_PLACEMENT_3D('',#393,#394,#395);
#393 = CARTESIAN_POINT('',(0.,9.37267238615E-45,0.));
#394 = DIRECTION('',(-0.,-0.,-1.));
#395 = DIRECTION('',(1.,0.,0.));
#396 = ADVANCED_FACE('',(#397),#416,.T.);
#397 = FACE_BOUND('',#398,.F.);
#398 = EDGE_LOOP('',(#399,#400,#409,#415));
#399 = ORIENTED_EDGE('',*,*,#360,.T.);
#400 = ORIENTED_EDGE('',*,*,#401,.T.);
#401 = EDGE_CURVE('',#353,#402,#404,.T.);
#402 = VERTEX_POINT('',#403);
#403 = CARTESIAN_POINT('',(-6.986557340427,-2.727272727273,2.));
#404 = CIRCLE('',#405,7.5);
#405 = AXIS2_PLACEMENT_3D('',#406,#407,#408);
#406 = CARTESIAN_POINT('',(0.,9.37267238615E-45,2.));
#407 = DIRECTION('',(0.,0.,1.));
#408 = DIRECTION('',(1.,0.,0.));
#409 = ORIENTED_EDGE('',*,*,#410,.F.);
#410 = EDGE_CURVE('',#140,#402,#411,.T.);
#411 = LINE('',#412,#413);
#412 = CARTESIAN_POINT('',(-6.986557340427,-2.727272727273,0.));
#413 = VECTOR('',#414,1.);
#414 = DIRECTION('',(0.,0.,1.));
#415 = ORIENTED_EDGE('',*,*,#139,.F.);
#416 = CYLINDRICAL_SURFACE('',#417,7.5);
#417 = AXIS2_PLACEMENT_3D('',#418,#419,#420);
#418 = CARTESIAN_POINT('',(0.,9.37267238615E-45,0.));
#419 = DIRECTION('',(-0.,-0.,-1.));
#420 = DIRECTION('',(1.,0.,0.));
#421 = ADVANCED_FACE('',(#422),#440,.F.);
#422 = FACE_BOUND('',#423,.F.);
#423 = EDGE_LOOP('',(#424,#432,#438,#439));
#424 = ORIENTED_EDGE('',*,*,#425,.T.);
#425 = EDGE_CURVE('',#157,#426,#428,.T.);
#426 = VERTEX_POINT('',#427);
#427 = CARTESIAN_POINT('',(3.260387848531,-12.27274155944,2.));
#428 = LINE('',#429,#430);
#429 = CARTESIAN_POINT('',(3.260387848531,-12.27274155944,0.));
#430 = VECTOR('',#431,1.);
#431 = DIRECTION('',(0.,0.,1.));
#432 = ORIENTED_EDGE('',*,*,#433,.T.);
#433 = EDGE_CURVE('',#426,#376,#434,.T.);
#434 = LINE('',#435,#436);
#435 = CARTESIAN_POINT('',(3.260387848531,-12.27274155944,2.));
#436 = VECTOR('',#437,1.);
#437 = DIRECTION('',(0.363636363639,0.931540978722,0.));
#438 = ORIENTED_EDGE('',*,*,#375,.F.);
#439 = ORIENTED_EDGE('',*,*,#165,.F.);
#440 = PLANE('',#441);
#441 = AXIS2_PLACEMENT_3D('',#442,#443,#444);
#442 = CARTESIAN_POINT('',(3.260387848531,-12.27274155944,0.));
#443 = DIRECTION('',(-0.931540978722,0.363636363639,0.));
#444 = DIRECTION('',(0.363636363639,0.931540978722,0.));
#445 = ADVANCED_FACE('',(#446),#464,.T.);
#446 = FACE_BOUND('',#447,.T.);
#447 = EDGE_LOOP('',(#448,#456,#462,#463));
#448 = ORIENTED_EDGE('',*,*,#449,.T.);
#449 = EDGE_CURVE('',#149,#450,#452,.T.);
#450 = VERTEX_POINT('',#451);
#451 = CARTESIAN_POINT('',(-3.260393495533,-12.2727270934,2.));
#452 = LINE('',#453,#454);
#453 = CARTESIAN_POINT('',(-3.260393495533,-12.2727270934,0.));
#454 = VECTOR('',#455,1.);
#455 = DIRECTION('',(0.,0.,1.));
#456 = ORIENTED_EDGE('',*,*,#457,.T.);
#457 = EDGE_CURVE('',#450,#402,#458,.T.);
#458 = LINE('',#459,#460);
#459 = CARTESIAN_POINT('',(-3.260393495533,-12.2727270934,2.));
#460 = VECTOR('',#461,1.);
#461 = DIRECTION('',(-0.363636363636,0.931540978724,0.));
#462 = ORIENTED_EDGE('',*,*,#410,.F.);
#463 = ORIENTED_EDGE('',*,*,#148,.F.);
#464 = PLANE('',#465);
#465 = AXIS2_PLACEMENT_3D('',#466,#467,#468);
#466 = CARTESIAN_POINT('',(-3.260393495533,-12.2727270934,0.));
#467 = DIRECTION('',(-0.931540978724,-0.363636363636,0.));
#468 = DIRECTION('',(-0.363636363636,0.931540978724,0.));
#469 = ADVANCED_FACE('',(#470),#482,.T.);
#470 = FACE_BOUND('',#471,.F.);
#471 = EDGE_LOOP('',(#472,#473,#480,#481));
#472 = ORIENTED_EDGE('',*,*,#449,.T.);
#473 = ORIENTED_EDGE('',*,*,#474,.T.);
#474 = EDGE_CURVE('',#450,#426,#475,.T.);
#475 = CIRCLE('',#476,3.5);
#476 = AXIS2_PLACEMENT_3D('',#477,#478,#479);
#477 = CARTESIAN_POINT('',(-1.071627355353E-22,-11.,2.));
#478 = DIRECTION('',(0.,0.,1.));
#479 = DIRECTION('',(1.,0.,0.));
#480 = ORIENTED_EDGE('',*,*,#425,.F.);
#481 = ORIENTED_EDGE('',*,*,#156,.F.);
#482 = CYLINDRICAL_SURFACE('',#483,3.5);
#483 = AXIS2_PLACEMENT_3D('',#484,#485,#486);
#484 = CARTESIAN_POINT('',(-1.071627355353E-22,-11.,0.));
#485 = DIRECTION('',(-0.,-0.,-1.));
#486 = DIRECTION('',(1.,0.,0.));
#487 = ADVANCED_FACE('',(#488),#507,.F.);
#488 = FACE_BOUND('',#489,.T.);
#489 = EDGE_LOOP('',(#490,#498,#499,#500));
#490 = ORIENTED_EDGE('',*,*,#491,.F.);
#491 = EDGE_CURVE('',#191,#492,#494,.T.);
#492 = VERTEX_POINT('',#493);
#493 = CARTESIAN_POINT('',(-1.7,-11.,2.));
#494 = LINE('',#495,#496);
#495 = CARTESIAN_POINT('',(-1.7,-11.,0.));
#496 = VECTOR('',#497,1.);
#497 = DIRECTION('',(6.217248937901E-17,0.,1.));
#498 = ORIENTED_EDGE('',*,*,#190,.T.);
#499 = ORIENTED_EDGE('',*,*,#491,.T.);
#500 = ORIENTED_EDGE('',*,*,#501,.T.);
#501 = EDGE_CURVE('',#492,#492,#502,.T.);
#502 = CIRCLE('',#503,1.7);
#503 = AXIS2_PLACEMENT_3D('',#504,#505,#506);
#504 = CARTESIAN_POINT('',(0.,-11.,2.));
#505 = DIRECTION('',(0.,0.,1.));
#506 = DIRECTION('',(-1.,0.,0.));
#507 = CYLINDRICAL_SURFACE('',#508,1.7);
#508 = AXIS2_PLACEMENT_3D('',#509,#510,#511);
#509 = CARTESIAN_POINT('',(0.,-11.,0.));
#510 = DIRECTION('',(0.,0.,1.));
#511 = DIRECTION('',(-1.,0.,0.));
#512 = ADVANCED_FACE('',(#513),#532,.F.);
#513 = FACE_BOUND('',#514,.T.);
#514 = EDGE_LOOP('',(#515,#523,#524,#525));
#515 = ORIENTED_EDGE('',*,*,#516,.F.);
#516 = EDGE_CURVE('',#202,#517,#519,.T.);
#517 = VERTEX_POINT('',#518);
#518 = CARTESIAN_POINT('',(-1.7,11.,2.));
#519 = LINE('',#520,#521);
#520 = CARTESIAN_POINT('',(-1.7,11.,0.));
#521 = VECTOR('',#522,1.);
#522 = DIRECTION('',(6.217248937901E-17,0.,1.));
#523 = ORIENTED_EDGE('',*,*,#201,.T.);
#524 = ORIENTED_EDGE('',*,*,#516,.T.);
#525 = ORIENTED_EDGE('',*,*,#526,.T.);
#526 = EDGE_CURVE('',#517,#517,#527,.T.);
#527 = CIRCLE('',#528,1.7);
#528 = AXIS2_PLACEMENT_3D('',#529,#530,#531);
#529 = CARTESIAN_POINT('',(0.,11.,2.));
#530 = DIRECTION('',(0.,0.,1.));
#531 = DIRECTION('',(-1.,0.,0.));
#532 = CYLINDRICAL_SURFACE('',#533,1.7);
#533 = AXIS2_PLACEMENT_3D('',#534,#535,#536);
#534 = CARTESIAN_POINT('',(0.,11.,0.));
#535 = DIRECTION('',(0.,0.,1.));
#536 = DIRECTION('',(-1.,0.,0.));
#537 = ADVANCED_FACE('',(#538,#541),#552,.F.);
#538 = FACE_BOUND('',#539,.F.);
#539 = EDGE_LOOP('',(#540));
#540 = ORIENTED_EDGE('',*,*,#226,.T.);
#541 = FACE_BOUND('',#542,.F.);
#542 = EDGE_LOOP('',(#543));
#543 = ORIENTED_EDGE('',*,*,#544,.T.);
#544 = EDGE_CURVE('',#545,#545,#547,.T.);
#545 = VERTEX_POINT('',#546);
#546 = CARTESIAN_POINT('',(2.25,0.,-5.));
#547 = CIRCLE('',#548,2.25);
#548 = AXIS2_PLACEMENT_3D('',#549,#550,#551);
#549 = CARTESIAN_POINT('',(0.,0.,-5.));
#550 = DIRECTION('',(0.,0.,-1.));
#551 = DIRECTION('',(1.,0.,0.));
#552 = PLANE('',#553);
#553 = AXIS2_PLACEMENT_3D('',#554,#555,#556);
#554 = CARTESIAN_POINT('',(-2.734880265079E-16,-3.428682531579E-16,-5.)
  );
#555 = DIRECTION('',(0.,0.,1.));
#556 = DIRECTION('',(1.,0.,0.));
#557 = ADVANCED_FACE('',(#558,#568,#571,#582),#585,.T.);
#558 = FACE_BOUND('',#559,.T.);
#559 = EDGE_LOOP('',(#560,#561,#562,#563,#564,#565,#566,#567));
#560 = ORIENTED_EDGE('',*,*,#303,.T.);
#561 = ORIENTED_EDGE('',*,*,#352,.T.);
#562 = ORIENTED_EDGE('',*,*,#401,.T.);
#563 = ORIENTED_EDGE('',*,*,#457,.F.);
#564 = ORIENTED_EDGE('',*,*,#474,.T.);
#565 = ORIENTED_EDGE('',*,*,#433,.T.);
#566 = ORIENTED_EDGE('',*,*,#383,.T.);
#567 = ORIENTED_EDGE('',*,*,#328,.F.);
#568 = FACE_BOUND('',#569,.T.);
#569 = EDGE_LOOP('',(#570));
#570 = ORIENTED_EDGE('',*,*,#501,.F.);
#571 = FACE_BOUND('',#572,.T.);
#572 = EDGE_LOOP('',(#573));
#573 = ORIENTED_EDGE('',*,*,#574,.T.);
#574 = EDGE_CURVE('',#575,#575,#577,.T.);
#575 = VERTEX_POINT('',#576);
#576 = CARTESIAN_POINT('',(3.1,4.440892098501E-16,2.));
#577 = CIRCLE('',#578,3.1);
#578 = AXIS2_PLACEMENT_3D('',#579,#580,#581);
#579 = CARTESIAN_POINT('',(0.,4.440892098501E-16,2.));
#580 = DIRECTION('',(0.,-2.22044604925E-16,-1.));
#581 = DIRECTION('',(1.,0.,0.));
#582 = FACE_BOUND('',#583,.T.);
#583 = EDGE_LOOP('',(#584));
#584 = ORIENTED_EDGE('',*,*,#526,.F.);
#585 = PLANE('',#586);
#586 = AXIS2_PLACEMENT_3D('',#587,#588,#589);
#587 = CARTESIAN_POINT('',(5.829855075116E-08,-2.996291743716E-07,2.));
#588 = DIRECTION('',(0.,0.,1.));
#589 = DIRECTION('',(1.,0.,0.));
#590 = ADVANCED_FACE('',(#591),#611,.F.);
#591 = FACE_BOUND('',#592,.F.);
#592 = EDGE_LOOP('',(#593,#594,#603,#610));
#593 = ORIENTED_EDGE('',*,*,#544,.F.);
#594 = ORIENTED_EDGE('',*,*,#595,.T.);
#595 = EDGE_CURVE('',#545,#596,#598,.T.);
#596 = VERTEX_POINT('',#597);
#597 = CARTESIAN_POINT('',(2.833796931674,-7.891878105319E-16,
    -3.554185929437));
#598 = CIRCLE('',#599,2.85);
#599 = AXIS2_PLACEMENT_3D('',#600,#601,#602);
#600 = CARTESIAN_POINT('',(0.,-7.218036016767E-16,-3.250714431546));
#601 = DIRECTION('',(0.,-1.,2.22044604925E-16));
#602 = DIRECTION('',(1.,0.,0.));
#603 = ORIENTED_EDGE('',*,*,#604,.F.);
#604 = EDGE_CURVE('',#596,#596,#605,.T.);
#605 = CIRCLE('',#606,2.833796931674);
#606 = AXIS2_PLACEMENT_3D('',#607,#608,#609);
#607 = CARTESIAN_POINT('',(0.,-7.891878105319E-16,-3.554185929437));
#608 = DIRECTION('',(-0.,2.22044604925E-16,1.));
#609 = DIRECTION('',(1.,0.,0.));
#610 = ORIENTED_EDGE('',*,*,#595,.F.);
#611 = SPHERICAL_SURFACE('',#612,2.85);
#612 = AXIS2_PLACEMENT_3D('',#613,#614,#615);
#613 = CARTESIAN_POINT('',(0.,-7.218036016767E-16,-3.250714431546));
#614 = DIRECTION('',(0.,2.22044604925E-16,1.));
#615 = DIRECTION('',(1.,0.,0.));
#616 = ADVANCED_FACE('',(#617),#636,.F.);
#617 = FACE_BOUND('',#618,.T.);
#618 = EDGE_LOOP('',(#619,#620,#628,#635));
#619 = ORIENTED_EDGE('',*,*,#574,.F.);
#620 = ORIENTED_EDGE('',*,*,#621,.T.);
#621 = EDGE_CURVE('',#575,#622,#624,.T.);
#622 = VERTEX_POINT('',#623);
#623 = CARTESIAN_POINT('',(3.1,-2.37232266557E-16,-1.068399147266));
#624 = LINE('',#625,#626);
#625 = CARTESIAN_POINT('',(3.1,6.661338147751E-16,3.));
#626 = VECTOR('',#627,1.);
#627 = DIRECTION('',(0.,-2.22044604925E-16,-1.));
#628 = ORIENTED_EDGE('',*,*,#629,.F.);
#629 = EDGE_CURVE('',#622,#622,#630,.T.);
#630 = CIRCLE('',#631,3.1);
#631 = AXIS2_PLACEMENT_3D('',#632,#633,#634);
#632 = CARTESIAN_POINT('',(0.,-2.37232266557E-16,-1.068399147266));
#633 = DIRECTION('',(-0.,2.22044604925E-16,1.));
#634 = DIRECTION('',(1.,0.,0.));
#635 = ORIENTED_EDGE('',*,*,#621,.F.);
#636 = CYLINDRICAL_SURFACE('',#637,3.1);
#637 = AXIS2_PLACEMENT_3D('',#638,#639,#640);
#638 = CARTESIAN_POINT('',(0.,6.661338147751E-16,3.));
#639 = DIRECTION('',(-0.,-2.22044604925E-16,-1.));
#640 = DIRECTION('',(1.,0.,0.));
#641 = ADVANCED_FACE('',(#642),#653,.F.);
#642 = FACE_BOUND('',#643,.T.);
#643 = EDGE_LOOP('',(#644,#645,#651,#652));
#644 = ORIENTED_EDGE('',*,*,#629,.T.);
#645 = ORIENTED_EDGE('',*,*,#646,.T.);
#646 = EDGE_CURVE('',#622,#596,#647,.T.);
#647 = LINE('',#648,#649);
#648 = CARTESIAN_POINT('',(3.1,-2.37232266557E-16,-1.068399147266));
#649 = VECTOR('',#650,1.);
#650 = DIRECTION('',(-0.10648122733,-2.2078221759E-16,-0.994314712868));
#651 = ORIENTED_EDGE('',*,*,#604,.F.);
#652 = ORIENTED_EDGE('',*,*,#646,.F.);
#653 = CONICAL_SURFACE('',#654,3.1,0.106683479467);
#654 = AXIS2_PLACEMENT_3D('',#655,#656,#657);
#655 = CARTESIAN_POINT('',(0.,-2.37232266557E-16,-1.068399147266));
#656 = DIRECTION('',(0.,2.22044604925E-16,1.));
#657 = DIRECTION('',(1.,0.,0.));
#658 = ( GEOMETRIC_REPRESENTATION_CONTEXT(3) 
GLOBAL_UNCERTAINTY_ASSIGNED_CONTEXT((#662)) GLOBAL_UNIT_ASSIGNED_CONTEXT
((#659,#660,#661)) REPRESENTATION_CONTEXT('Context #1',
  '3D Context with UNIT and UNCERTAINTY') );
#659 = ( LENGTH_UNIT() NAMED_UNIT(*) SI_UNIT(.MILLI.,.METRE.) );
#660 = ( NAMED_UNIT(*) PLANE_ANGLE_UNIT() SI_UNIT($,.RADIAN.) );
#661 = ( NAMED_UNIT(*) SI_UNIT($,.STERADIAN.) SOLID_ANGLE_UNIT() );
#662 = UNCERTAINTY_MEASURE_WITH_UNIT(LENGTH_MEASURE(2.E-06),#659,
  'distance_accuracy_value','confusion accuracy');
#663 = PRODUCT_RELATED_PRODUCT_CATEGORY('part',$,(#7));
#664 = MECHANICAL_DESIGN_GEOMETRIC_PRESENTATION_REPRESENTATION('',(#665)
  ,#658);
#665 = STYLED_ITEM('color',(#666),#15);
#666 = PRESENTATION_STYLE_ASSIGNMENT((#667,#673));
#667 = SURFACE_STYLE_USAGE(.BOTH.,#668);
#668 = SURFACE_SIDE_STYLE('',(#669));
#669 = SURFACE_STYLE_FILL_AREA(#670);
#670 = FILL_AREA_STYLE('',(#671));
#671 = FILL_AREA_STYLE_COLOUR('',#672);
#672 = COLOUR_RGB('',0.333333345507,0.592156890614,0.298039221799);
#673 = CURVE_STYLE('',#674,POSITIVE_LENGTH_MEASURE(0.1),#675);
#674 = DRAUGHTING_PRE_DEFINED_CURVE_FONT('continuous');
#675 = COLOUR_RGB('',9.803921802644E-02,9.803921802644E-02,
  9.803921802644E-02);
ENDSEC;
END-ISO-10303-21;
