%TF.GenerationSoftware,KiCad,Pcbnew,9.0.4*%
%TF.CreationDate,2025-08-24T10:42:23+02:00*%
%TF.ProjectId,pami_2026,70616d69-5f32-4303-9236-2e6b69636164,rev?*%
%TF.SameCoordinates,Original*%
%TF.FileFunction,Legend,Bot*%
%TF.FilePolarity,Positive*%
%FSLAX46Y46*%
G04 Gerber Fmt 4.6, Leading zero omitted, Abs format (unit mm)*
G04 Created by KiCad (PCBNEW 9.0.4) date 2025-08-24 10:42:23*
%MOMM*%
%LPD*%
G01*
G04 APERTURE LIST*
%ADD10C,0.150000*%
%ADD11C,0.120000*%
G04 APERTURE END LIST*
D10*
X217245180Y-67711904D02*
X216435657Y-67711904D01*
X216435657Y-67711904D02*
X216340419Y-67664285D01*
X216340419Y-67664285D02*
X216292800Y-67616666D01*
X216292800Y-67616666D02*
X216245180Y-67521428D01*
X216245180Y-67521428D02*
X216245180Y-67330952D01*
X216245180Y-67330952D02*
X216292800Y-67235714D01*
X216292800Y-67235714D02*
X216340419Y-67188095D01*
X216340419Y-67188095D02*
X216435657Y-67140476D01*
X216435657Y-67140476D02*
X217245180Y-67140476D01*
X217149942Y-66711904D02*
X217197561Y-66664285D01*
X217197561Y-66664285D02*
X217245180Y-66569047D01*
X217245180Y-66569047D02*
X217245180Y-66330952D01*
X217245180Y-66330952D02*
X217197561Y-66235714D01*
X217197561Y-66235714D02*
X217149942Y-66188095D01*
X217149942Y-66188095D02*
X217054704Y-66140476D01*
X217054704Y-66140476D02*
X216959466Y-66140476D01*
X216959466Y-66140476D02*
X216816609Y-66188095D01*
X216816609Y-66188095D02*
X216245180Y-66759523D01*
X216245180Y-66759523D02*
X216245180Y-66140476D01*
X201277238Y-81776057D02*
X201372476Y-81728438D01*
X201372476Y-81728438D02*
X201467714Y-81633200D01*
X201467714Y-81633200D02*
X201610571Y-81490342D01*
X201610571Y-81490342D02*
X201705809Y-81442723D01*
X201705809Y-81442723D02*
X201801047Y-81442723D01*
X201753428Y-81680819D02*
X201848666Y-81633200D01*
X201848666Y-81633200D02*
X201943904Y-81537961D01*
X201943904Y-81537961D02*
X201991523Y-81347485D01*
X201991523Y-81347485D02*
X201991523Y-81014152D01*
X201991523Y-81014152D02*
X201943904Y-80823676D01*
X201943904Y-80823676D02*
X201848666Y-80728438D01*
X201848666Y-80728438D02*
X201753428Y-80680819D01*
X201753428Y-80680819D02*
X201562952Y-80680819D01*
X201562952Y-80680819D02*
X201467714Y-80728438D01*
X201467714Y-80728438D02*
X201372476Y-80823676D01*
X201372476Y-80823676D02*
X201324857Y-81014152D01*
X201324857Y-81014152D02*
X201324857Y-81347485D01*
X201324857Y-81347485D02*
X201372476Y-81537961D01*
X201372476Y-81537961D02*
X201467714Y-81633200D01*
X201467714Y-81633200D02*
X201562952Y-81680819D01*
X201562952Y-81680819D02*
X201753428Y-81680819D01*
X200372476Y-81680819D02*
X200943904Y-81680819D01*
X200658190Y-81680819D02*
X200658190Y-80680819D01*
X200658190Y-80680819D02*
X200753428Y-80823676D01*
X200753428Y-80823676D02*
X200848666Y-80918914D01*
X200848666Y-80918914D02*
X200943904Y-80966533D01*
X204290819Y-37949142D02*
X203814628Y-37615809D01*
X204290819Y-37377714D02*
X203290819Y-37377714D01*
X203290819Y-37377714D02*
X203290819Y-37758666D01*
X203290819Y-37758666D02*
X203338438Y-37853904D01*
X203338438Y-37853904D02*
X203386057Y-37901523D01*
X203386057Y-37901523D02*
X203481295Y-37949142D01*
X203481295Y-37949142D02*
X203624152Y-37949142D01*
X203624152Y-37949142D02*
X203719390Y-37901523D01*
X203719390Y-37901523D02*
X203767009Y-37853904D01*
X203767009Y-37853904D02*
X203814628Y-37758666D01*
X203814628Y-37758666D02*
X203814628Y-37377714D01*
X204290819Y-38901523D02*
X204290819Y-38330095D01*
X204290819Y-38615809D02*
X203290819Y-38615809D01*
X203290819Y-38615809D02*
X203433676Y-38520571D01*
X203433676Y-38520571D02*
X203528914Y-38425333D01*
X203528914Y-38425333D02*
X203576533Y-38330095D01*
X203290819Y-39234857D02*
X203290819Y-39853904D01*
X203290819Y-39853904D02*
X203671771Y-39520571D01*
X203671771Y-39520571D02*
X203671771Y-39663428D01*
X203671771Y-39663428D02*
X203719390Y-39758666D01*
X203719390Y-39758666D02*
X203767009Y-39806285D01*
X203767009Y-39806285D02*
X203862247Y-39853904D01*
X203862247Y-39853904D02*
X204100342Y-39853904D01*
X204100342Y-39853904D02*
X204195580Y-39806285D01*
X204195580Y-39806285D02*
X204243200Y-39758666D01*
X204243200Y-39758666D02*
X204290819Y-39663428D01*
X204290819Y-39663428D02*
X204290819Y-39377714D01*
X204290819Y-39377714D02*
X204243200Y-39282476D01*
X204243200Y-39282476D02*
X204195580Y-39234857D01*
X201750819Y-37965142D02*
X201274628Y-37631809D01*
X201750819Y-37393714D02*
X200750819Y-37393714D01*
X200750819Y-37393714D02*
X200750819Y-37774666D01*
X200750819Y-37774666D02*
X200798438Y-37869904D01*
X200798438Y-37869904D02*
X200846057Y-37917523D01*
X200846057Y-37917523D02*
X200941295Y-37965142D01*
X200941295Y-37965142D02*
X201084152Y-37965142D01*
X201084152Y-37965142D02*
X201179390Y-37917523D01*
X201179390Y-37917523D02*
X201227009Y-37869904D01*
X201227009Y-37869904D02*
X201274628Y-37774666D01*
X201274628Y-37774666D02*
X201274628Y-37393714D01*
X201750819Y-38917523D02*
X201750819Y-38346095D01*
X201750819Y-38631809D02*
X200750819Y-38631809D01*
X200750819Y-38631809D02*
X200893676Y-38536571D01*
X200893676Y-38536571D02*
X200988914Y-38441333D01*
X200988914Y-38441333D02*
X201036533Y-38346095D01*
X200846057Y-39298476D02*
X200798438Y-39346095D01*
X200798438Y-39346095D02*
X200750819Y-39441333D01*
X200750819Y-39441333D02*
X200750819Y-39679428D01*
X200750819Y-39679428D02*
X200798438Y-39774666D01*
X200798438Y-39774666D02*
X200846057Y-39822285D01*
X200846057Y-39822285D02*
X200941295Y-39869904D01*
X200941295Y-39869904D02*
X201036533Y-39869904D01*
X201036533Y-39869904D02*
X201179390Y-39822285D01*
X201179390Y-39822285D02*
X201750819Y-39250857D01*
X201750819Y-39250857D02*
X201750819Y-39869904D01*
X229264357Y-77604580D02*
X229311976Y-77652200D01*
X229311976Y-77652200D02*
X229454833Y-77699819D01*
X229454833Y-77699819D02*
X229550071Y-77699819D01*
X229550071Y-77699819D02*
X229692928Y-77652200D01*
X229692928Y-77652200D02*
X229788166Y-77556961D01*
X229788166Y-77556961D02*
X229835785Y-77461723D01*
X229835785Y-77461723D02*
X229883404Y-77271247D01*
X229883404Y-77271247D02*
X229883404Y-77128390D01*
X229883404Y-77128390D02*
X229835785Y-76937914D01*
X229835785Y-76937914D02*
X229788166Y-76842676D01*
X229788166Y-76842676D02*
X229692928Y-76747438D01*
X229692928Y-76747438D02*
X229550071Y-76699819D01*
X229550071Y-76699819D02*
X229454833Y-76699819D01*
X229454833Y-76699819D02*
X229311976Y-76747438D01*
X229311976Y-76747438D02*
X229264357Y-76795057D01*
X228883404Y-76795057D02*
X228835785Y-76747438D01*
X228835785Y-76747438D02*
X228740547Y-76699819D01*
X228740547Y-76699819D02*
X228502452Y-76699819D01*
X228502452Y-76699819D02*
X228407214Y-76747438D01*
X228407214Y-76747438D02*
X228359595Y-76795057D01*
X228359595Y-76795057D02*
X228311976Y-76890295D01*
X228311976Y-76890295D02*
X228311976Y-76985533D01*
X228311976Y-76985533D02*
X228359595Y-77128390D01*
X228359595Y-77128390D02*
X228931023Y-77699819D01*
X228931023Y-77699819D02*
X228311976Y-77699819D01*
X227454833Y-77033152D02*
X227454833Y-77699819D01*
X227692928Y-76652200D02*
X227931023Y-77366485D01*
X227931023Y-77366485D02*
X227311976Y-77366485D01*
X200207666Y-74494819D02*
X200540999Y-74018628D01*
X200779094Y-74494819D02*
X200779094Y-73494819D01*
X200779094Y-73494819D02*
X200398142Y-73494819D01*
X200398142Y-73494819D02*
X200302904Y-73542438D01*
X200302904Y-73542438D02*
X200255285Y-73590057D01*
X200255285Y-73590057D02*
X200207666Y-73685295D01*
X200207666Y-73685295D02*
X200207666Y-73828152D01*
X200207666Y-73828152D02*
X200255285Y-73923390D01*
X200255285Y-73923390D02*
X200302904Y-73971009D01*
X200302904Y-73971009D02*
X200398142Y-74018628D01*
X200398142Y-74018628D02*
X200779094Y-74018628D01*
X199636237Y-73923390D02*
X199731475Y-73875771D01*
X199731475Y-73875771D02*
X199779094Y-73828152D01*
X199779094Y-73828152D02*
X199826713Y-73732914D01*
X199826713Y-73732914D02*
X199826713Y-73685295D01*
X199826713Y-73685295D02*
X199779094Y-73590057D01*
X199779094Y-73590057D02*
X199731475Y-73542438D01*
X199731475Y-73542438D02*
X199636237Y-73494819D01*
X199636237Y-73494819D02*
X199445761Y-73494819D01*
X199445761Y-73494819D02*
X199350523Y-73542438D01*
X199350523Y-73542438D02*
X199302904Y-73590057D01*
X199302904Y-73590057D02*
X199255285Y-73685295D01*
X199255285Y-73685295D02*
X199255285Y-73732914D01*
X199255285Y-73732914D02*
X199302904Y-73828152D01*
X199302904Y-73828152D02*
X199350523Y-73875771D01*
X199350523Y-73875771D02*
X199445761Y-73923390D01*
X199445761Y-73923390D02*
X199636237Y-73923390D01*
X199636237Y-73923390D02*
X199731475Y-73971009D01*
X199731475Y-73971009D02*
X199779094Y-74018628D01*
X199779094Y-74018628D02*
X199826713Y-74113866D01*
X199826713Y-74113866D02*
X199826713Y-74304342D01*
X199826713Y-74304342D02*
X199779094Y-74399580D01*
X199779094Y-74399580D02*
X199731475Y-74447200D01*
X199731475Y-74447200D02*
X199636237Y-74494819D01*
X199636237Y-74494819D02*
X199445761Y-74494819D01*
X199445761Y-74494819D02*
X199350523Y-74447200D01*
X199350523Y-74447200D02*
X199302904Y-74399580D01*
X199302904Y-74399580D02*
X199255285Y-74304342D01*
X199255285Y-74304342D02*
X199255285Y-74113866D01*
X199255285Y-74113866D02*
X199302904Y-74018628D01*
X199302904Y-74018628D02*
X199350523Y-73971009D01*
X199350523Y-73971009D02*
X199445761Y-73923390D01*
X200175666Y-73480819D02*
X200508999Y-73004628D01*
X200747094Y-73480819D02*
X200747094Y-72480819D01*
X200747094Y-72480819D02*
X200366142Y-72480819D01*
X200366142Y-72480819D02*
X200270904Y-72528438D01*
X200270904Y-72528438D02*
X200223285Y-72576057D01*
X200223285Y-72576057D02*
X200175666Y-72671295D01*
X200175666Y-72671295D02*
X200175666Y-72814152D01*
X200175666Y-72814152D02*
X200223285Y-72909390D01*
X200223285Y-72909390D02*
X200270904Y-72957009D01*
X200270904Y-72957009D02*
X200366142Y-73004628D01*
X200366142Y-73004628D02*
X200747094Y-73004628D01*
X199842332Y-72480819D02*
X199175666Y-72480819D01*
X199175666Y-72480819D02*
X199604237Y-73480819D01*
X221273666Y-82260819D02*
X221606999Y-81784628D01*
X221845094Y-82260819D02*
X221845094Y-81260819D01*
X221845094Y-81260819D02*
X221464142Y-81260819D01*
X221464142Y-81260819D02*
X221368904Y-81308438D01*
X221368904Y-81308438D02*
X221321285Y-81356057D01*
X221321285Y-81356057D02*
X221273666Y-81451295D01*
X221273666Y-81451295D02*
X221273666Y-81594152D01*
X221273666Y-81594152D02*
X221321285Y-81689390D01*
X221321285Y-81689390D02*
X221368904Y-81737009D01*
X221368904Y-81737009D02*
X221464142Y-81784628D01*
X221464142Y-81784628D02*
X221845094Y-81784628D01*
X220416523Y-81260819D02*
X220606999Y-81260819D01*
X220606999Y-81260819D02*
X220702237Y-81308438D01*
X220702237Y-81308438D02*
X220749856Y-81356057D01*
X220749856Y-81356057D02*
X220845094Y-81498914D01*
X220845094Y-81498914D02*
X220892713Y-81689390D01*
X220892713Y-81689390D02*
X220892713Y-82070342D01*
X220892713Y-82070342D02*
X220845094Y-82165580D01*
X220845094Y-82165580D02*
X220797475Y-82213200D01*
X220797475Y-82213200D02*
X220702237Y-82260819D01*
X220702237Y-82260819D02*
X220511761Y-82260819D01*
X220511761Y-82260819D02*
X220416523Y-82213200D01*
X220416523Y-82213200D02*
X220368904Y-82165580D01*
X220368904Y-82165580D02*
X220321285Y-82070342D01*
X220321285Y-82070342D02*
X220321285Y-81832247D01*
X220321285Y-81832247D02*
X220368904Y-81737009D01*
X220368904Y-81737009D02*
X220416523Y-81689390D01*
X220416523Y-81689390D02*
X220511761Y-81641771D01*
X220511761Y-81641771D02*
X220702237Y-81641771D01*
X220702237Y-81641771D02*
X220797475Y-81689390D01*
X220797475Y-81689390D02*
X220845094Y-81737009D01*
X220845094Y-81737009D02*
X220892713Y-81832247D01*
X215177666Y-85543819D02*
X215510999Y-85067628D01*
X215749094Y-85543819D02*
X215749094Y-84543819D01*
X215749094Y-84543819D02*
X215368142Y-84543819D01*
X215368142Y-84543819D02*
X215272904Y-84591438D01*
X215272904Y-84591438D02*
X215225285Y-84639057D01*
X215225285Y-84639057D02*
X215177666Y-84734295D01*
X215177666Y-84734295D02*
X215177666Y-84877152D01*
X215177666Y-84877152D02*
X215225285Y-84972390D01*
X215225285Y-84972390D02*
X215272904Y-85020009D01*
X215272904Y-85020009D02*
X215368142Y-85067628D01*
X215368142Y-85067628D02*
X215749094Y-85067628D01*
X214796713Y-84639057D02*
X214749094Y-84591438D01*
X214749094Y-84591438D02*
X214653856Y-84543819D01*
X214653856Y-84543819D02*
X214415761Y-84543819D01*
X214415761Y-84543819D02*
X214320523Y-84591438D01*
X214320523Y-84591438D02*
X214272904Y-84639057D01*
X214272904Y-84639057D02*
X214225285Y-84734295D01*
X214225285Y-84734295D02*
X214225285Y-84829533D01*
X214225285Y-84829533D02*
X214272904Y-84972390D01*
X214272904Y-84972390D02*
X214844332Y-85543819D01*
X214844332Y-85543819D02*
X214225285Y-85543819D01*
X222274580Y-93520833D02*
X222322200Y-93473214D01*
X222322200Y-93473214D02*
X222369819Y-93330357D01*
X222369819Y-93330357D02*
X222369819Y-93235119D01*
X222369819Y-93235119D02*
X222322200Y-93092262D01*
X222322200Y-93092262D02*
X222226961Y-92997024D01*
X222226961Y-92997024D02*
X222131723Y-92949405D01*
X222131723Y-92949405D02*
X221941247Y-92901786D01*
X221941247Y-92901786D02*
X221798390Y-92901786D01*
X221798390Y-92901786D02*
X221607914Y-92949405D01*
X221607914Y-92949405D02*
X221512676Y-92997024D01*
X221512676Y-92997024D02*
X221417438Y-93092262D01*
X221417438Y-93092262D02*
X221369819Y-93235119D01*
X221369819Y-93235119D02*
X221369819Y-93330357D01*
X221369819Y-93330357D02*
X221417438Y-93473214D01*
X221417438Y-93473214D02*
X221465057Y-93520833D01*
X221369819Y-93854167D02*
X221369819Y-94473214D01*
X221369819Y-94473214D02*
X221750771Y-94139881D01*
X221750771Y-94139881D02*
X221750771Y-94282738D01*
X221750771Y-94282738D02*
X221798390Y-94377976D01*
X221798390Y-94377976D02*
X221846009Y-94425595D01*
X221846009Y-94425595D02*
X221941247Y-94473214D01*
X221941247Y-94473214D02*
X222179342Y-94473214D01*
X222179342Y-94473214D02*
X222274580Y-94425595D01*
X222274580Y-94425595D02*
X222322200Y-94377976D01*
X222322200Y-94377976D02*
X222369819Y-94282738D01*
X222369819Y-94282738D02*
X222369819Y-93997024D01*
X222369819Y-93997024D02*
X222322200Y-93901786D01*
X222322200Y-93901786D02*
X222274580Y-93854167D01*
X216628580Y-93520833D02*
X216676200Y-93473214D01*
X216676200Y-93473214D02*
X216723819Y-93330357D01*
X216723819Y-93330357D02*
X216723819Y-93235119D01*
X216723819Y-93235119D02*
X216676200Y-93092262D01*
X216676200Y-93092262D02*
X216580961Y-92997024D01*
X216580961Y-92997024D02*
X216485723Y-92949405D01*
X216485723Y-92949405D02*
X216295247Y-92901786D01*
X216295247Y-92901786D02*
X216152390Y-92901786D01*
X216152390Y-92901786D02*
X215961914Y-92949405D01*
X215961914Y-92949405D02*
X215866676Y-92997024D01*
X215866676Y-92997024D02*
X215771438Y-93092262D01*
X215771438Y-93092262D02*
X215723819Y-93235119D01*
X215723819Y-93235119D02*
X215723819Y-93330357D01*
X215723819Y-93330357D02*
X215771438Y-93473214D01*
X215771438Y-93473214D02*
X215819057Y-93520833D01*
X215819057Y-93901786D02*
X215771438Y-93949405D01*
X215771438Y-93949405D02*
X215723819Y-94044643D01*
X215723819Y-94044643D02*
X215723819Y-94282738D01*
X215723819Y-94282738D02*
X215771438Y-94377976D01*
X215771438Y-94377976D02*
X215819057Y-94425595D01*
X215819057Y-94425595D02*
X215914295Y-94473214D01*
X215914295Y-94473214D02*
X216009533Y-94473214D01*
X216009533Y-94473214D02*
X216152390Y-94425595D01*
X216152390Y-94425595D02*
X216723819Y-93854167D01*
X216723819Y-93854167D02*
X216723819Y-94473214D01*
X217702580Y-93520833D02*
X217750200Y-93473214D01*
X217750200Y-93473214D02*
X217797819Y-93330357D01*
X217797819Y-93330357D02*
X217797819Y-93235119D01*
X217797819Y-93235119D02*
X217750200Y-93092262D01*
X217750200Y-93092262D02*
X217654961Y-92997024D01*
X217654961Y-92997024D02*
X217559723Y-92949405D01*
X217559723Y-92949405D02*
X217369247Y-92901786D01*
X217369247Y-92901786D02*
X217226390Y-92901786D01*
X217226390Y-92901786D02*
X217035914Y-92949405D01*
X217035914Y-92949405D02*
X216940676Y-92997024D01*
X216940676Y-92997024D02*
X216845438Y-93092262D01*
X216845438Y-93092262D02*
X216797819Y-93235119D01*
X216797819Y-93235119D02*
X216797819Y-93330357D01*
X216797819Y-93330357D02*
X216845438Y-93473214D01*
X216845438Y-93473214D02*
X216893057Y-93520833D01*
X217797819Y-94473214D02*
X217797819Y-93901786D01*
X217797819Y-94187500D02*
X216797819Y-94187500D01*
X216797819Y-94187500D02*
X216940676Y-94092262D01*
X216940676Y-94092262D02*
X217035914Y-93997024D01*
X217035914Y-93997024D02*
X217083533Y-93901786D01*
X213431009Y-40851666D02*
X213431009Y-40518333D01*
X213954819Y-40518333D02*
X212954819Y-40518333D01*
X212954819Y-40518333D02*
X212954819Y-40994523D01*
X213954819Y-41899285D02*
X213954819Y-41327857D01*
X213954819Y-41613571D02*
X212954819Y-41613571D01*
X212954819Y-41613571D02*
X213097676Y-41518333D01*
X213097676Y-41518333D02*
X213192914Y-41423095D01*
X213192914Y-41423095D02*
X213240533Y-41327857D01*
X197095238Y-41300057D02*
X197190476Y-41252438D01*
X197190476Y-41252438D02*
X197285714Y-41157200D01*
X197285714Y-41157200D02*
X197428571Y-41014342D01*
X197428571Y-41014342D02*
X197523809Y-40966723D01*
X197523809Y-40966723D02*
X197619047Y-40966723D01*
X197571428Y-41204819D02*
X197666666Y-41157200D01*
X197666666Y-41157200D02*
X197761904Y-41061961D01*
X197761904Y-41061961D02*
X197809523Y-40871485D01*
X197809523Y-40871485D02*
X197809523Y-40538152D01*
X197809523Y-40538152D02*
X197761904Y-40347676D01*
X197761904Y-40347676D02*
X197666666Y-40252438D01*
X197666666Y-40252438D02*
X197571428Y-40204819D01*
X197571428Y-40204819D02*
X197380952Y-40204819D01*
X197380952Y-40204819D02*
X197285714Y-40252438D01*
X197285714Y-40252438D02*
X197190476Y-40347676D01*
X197190476Y-40347676D02*
X197142857Y-40538152D01*
X197142857Y-40538152D02*
X197142857Y-40871485D01*
X197142857Y-40871485D02*
X197190476Y-41061961D01*
X197190476Y-41061961D02*
X197285714Y-41157200D01*
X197285714Y-41157200D02*
X197380952Y-41204819D01*
X197380952Y-41204819D02*
X197571428Y-41204819D01*
X196809523Y-40204819D02*
X196190476Y-40204819D01*
X196190476Y-40204819D02*
X196523809Y-40585771D01*
X196523809Y-40585771D02*
X196380952Y-40585771D01*
X196380952Y-40585771D02*
X196285714Y-40633390D01*
X196285714Y-40633390D02*
X196238095Y-40681009D01*
X196238095Y-40681009D02*
X196190476Y-40776247D01*
X196190476Y-40776247D02*
X196190476Y-41014342D01*
X196190476Y-41014342D02*
X196238095Y-41109580D01*
X196238095Y-41109580D02*
X196285714Y-41157200D01*
X196285714Y-41157200D02*
X196380952Y-41204819D01*
X196380952Y-41204819D02*
X196666666Y-41204819D01*
X196666666Y-41204819D02*
X196761904Y-41157200D01*
X196761904Y-41157200D02*
X196809523Y-41109580D01*
X194604819Y-37833333D02*
X194128628Y-37500000D01*
X194604819Y-37261905D02*
X193604819Y-37261905D01*
X193604819Y-37261905D02*
X193604819Y-37642857D01*
X193604819Y-37642857D02*
X193652438Y-37738095D01*
X193652438Y-37738095D02*
X193700057Y-37785714D01*
X193700057Y-37785714D02*
X193795295Y-37833333D01*
X193795295Y-37833333D02*
X193938152Y-37833333D01*
X193938152Y-37833333D02*
X194033390Y-37785714D01*
X194033390Y-37785714D02*
X194081009Y-37738095D01*
X194081009Y-37738095D02*
X194128628Y-37642857D01*
X194128628Y-37642857D02*
X194128628Y-37261905D01*
X193938152Y-38690476D02*
X194604819Y-38690476D01*
X193557200Y-38452381D02*
X194271485Y-38214286D01*
X194271485Y-38214286D02*
X194271485Y-38833333D01*
X218006819Y-48141142D02*
X217530628Y-47807809D01*
X218006819Y-47569714D02*
X217006819Y-47569714D01*
X217006819Y-47569714D02*
X217006819Y-47950666D01*
X217006819Y-47950666D02*
X217054438Y-48045904D01*
X217054438Y-48045904D02*
X217102057Y-48093523D01*
X217102057Y-48093523D02*
X217197295Y-48141142D01*
X217197295Y-48141142D02*
X217340152Y-48141142D01*
X217340152Y-48141142D02*
X217435390Y-48093523D01*
X217435390Y-48093523D02*
X217483009Y-48045904D01*
X217483009Y-48045904D02*
X217530628Y-47950666D01*
X217530628Y-47950666D02*
X217530628Y-47569714D01*
X218006819Y-49093523D02*
X218006819Y-48522095D01*
X218006819Y-48807809D02*
X217006819Y-48807809D01*
X217006819Y-48807809D02*
X217149676Y-48712571D01*
X217149676Y-48712571D02*
X217244914Y-48617333D01*
X217244914Y-48617333D02*
X217292533Y-48522095D01*
X217006819Y-49426857D02*
X217006819Y-50093523D01*
X217006819Y-50093523D02*
X218006819Y-49664952D01*
X214183819Y-86779095D02*
X214993342Y-86779095D01*
X214993342Y-86779095D02*
X215088580Y-86826714D01*
X215088580Y-86826714D02*
X215136200Y-86874333D01*
X215136200Y-86874333D02*
X215183819Y-86969571D01*
X215183819Y-86969571D02*
X215183819Y-87160047D01*
X215183819Y-87160047D02*
X215136200Y-87255285D01*
X215136200Y-87255285D02*
X215088580Y-87302904D01*
X215088580Y-87302904D02*
X214993342Y-87350523D01*
X214993342Y-87350523D02*
X214183819Y-87350523D01*
X215183819Y-88350523D02*
X215183819Y-87779095D01*
X215183819Y-88064809D02*
X214183819Y-88064809D01*
X214183819Y-88064809D02*
X214326676Y-87969571D01*
X214326676Y-87969571D02*
X214421914Y-87874333D01*
X214421914Y-87874333D02*
X214469533Y-87779095D01*
X200392357Y-52019580D02*
X200439976Y-52067200D01*
X200439976Y-52067200D02*
X200582833Y-52114819D01*
X200582833Y-52114819D02*
X200678071Y-52114819D01*
X200678071Y-52114819D02*
X200820928Y-52067200D01*
X200820928Y-52067200D02*
X200916166Y-51971961D01*
X200916166Y-51971961D02*
X200963785Y-51876723D01*
X200963785Y-51876723D02*
X201011404Y-51686247D01*
X201011404Y-51686247D02*
X201011404Y-51543390D01*
X201011404Y-51543390D02*
X200963785Y-51352914D01*
X200963785Y-51352914D02*
X200916166Y-51257676D01*
X200916166Y-51257676D02*
X200820928Y-51162438D01*
X200820928Y-51162438D02*
X200678071Y-51114819D01*
X200678071Y-51114819D02*
X200582833Y-51114819D01*
X200582833Y-51114819D02*
X200439976Y-51162438D01*
X200439976Y-51162438D02*
X200392357Y-51210057D01*
X199439976Y-52114819D02*
X200011404Y-52114819D01*
X199725690Y-52114819D02*
X199725690Y-51114819D01*
X199725690Y-51114819D02*
X199820928Y-51257676D01*
X199820928Y-51257676D02*
X199916166Y-51352914D01*
X199916166Y-51352914D02*
X200011404Y-51400533D01*
X198487595Y-52114819D02*
X199059023Y-52114819D01*
X198773309Y-52114819D02*
X198773309Y-51114819D01*
X198773309Y-51114819D02*
X198868547Y-51257676D01*
X198868547Y-51257676D02*
X198963785Y-51352914D01*
X198963785Y-51352914D02*
X199059023Y-51400533D01*
X211197580Y-46817833D02*
X211245200Y-46770214D01*
X211245200Y-46770214D02*
X211292819Y-46627357D01*
X211292819Y-46627357D02*
X211292819Y-46532119D01*
X211292819Y-46532119D02*
X211245200Y-46389262D01*
X211245200Y-46389262D02*
X211149961Y-46294024D01*
X211149961Y-46294024D02*
X211054723Y-46246405D01*
X211054723Y-46246405D02*
X210864247Y-46198786D01*
X210864247Y-46198786D02*
X210721390Y-46198786D01*
X210721390Y-46198786D02*
X210530914Y-46246405D01*
X210530914Y-46246405D02*
X210435676Y-46294024D01*
X210435676Y-46294024D02*
X210340438Y-46389262D01*
X210340438Y-46389262D02*
X210292819Y-46532119D01*
X210292819Y-46532119D02*
X210292819Y-46627357D01*
X210292819Y-46627357D02*
X210340438Y-46770214D01*
X210340438Y-46770214D02*
X210388057Y-46817833D01*
X211292819Y-47294024D02*
X211292819Y-47484500D01*
X211292819Y-47484500D02*
X211245200Y-47579738D01*
X211245200Y-47579738D02*
X211197580Y-47627357D01*
X211197580Y-47627357D02*
X211054723Y-47722595D01*
X211054723Y-47722595D02*
X210864247Y-47770214D01*
X210864247Y-47770214D02*
X210483295Y-47770214D01*
X210483295Y-47770214D02*
X210388057Y-47722595D01*
X210388057Y-47722595D02*
X210340438Y-47674976D01*
X210340438Y-47674976D02*
X210292819Y-47579738D01*
X210292819Y-47579738D02*
X210292819Y-47389262D01*
X210292819Y-47389262D02*
X210340438Y-47294024D01*
X210340438Y-47294024D02*
X210388057Y-47246405D01*
X210388057Y-47246405D02*
X210483295Y-47198786D01*
X210483295Y-47198786D02*
X210721390Y-47198786D01*
X210721390Y-47198786D02*
X210816628Y-47246405D01*
X210816628Y-47246405D02*
X210864247Y-47294024D01*
X210864247Y-47294024D02*
X210911866Y-47389262D01*
X210911866Y-47389262D02*
X210911866Y-47579738D01*
X210911866Y-47579738D02*
X210864247Y-47674976D01*
X210864247Y-47674976D02*
X210816628Y-47722595D01*
X210816628Y-47722595D02*
X210721390Y-47770214D01*
X191327094Y-76344819D02*
X191327094Y-75344819D01*
X191327094Y-75344819D02*
X191088999Y-75344819D01*
X191088999Y-75344819D02*
X190946142Y-75392438D01*
X190946142Y-75392438D02*
X190850904Y-75487676D01*
X190850904Y-75487676D02*
X190803285Y-75582914D01*
X190803285Y-75582914D02*
X190755666Y-75773390D01*
X190755666Y-75773390D02*
X190755666Y-75916247D01*
X190755666Y-75916247D02*
X190803285Y-76106723D01*
X190803285Y-76106723D02*
X190850904Y-76201961D01*
X190850904Y-76201961D02*
X190946142Y-76297200D01*
X190946142Y-76297200D02*
X191088999Y-76344819D01*
X191088999Y-76344819D02*
X191327094Y-76344819D01*
X189898523Y-75678152D02*
X189898523Y-76344819D01*
X190136618Y-75297200D02*
X190374713Y-76011485D01*
X190374713Y-76011485D02*
X189755666Y-76011485D01*
X216006819Y-48141142D02*
X215530628Y-47807809D01*
X216006819Y-47569714D02*
X215006819Y-47569714D01*
X215006819Y-47569714D02*
X215006819Y-47950666D01*
X215006819Y-47950666D02*
X215054438Y-48045904D01*
X215054438Y-48045904D02*
X215102057Y-48093523D01*
X215102057Y-48093523D02*
X215197295Y-48141142D01*
X215197295Y-48141142D02*
X215340152Y-48141142D01*
X215340152Y-48141142D02*
X215435390Y-48093523D01*
X215435390Y-48093523D02*
X215483009Y-48045904D01*
X215483009Y-48045904D02*
X215530628Y-47950666D01*
X215530628Y-47950666D02*
X215530628Y-47569714D01*
X216006819Y-49093523D02*
X216006819Y-48522095D01*
X216006819Y-48807809D02*
X215006819Y-48807809D01*
X215006819Y-48807809D02*
X215149676Y-48712571D01*
X215149676Y-48712571D02*
X215244914Y-48617333D01*
X215244914Y-48617333D02*
X215292533Y-48522095D01*
X215006819Y-49950666D02*
X215006819Y-49760190D01*
X215006819Y-49760190D02*
X215054438Y-49664952D01*
X215054438Y-49664952D02*
X215102057Y-49617333D01*
X215102057Y-49617333D02*
X215244914Y-49522095D01*
X215244914Y-49522095D02*
X215435390Y-49474476D01*
X215435390Y-49474476D02*
X215816342Y-49474476D01*
X215816342Y-49474476D02*
X215911580Y-49522095D01*
X215911580Y-49522095D02*
X215959200Y-49569714D01*
X215959200Y-49569714D02*
X216006819Y-49664952D01*
X216006819Y-49664952D02*
X216006819Y-49855428D01*
X216006819Y-49855428D02*
X215959200Y-49950666D01*
X215959200Y-49950666D02*
X215911580Y-49998285D01*
X215911580Y-49998285D02*
X215816342Y-50045904D01*
X215816342Y-50045904D02*
X215578247Y-50045904D01*
X215578247Y-50045904D02*
X215483009Y-49998285D01*
X215483009Y-49998285D02*
X215435390Y-49950666D01*
X215435390Y-49950666D02*
X215387771Y-49855428D01*
X215387771Y-49855428D02*
X215387771Y-49664952D01*
X215387771Y-49664952D02*
X215435390Y-49569714D01*
X215435390Y-49569714D02*
X215483009Y-49522095D01*
X215483009Y-49522095D02*
X215578247Y-49474476D01*
X194166666Y-36604819D02*
X194499999Y-36128628D01*
X194738094Y-36604819D02*
X194738094Y-35604819D01*
X194738094Y-35604819D02*
X194357142Y-35604819D01*
X194357142Y-35604819D02*
X194261904Y-35652438D01*
X194261904Y-35652438D02*
X194214285Y-35700057D01*
X194214285Y-35700057D02*
X194166666Y-35795295D01*
X194166666Y-35795295D02*
X194166666Y-35938152D01*
X194166666Y-35938152D02*
X194214285Y-36033390D01*
X194214285Y-36033390D02*
X194261904Y-36081009D01*
X194261904Y-36081009D02*
X194357142Y-36128628D01*
X194357142Y-36128628D02*
X194738094Y-36128628D01*
X193833332Y-35604819D02*
X193214285Y-35604819D01*
X193214285Y-35604819D02*
X193547618Y-35985771D01*
X193547618Y-35985771D02*
X193404761Y-35985771D01*
X193404761Y-35985771D02*
X193309523Y-36033390D01*
X193309523Y-36033390D02*
X193261904Y-36081009D01*
X193261904Y-36081009D02*
X193214285Y-36176247D01*
X193214285Y-36176247D02*
X193214285Y-36414342D01*
X193214285Y-36414342D02*
X193261904Y-36509580D01*
X193261904Y-36509580D02*
X193309523Y-36557200D01*
X193309523Y-36557200D02*
X193404761Y-36604819D01*
X193404761Y-36604819D02*
X193690475Y-36604819D01*
X193690475Y-36604819D02*
X193785713Y-36557200D01*
X193785713Y-36557200D02*
X193833332Y-36509580D01*
X195444857Y-76344819D02*
X195778190Y-75868628D01*
X196016285Y-76344819D02*
X196016285Y-75344819D01*
X196016285Y-75344819D02*
X195635333Y-75344819D01*
X195635333Y-75344819D02*
X195540095Y-75392438D01*
X195540095Y-75392438D02*
X195492476Y-75440057D01*
X195492476Y-75440057D02*
X195444857Y-75535295D01*
X195444857Y-75535295D02*
X195444857Y-75678152D01*
X195444857Y-75678152D02*
X195492476Y-75773390D01*
X195492476Y-75773390D02*
X195540095Y-75821009D01*
X195540095Y-75821009D02*
X195635333Y-75868628D01*
X195635333Y-75868628D02*
X196016285Y-75868628D01*
X194492476Y-76344819D02*
X195063904Y-76344819D01*
X194778190Y-76344819D02*
X194778190Y-75344819D01*
X194778190Y-75344819D02*
X194873428Y-75487676D01*
X194873428Y-75487676D02*
X194968666Y-75582914D01*
X194968666Y-75582914D02*
X195063904Y-75630533D01*
X193540095Y-76344819D02*
X194111523Y-76344819D01*
X193825809Y-76344819D02*
X193825809Y-75344819D01*
X193825809Y-75344819D02*
X193921047Y-75487676D01*
X193921047Y-75487676D02*
X194016285Y-75582914D01*
X194016285Y-75582914D02*
X194111523Y-75630533D01*
X191704819Y-28761905D02*
X190704819Y-28761905D01*
X190704819Y-28761905D02*
X190704819Y-29000000D01*
X190704819Y-29000000D02*
X190752438Y-29142857D01*
X190752438Y-29142857D02*
X190847676Y-29238095D01*
X190847676Y-29238095D02*
X190942914Y-29285714D01*
X190942914Y-29285714D02*
X191133390Y-29333333D01*
X191133390Y-29333333D02*
X191276247Y-29333333D01*
X191276247Y-29333333D02*
X191466723Y-29285714D01*
X191466723Y-29285714D02*
X191561961Y-29238095D01*
X191561961Y-29238095D02*
X191657200Y-29142857D01*
X191657200Y-29142857D02*
X191704819Y-29000000D01*
X191704819Y-29000000D02*
X191704819Y-28761905D01*
X191133390Y-29904762D02*
X191085771Y-29809524D01*
X191085771Y-29809524D02*
X191038152Y-29761905D01*
X191038152Y-29761905D02*
X190942914Y-29714286D01*
X190942914Y-29714286D02*
X190895295Y-29714286D01*
X190895295Y-29714286D02*
X190800057Y-29761905D01*
X190800057Y-29761905D02*
X190752438Y-29809524D01*
X190752438Y-29809524D02*
X190704819Y-29904762D01*
X190704819Y-29904762D02*
X190704819Y-30095238D01*
X190704819Y-30095238D02*
X190752438Y-30190476D01*
X190752438Y-30190476D02*
X190800057Y-30238095D01*
X190800057Y-30238095D02*
X190895295Y-30285714D01*
X190895295Y-30285714D02*
X190942914Y-30285714D01*
X190942914Y-30285714D02*
X191038152Y-30238095D01*
X191038152Y-30238095D02*
X191085771Y-30190476D01*
X191085771Y-30190476D02*
X191133390Y-30095238D01*
X191133390Y-30095238D02*
X191133390Y-29904762D01*
X191133390Y-29904762D02*
X191181009Y-29809524D01*
X191181009Y-29809524D02*
X191228628Y-29761905D01*
X191228628Y-29761905D02*
X191323866Y-29714286D01*
X191323866Y-29714286D02*
X191514342Y-29714286D01*
X191514342Y-29714286D02*
X191609580Y-29761905D01*
X191609580Y-29761905D02*
X191657200Y-29809524D01*
X191657200Y-29809524D02*
X191704819Y-29904762D01*
X191704819Y-29904762D02*
X191704819Y-30095238D01*
X191704819Y-30095238D02*
X191657200Y-30190476D01*
X191657200Y-30190476D02*
X191609580Y-30238095D01*
X191609580Y-30238095D02*
X191514342Y-30285714D01*
X191514342Y-30285714D02*
X191323866Y-30285714D01*
X191323866Y-30285714D02*
X191228628Y-30238095D01*
X191228628Y-30238095D02*
X191181009Y-30190476D01*
X191181009Y-30190476D02*
X191133390Y-30095238D01*
X193487295Y-26528571D02*
X193487295Y-26071428D01*
X193487295Y-26300000D02*
X192687295Y-26300000D01*
X192687295Y-26300000D02*
X192801580Y-26223809D01*
X192801580Y-26223809D02*
X192877771Y-26147619D01*
X192877771Y-26147619D02*
X192915866Y-26071428D01*
X230166666Y-36104819D02*
X230499999Y-35628628D01*
X230738094Y-36104819D02*
X230738094Y-35104819D01*
X230738094Y-35104819D02*
X230357142Y-35104819D01*
X230357142Y-35104819D02*
X230261904Y-35152438D01*
X230261904Y-35152438D02*
X230214285Y-35200057D01*
X230214285Y-35200057D02*
X230166666Y-35295295D01*
X230166666Y-35295295D02*
X230166666Y-35438152D01*
X230166666Y-35438152D02*
X230214285Y-35533390D01*
X230214285Y-35533390D02*
X230261904Y-35581009D01*
X230261904Y-35581009D02*
X230357142Y-35628628D01*
X230357142Y-35628628D02*
X230738094Y-35628628D01*
X229214285Y-36104819D02*
X229785713Y-36104819D01*
X229499999Y-36104819D02*
X229499999Y-35104819D01*
X229499999Y-35104819D02*
X229595237Y-35247676D01*
X229595237Y-35247676D02*
X229690475Y-35342914D01*
X229690475Y-35342914D02*
X229785713Y-35390533D01*
X212095238Y-60800057D02*
X212190476Y-60752438D01*
X212190476Y-60752438D02*
X212285714Y-60657200D01*
X212285714Y-60657200D02*
X212428571Y-60514342D01*
X212428571Y-60514342D02*
X212523809Y-60466723D01*
X212523809Y-60466723D02*
X212619047Y-60466723D01*
X212571428Y-60704819D02*
X212666666Y-60657200D01*
X212666666Y-60657200D02*
X212761904Y-60561961D01*
X212761904Y-60561961D02*
X212809523Y-60371485D01*
X212809523Y-60371485D02*
X212809523Y-60038152D01*
X212809523Y-60038152D02*
X212761904Y-59847676D01*
X212761904Y-59847676D02*
X212666666Y-59752438D01*
X212666666Y-59752438D02*
X212571428Y-59704819D01*
X212571428Y-59704819D02*
X212380952Y-59704819D01*
X212380952Y-59704819D02*
X212285714Y-59752438D01*
X212285714Y-59752438D02*
X212190476Y-59847676D01*
X212190476Y-59847676D02*
X212142857Y-60038152D01*
X212142857Y-60038152D02*
X212142857Y-60371485D01*
X212142857Y-60371485D02*
X212190476Y-60561961D01*
X212190476Y-60561961D02*
X212285714Y-60657200D01*
X212285714Y-60657200D02*
X212380952Y-60704819D01*
X212380952Y-60704819D02*
X212571428Y-60704819D01*
X211761904Y-59800057D02*
X211714285Y-59752438D01*
X211714285Y-59752438D02*
X211619047Y-59704819D01*
X211619047Y-59704819D02*
X211380952Y-59704819D01*
X211380952Y-59704819D02*
X211285714Y-59752438D01*
X211285714Y-59752438D02*
X211238095Y-59800057D01*
X211238095Y-59800057D02*
X211190476Y-59895295D01*
X211190476Y-59895295D02*
X211190476Y-59990533D01*
X211190476Y-59990533D02*
X211238095Y-60133390D01*
X211238095Y-60133390D02*
X211809523Y-60704819D01*
X211809523Y-60704819D02*
X211190476Y-60704819D01*
X193005357Y-50697580D02*
X193052976Y-50745200D01*
X193052976Y-50745200D02*
X193195833Y-50792819D01*
X193195833Y-50792819D02*
X193291071Y-50792819D01*
X193291071Y-50792819D02*
X193433928Y-50745200D01*
X193433928Y-50745200D02*
X193529166Y-50649961D01*
X193529166Y-50649961D02*
X193576785Y-50554723D01*
X193576785Y-50554723D02*
X193624404Y-50364247D01*
X193624404Y-50364247D02*
X193624404Y-50221390D01*
X193624404Y-50221390D02*
X193576785Y-50030914D01*
X193576785Y-50030914D02*
X193529166Y-49935676D01*
X193529166Y-49935676D02*
X193433928Y-49840438D01*
X193433928Y-49840438D02*
X193291071Y-49792819D01*
X193291071Y-49792819D02*
X193195833Y-49792819D01*
X193195833Y-49792819D02*
X193052976Y-49840438D01*
X193052976Y-49840438D02*
X193005357Y-49888057D01*
X192052976Y-50792819D02*
X192624404Y-50792819D01*
X192338690Y-50792819D02*
X192338690Y-49792819D01*
X192338690Y-49792819D02*
X192433928Y-49935676D01*
X192433928Y-49935676D02*
X192529166Y-50030914D01*
X192529166Y-50030914D02*
X192624404Y-50078533D01*
X191672023Y-49888057D02*
X191624404Y-49840438D01*
X191624404Y-49840438D02*
X191529166Y-49792819D01*
X191529166Y-49792819D02*
X191291071Y-49792819D01*
X191291071Y-49792819D02*
X191195833Y-49840438D01*
X191195833Y-49840438D02*
X191148214Y-49888057D01*
X191148214Y-49888057D02*
X191100595Y-49983295D01*
X191100595Y-49983295D02*
X191100595Y-50078533D01*
X191100595Y-50078533D02*
X191148214Y-50221390D01*
X191148214Y-50221390D02*
X191719642Y-50792819D01*
X191719642Y-50792819D02*
X191100595Y-50792819D01*
X196813904Y-53110819D02*
X196813904Y-53920342D01*
X196813904Y-53920342D02*
X196766285Y-54015580D01*
X196766285Y-54015580D02*
X196718666Y-54063200D01*
X196718666Y-54063200D02*
X196623428Y-54110819D01*
X196623428Y-54110819D02*
X196432952Y-54110819D01*
X196432952Y-54110819D02*
X196337714Y-54063200D01*
X196337714Y-54063200D02*
X196290095Y-54015580D01*
X196290095Y-54015580D02*
X196242476Y-53920342D01*
X196242476Y-53920342D02*
X196242476Y-53110819D01*
X195337714Y-53444152D02*
X195337714Y-54110819D01*
X195575809Y-53063200D02*
X195813904Y-53777485D01*
X195813904Y-53777485D02*
X195194857Y-53777485D01*
X229264357Y-74594580D02*
X229311976Y-74642200D01*
X229311976Y-74642200D02*
X229454833Y-74689819D01*
X229454833Y-74689819D02*
X229550071Y-74689819D01*
X229550071Y-74689819D02*
X229692928Y-74642200D01*
X229692928Y-74642200D02*
X229788166Y-74546961D01*
X229788166Y-74546961D02*
X229835785Y-74451723D01*
X229835785Y-74451723D02*
X229883404Y-74261247D01*
X229883404Y-74261247D02*
X229883404Y-74118390D01*
X229883404Y-74118390D02*
X229835785Y-73927914D01*
X229835785Y-73927914D02*
X229788166Y-73832676D01*
X229788166Y-73832676D02*
X229692928Y-73737438D01*
X229692928Y-73737438D02*
X229550071Y-73689819D01*
X229550071Y-73689819D02*
X229454833Y-73689819D01*
X229454833Y-73689819D02*
X229311976Y-73737438D01*
X229311976Y-73737438D02*
X229264357Y-73785057D01*
X228883404Y-73785057D02*
X228835785Y-73737438D01*
X228835785Y-73737438D02*
X228740547Y-73689819D01*
X228740547Y-73689819D02*
X228502452Y-73689819D01*
X228502452Y-73689819D02*
X228407214Y-73737438D01*
X228407214Y-73737438D02*
X228359595Y-73785057D01*
X228359595Y-73785057D02*
X228311976Y-73880295D01*
X228311976Y-73880295D02*
X228311976Y-73975533D01*
X228311976Y-73975533D02*
X228359595Y-74118390D01*
X228359595Y-74118390D02*
X228931023Y-74689819D01*
X228931023Y-74689819D02*
X228311976Y-74689819D01*
X227407214Y-73689819D02*
X227883404Y-73689819D01*
X227883404Y-73689819D02*
X227931023Y-74166009D01*
X227931023Y-74166009D02*
X227883404Y-74118390D01*
X227883404Y-74118390D02*
X227788166Y-74070771D01*
X227788166Y-74070771D02*
X227550071Y-74070771D01*
X227550071Y-74070771D02*
X227454833Y-74118390D01*
X227454833Y-74118390D02*
X227407214Y-74166009D01*
X227407214Y-74166009D02*
X227359595Y-74261247D01*
X227359595Y-74261247D02*
X227359595Y-74499342D01*
X227359595Y-74499342D02*
X227407214Y-74594580D01*
X227407214Y-74594580D02*
X227454833Y-74642200D01*
X227454833Y-74642200D02*
X227550071Y-74689819D01*
X227550071Y-74689819D02*
X227788166Y-74689819D01*
X227788166Y-74689819D02*
X227883404Y-74642200D01*
X227883404Y-74642200D02*
X227931023Y-74594580D01*
X191327094Y-70756819D02*
X191327094Y-69756819D01*
X191327094Y-69756819D02*
X191088999Y-69756819D01*
X191088999Y-69756819D02*
X190946142Y-69804438D01*
X190946142Y-69804438D02*
X190850904Y-69899676D01*
X190850904Y-69899676D02*
X190803285Y-69994914D01*
X190803285Y-69994914D02*
X190755666Y-70185390D01*
X190755666Y-70185390D02*
X190755666Y-70328247D01*
X190755666Y-70328247D02*
X190803285Y-70518723D01*
X190803285Y-70518723D02*
X190850904Y-70613961D01*
X190850904Y-70613961D02*
X190946142Y-70709200D01*
X190946142Y-70709200D02*
X191088999Y-70756819D01*
X191088999Y-70756819D02*
X191327094Y-70756819D01*
X190374713Y-69852057D02*
X190327094Y-69804438D01*
X190327094Y-69804438D02*
X190231856Y-69756819D01*
X190231856Y-69756819D02*
X189993761Y-69756819D01*
X189993761Y-69756819D02*
X189898523Y-69804438D01*
X189898523Y-69804438D02*
X189850904Y-69852057D01*
X189850904Y-69852057D02*
X189803285Y-69947295D01*
X189803285Y-69947295D02*
X189803285Y-70042533D01*
X189803285Y-70042533D02*
X189850904Y-70185390D01*
X189850904Y-70185390D02*
X190422332Y-70756819D01*
X190422332Y-70756819D02*
X189803285Y-70756819D01*
X195428857Y-73550819D02*
X195762190Y-73074628D01*
X196000285Y-73550819D02*
X196000285Y-72550819D01*
X196000285Y-72550819D02*
X195619333Y-72550819D01*
X195619333Y-72550819D02*
X195524095Y-72598438D01*
X195524095Y-72598438D02*
X195476476Y-72646057D01*
X195476476Y-72646057D02*
X195428857Y-72741295D01*
X195428857Y-72741295D02*
X195428857Y-72884152D01*
X195428857Y-72884152D02*
X195476476Y-72979390D01*
X195476476Y-72979390D02*
X195524095Y-73027009D01*
X195524095Y-73027009D02*
X195619333Y-73074628D01*
X195619333Y-73074628D02*
X196000285Y-73074628D01*
X194476476Y-73550819D02*
X195047904Y-73550819D01*
X194762190Y-73550819D02*
X194762190Y-72550819D01*
X194762190Y-72550819D02*
X194857428Y-72693676D01*
X194857428Y-72693676D02*
X194952666Y-72788914D01*
X194952666Y-72788914D02*
X195047904Y-72836533D01*
X193857428Y-72550819D02*
X193762190Y-72550819D01*
X193762190Y-72550819D02*
X193666952Y-72598438D01*
X193666952Y-72598438D02*
X193619333Y-72646057D01*
X193619333Y-72646057D02*
X193571714Y-72741295D01*
X193571714Y-72741295D02*
X193524095Y-72931771D01*
X193524095Y-72931771D02*
X193524095Y-73169866D01*
X193524095Y-73169866D02*
X193571714Y-73360342D01*
X193571714Y-73360342D02*
X193619333Y-73455580D01*
X193619333Y-73455580D02*
X193666952Y-73503200D01*
X193666952Y-73503200D02*
X193762190Y-73550819D01*
X193762190Y-73550819D02*
X193857428Y-73550819D01*
X193857428Y-73550819D02*
X193952666Y-73503200D01*
X193952666Y-73503200D02*
X194000285Y-73455580D01*
X194000285Y-73455580D02*
X194047904Y-73360342D01*
X194047904Y-73360342D02*
X194095523Y-73169866D01*
X194095523Y-73169866D02*
X194095523Y-72931771D01*
X194095523Y-72931771D02*
X194047904Y-72741295D01*
X194047904Y-72741295D02*
X194000285Y-72646057D01*
X194000285Y-72646057D02*
X193952666Y-72598438D01*
X193952666Y-72598438D02*
X193857428Y-72550819D01*
X191327094Y-73550819D02*
X191327094Y-72550819D01*
X191327094Y-72550819D02*
X191088999Y-72550819D01*
X191088999Y-72550819D02*
X190946142Y-72598438D01*
X190946142Y-72598438D02*
X190850904Y-72693676D01*
X190850904Y-72693676D02*
X190803285Y-72788914D01*
X190803285Y-72788914D02*
X190755666Y-72979390D01*
X190755666Y-72979390D02*
X190755666Y-73122247D01*
X190755666Y-73122247D02*
X190803285Y-73312723D01*
X190803285Y-73312723D02*
X190850904Y-73407961D01*
X190850904Y-73407961D02*
X190946142Y-73503200D01*
X190946142Y-73503200D02*
X191088999Y-73550819D01*
X191088999Y-73550819D02*
X191327094Y-73550819D01*
X190422332Y-72550819D02*
X189803285Y-72550819D01*
X189803285Y-72550819D02*
X190136618Y-72931771D01*
X190136618Y-72931771D02*
X189993761Y-72931771D01*
X189993761Y-72931771D02*
X189898523Y-72979390D01*
X189898523Y-72979390D02*
X189850904Y-73027009D01*
X189850904Y-73027009D02*
X189803285Y-73122247D01*
X189803285Y-73122247D02*
X189803285Y-73360342D01*
X189803285Y-73360342D02*
X189850904Y-73455580D01*
X189850904Y-73455580D02*
X189898523Y-73503200D01*
X189898523Y-73503200D02*
X189993761Y-73550819D01*
X189993761Y-73550819D02*
X190279475Y-73550819D01*
X190279475Y-73550819D02*
X190374713Y-73503200D01*
X190374713Y-73503200D02*
X190422332Y-73455580D01*
X202472819Y-48260095D02*
X203282342Y-48260095D01*
X203282342Y-48260095D02*
X203377580Y-48307714D01*
X203377580Y-48307714D02*
X203425200Y-48355333D01*
X203425200Y-48355333D02*
X203472819Y-48450571D01*
X203472819Y-48450571D02*
X203472819Y-48641047D01*
X203472819Y-48641047D02*
X203425200Y-48736285D01*
X203425200Y-48736285D02*
X203377580Y-48783904D01*
X203377580Y-48783904D02*
X203282342Y-48831523D01*
X203282342Y-48831523D02*
X202472819Y-48831523D01*
X202472819Y-49212476D02*
X202472819Y-49831523D01*
X202472819Y-49831523D02*
X202853771Y-49498190D01*
X202853771Y-49498190D02*
X202853771Y-49641047D01*
X202853771Y-49641047D02*
X202901390Y-49736285D01*
X202901390Y-49736285D02*
X202949009Y-49783904D01*
X202949009Y-49783904D02*
X203044247Y-49831523D01*
X203044247Y-49831523D02*
X203282342Y-49831523D01*
X203282342Y-49831523D02*
X203377580Y-49783904D01*
X203377580Y-49783904D02*
X203425200Y-49736285D01*
X203425200Y-49736285D02*
X203472819Y-49641047D01*
X203472819Y-49641047D02*
X203472819Y-49355333D01*
X203472819Y-49355333D02*
X203425200Y-49260095D01*
X203425200Y-49260095D02*
X203377580Y-49212476D01*
X206869357Y-41701580D02*
X206916976Y-41749200D01*
X206916976Y-41749200D02*
X207059833Y-41796819D01*
X207059833Y-41796819D02*
X207155071Y-41796819D01*
X207155071Y-41796819D02*
X207297928Y-41749200D01*
X207297928Y-41749200D02*
X207393166Y-41653961D01*
X207393166Y-41653961D02*
X207440785Y-41558723D01*
X207440785Y-41558723D02*
X207488404Y-41368247D01*
X207488404Y-41368247D02*
X207488404Y-41225390D01*
X207488404Y-41225390D02*
X207440785Y-41034914D01*
X207440785Y-41034914D02*
X207393166Y-40939676D01*
X207393166Y-40939676D02*
X207297928Y-40844438D01*
X207297928Y-40844438D02*
X207155071Y-40796819D01*
X207155071Y-40796819D02*
X207059833Y-40796819D01*
X207059833Y-40796819D02*
X206916976Y-40844438D01*
X206916976Y-40844438D02*
X206869357Y-40892057D01*
X205916976Y-41796819D02*
X206488404Y-41796819D01*
X206202690Y-41796819D02*
X206202690Y-40796819D01*
X206202690Y-40796819D02*
X206297928Y-40939676D01*
X206297928Y-40939676D02*
X206393166Y-41034914D01*
X206393166Y-41034914D02*
X206488404Y-41082533D01*
X205297928Y-40796819D02*
X205202690Y-40796819D01*
X205202690Y-40796819D02*
X205107452Y-40844438D01*
X205107452Y-40844438D02*
X205059833Y-40892057D01*
X205059833Y-40892057D02*
X205012214Y-40987295D01*
X205012214Y-40987295D02*
X204964595Y-41177771D01*
X204964595Y-41177771D02*
X204964595Y-41415866D01*
X204964595Y-41415866D02*
X205012214Y-41606342D01*
X205012214Y-41606342D02*
X205059833Y-41701580D01*
X205059833Y-41701580D02*
X205107452Y-41749200D01*
X205107452Y-41749200D02*
X205202690Y-41796819D01*
X205202690Y-41796819D02*
X205297928Y-41796819D01*
X205297928Y-41796819D02*
X205393166Y-41749200D01*
X205393166Y-41749200D02*
X205440785Y-41701580D01*
X205440785Y-41701580D02*
X205488404Y-41606342D01*
X205488404Y-41606342D02*
X205536023Y-41415866D01*
X205536023Y-41415866D02*
X205536023Y-41177771D01*
X205536023Y-41177771D02*
X205488404Y-40987295D01*
X205488404Y-40987295D02*
X205440785Y-40892057D01*
X205440785Y-40892057D02*
X205393166Y-40844438D01*
X205393166Y-40844438D02*
X205297928Y-40796819D01*
X202512819Y-79333333D02*
X202036628Y-79000000D01*
X202512819Y-78761905D02*
X201512819Y-78761905D01*
X201512819Y-78761905D02*
X201512819Y-79142857D01*
X201512819Y-79142857D02*
X201560438Y-79238095D01*
X201560438Y-79238095D02*
X201608057Y-79285714D01*
X201608057Y-79285714D02*
X201703295Y-79333333D01*
X201703295Y-79333333D02*
X201846152Y-79333333D01*
X201846152Y-79333333D02*
X201941390Y-79285714D01*
X201941390Y-79285714D02*
X201989009Y-79238095D01*
X201989009Y-79238095D02*
X202036628Y-79142857D01*
X202036628Y-79142857D02*
X202036628Y-78761905D01*
X201512819Y-80238095D02*
X201512819Y-79761905D01*
X201512819Y-79761905D02*
X201989009Y-79714286D01*
X201989009Y-79714286D02*
X201941390Y-79761905D01*
X201941390Y-79761905D02*
X201893771Y-79857143D01*
X201893771Y-79857143D02*
X201893771Y-80095238D01*
X201893771Y-80095238D02*
X201941390Y-80190476D01*
X201941390Y-80190476D02*
X201989009Y-80238095D01*
X201989009Y-80238095D02*
X202084247Y-80285714D01*
X202084247Y-80285714D02*
X202322342Y-80285714D01*
X202322342Y-80285714D02*
X202417580Y-80238095D01*
X202417580Y-80238095D02*
X202465200Y-80190476D01*
X202465200Y-80190476D02*
X202512819Y-80095238D01*
X202512819Y-80095238D02*
X202512819Y-79857143D01*
X202512819Y-79857143D02*
X202465200Y-79761905D01*
X202465200Y-79761905D02*
X202417580Y-79714286D01*
X194952666Y-70756819D02*
X195285999Y-70280628D01*
X195524094Y-70756819D02*
X195524094Y-69756819D01*
X195524094Y-69756819D02*
X195143142Y-69756819D01*
X195143142Y-69756819D02*
X195047904Y-69804438D01*
X195047904Y-69804438D02*
X195000285Y-69852057D01*
X195000285Y-69852057D02*
X194952666Y-69947295D01*
X194952666Y-69947295D02*
X194952666Y-70090152D01*
X194952666Y-70090152D02*
X195000285Y-70185390D01*
X195000285Y-70185390D02*
X195047904Y-70233009D01*
X195047904Y-70233009D02*
X195143142Y-70280628D01*
X195143142Y-70280628D02*
X195524094Y-70280628D01*
X194476475Y-70756819D02*
X194285999Y-70756819D01*
X194285999Y-70756819D02*
X194190761Y-70709200D01*
X194190761Y-70709200D02*
X194143142Y-70661580D01*
X194143142Y-70661580D02*
X194047904Y-70518723D01*
X194047904Y-70518723D02*
X194000285Y-70328247D01*
X194000285Y-70328247D02*
X194000285Y-69947295D01*
X194000285Y-69947295D02*
X194047904Y-69852057D01*
X194047904Y-69852057D02*
X194095523Y-69804438D01*
X194095523Y-69804438D02*
X194190761Y-69756819D01*
X194190761Y-69756819D02*
X194381237Y-69756819D01*
X194381237Y-69756819D02*
X194476475Y-69804438D01*
X194476475Y-69804438D02*
X194524094Y-69852057D01*
X194524094Y-69852057D02*
X194571713Y-69947295D01*
X194571713Y-69947295D02*
X194571713Y-70185390D01*
X194571713Y-70185390D02*
X194524094Y-70280628D01*
X194524094Y-70280628D02*
X194476475Y-70328247D01*
X194476475Y-70328247D02*
X194381237Y-70375866D01*
X194381237Y-70375866D02*
X194190761Y-70375866D01*
X194190761Y-70375866D02*
X194095523Y-70328247D01*
X194095523Y-70328247D02*
X194047904Y-70280628D01*
X194047904Y-70280628D02*
X194000285Y-70185390D01*
X214058332Y-25827200D02*
X213915475Y-25874819D01*
X213915475Y-25874819D02*
X213677380Y-25874819D01*
X213677380Y-25874819D02*
X213582142Y-25827200D01*
X213582142Y-25827200D02*
X213534523Y-25779580D01*
X213534523Y-25779580D02*
X213486904Y-25684342D01*
X213486904Y-25684342D02*
X213486904Y-25589104D01*
X213486904Y-25589104D02*
X213534523Y-25493866D01*
X213534523Y-25493866D02*
X213582142Y-25446247D01*
X213582142Y-25446247D02*
X213677380Y-25398628D01*
X213677380Y-25398628D02*
X213867856Y-25351009D01*
X213867856Y-25351009D02*
X213963094Y-25303390D01*
X213963094Y-25303390D02*
X214010713Y-25255771D01*
X214010713Y-25255771D02*
X214058332Y-25160533D01*
X214058332Y-25160533D02*
X214058332Y-25065295D01*
X214058332Y-25065295D02*
X214010713Y-24970057D01*
X214010713Y-24970057D02*
X213963094Y-24922438D01*
X213963094Y-24922438D02*
X213867856Y-24874819D01*
X213867856Y-24874819D02*
X213629761Y-24874819D01*
X213629761Y-24874819D02*
X213486904Y-24922438D01*
X213153570Y-24874819D02*
X212915475Y-25874819D01*
X212915475Y-25874819D02*
X212724999Y-25160533D01*
X212724999Y-25160533D02*
X212534523Y-25874819D01*
X212534523Y-25874819D02*
X212296428Y-24874819D01*
X212010713Y-24874819D02*
X211391666Y-24874819D01*
X211391666Y-24874819D02*
X211724999Y-25255771D01*
X211724999Y-25255771D02*
X211582142Y-25255771D01*
X211582142Y-25255771D02*
X211486904Y-25303390D01*
X211486904Y-25303390D02*
X211439285Y-25351009D01*
X211439285Y-25351009D02*
X211391666Y-25446247D01*
X211391666Y-25446247D02*
X211391666Y-25684342D01*
X211391666Y-25684342D02*
X211439285Y-25779580D01*
X211439285Y-25779580D02*
X211486904Y-25827200D01*
X211486904Y-25827200D02*
X211582142Y-25874819D01*
X211582142Y-25874819D02*
X211867856Y-25874819D01*
X211867856Y-25874819D02*
X211963094Y-25827200D01*
X211963094Y-25827200D02*
X212010713Y-25779580D01*
X208702819Y-78261905D02*
X207702819Y-78261905D01*
X207702819Y-78261905D02*
X207702819Y-78500000D01*
X207702819Y-78500000D02*
X207750438Y-78642857D01*
X207750438Y-78642857D02*
X207845676Y-78738095D01*
X207845676Y-78738095D02*
X207940914Y-78785714D01*
X207940914Y-78785714D02*
X208131390Y-78833333D01*
X208131390Y-78833333D02*
X208274247Y-78833333D01*
X208274247Y-78833333D02*
X208464723Y-78785714D01*
X208464723Y-78785714D02*
X208559961Y-78738095D01*
X208559961Y-78738095D02*
X208655200Y-78642857D01*
X208655200Y-78642857D02*
X208702819Y-78500000D01*
X208702819Y-78500000D02*
X208702819Y-78261905D01*
X207702819Y-79738095D02*
X207702819Y-79261905D01*
X207702819Y-79261905D02*
X208179009Y-79214286D01*
X208179009Y-79214286D02*
X208131390Y-79261905D01*
X208131390Y-79261905D02*
X208083771Y-79357143D01*
X208083771Y-79357143D02*
X208083771Y-79595238D01*
X208083771Y-79595238D02*
X208131390Y-79690476D01*
X208131390Y-79690476D02*
X208179009Y-79738095D01*
X208179009Y-79738095D02*
X208274247Y-79785714D01*
X208274247Y-79785714D02*
X208512342Y-79785714D01*
X208512342Y-79785714D02*
X208607580Y-79738095D01*
X208607580Y-79738095D02*
X208655200Y-79690476D01*
X208655200Y-79690476D02*
X208702819Y-79595238D01*
X208702819Y-79595238D02*
X208702819Y-79357143D01*
X208702819Y-79357143D02*
X208655200Y-79261905D01*
X208655200Y-79261905D02*
X208607580Y-79214286D01*
D11*
%TO.C,U2*%
X232190000Y-69311000D02*
X231710000Y-69311000D01*
X231950000Y-68975000D01*
X232190000Y-69311000D01*
G36*
X232190000Y-69311000D02*
G01*
X231710000Y-69311000D01*
X231950000Y-68975000D01*
X232190000Y-69311000D01*
G37*
X239150000Y-69075000D02*
X239150000Y-66625000D01*
X239150000Y-69075000D02*
X236700000Y-69075000D01*
X238900000Y-68800000D02*
X238900000Y-53200000D01*
X238900000Y-53200000D02*
X218200000Y-53200000D01*
X218200000Y-68800000D02*
X238900000Y-68800000D01*
X218200000Y-53200000D02*
X218200000Y-68800000D01*
%TO.C,Q1*%
X206222000Y-82586000D02*
X205882000Y-82116000D01*
X206562000Y-82116000D01*
X206222000Y-82586000D01*
G36*
X206222000Y-82586000D02*
G01*
X205882000Y-82116000D01*
X206562000Y-82116000D01*
X206222000Y-82586000D01*
G37*
X204492000Y-89176000D02*
X204492000Y-88906000D01*
X204492000Y-82276000D02*
X204492000Y-82546000D01*
X198072000Y-89176000D02*
X204492000Y-89176000D01*
X198072000Y-82276000D02*
X204492000Y-82276000D01*
%TO.C,R13*%
X204751000Y-38364936D02*
X204751000Y-38819064D01*
X206221000Y-38364936D02*
X206221000Y-38819064D01*
%TO.C,R12*%
X202211000Y-38380936D02*
X202211000Y-38835064D01*
X203681000Y-38380936D02*
X203681000Y-38835064D01*
%TO.C,C24*%
X228360248Y-76300000D02*
X228882752Y-76300000D01*
X228360248Y-74830000D02*
X228882752Y-74830000D01*
%TO.C,R8*%
X199813936Y-73125000D02*
X200268064Y-73125000D01*
X199813936Y-71655000D02*
X200268064Y-71655000D01*
%TO.C,R7*%
X200236064Y-73941000D02*
X199781936Y-73941000D01*
X200236064Y-75411000D02*
X199781936Y-75411000D01*
%TO.C,R6*%
X221223064Y-82704000D02*
X220768936Y-82704000D01*
X221223064Y-84174000D02*
X220768936Y-84174000D01*
%TO.C,R2*%
X214783936Y-84174000D02*
X215238064Y-84174000D01*
X214783936Y-82704000D02*
X215238064Y-82704000D01*
%TO.C,C3*%
X220970000Y-93948752D02*
X220970000Y-93426248D01*
X219500000Y-93948752D02*
X219500000Y-93426248D01*
%TO.C,C2*%
X217214000Y-93426248D02*
X217214000Y-93948752D01*
X218684000Y-93426248D02*
X218684000Y-93948752D01*
%TO.C,C1*%
X216398000Y-93948752D02*
X216398000Y-93426248D01*
X214928000Y-93948752D02*
X214928000Y-93426248D01*
%TO.C,F1*%
X214375000Y-36210000D02*
X214835000Y-36210000D01*
X214375000Y-36210000D02*
X214375000Y-46160000D01*
X219165000Y-36210000D02*
X219625000Y-36210000D01*
X219625000Y-36210000D02*
X219625000Y-46160000D01*
X214375000Y-46160000D02*
X214835000Y-46160000D01*
X219625000Y-46160000D02*
X219165000Y-46160000D01*
%TO.C,Q3*%
X197760000Y-39580000D02*
X197760000Y-38650000D01*
X197760000Y-36420000D02*
X197760000Y-37350000D01*
X197760000Y-36420000D02*
X196300000Y-36420000D01*
X196960000Y-39580000D02*
X197760000Y-39580000D01*
X196960000Y-39580000D02*
X196160000Y-39580000D01*
X195900000Y-39940000D02*
X195420000Y-39940000D01*
X195660000Y-39610000D01*
X195900000Y-39940000D01*
G36*
X195900000Y-39940000D02*
G01*
X195420000Y-39940000D01*
X195660000Y-39610000D01*
X195900000Y-39940000D01*
G37*
%TO.C,R4*%
X193235000Y-38227064D02*
X193235000Y-37772936D01*
X191765000Y-38227064D02*
X191765000Y-37772936D01*
%TO.C,R17*%
X218467000Y-48556936D02*
X218467000Y-49011064D01*
X219937000Y-48556936D02*
X219937000Y-49011064D01*
%TO.C,U1*%
X215949000Y-89651000D02*
X216649000Y-89651000D01*
X220169000Y-89651000D02*
X219469000Y-89651000D01*
X215949000Y-88951000D02*
X215949000Y-89651000D01*
X220169000Y-88951000D02*
X220169000Y-89651000D01*
X215949000Y-86131000D02*
X215949000Y-85731000D01*
X220169000Y-86131000D02*
X220169000Y-85431000D01*
X216649000Y-85431000D02*
X216189000Y-85431000D01*
X220169000Y-85431000D02*
X219469000Y-85431000D01*
X215949000Y-85431000D02*
X215619000Y-85671000D01*
X215619000Y-85191000D01*
X215949000Y-85431000D01*
G36*
X215949000Y-85431000D02*
G01*
X215619000Y-85671000D01*
X215619000Y-85191000D01*
X215949000Y-85431000D01*
G37*
%TO.C,C11*%
X200010752Y-54075000D02*
X199488248Y-54075000D01*
X200010752Y-52605000D02*
X199488248Y-52605000D01*
%TO.C,C9*%
X211783000Y-46723248D02*
X211783000Y-47245752D01*
X213253000Y-46723248D02*
X213253000Y-47245752D01*
%TO.C,D4*%
X191589000Y-75200000D02*
X188729000Y-75200000D01*
X188729000Y-75200000D02*
X188729000Y-73280000D01*
X188729000Y-73280000D02*
X191589000Y-73280000D01*
%TO.C,R16*%
X216467000Y-48556936D02*
X216467000Y-49011064D01*
X217937000Y-48556936D02*
X217937000Y-49011064D01*
%TO.C,R3*%
X193772936Y-35235000D02*
X194227064Y-35235000D01*
X193772936Y-33765000D02*
X194227064Y-33765000D01*
%TO.C,R11*%
X194574936Y-74975000D02*
X195029064Y-74975000D01*
X194574936Y-73505000D02*
X195029064Y-73505000D01*
%TO.C,D8*%
X195400000Y-32300000D02*
X192000000Y-32300000D01*
X195400000Y-32300000D02*
X196000000Y-31700000D01*
X192000000Y-26700000D02*
X192000000Y-32300000D01*
X192000000Y-26700000D02*
X196000000Y-26700000D01*
X196000000Y-26700000D02*
X196000000Y-31700000D01*
%TO.C,R1*%
X229772936Y-33265000D02*
X230227064Y-33265000D01*
X229772936Y-34735000D02*
X230227064Y-34735000D01*
%TO.C,Q2*%
X211240000Y-61420000D02*
X211240000Y-62350000D01*
X211240000Y-64580000D02*
X211240000Y-63650000D01*
X211240000Y-64580000D02*
X212700000Y-64580000D01*
X212040000Y-61420000D02*
X211240000Y-61420000D01*
X212040000Y-61420000D02*
X212840000Y-61420000D01*
X213340000Y-61390000D02*
X213100000Y-61060000D01*
X213580000Y-61060000D01*
X213340000Y-61390000D01*
G36*
X213340000Y-61390000D02*
G01*
X213100000Y-61060000D01*
X213580000Y-61060000D01*
X213340000Y-61390000D01*
G37*
%TO.C,C12*%
X192623752Y-52753000D02*
X192101248Y-52753000D01*
X192623752Y-51283000D02*
X192101248Y-51283000D01*
%TO.C,U4*%
X199512000Y-55106000D02*
X200877000Y-55106000D01*
X199512000Y-65506000D02*
X200877000Y-65506000D01*
X200877000Y-55106000D02*
X200877000Y-56916000D01*
X200877000Y-65506000D02*
X200877000Y-63696000D01*
X203702000Y-56956000D02*
X203362000Y-56486000D01*
X204042000Y-56486000D01*
X203702000Y-56956000D01*
G36*
X203702000Y-56956000D02*
G01*
X203362000Y-56486000D01*
X204042000Y-56486000D01*
X203702000Y-56956000D01*
G37*
%TO.C,C25*%
X228360248Y-73290000D02*
X228882752Y-73290000D01*
X228360248Y-71820000D02*
X228882752Y-71820000D01*
%TO.C,D2*%
X191589000Y-69612000D02*
X188729000Y-69612000D01*
X188729000Y-69612000D02*
X188729000Y-67692000D01*
X188729000Y-67692000D02*
X191589000Y-67692000D01*
%TO.C,R10*%
X194558936Y-72181000D02*
X195013064Y-72181000D01*
X194558936Y-70711000D02*
X195013064Y-70711000D01*
%TO.C,D3*%
X191589000Y-72406000D02*
X188729000Y-72406000D01*
X188729000Y-72406000D02*
X188729000Y-70486000D01*
X188729000Y-70486000D02*
X191589000Y-70486000D01*
%TO.C,U3*%
X204108000Y-47172000D02*
X204108000Y-50932000D01*
X204108000Y-50932000D02*
X205368000Y-50932000D01*
X210928000Y-47172000D02*
X210928000Y-50932000D01*
X210928000Y-50932000D02*
X209668000Y-50932000D01*
X204208000Y-45892000D02*
X203878000Y-46132000D01*
X203878000Y-45652000D01*
X204208000Y-45892000D01*
G36*
X204208000Y-45892000D02*
G01*
X203878000Y-46132000D01*
X203878000Y-45652000D01*
X204208000Y-45892000D01*
G37*
%TO.C,C10*%
X206487752Y-42287000D02*
X205965248Y-42287000D01*
X206487752Y-43757000D02*
X205965248Y-43757000D01*
%TO.C,R5*%
X202973000Y-79272936D02*
X202973000Y-79727064D01*
X204443000Y-79272936D02*
X204443000Y-79727064D01*
%TO.C,R9*%
X194558936Y-69387000D02*
X195013064Y-69387000D01*
X194558936Y-67917000D02*
X195013064Y-67917000D01*
%TO.C,SW3*%
X207645000Y-26690000D02*
X217805000Y-26690000D01*
X207645000Y-33040000D02*
X217805000Y-33040000D01*
X207645000Y-34310000D02*
X207645000Y-26690000D01*
X217805000Y-26690000D02*
X217805000Y-34310000D01*
X217805000Y-34310000D02*
X207645000Y-34310000D01*
%TO.C,D5*%
X207248000Y-81360000D02*
X207248000Y-77350000D01*
X207248000Y-81360000D02*
X205248000Y-81360000D01*
X205248000Y-81360000D02*
X205248000Y-77350000D01*
%TD*%
M02*
