%TF.GenerationSoftware,KiCad,Pcbnew,9.0.4*%
%TF.CreationDate,2025-10-03T16:52:30+02:00*%
%TF.ProjectId,pami_2026,70616d69-5f32-4303-9236-2e6b69636164,rev?*%
%TF.SameCoordinates,Original*%
%TF.FileFunction,Paste,Bot*%
%TF.FilePolarity,Positive*%
%FSLAX46Y46*%
G04 Gerber Fmt 4.6, Leading zero omitted, Abs format (unit mm)*
G04 Created by KiCad (PCBNEW 9.0.4) date 2025-10-03 16:52:30*
%MOMM*%
%LPD*%
G01*
G04 APERTURE LIST*
G04 Aperture macros list*
%AMRoundRect*
0 Rectangle with rounded corners*
0 $1 Rounding radius*
0 $2 $3 $4 $5 $6 $7 $8 $9 X,Y pos of 4 corners*
0 Add a 4 corners polygon primitive as box body*
4,1,4,$2,$3,$4,$5,$6,$7,$8,$9,$2,$3,0*
0 Add four circle primitives for the rounded corners*
1,1,$1+$1,$2,$3*
1,1,$1+$1,$4,$5*
1,1,$1+$1,$6,$7*
1,1,$1+$1,$8,$9*
0 Add four rect primitives between the rounded corners*
20,1,$1+$1,$2,$3,$4,$5,0*
20,1,$1+$1,$4,$5,$6,$7,0*
20,1,$1+$1,$6,$7,$8,$9,0*
20,1,$1+$1,$8,$9,$2,$3,0*%
G04 Aperture macros list end*
%ADD10R,1.200000X1.200000*%
%ADD11R,0.800000X0.800000*%
%ADD12R,0.800000X0.400000*%
%ADD13R,0.400000X0.800000*%
%ADD14RoundRect,0.250000X-0.475000X0.337500X-0.475000X-0.337500X0.475000X-0.337500X0.475000X0.337500X0*%
%ADD15RoundRect,0.200000X-0.750000X-0.200000X0.750000X-0.200000X0.750000X0.200000X-0.750000X0.200000X0*%
%ADD16RoundRect,0.250000X0.450000X-0.350000X0.450000X0.350000X-0.450000X0.350000X-0.450000X-0.350000X0*%
%ADD17RoundRect,0.250000X0.350000X0.450000X-0.350000X0.450000X-0.350000X-0.450000X0.350000X-0.450000X0*%
%ADD18R,1.000000X1.900000*%
%ADD19R,1.500000X1.300000*%
%ADD20RoundRect,0.220000X-0.220000X0.220000X-0.220000X-0.220000X0.220000X-0.220000X0.220000X0.220000X0*%
%ADD21RoundRect,0.087500X-0.087500X0.425000X-0.087500X-0.425000X0.087500X-0.425000X0.087500X0.425000X0*%
%ADD22RoundRect,0.087500X-0.425000X0.087500X-0.425000X-0.087500X0.425000X-0.087500X0.425000X0.087500X0*%
%ADD23RoundRect,0.250000X0.337500X0.475000X-0.337500X0.475000X-0.337500X-0.475000X0.337500X-0.475000X0*%
%ADD24RoundRect,0.250000X0.475000X-0.337500X0.475000X0.337500X-0.475000X0.337500X-0.475000X-0.337500X0*%
%ADD25RoundRect,0.250000X-0.325000X-0.450000X0.325000X-0.450000X0.325000X0.450000X-0.325000X0.450000X0*%
%ADD26RoundRect,0.250000X-0.450000X0.350000X-0.450000X-0.350000X0.450000X-0.350000X0.450000X0.350000X0*%
%ADD27RoundRect,0.250000X-1.150000X-0.250000X1.150000X-0.250000X1.150000X0.250000X-1.150000X0.250000X0*%
%ADD28RoundRect,0.250000X1.275000X1.125000X-1.275000X1.125000X-1.275000X-1.125000X1.275000X-1.125000X0*%
%ADD29RoundRect,0.250000X0.850000X0.350000X-0.850000X0.350000X-0.850000X-0.350000X0.850000X-0.350000X0*%
%ADD30RoundRect,0.250000X-0.350000X-0.450000X0.350000X-0.450000X0.350000X0.450000X-0.350000X0.450000X0*%
%ADD31R,0.850000X1.600000*%
%ADD32R,4.240000X3.810000*%
%ADD33RoundRect,0.200000X0.750000X0.200000X-0.750000X0.200000X-0.750000X-0.200000X0.750000X-0.200000X0*%
%ADD34RoundRect,0.250000X-0.337500X-0.475000X0.337500X-0.475000X0.337500X0.475000X-0.337500X0.475000X0*%
%ADD35RoundRect,0.250000X2.025000X2.375000X-2.025000X2.375000X-2.025000X-2.375000X2.025000X-2.375000X0*%
%ADD36RoundRect,0.250000X2.050000X0.300000X-2.050000X0.300000X-2.050000X-0.300000X2.050000X-0.300000X0*%
%ADD37RoundRect,0.243750X0.243750X0.456250X-0.243750X0.456250X-0.243750X-0.456250X0.243750X-0.456250X0*%
%ADD38RoundRect,0.375000X-0.375000X0.625000X-0.375000X-0.625000X0.375000X-0.625000X0.375000X0.625000X0*%
%ADD39RoundRect,0.500000X-1.400000X0.500000X-1.400000X-0.500000X1.400000X-0.500000X1.400000X0.500000X0*%
%ADD40RoundRect,0.225000X0.375000X-0.225000X0.375000X0.225000X-0.375000X0.225000X-0.375000X-0.225000X0*%
G04 APERTURE END LIST*
D10*
%TO.C,U2*%
X80666318Y-76155682D03*
X80666318Y-74505682D03*
X79016318Y-74505682D03*
X77366318Y-74505682D03*
X77366318Y-76155682D03*
X77366318Y-77805682D03*
X79016318Y-77805682D03*
X80666318Y-77805682D03*
D11*
X86016318Y-69155682D03*
X72016318Y-69155682D03*
X72016318Y-83155682D03*
X86016318Y-83155682D03*
D10*
X79016318Y-76155682D03*
D12*
X86016318Y-82105682D03*
X86016318Y-81255682D03*
X86016318Y-80405682D03*
X86016318Y-79555682D03*
X86016318Y-78705682D03*
X86016318Y-77855682D03*
X86016318Y-77005682D03*
X86016318Y-76155682D03*
X86016318Y-75305682D03*
X86016318Y-74455682D03*
X86016318Y-73605682D03*
X86016318Y-72755682D03*
X86016318Y-71905682D03*
X86016318Y-71055682D03*
X86016318Y-70205682D03*
D13*
X84966318Y-69155682D03*
X84116318Y-69155682D03*
X83266318Y-69155682D03*
X82416318Y-69155682D03*
X81566318Y-69155682D03*
X80716318Y-69155682D03*
X79866318Y-69155682D03*
X79016318Y-69155682D03*
X78166318Y-69155682D03*
X77316318Y-69155682D03*
X76466318Y-69155682D03*
X75616318Y-69155682D03*
X74766318Y-69155682D03*
X73916318Y-69155682D03*
X73066318Y-69155682D03*
D12*
X72016318Y-70205682D03*
X72016318Y-71055682D03*
X72016318Y-71905682D03*
X72016318Y-72755682D03*
X72016318Y-73605682D03*
X72016318Y-74455682D03*
X72016318Y-75305682D03*
X72016318Y-76155682D03*
X72016318Y-77005682D03*
X72016318Y-77855682D03*
X72016318Y-78705682D03*
X72016318Y-79555682D03*
X72016318Y-80405682D03*
X72016318Y-81255682D03*
X72016318Y-82105682D03*
D13*
X73066318Y-83155682D03*
X73916318Y-83155682D03*
X74766318Y-83155682D03*
X75616318Y-83155682D03*
X76466318Y-83155682D03*
X77316318Y-83155682D03*
X78166318Y-83155682D03*
X79016318Y-83155682D03*
X79866318Y-83155682D03*
X80716318Y-83155682D03*
X81566318Y-83155682D03*
X82416318Y-83155682D03*
X83266318Y-83155682D03*
X84116318Y-83155682D03*
X84966318Y-83155682D03*
%TD*%
D14*
%TO.C,C2*%
X70949000Y-107650000D03*
X70949000Y-109725000D03*
%TD*%
D15*
%TO.C,Q3*%
X58682000Y-54135000D03*
X55682000Y-55085000D03*
X55682000Y-53185000D03*
%TD*%
D16*
%TO.C,R4*%
X52682000Y-55135000D03*
X52682000Y-53135000D03*
%TD*%
D17*
%TO.C,R17*%
X75000000Y-49022000D03*
X73000000Y-49022000D03*
%TD*%
D18*
%TO.C,SW5*%
X83100000Y-45016682D03*
X87600000Y-45016682D03*
D19*
X81050000Y-47316682D03*
X89650000Y-47316682D03*
X81050000Y-42716682D03*
X89650000Y-42716682D03*
%TD*%
D20*
%TO.C,U1*%
X71584000Y-102016000D03*
X70534000Y-102016000D03*
X71584000Y-103066000D03*
X70534000Y-103066000D03*
D21*
X70084000Y-100678500D03*
X70734000Y-100678500D03*
X71384000Y-100678500D03*
X72034000Y-100678500D03*
D22*
X72921500Y-101566000D03*
X72921500Y-102216000D03*
X72921500Y-102866000D03*
X72921500Y-103516000D03*
D21*
X72034000Y-104403500D03*
X71384000Y-104403500D03*
X70734000Y-104403500D03*
X70084000Y-104403500D03*
D22*
X69196500Y-103516000D03*
X69196500Y-102866000D03*
X69196500Y-102216000D03*
X69196500Y-101566000D03*
%TD*%
D23*
%TO.C,C11*%
X54282818Y-68281682D03*
X52207818Y-68281682D03*
%TD*%
D24*
%TO.C,C3*%
X73472000Y-109725000D03*
X73472000Y-107650000D03*
%TD*%
D17*
%TO.C,R6*%
X74996000Y-98439000D03*
X72996000Y-98439000D03*
%TD*%
D14*
%TO.C,C9*%
X65310318Y-64936682D03*
X65310318Y-67011682D03*
%TD*%
D25*
%TO.C,D4*%
X42564000Y-89240000D03*
X44614000Y-89240000D03*
%TD*%
D17*
%TO.C,R7*%
X54009000Y-89676000D03*
X52009000Y-89676000D03*
%TD*%
D26*
%TO.C,R2*%
X67977318Y-96237682D03*
X67977318Y-98237682D03*
%TD*%
D27*
%TO.C,SW1*%
X83272000Y-57000000D03*
X89072000Y-57000000D03*
X83272000Y-53000000D03*
X89072000Y-53000000D03*
%TD*%
D17*
%TO.C,R16*%
X79000000Y-49022000D03*
X77000000Y-49022000D03*
%TD*%
D28*
%TO.C,Q1*%
X54597000Y-102251000D03*
X54597000Y-99201000D03*
X51247000Y-102251000D03*
X51247000Y-99201000D03*
D29*
X59222000Y-98446000D03*
X59222000Y-103006000D03*
%TD*%
D30*
%TO.C,R3*%
X53182000Y-50635000D03*
X55182000Y-50635000D03*
%TD*%
%TO.C,R11*%
X46802000Y-89240000D03*
X48802000Y-89240000D03*
%TD*%
%TO.C,R14*%
X82614318Y-50165000D03*
X84614318Y-50165000D03*
%TD*%
D31*
%TO.C,D8*%
X51830000Y-46835000D03*
X51830000Y-43335000D03*
X53580000Y-43335000D03*
X53580000Y-46835000D03*
%TD*%
D32*
%TO.C,F1*%
X66157000Y-53848000D03*
X72527000Y-53848000D03*
%TD*%
D30*
%TO.C,R1*%
X67564000Y-66040000D03*
X69564000Y-66040000D03*
%TD*%
D33*
%TO.C,Q2*%
X63500000Y-78000000D03*
X66500000Y-77050000D03*
X66500000Y-78950000D03*
%TD*%
D23*
%TO.C,C12*%
X46249500Y-68326000D03*
X44174500Y-68326000D03*
%TD*%
D26*
%TO.C,R12*%
X46207963Y-53989000D03*
X46207963Y-55989000D03*
%TD*%
D34*
%TO.C,C4*%
X81049000Y-90057000D03*
X83124000Y-90057000D03*
%TD*%
D35*
%TO.C,U4*%
X49977000Y-78081000D03*
X49977000Y-72531000D03*
X45127000Y-78081000D03*
X45127000Y-72531000D03*
D36*
X56702000Y-72766000D03*
X56702000Y-77846000D03*
%TD*%
D34*
%TO.C,C5*%
X87100500Y-50165000D03*
X89175500Y-50165000D03*
%TD*%
D30*
%TO.C,R8*%
X52041000Y-87390000D03*
X54041000Y-87390000D03*
%TD*%
D37*
%TO.C,D1*%
X54900000Y-57545000D03*
X53025000Y-57545000D03*
%TD*%
D14*
%TO.C,C7*%
X80330000Y-52733943D03*
X80330000Y-54808943D03*
%TD*%
D34*
%TO.C,C25*%
X81070500Y-87555000D03*
X83145500Y-87555000D03*
%TD*%
D26*
%TO.C,R13*%
X48874963Y-53989000D03*
X48874963Y-55989000D03*
%TD*%
D25*
%TO.C,D2*%
X42564000Y-83652000D03*
X44614000Y-83652000D03*
%TD*%
D30*
%TO.C,R10*%
X46786000Y-86446000D03*
X48786000Y-86446000D03*
%TD*%
D34*
%TO.C,C6*%
X75692000Y-65024000D03*
X77767000Y-65024000D03*
%TD*%
D25*
%TO.C,D3*%
X42564000Y-86446000D03*
X44614000Y-86446000D03*
%TD*%
D38*
%TO.C,U3*%
X57964000Y-61913000D03*
X60264000Y-61913000D03*
D39*
X60264000Y-68213000D03*
D38*
X62564000Y-61913000D03*
%TD*%
D23*
%TO.C,C10*%
X60264000Y-59323000D03*
X58189000Y-59323000D03*
%TD*%
D26*
%TO.C,R5*%
X56708000Y-93500000D03*
X56708000Y-95500000D03*
%TD*%
D30*
%TO.C,R9*%
X46786000Y-83652000D03*
X48786000Y-83652000D03*
%TD*%
D24*
%TO.C,C1*%
X68392000Y-109725000D03*
X68392000Y-107650000D03*
%TD*%
D40*
%TO.C,D5*%
X59248000Y-95650000D03*
X59248000Y-92350000D03*
%TD*%
M02*
