%TF.GenerationSoftware,KiCad,Pcbnew,9.0.4*%
%TF.CreationDate,2025-08-24T10:42:23+02:00*%
%TF.ProjectId,pami_2026,70616d69-5f32-4303-9236-2e6b69636164,rev?*%
%TF.SameCoordinates,Original*%
%TF.FileFunction,Soldermask,Top*%
%TF.FilePolarity,Negative*%
%FSLAX46Y46*%
G04 Gerber Fmt 4.6, Leading zero omitted, Abs format (unit mm)*
G04 Created by KiCad (PCBNEW 9.0.4) date 2025-08-24 10:42:23*
%MOMM*%
%LPD*%
G01*
G04 APERTURE LIST*
G04 Aperture macros list*
%AMRoundRect*
0 Rectangle with rounded corners*
0 $1 Rounding radius*
0 $2 $3 $4 $5 $6 $7 $8 $9 X,Y pos of 4 corners*
0 Add a 4 corners polygon primitive as box body*
4,1,4,$2,$3,$4,$5,$6,$7,$8,$9,$2,$3,0*
0 Add four circle primitives for the rounded corners*
1,1,$1+$1,$2,$3*
1,1,$1+$1,$4,$5*
1,1,$1+$1,$6,$7*
1,1,$1+$1,$8,$9*
0 Add four rect primitives between the rounded corners*
20,1,$1+$1,$2,$3,$4,$5,0*
20,1,$1+$1,$4,$5,$6,$7,0*
20,1,$1+$1,$6,$7,$8,$9,0*
20,1,$1+$1,$8,$9,$2,$3,0*%
G04 Aperture macros list end*
%ADD10O,1.200000X1.750000*%
%ADD11RoundRect,0.250000X-0.350000X-0.625000X0.350000X-0.625000X0.350000X0.625000X-0.350000X0.625000X0*%
%ADD12C,2.000000*%
%ADD13C,0.650000*%
%ADD14RoundRect,0.150000X0.150000X0.425000X-0.150000X0.425000X-0.150000X-0.425000X0.150000X-0.425000X0*%
%ADD15RoundRect,0.075000X0.075000X0.500000X-0.075000X0.500000X-0.075000X-0.500000X0.075000X-0.500000X0*%
%ADD16O,1.000000X2.100000*%
%ADD17O,1.000000X1.800000*%
%ADD18C,0.800000*%
%ADD19C,6.400000*%
%ADD20RoundRect,0.250000X-0.600000X-0.725000X0.600000X-0.725000X0.600000X0.725000X-0.600000X0.725000X0*%
%ADD21O,1.700000X1.950000*%
%ADD22RoundRect,0.250000X0.350000X0.625000X-0.350000X0.625000X-0.350000X-0.625000X0.350000X-0.625000X0*%
%ADD23R,3.000000X3.000000*%
%ADD24C,3.000000*%
%ADD25RoundRect,0.250000X-0.600000X-0.750000X0.600000X-0.750000X0.600000X0.750000X-0.600000X0.750000X0*%
%ADD26O,1.700000X2.000000*%
%ADD27C,2.100000*%
%ADD28C,1.750000*%
%ADD29R,1.700000X1.700000*%
%ADD30C,1.700000*%
%ADD31R,2.000000X2.591000*%
%ADD32RoundRect,0.250000X-0.550000X0.550000X-0.550000X-0.550000X0.550000X-0.550000X0.550000X0.550000X0*%
%ADD33C,1.600000*%
G04 APERTURE END LIST*
D10*
%TO.C,J11*%
X201000000Y-94000000D03*
X199000000Y-94000000D03*
X197000000Y-94000000D03*
X195000000Y-94000000D03*
X193000000Y-94000000D03*
D11*
X191000000Y-94000000D03*
%TD*%
D12*
%TO.C,TP1*%
X194000000Y-66796000D03*
%TD*%
D13*
%TO.C,J8*%
X204710000Y-32405000D03*
X198930000Y-32405000D03*
D14*
X205020000Y-33480000D03*
X204220000Y-33480000D03*
D15*
X203070000Y-33480000D03*
X202070000Y-33480000D03*
X201570000Y-33480000D03*
X200570000Y-33480000D03*
D14*
X199420000Y-33480000D03*
X198620000Y-33480000D03*
X198620000Y-33480000D03*
X199420000Y-33480000D03*
D15*
X200070000Y-33480000D03*
X201070000Y-33480000D03*
X202570000Y-33480000D03*
X203570000Y-33480000D03*
D14*
X204220000Y-33480000D03*
X205020000Y-33480000D03*
D16*
X206140000Y-32905000D03*
D17*
X206140000Y-28725000D03*
D16*
X197500000Y-32905000D03*
D17*
X197500000Y-28725000D03*
%TD*%
D10*
%TO.C,J12*%
X235000000Y-94000000D03*
X233000000Y-94000000D03*
X231000000Y-94000000D03*
X229000000Y-94000000D03*
X227000000Y-94000000D03*
D11*
X225000000Y-94000000D03*
%TD*%
D18*
%TO.C,H2*%
X227297056Y-48000000D03*
X228000000Y-46302944D03*
X228000000Y-49697056D03*
X229697056Y-45600000D03*
D19*
X229697056Y-48000000D03*
D18*
X229697056Y-50400000D03*
X231394112Y-46302944D03*
X231394112Y-49697056D03*
X232097056Y-48000000D03*
%TD*%
D20*
%TO.C,J9*%
X191500000Y-102000000D03*
D21*
X194000000Y-102000000D03*
X196500000Y-102000000D03*
X199000000Y-102000000D03*
%TD*%
D22*
%TO.C,J7*%
X197834000Y-41444000D03*
D10*
X195834000Y-41444000D03*
X193834000Y-41444000D03*
%TD*%
D23*
%TO.C,J4*%
X210947000Y-101600000D03*
D24*
X205867000Y-101600000D03*
%TD*%
D18*
%TO.C,H4*%
X231600000Y-88000000D03*
X232302944Y-86302944D03*
X232302944Y-89697056D03*
X234000000Y-85600000D03*
D19*
X234000000Y-88000000D03*
D18*
X234000000Y-90400000D03*
X235697056Y-86302944D03*
X235697056Y-89697056D03*
X236400000Y-88000000D03*
%TD*%
D25*
%TO.C,SW2*%
X221000000Y-27712500D03*
D26*
X223500000Y-27712500D03*
%TD*%
D27*
%TO.C,SW1*%
X228475000Y-30202500D03*
X235485000Y-30202500D03*
D28*
X229725000Y-27712500D03*
X234225000Y-27712500D03*
%TD*%
D12*
%TO.C,TP3*%
X194000000Y-75120000D03*
%TD*%
D29*
%TO.C,J1*%
X216810000Y-59000000D03*
D30*
X214270000Y-59000000D03*
X211730000Y-59000000D03*
X209190000Y-59000000D03*
%TD*%
D12*
%TO.C,TP2*%
X194000000Y-71120000D03*
%TD*%
D29*
%TO.C,J14*%
X230540000Y-80000000D03*
D30*
X228000000Y-80000000D03*
X225460000Y-80000000D03*
%TD*%
D18*
%TO.C,H1*%
X193600000Y-48000000D03*
X194302944Y-46302944D03*
X194302944Y-49697056D03*
X196000000Y-45600000D03*
D19*
X196000000Y-48000000D03*
D18*
X196000000Y-50400000D03*
X197697056Y-46302944D03*
X197697056Y-49697056D03*
X198400000Y-48000000D03*
%TD*%
D29*
%TO.C,J10*%
X205380000Y-71000000D03*
D30*
X207920000Y-71000000D03*
X210460000Y-71000000D03*
X213000000Y-71000000D03*
X215540000Y-71000000D03*
X218080000Y-71000000D03*
X220620000Y-71000000D03*
%TD*%
D20*
%TO.C,J3*%
X227000000Y-102000000D03*
D21*
X229500000Y-102000000D03*
X232000000Y-102000000D03*
X234500000Y-102000000D03*
%TD*%
D31*
%TO.C,SW4*%
X189357000Y-28000000D03*
X189357000Y-42503500D03*
%TD*%
D12*
%TO.C,TP12*%
X190500000Y-77343000D03*
%TD*%
D29*
%TO.C,J2*%
X195460000Y-80000000D03*
D30*
X198000000Y-80000000D03*
X200540000Y-80000000D03*
%TD*%
D18*
%TO.C,H3*%
X189600000Y-88000000D03*
X190302944Y-86302944D03*
X190302944Y-89697056D03*
X192000000Y-85600000D03*
D19*
X192000000Y-88000000D03*
D18*
X192000000Y-90400000D03*
X193697056Y-86302944D03*
X193697056Y-89697056D03*
X194400000Y-88000000D03*
%TD*%
D32*
%TO.C,C18*%
X219000000Y-98500000D03*
D33*
X219000000Y-103500000D03*
%TD*%
D23*
%TO.C,SW3*%
X215265000Y-30500000D03*
D24*
X210185000Y-30500000D03*
%TD*%
M02*
