%TF.GenerationSoftware,KiCad,Pcbnew,9.0.4*%
%TF.CreationDate,2025-08-24T10:42:22+02:00*%
%TF.ProjectId,pami_2026,70616d69-5f32-4303-9236-2e6b69636164,rev?*%
%TF.SameCoordinates,Original*%
%TF.FileFunction,Copper,L1,Top*%
%TF.FilePolarity,Positive*%
%FSLAX46Y46*%
G04 Gerber Fmt 4.6, Leading zero omitted, Abs format (unit mm)*
G04 Created by KiCad (PCBNEW 9.0.4) date 2025-08-24 10:42:22*
%MOMM*%
%LPD*%
G01*
G04 APERTURE LIST*
G04 Aperture macros list*
%AMRoundRect*
0 Rectangle with rounded corners*
0 $1 Rounding radius*
0 $2 $3 $4 $5 $6 $7 $8 $9 X,Y pos of 4 corners*
0 Add a 4 corners polygon primitive as box body*
4,1,4,$2,$3,$4,$5,$6,$7,$8,$9,$2,$3,0*
0 Add four circle primitives for the rounded corners*
1,1,$1+$1,$2,$3*
1,1,$1+$1,$4,$5*
1,1,$1+$1,$6,$7*
1,1,$1+$1,$8,$9*
0 Add four rect primitives between the rounded corners*
20,1,$1+$1,$2,$3,$4,$5,0*
20,1,$1+$1,$4,$5,$6,$7,0*
20,1,$1+$1,$6,$7,$8,$9,0*
20,1,$1+$1,$8,$9,$2,$3,0*%
G04 Aperture macros list end*
%TA.AperFunction,ComponentPad*%
%ADD10O,1.200000X1.750000*%
%TD*%
%TA.AperFunction,ComponentPad*%
%ADD11RoundRect,0.250000X-0.350000X-0.625000X0.350000X-0.625000X0.350000X0.625000X-0.350000X0.625000X0*%
%TD*%
%TA.AperFunction,SMDPad,CuDef*%
%ADD12C,2.000000*%
%TD*%
%TA.AperFunction,SMDPad,CuDef*%
%ADD13RoundRect,0.150000X0.150000X0.425000X-0.150000X0.425000X-0.150000X-0.425000X0.150000X-0.425000X0*%
%TD*%
%TA.AperFunction,SMDPad,CuDef*%
%ADD14RoundRect,0.075000X0.075000X0.500000X-0.075000X0.500000X-0.075000X-0.500000X0.075000X-0.500000X0*%
%TD*%
%TA.AperFunction,HeatsinkPad*%
%ADD15O,1.000000X2.100000*%
%TD*%
%TA.AperFunction,HeatsinkPad*%
%ADD16O,1.000000X1.800000*%
%TD*%
%TA.AperFunction,ComponentPad*%
%ADD17C,0.800000*%
%TD*%
%TA.AperFunction,ComponentPad*%
%ADD18C,6.400000*%
%TD*%
%TA.AperFunction,ComponentPad*%
%ADD19RoundRect,0.250000X-0.600000X-0.725000X0.600000X-0.725000X0.600000X0.725000X-0.600000X0.725000X0*%
%TD*%
%TA.AperFunction,ComponentPad*%
%ADD20O,1.700000X1.950000*%
%TD*%
%TA.AperFunction,ComponentPad*%
%ADD21RoundRect,0.250000X0.350000X0.625000X-0.350000X0.625000X-0.350000X-0.625000X0.350000X-0.625000X0*%
%TD*%
%TA.AperFunction,ComponentPad*%
%ADD22R,3.000000X3.000000*%
%TD*%
%TA.AperFunction,ComponentPad*%
%ADD23C,3.000000*%
%TD*%
%TA.AperFunction,ComponentPad*%
%ADD24RoundRect,0.250000X-0.600000X-0.750000X0.600000X-0.750000X0.600000X0.750000X-0.600000X0.750000X0*%
%TD*%
%TA.AperFunction,ComponentPad*%
%ADD25O,1.700000X2.000000*%
%TD*%
%TA.AperFunction,ComponentPad*%
%ADD26C,2.100000*%
%TD*%
%TA.AperFunction,ComponentPad*%
%ADD27C,1.750000*%
%TD*%
%TA.AperFunction,ComponentPad*%
%ADD28R,1.700000X1.700000*%
%TD*%
%TA.AperFunction,ComponentPad*%
%ADD29C,1.700000*%
%TD*%
%TA.AperFunction,ComponentPad*%
%ADD30R,2.000000X2.591000*%
%TD*%
%TA.AperFunction,HeatsinkPad*%
%ADD31C,0.500000*%
%TD*%
%TA.AperFunction,HeatsinkPad*%
%ADD32R,2.100000X2.100000*%
%TD*%
%TA.AperFunction,ComponentPad*%
%ADD33RoundRect,0.250000X-0.550000X0.550000X-0.550000X-0.550000X0.550000X-0.550000X0.550000X0.550000X0*%
%TD*%
%TA.AperFunction,ComponentPad*%
%ADD34C,1.600000*%
%TD*%
%TA.AperFunction,ViaPad*%
%ADD35C,0.600000*%
%TD*%
%TA.AperFunction,ViaPad*%
%ADD36C,1.200000*%
%TD*%
%TA.AperFunction,Conductor*%
%ADD37C,0.200000*%
%TD*%
%TA.AperFunction,Conductor*%
%ADD38C,1.000000*%
%TD*%
G04 APERTURE END LIST*
D10*
%TO.P,J11,6,Pin_6*%
%TO.N,Net-(J11-Pin_6)*%
X201000000Y-94000000D03*
%TO.P,J11,5,Pin_5*%
%TO.N,+3.3V*%
X199000000Y-94000000D03*
%TO.P,J11,4,Pin_4*%
%TO.N,motor_enc_a-*%
X197000000Y-94000000D03*
%TO.P,J11,3,Pin_3*%
%TO.N,motor_enc_a+*%
X195000000Y-94000000D03*
%TO.P,J11,2,Pin_2*%
%TO.N,GND*%
X193000000Y-94000000D03*
D11*
%TO.P,J11,1,Pin_1*%
%TO.N,Net-(J11-Pin_1)*%
X191000000Y-94000000D03*
%TD*%
D12*
%TO.P,TP1,1,1*%
%TO.N,+BATT*%
X194000000Y-66796000D03*
%TD*%
D13*
%TO.P,J8,A1,GND*%
%TO.N,GND*%
X205020000Y-33480000D03*
%TO.P,J8,A4,VBUS*%
%TO.N,Net-(J8-VBUS-PadA4)*%
X204220000Y-33480000D03*
D14*
%TO.P,J8,A5,CC1*%
%TO.N,Net-(J8-CC1)*%
X203070000Y-33480000D03*
%TO.P,J8,A6,D+*%
%TO.N,usb_d+*%
X202070000Y-33480000D03*
%TO.P,J8,A7,D-*%
%TO.N,usb_d-*%
X201570000Y-33480000D03*
%TO.P,J8,A8*%
%TO.N,N/C*%
X200570000Y-33480000D03*
D13*
%TO.P,J8,A9,VBUS*%
%TO.N,Net-(J8-VBUS-PadA4)*%
X199420000Y-33480000D03*
%TO.P,J8,A12,GND*%
%TO.N,GND*%
X198620000Y-33480000D03*
%TO.P,J8,B1,GND*%
X198620000Y-33480000D03*
%TO.P,J8,B4,VBUS*%
%TO.N,Net-(J8-VBUS-PadA4)*%
X199420000Y-33480000D03*
D14*
%TO.P,J8,B5,CC2*%
%TO.N,Net-(J8-CC2)*%
X200070000Y-33480000D03*
%TO.P,J8,B6,D+*%
%TO.N,usb_d+*%
X201070000Y-33480000D03*
%TO.P,J8,B7,D-*%
%TO.N,usb_d-*%
X202570000Y-33480000D03*
%TO.P,J8,B8*%
%TO.N,N/C*%
X203570000Y-33480000D03*
D13*
%TO.P,J8,B9,VBUS*%
%TO.N,Net-(J8-VBUS-PadA4)*%
X204220000Y-33480000D03*
%TO.P,J8,B12,GND*%
%TO.N,GND*%
X205020000Y-33480000D03*
D15*
%TO.P,J8,S1,SHIELD*%
X206140000Y-32905000D03*
D16*
X206140000Y-28725000D03*
D15*
X197500000Y-32905000D03*
D16*
X197500000Y-28725000D03*
%TD*%
D10*
%TO.P,J12,6,Pin_6*%
%TO.N,Net-(J12-Pin_6)*%
X235000000Y-94000000D03*
%TO.P,J12,5,Pin_5*%
%TO.N,+3.3V*%
X233000000Y-94000000D03*
%TO.P,J12,4,Pin_4*%
%TO.N,motor_enc_b-*%
X231000000Y-94000000D03*
%TO.P,J12,3,Pin_3*%
%TO.N,motor_enc_b+*%
X229000000Y-94000000D03*
%TO.P,J12,2,Pin_2*%
%TO.N,GND*%
X227000000Y-94000000D03*
D11*
%TO.P,J12,1,Pin_1*%
%TO.N,Net-(J12-Pin_1)*%
X225000000Y-94000000D03*
%TD*%
D17*
%TO.P,H2,1*%
%TO.N,N/C*%
X227297056Y-48000000D03*
X228000000Y-46302944D03*
X228000000Y-49697056D03*
X229697056Y-45600000D03*
D18*
X229697056Y-48000000D03*
D17*
X229697056Y-50400000D03*
X231394112Y-46302944D03*
X231394112Y-49697056D03*
X232097056Y-48000000D03*
%TD*%
D19*
%TO.P,J9,1,Pin_1*%
%TO.N,+3.3V*%
X191500000Y-102000000D03*
D20*
%TO.P,J9,2,Pin_2*%
%TO.N,I2C_scl*%
X194000000Y-102000000D03*
%TO.P,J9,3,Pin_3*%
%TO.N,I2C_sda*%
X196500000Y-102000000D03*
%TO.P,J9,4,Pin_4*%
%TO.N,GND*%
X199000000Y-102000000D03*
%TD*%
D21*
%TO.P,J7,1,Pin_1*%
%TO.N,+5V*%
X197834000Y-41444000D03*
D10*
%TO.P,J7,2,Pin_2*%
%TO.N,Net-(D8-DOUT)*%
X195834000Y-41444000D03*
%TO.P,J7,3,Pin_3*%
%TO.N,GND*%
X193834000Y-41444000D03*
%TD*%
D22*
%TO.P,J4,1,Pin_1*%
%TO.N,Net-(J4-Pin_1)*%
X210947000Y-101600000D03*
D23*
%TO.P,J4,2,Pin_2*%
%TO.N,Net-(J4-Pin_2)*%
X205867000Y-101600000D03*
%TD*%
D17*
%TO.P,H4,1*%
%TO.N,N/C*%
X231600000Y-88000000D03*
X232302944Y-86302944D03*
X232302944Y-89697056D03*
X234000000Y-85600000D03*
D18*
X234000000Y-88000000D03*
D17*
X234000000Y-90400000D03*
X235697056Y-86302944D03*
X235697056Y-89697056D03*
X236400000Y-88000000D03*
%TD*%
D24*
%TO.P,SW2,1*%
%TO.N,sw_team*%
X221000000Y-27712500D03*
D25*
%TO.P,SW2,2*%
%TO.N,GND*%
X223500000Y-27712500D03*
%TD*%
D26*
%TO.P,SW1,*%
%TO.N,*%
X228475000Y-30202500D03*
X235485000Y-30202500D03*
D27*
%TO.P,SW1,1,1*%
%TO.N,GND*%
X229725000Y-27712500D03*
%TO.P,SW1,2,2*%
%TO.N,Net-(U2-EN)*%
X234225000Y-27712500D03*
%TD*%
D12*
%TO.P,TP3,1,1*%
%TO.N,+5V*%
X194000000Y-75120000D03*
%TD*%
D28*
%TO.P,J1,1,Pin_1*%
%TO.N,Net-(J1-Pin_1)*%
X216810000Y-59000000D03*
D29*
%TO.P,J1,2,Pin_2*%
%TO.N,+3.3V*%
X214270000Y-59000000D03*
%TO.P,J1,3,Pin_3*%
%TO.N,I2C_scl*%
X211730000Y-59000000D03*
%TO.P,J1,4,Pin_4*%
%TO.N,I2C_sda*%
X209190000Y-59000000D03*
%TD*%
D12*
%TO.P,TP2,1,1*%
%TO.N,+3.3V*%
X194000000Y-71120000D03*
%TD*%
D28*
%TO.P,J14,1,Pin_1*%
%TO.N,GND*%
X230540000Y-80000000D03*
D29*
%TO.P,J14,2,Pin_2*%
%TO.N,+5V*%
X228000000Y-80000000D03*
%TO.P,J14,3,Pin_3*%
%TO.N,SERVO2*%
X225460000Y-80000000D03*
%TD*%
D17*
%TO.P,H1,1*%
%TO.N,N/C*%
X193600000Y-48000000D03*
X194302944Y-46302944D03*
X194302944Y-49697056D03*
X196000000Y-45600000D03*
D18*
X196000000Y-48000000D03*
D17*
X196000000Y-50400000D03*
X197697056Y-46302944D03*
X197697056Y-49697056D03*
X198400000Y-48000000D03*
%TD*%
D28*
%TO.P,J10,1,Pin_1*%
%TO.N,tft_rst*%
X205380000Y-71000000D03*
D29*
%TO.P,J10,2,Pin_2*%
%TO.N,tft_cs*%
X207920000Y-71000000D03*
%TO.P,J10,3,Pin_3*%
%TO.N,tft_dc*%
X210460000Y-71000000D03*
%TO.P,J10,4,Pin_4*%
%TO.N,tft_scl*%
X213000000Y-71000000D03*
%TO.P,J10,5,Pin_5*%
X215540000Y-71000000D03*
%TO.P,J10,6,Pin_6*%
%TO.N,Net-(J1-Pin_1)*%
X218080000Y-71000000D03*
%TO.P,J10,7,Pin_7*%
%TO.N,+3.3V*%
X220620000Y-71000000D03*
%TD*%
D19*
%TO.P,J3,1,Pin_1*%
%TO.N,RX_lidar*%
X227000000Y-102000000D03*
D20*
%TO.P,J3,2,Pin_2*%
%TO.N,TX_lidar*%
X229500000Y-102000000D03*
%TO.P,J3,3,Pin_3*%
%TO.N,+3.3V*%
X232000000Y-102000000D03*
%TO.P,J3,4,Pin_4*%
%TO.N,GND*%
X234500000Y-102000000D03*
%TD*%
D30*
%TO.P,SW4,1,1*%
%TO.N,GND*%
X189357000Y-28000000D03*
%TO.P,SW4,2,2*%
%TO.N,sw_tirette*%
X189357000Y-42503500D03*
%TD*%
D12*
%TO.P,TP12,1,1*%
%TO.N,GND*%
X190500000Y-77343000D03*
%TD*%
D28*
%TO.P,J2,1,Pin_1*%
%TO.N,GND*%
X195460000Y-80000000D03*
D29*
%TO.P,J2,2,Pin_2*%
%TO.N,+5V*%
X198000000Y-80000000D03*
%TO.P,J2,3,Pin_3*%
%TO.N,SERVO1*%
X200540000Y-80000000D03*
%TD*%
D17*
%TO.P,H3,1*%
%TO.N,N/C*%
X189600000Y-88000000D03*
X190302944Y-86302944D03*
X190302944Y-89697056D03*
X192000000Y-85600000D03*
D18*
X192000000Y-88000000D03*
D17*
X192000000Y-90400000D03*
X193697056Y-86302944D03*
X193697056Y-89697056D03*
X194400000Y-88000000D03*
%TD*%
D31*
%TO.P,U1,17,GND*%
%TO.N,GND*%
X218859000Y-86741000D03*
X218059000Y-86741000D03*
X217259000Y-86741000D03*
X218859000Y-87541000D03*
X218059000Y-87541000D03*
D32*
X218059000Y-87541000D03*
D31*
X217259000Y-87541000D03*
X218859000Y-88341000D03*
X218059000Y-88341000D03*
X217259000Y-88341000D03*
%TD*%
D33*
%TO.P,C18,1*%
%TO.N,+BATT*%
X219000000Y-98500000D03*
D34*
%TO.P,C18,2*%
%TO.N,GND*%
X219000000Y-103500000D03*
%TD*%
D22*
%TO.P,SW3,1,A*%
%TO.N,Net-(SW3-A)*%
X215265000Y-30500000D03*
D23*
%TO.P,SW3,2,B*%
%TO.N,Net-(J4-Pin_1)*%
X210185000Y-30500000D03*
%TD*%
D35*
%TO.N,Net-(J8-CC1)*%
X204089000Y-35306000D03*
%TO.N,Net-(J8-CC2)*%
X200914000Y-35560000D03*
D36*
%TO.N,+BATT*%
X201930000Y-51308000D03*
X208747879Y-47513940D03*
D35*
%TO.N,I2C_sda*%
X202946000Y-71755000D03*
%TO.N,I2C_scl*%
X201803000Y-75438000D03*
D36*
%TO.N,+3.3V*%
X197919000Y-70358000D03*
%TO.N,+BATT*%
X204089000Y-60452000D03*
%TO.N,+5V*%
X200914000Y-64643000D03*
X196469000Y-76454000D03*
%TO.N,+3.3V*%
X229108000Y-69977000D03*
%TO.N,+5V*%
X191643000Y-48514000D03*
D35*
%TO.N,motor_b-*%
X223976642Y-87492112D03*
%TO.N,motor_b+*%
X223410954Y-86926426D03*
%TO.N,motor_fault*%
X222866599Y-86340183D03*
%TO.N,Net-(J12-Pin_6)*%
X218694000Y-84455000D03*
%TO.N,Net-(J12-Pin_1)*%
X221488000Y-86741000D03*
D36*
%TO.N,+BATT*%
X198628000Y-66802000D03*
D35*
%TO.N,usb_d-*%
X202557411Y-34767728D03*
%TO.N,usb_d+*%
X201956369Y-35368770D03*
%TO.N,usb_d-*%
X221280521Y-60244521D03*
%TO.N,usb_d+*%
X220679479Y-59643479D03*
%TO.N,Net-(J4-Pin_2)*%
X202000000Y-90000000D03*
%TO.N,Net-(D8-DOUT)*%
X194000000Y-29500000D03*
%TD*%
D37*
%TO.N,Net-(J8-CC1)*%
X204089000Y-35306000D02*
X203070000Y-34287000D01*
X203070000Y-34287000D02*
X203070000Y-33480000D01*
%TO.N,Net-(J8-CC2)*%
X200914000Y-35560000D02*
X200070000Y-34716000D01*
X200070000Y-34716000D02*
X200070000Y-33480000D01*
D38*
%TO.N,+3.3V*%
X197157000Y-71120000D02*
X197919000Y-70358000D01*
X194000000Y-71120000D02*
X197157000Y-71120000D01*
%TO.N,+5V*%
X196469000Y-76454000D02*
X195334000Y-76454000D01*
X195334000Y-76454000D02*
X194000000Y-75120000D01*
D37*
%TO.N,Net-(J8-VBUS-PadA4)*%
X199420000Y-33480000D02*
X199420000Y-32905001D01*
X203517999Y-32203000D02*
X204220000Y-32905001D01*
X199420000Y-32905001D02*
X200122001Y-32203000D01*
X200122001Y-32203000D02*
X203517999Y-32203000D01*
X204220000Y-32905001D02*
X204220000Y-33480000D01*
D38*
%TO.N,+BATT*%
X198628000Y-66802000D02*
X196215000Y-66802000D01*
X196215000Y-66802000D02*
X196209000Y-66796000D01*
X196209000Y-66796000D02*
X194000000Y-66796000D01*
D37*
%TO.N,usb_d+*%
X201070000Y-33480000D02*
X201070000Y-34088824D01*
X201070000Y-34088824D02*
X201500003Y-34518827D01*
X201500003Y-34518827D02*
X201956369Y-34518827D01*
X202070000Y-33480000D02*
X202070000Y-34405196D01*
X202070000Y-34405196D02*
X201956369Y-34518827D01*
X201956369Y-34518827D02*
X201956369Y-35368770D01*
%TO.N,usb_d-*%
X201570000Y-33480000D02*
X201570000Y-32871176D01*
X201570000Y-32871176D02*
X201837176Y-32604000D01*
X202302824Y-32604000D02*
X202570000Y-32871176D01*
X201837176Y-32604000D02*
X202302824Y-32604000D01*
X202570000Y-32871176D02*
X202570000Y-33480000D01*
X202570000Y-33480000D02*
X202570000Y-34755139D01*
X202570000Y-34755139D02*
X202557411Y-34767728D01*
D38*
%TO.N,+3.3V*%
X193846000Y-98679000D02*
X195580000Y-98679000D01*
X191500000Y-101025000D02*
X193846000Y-98679000D01*
X191500000Y-102000000D02*
X191500000Y-101025000D01*
X195580000Y-98679000D02*
X199000000Y-95259000D01*
X199000000Y-95259000D02*
X199000000Y-94000000D01*
X233000000Y-94000000D02*
X233000000Y-96565000D01*
X233000000Y-96565000D02*
X232000000Y-97565000D01*
X232000000Y-97565000D02*
X232000000Y-102000000D01*
%TD*%
%TA.AperFunction,Conductor*%
%TO.N,GND*%
G36*
X219657780Y-26520185D02*
G01*
X219703535Y-26572989D01*
X219713479Y-26642147D01*
X219708447Y-26663500D01*
X219660001Y-26809703D01*
X219660001Y-26809704D01*
X219660000Y-26809704D01*
X219649500Y-26912483D01*
X219649500Y-28512501D01*
X219649501Y-28512518D01*
X219660000Y-28615296D01*
X219660001Y-28615299D01*
X219715185Y-28781831D01*
X219715187Y-28781836D01*
X219746792Y-28833076D01*
X219807288Y-28931156D01*
X219931344Y-29055212D01*
X220080666Y-29147314D01*
X220247203Y-29202499D01*
X220349991Y-29213000D01*
X221650008Y-29212999D01*
X221752797Y-29202499D01*
X221919334Y-29147314D01*
X222068656Y-29055212D01*
X222192712Y-28931156D01*
X222284814Y-28781834D01*
X222284814Y-28781831D01*
X222288448Y-28775941D01*
X222340395Y-28729216D01*
X222409358Y-28717993D01*
X222473440Y-28745836D01*
X222481668Y-28753356D01*
X222620535Y-28892223D01*
X222620540Y-28892227D01*
X222792442Y-29017120D01*
X222981782Y-29113595D01*
X223183871Y-29179257D01*
X223250000Y-29189731D01*
X223250000Y-28145512D01*
X223307007Y-28178425D01*
X223434174Y-28212500D01*
X223565826Y-28212500D01*
X223692993Y-28178425D01*
X223750000Y-28145512D01*
X223750000Y-29189730D01*
X223816126Y-29179257D01*
X223816129Y-29179257D01*
X224018217Y-29113595D01*
X224207557Y-29017120D01*
X224379459Y-28892227D01*
X224379464Y-28892223D01*
X224529723Y-28741964D01*
X224529727Y-28741959D01*
X224654620Y-28570057D01*
X224751095Y-28380717D01*
X224816757Y-28178630D01*
X224816757Y-28178627D01*
X224850000Y-27968746D01*
X224850000Y-27962500D01*
X223933012Y-27962500D01*
X223965925Y-27905493D01*
X224000000Y-27778326D01*
X224000000Y-27646674D01*
X223965925Y-27519507D01*
X223933012Y-27462500D01*
X224850000Y-27462500D01*
X224850000Y-27456253D01*
X224816757Y-27246372D01*
X224816757Y-27246369D01*
X224751095Y-27044282D01*
X224654620Y-26854942D01*
X224540150Y-26697385D01*
X224516670Y-26631578D01*
X224532496Y-26563525D01*
X224582602Y-26514830D01*
X224640468Y-26500500D01*
X228817444Y-26500500D01*
X228884483Y-26520185D01*
X228902681Y-26541187D01*
X228904961Y-26538908D01*
X229599673Y-27233619D01*
X229533937Y-27251234D01*
X229421063Y-27316402D01*
X229328902Y-27408563D01*
X229263734Y-27521437D01*
X229246119Y-27587173D01*
X228591830Y-26932883D01*
X228548992Y-26991846D01*
X228450736Y-27184682D01*
X228450735Y-27184685D01*
X228383857Y-27390518D01*
X228350000Y-27604279D01*
X228350000Y-27820720D01*
X228383857Y-28034481D01*
X228450735Y-28240314D01*
X228450736Y-28240317D01*
X228548994Y-28433157D01*
X228564947Y-28455114D01*
X228588427Y-28520920D01*
X228572602Y-28588974D01*
X228522497Y-28637669D01*
X228464629Y-28652000D01*
X228352973Y-28652000D01*
X228297093Y-28660850D01*
X228111927Y-28690178D01*
X227879812Y-28765597D01*
X227662357Y-28876396D01*
X227464923Y-29019839D01*
X227464918Y-29019843D01*
X227292343Y-29192418D01*
X227292339Y-29192423D01*
X227148896Y-29389857D01*
X227038097Y-29607312D01*
X226962678Y-29839427D01*
X226952807Y-29901751D01*
X226924500Y-30080473D01*
X226924500Y-30324527D01*
X226962679Y-30565576D01*
X227038096Y-30797685D01*
X227085701Y-30891116D01*
X227148896Y-31015142D01*
X227292339Y-31212576D01*
X227292343Y-31212581D01*
X227464918Y-31385156D01*
X227464923Y-31385160D01*
X227580054Y-31468807D01*
X227662361Y-31528606D01*
X227879815Y-31639404D01*
X228111924Y-31714821D01*
X228352973Y-31753000D01*
X228352974Y-31753000D01*
X228597026Y-31753000D01*
X228597027Y-31753000D01*
X228838076Y-31714821D01*
X229070185Y-31639404D01*
X229287639Y-31528606D01*
X229485083Y-31385155D01*
X229657655Y-31212583D01*
X229801106Y-31015139D01*
X229911904Y-30797685D01*
X229987321Y-30565576D01*
X230025500Y-30324527D01*
X230025500Y-30080473D01*
X229987321Y-29839424D01*
X229911904Y-29607315D01*
X229801106Y-29389861D01*
X229767297Y-29343327D01*
X229724474Y-29284385D01*
X229700994Y-29218579D01*
X229716820Y-29150525D01*
X229766925Y-29101830D01*
X229824792Y-29087500D01*
X229833220Y-29087500D01*
X230046981Y-29053642D01*
X230252814Y-28986764D01*
X230252817Y-28986763D01*
X230445656Y-28888506D01*
X230504615Y-28845668D01*
X230504616Y-28845668D01*
X229850326Y-28191380D01*
X229916063Y-28173766D01*
X230028937Y-28108598D01*
X230121098Y-28016437D01*
X230186266Y-27903563D01*
X230203879Y-27837827D01*
X230858168Y-28492116D01*
X230858168Y-28492115D01*
X230901006Y-28433156D01*
X230999263Y-28240317D01*
X230999264Y-28240314D01*
X231066142Y-28034481D01*
X231100000Y-27820720D01*
X231100000Y-27604279D01*
X231066142Y-27390518D01*
X230999264Y-27184685D01*
X230999263Y-27184682D01*
X230901005Y-26991842D01*
X230858168Y-26932883D01*
X230858168Y-26932882D01*
X230203879Y-27587171D01*
X230186266Y-27521437D01*
X230121098Y-27408563D01*
X230028937Y-27316402D01*
X229916063Y-27251234D01*
X229850326Y-27233619D01*
X230545038Y-26538909D01*
X230547467Y-26541338D01*
X230572378Y-26516081D01*
X230632555Y-26500500D01*
X233192388Y-26500500D01*
X233259427Y-26520185D01*
X233305182Y-26572989D01*
X233315126Y-26642147D01*
X233286101Y-26705703D01*
X233280069Y-26712181D01*
X233175830Y-26816419D01*
X233175830Y-26816420D01*
X233175828Y-26816422D01*
X233121174Y-26891645D01*
X233048567Y-26991580D01*
X232950273Y-27184490D01*
X232950272Y-27184493D01*
X232883370Y-27390401D01*
X232862616Y-27521437D01*
X232849500Y-27604246D01*
X232849500Y-27820754D01*
X232859946Y-27886709D01*
X232883370Y-28034598D01*
X232950272Y-28240506D01*
X232950273Y-28240509D01*
X233021714Y-28380717D01*
X233048567Y-28433419D01*
X233175828Y-28608578D01*
X233328922Y-28761672D01*
X233504081Y-28888933D01*
X233586946Y-28931155D01*
X233696990Y-28987226D01*
X233696993Y-28987227D01*
X233713918Y-28992726D01*
X233902903Y-29054130D01*
X234116746Y-29088000D01*
X234116747Y-29088000D01*
X234134844Y-29088000D01*
X234201883Y-29107685D01*
X234247638Y-29160489D01*
X234257582Y-29229647D01*
X234235162Y-29284885D01*
X234158896Y-29389856D01*
X234048097Y-29607312D01*
X233972678Y-29839427D01*
X233962807Y-29901751D01*
X233934500Y-30080473D01*
X233934500Y-30324527D01*
X233972679Y-30565576D01*
X234048096Y-30797685D01*
X234095701Y-30891116D01*
X234158896Y-31015142D01*
X234302339Y-31212576D01*
X234302343Y-31212581D01*
X234474918Y-31385156D01*
X234474923Y-31385160D01*
X234590054Y-31468807D01*
X234672361Y-31528606D01*
X234889815Y-31639404D01*
X235121924Y-31714821D01*
X235362973Y-31753000D01*
X235362974Y-31753000D01*
X235607026Y-31753000D01*
X235607027Y-31753000D01*
X235848076Y-31714821D01*
X236080185Y-31639404D01*
X236297639Y-31528606D01*
X236495083Y-31385155D01*
X236667655Y-31212583D01*
X236811106Y-31015139D01*
X236921904Y-30797685D01*
X236997321Y-30565576D01*
X237035500Y-30324527D01*
X237035500Y-30080473D01*
X236997321Y-29839424D01*
X236921904Y-29607315D01*
X236811106Y-29389861D01*
X236734837Y-29284885D01*
X236667660Y-29192423D01*
X236667656Y-29192418D01*
X236495081Y-29019843D01*
X236495076Y-29019839D01*
X236297642Y-28876396D01*
X236297641Y-28876395D01*
X236297639Y-28876394D01*
X236080185Y-28765596D01*
X235848076Y-28690179D01*
X235848074Y-28690178D01*
X235848072Y-28690178D01*
X235679769Y-28663521D01*
X235607027Y-28652000D01*
X235485988Y-28652000D01*
X235418949Y-28632315D01*
X235373194Y-28579511D01*
X235363250Y-28510353D01*
X235385671Y-28455113D01*
X235401432Y-28433420D01*
X235499726Y-28240509D01*
X235499727Y-28240506D01*
X235504276Y-28226504D01*
X235566630Y-28034597D01*
X235600500Y-27820754D01*
X235600500Y-27604246D01*
X235566630Y-27390403D01*
X235499726Y-27184491D01*
X235499726Y-27184490D01*
X235449642Y-27086197D01*
X235401433Y-26991581D01*
X235274172Y-26816422D01*
X235169931Y-26712181D01*
X235136446Y-26650858D01*
X235141430Y-26581166D01*
X235183302Y-26525233D01*
X235248766Y-26500816D01*
X235257612Y-26500500D01*
X237375500Y-26500500D01*
X237442539Y-26520185D01*
X237488294Y-26572989D01*
X237499500Y-26624500D01*
X237499500Y-38176000D01*
X237479815Y-38243039D01*
X237427011Y-38288794D01*
X237375500Y-38300000D01*
X233800000Y-38300000D01*
X233800000Y-83700000D01*
X237375500Y-83700000D01*
X237442539Y-83719685D01*
X237488294Y-83772489D01*
X237499500Y-83824000D01*
X237499500Y-86201991D01*
X237479815Y-86269030D01*
X237427011Y-86314785D01*
X237357853Y-86324729D01*
X237294297Y-86295704D01*
X237266142Y-86260444D01*
X237177859Y-86095279D01*
X237177858Y-86095277D01*
X237177853Y-86095268D01*
X236975854Y-85792956D01*
X236745197Y-85511899D01*
X236745196Y-85511898D01*
X236745192Y-85511893D01*
X236488106Y-85254807D01*
X236207049Y-85024150D01*
X236207048Y-85024149D01*
X236207044Y-85024146D01*
X235904732Y-84822147D01*
X235904727Y-84822144D01*
X235904720Y-84822140D01*
X235584083Y-84650756D01*
X235584078Y-84650754D01*
X235248165Y-84511614D01*
X234900223Y-84406067D01*
X234900212Y-84406064D01*
X234543630Y-84335137D01*
X234271111Y-84308296D01*
X234181794Y-84299500D01*
X233818206Y-84299500D01*
X233735679Y-84307628D01*
X233456369Y-84335137D01*
X233099787Y-84406064D01*
X233099776Y-84406067D01*
X232751834Y-84511614D01*
X232415921Y-84650754D01*
X232415916Y-84650756D01*
X232095279Y-84822140D01*
X232095261Y-84822151D01*
X231792964Y-85024140D01*
X231792950Y-85024150D01*
X231511893Y-85254807D01*
X231254807Y-85511893D01*
X231024150Y-85792950D01*
X231024140Y-85792964D01*
X230822151Y-86095261D01*
X230822140Y-86095279D01*
X230650756Y-86415916D01*
X230650754Y-86415921D01*
X230511614Y-86751834D01*
X230406067Y-87099776D01*
X230406064Y-87099787D01*
X230335137Y-87456369D01*
X230311987Y-87691419D01*
X230299500Y-87818206D01*
X230299500Y-88181794D01*
X230301442Y-88201509D01*
X230335137Y-88543630D01*
X230406064Y-88900212D01*
X230406067Y-88900223D01*
X230511614Y-89248165D01*
X230650754Y-89584078D01*
X230650756Y-89584083D01*
X230822140Y-89904720D01*
X230822151Y-89904738D01*
X231024140Y-90207035D01*
X231024150Y-90207049D01*
X231254807Y-90488106D01*
X231511893Y-90745192D01*
X231511898Y-90745196D01*
X231511899Y-90745197D01*
X231792956Y-90975854D01*
X232095268Y-91177853D01*
X232095277Y-91177858D01*
X232095279Y-91177859D01*
X232415916Y-91349243D01*
X232415918Y-91349243D01*
X232415924Y-91349247D01*
X232751836Y-91488386D01*
X233099767Y-91593930D01*
X233099773Y-91593931D01*
X233099776Y-91593932D01*
X233099787Y-91593935D01*
X233456369Y-91664862D01*
X233818206Y-91700500D01*
X233818209Y-91700500D01*
X234181791Y-91700500D01*
X234181794Y-91700500D01*
X234543631Y-91664862D01*
X234613045Y-91651054D01*
X234900212Y-91593935D01*
X234900223Y-91593932D01*
X234900223Y-91593931D01*
X234900233Y-91593930D01*
X235248164Y-91488386D01*
X235584076Y-91349247D01*
X235904732Y-91177853D01*
X236207044Y-90975854D01*
X236488101Y-90745197D01*
X236745197Y-90488101D01*
X236975854Y-90207044D01*
X237177853Y-89904732D01*
X237266142Y-89739555D01*
X237315104Y-89689711D01*
X237383242Y-89674250D01*
X237448921Y-89698082D01*
X237491290Y-89753639D01*
X237499500Y-89798008D01*
X237499500Y-105375500D01*
X237479815Y-105442539D01*
X237427011Y-105488294D01*
X237375500Y-105499500D01*
X188624500Y-105499500D01*
X188557461Y-105479815D01*
X188511706Y-105427011D01*
X188500500Y-105375500D01*
X188500500Y-93324983D01*
X189899500Y-93324983D01*
X189899500Y-94675001D01*
X189899501Y-94675018D01*
X189910000Y-94777796D01*
X189910001Y-94777799D01*
X189948013Y-94892510D01*
X189965186Y-94944334D01*
X190057288Y-95093656D01*
X190181344Y-95217712D01*
X190330666Y-95309814D01*
X190497203Y-95364999D01*
X190599991Y-95375500D01*
X191400008Y-95375499D01*
X191400016Y-95375498D01*
X191400019Y-95375498D01*
X191456302Y-95369748D01*
X191502797Y-95364999D01*
X191669334Y-95309814D01*
X191818656Y-95217712D01*
X191942712Y-95093656D01*
X191982581Y-95029016D01*
X192034525Y-94982294D01*
X192103488Y-94971071D01*
X192167570Y-94998914D01*
X192175799Y-95006434D01*
X192283397Y-95114032D01*
X192423475Y-95215804D01*
X192577744Y-95294408D01*
X192742415Y-95347914D01*
X192742414Y-95347914D01*
X192749999Y-95349115D01*
X192750000Y-95349114D01*
X192750000Y-94280330D01*
X192769745Y-94300075D01*
X192855255Y-94349444D01*
X192950630Y-94375000D01*
X193049370Y-94375000D01*
X193144745Y-94349444D01*
X193230255Y-94300075D01*
X193250000Y-94280330D01*
X193250000Y-95349115D01*
X193257584Y-95347914D01*
X193422255Y-95294408D01*
X193576524Y-95215804D01*
X193716602Y-95114032D01*
X193839036Y-94991598D01*
X193899371Y-94908552D01*
X193954700Y-94865886D01*
X194024313Y-94859905D01*
X194086109Y-94892510D01*
X194100008Y-94908550D01*
X194100318Y-94908976D01*
X194160586Y-94991928D01*
X194283072Y-95114414D01*
X194423212Y-95216232D01*
X194577555Y-95294873D01*
X194742299Y-95348402D01*
X194913389Y-95375500D01*
X194913390Y-95375500D01*
X195086610Y-95375500D01*
X195086611Y-95375500D01*
X195257701Y-95348402D01*
X195422445Y-95294873D01*
X195576788Y-95216232D01*
X195716928Y-95114414D01*
X195839414Y-94991928D01*
X195899682Y-94908975D01*
X195955012Y-94866311D01*
X196024626Y-94860332D01*
X196086421Y-94892938D01*
X196100315Y-94908973D01*
X196160586Y-94991928D01*
X196283072Y-95114414D01*
X196423212Y-95216232D01*
X196577555Y-95294873D01*
X196742299Y-95348402D01*
X196913389Y-95375500D01*
X196913390Y-95375500D01*
X197086610Y-95375500D01*
X197086611Y-95375500D01*
X197163529Y-95363317D01*
X197232821Y-95372271D01*
X197286273Y-95417267D01*
X197306913Y-95484019D01*
X197288188Y-95551333D01*
X197270607Y-95573471D01*
X195201899Y-97642181D01*
X195140576Y-97675666D01*
X195114218Y-97678500D01*
X193747455Y-97678500D01*
X193650812Y-97697724D01*
X193554167Y-97716947D01*
X193554161Y-97716949D01*
X193500834Y-97739037D01*
X193500834Y-97739038D01*
X193455315Y-97757892D01*
X193372089Y-97792366D01*
X193372079Y-97792371D01*
X193208219Y-97901859D01*
X193166978Y-97943101D01*
X193068861Y-98041218D01*
X193068858Y-98041221D01*
X190862221Y-100247858D01*
X190862218Y-100247861D01*
X190792538Y-100317540D01*
X190722859Y-100387219D01*
X190722857Y-100387222D01*
X190609984Y-100556150D01*
X190608823Y-100555374D01*
X190569789Y-100596895D01*
X190431342Y-100682289D01*
X190307289Y-100806342D01*
X190215187Y-100955663D01*
X190215185Y-100955668D01*
X190211893Y-100965604D01*
X190160001Y-101122203D01*
X190160001Y-101122204D01*
X190160000Y-101122204D01*
X190149500Y-101224983D01*
X190149500Y-102775001D01*
X190149501Y-102775018D01*
X190160000Y-102877796D01*
X190160001Y-102877799D01*
X190205894Y-103016294D01*
X190215186Y-103044334D01*
X190307288Y-103193656D01*
X190431344Y-103317712D01*
X190580666Y-103409814D01*
X190747203Y-103464999D01*
X190849991Y-103475500D01*
X192150008Y-103475499D01*
X192252797Y-103464999D01*
X192419334Y-103409814D01*
X192568656Y-103317712D01*
X192692712Y-103193656D01*
X192784814Y-103044334D01*
X192784814Y-103044331D01*
X192788178Y-103038879D01*
X192840126Y-102992154D01*
X192909088Y-102980931D01*
X192973170Y-103008774D01*
X192981398Y-103016294D01*
X193120213Y-103155109D01*
X193292179Y-103280048D01*
X193292181Y-103280049D01*
X193292184Y-103280051D01*
X193481588Y-103376557D01*
X193683757Y-103442246D01*
X193893713Y-103475500D01*
X193893714Y-103475500D01*
X194106286Y-103475500D01*
X194106287Y-103475500D01*
X194316243Y-103442246D01*
X194518412Y-103376557D01*
X194707816Y-103280051D01*
X194807698Y-103207483D01*
X194879786Y-103155109D01*
X194879788Y-103155106D01*
X194879792Y-103155104D01*
X195030104Y-103004792D01*
X195149683Y-102840204D01*
X195205011Y-102797540D01*
X195274624Y-102791561D01*
X195336420Y-102824166D01*
X195350313Y-102840199D01*
X195409643Y-102921860D01*
X195469896Y-103004792D01*
X195620213Y-103155109D01*
X195792179Y-103280048D01*
X195792181Y-103280049D01*
X195792184Y-103280051D01*
X195981588Y-103376557D01*
X196183757Y-103442246D01*
X196393713Y-103475500D01*
X196393714Y-103475500D01*
X196606286Y-103475500D01*
X196606287Y-103475500D01*
X196816243Y-103442246D01*
X197018412Y-103376557D01*
X197207816Y-103280051D01*
X197307698Y-103207483D01*
X197379786Y-103155109D01*
X197379788Y-103155106D01*
X197379792Y-103155104D01*
X197530104Y-103004792D01*
X197649991Y-102839779D01*
X197705320Y-102797115D01*
X197774933Y-102791136D01*
X197836729Y-102823741D01*
X197850627Y-102839781D01*
X197970272Y-103004459D01*
X197970276Y-103004464D01*
X198120535Y-103154723D01*
X198120540Y-103154727D01*
X198292442Y-103279620D01*
X198481782Y-103376095D01*
X198683871Y-103441757D01*
X198750000Y-103452231D01*
X198750000Y-102404145D01*
X198816657Y-102442630D01*
X198937465Y-102475000D01*
X199062535Y-102475000D01*
X199183343Y-102442630D01*
X199250000Y-102404145D01*
X199250000Y-103452230D01*
X199316126Y-103441757D01*
X199316129Y-103441757D01*
X199518217Y-103376095D01*
X199707557Y-103279620D01*
X199879459Y-103154727D01*
X199879464Y-103154723D01*
X200029723Y-103004464D01*
X200029727Y-103004459D01*
X200154620Y-102832557D01*
X200251095Y-102643217D01*
X200316757Y-102441130D01*
X200316757Y-102441127D01*
X200347030Y-102250000D01*
X199404146Y-102250000D01*
X199442630Y-102183343D01*
X199475000Y-102062535D01*
X199475000Y-101937465D01*
X199442630Y-101816657D01*
X199404146Y-101750000D01*
X200347030Y-101750000D01*
X200316758Y-101558873D01*
X200298649Y-101503140D01*
X200298648Y-101503138D01*
X200287515Y-101468872D01*
X203866500Y-101468872D01*
X203866500Y-101731127D01*
X203871449Y-101768713D01*
X203900730Y-101991116D01*
X203965277Y-102232009D01*
X203968602Y-102244418D01*
X203968605Y-102244428D01*
X204068953Y-102486690D01*
X204068958Y-102486700D01*
X204200075Y-102713803D01*
X204359718Y-102921851D01*
X204359726Y-102921860D01*
X204545140Y-103107274D01*
X204545148Y-103107281D01*
X204753196Y-103266924D01*
X204980299Y-103398041D01*
X204980309Y-103398046D01*
X205167300Y-103475500D01*
X205222581Y-103498398D01*
X205475884Y-103566270D01*
X205724188Y-103598960D01*
X205735864Y-103600498D01*
X205735880Y-103600500D01*
X205735887Y-103600500D01*
X205998113Y-103600500D01*
X205998120Y-103600500D01*
X206258116Y-103566270D01*
X206511419Y-103498398D01*
X206753697Y-103398043D01*
X206980803Y-103266924D01*
X207188851Y-103107282D01*
X207188855Y-103107277D01*
X207188860Y-103107274D01*
X207374274Y-102921860D01*
X207374277Y-102921855D01*
X207374282Y-102921851D01*
X207533924Y-102713803D01*
X207665043Y-102486697D01*
X207672878Y-102467783D01*
X207709199Y-102380095D01*
X207765398Y-102244419D01*
X207833270Y-101991116D01*
X207867500Y-101731120D01*
X207867500Y-101468880D01*
X207833270Y-101208884D01*
X207765398Y-100955581D01*
X207719708Y-100845276D01*
X207665046Y-100713309D01*
X207665041Y-100713299D01*
X207533924Y-100486196D01*
X207374281Y-100278148D01*
X207374274Y-100278140D01*
X207188860Y-100092726D01*
X207188851Y-100092718D01*
X207135963Y-100052135D01*
X208946500Y-100052135D01*
X208946500Y-103147870D01*
X208946501Y-103147876D01*
X208952908Y-103207483D01*
X209003202Y-103342328D01*
X209003206Y-103342335D01*
X209089452Y-103457544D01*
X209089455Y-103457547D01*
X209204664Y-103543793D01*
X209204671Y-103543797D01*
X209339517Y-103594091D01*
X209339516Y-103594091D01*
X209346444Y-103594835D01*
X209399127Y-103600500D01*
X212494872Y-103600499D01*
X212554483Y-103594091D01*
X212689331Y-103543796D01*
X212804546Y-103457546D01*
X212849360Y-103397682D01*
X217700000Y-103397682D01*
X217700000Y-103602317D01*
X217732009Y-103804417D01*
X217795244Y-103999031D01*
X217888141Y-104181350D01*
X217888147Y-104181359D01*
X217920523Y-104225921D01*
X217920524Y-104225922D01*
X218600000Y-103546446D01*
X218600000Y-103552661D01*
X218627259Y-103654394D01*
X218679920Y-103745606D01*
X218754394Y-103820080D01*
X218845606Y-103872741D01*
X218947339Y-103900000D01*
X218953553Y-103900000D01*
X218274076Y-104579474D01*
X218318650Y-104611859D01*
X218500968Y-104704755D01*
X218695582Y-104767990D01*
X218897683Y-104800000D01*
X219102317Y-104800000D01*
X219304417Y-104767990D01*
X219499031Y-104704755D01*
X219681349Y-104611859D01*
X219725921Y-104579474D01*
X219046447Y-103900000D01*
X219052661Y-103900000D01*
X219154394Y-103872741D01*
X219245606Y-103820080D01*
X219320080Y-103745606D01*
X219372741Y-103654394D01*
X219400000Y-103552661D01*
X219400000Y-103546447D01*
X220079474Y-104225921D01*
X220111859Y-104181349D01*
X220204755Y-103999031D01*
X220267990Y-103804417D01*
X220300000Y-103602317D01*
X220300000Y-103397682D01*
X220267990Y-103195582D01*
X220204755Y-103000968D01*
X220111859Y-102818650D01*
X220079474Y-102774077D01*
X220079474Y-102774076D01*
X219400000Y-103453551D01*
X219400000Y-103447339D01*
X219372741Y-103345606D01*
X219320080Y-103254394D01*
X219245606Y-103179920D01*
X219154394Y-103127259D01*
X219052661Y-103100000D01*
X219046446Y-103100000D01*
X219725922Y-102420524D01*
X219725921Y-102420523D01*
X219681359Y-102388147D01*
X219681350Y-102388141D01*
X219499031Y-102295244D01*
X219304417Y-102232009D01*
X219102317Y-102200000D01*
X218897683Y-102200000D01*
X218695582Y-102232009D01*
X218500968Y-102295244D01*
X218318644Y-102388143D01*
X218274077Y-102420523D01*
X218274077Y-102420524D01*
X218953554Y-103100000D01*
X218947339Y-103100000D01*
X218845606Y-103127259D01*
X218754394Y-103179920D01*
X218679920Y-103254394D01*
X218627259Y-103345606D01*
X218600000Y-103447339D01*
X218600000Y-103453553D01*
X217920524Y-102774077D01*
X217920523Y-102774077D01*
X217888143Y-102818644D01*
X217795244Y-103000968D01*
X217732009Y-103195582D01*
X217700000Y-103397682D01*
X212849360Y-103397682D01*
X212890796Y-103342331D01*
X212941091Y-103207483D01*
X212947500Y-103147873D01*
X212947499Y-100052128D01*
X212941091Y-99992517D01*
X212890796Y-99857669D01*
X212890795Y-99857668D01*
X212890793Y-99857664D01*
X212804547Y-99742455D01*
X212804544Y-99742452D01*
X212689335Y-99656206D01*
X212689328Y-99656202D01*
X212554482Y-99605908D01*
X212554483Y-99605908D01*
X212494883Y-99599501D01*
X212494881Y-99599500D01*
X212494873Y-99599500D01*
X212494864Y-99599500D01*
X209399129Y-99599500D01*
X209399123Y-99599501D01*
X209339516Y-99605908D01*
X209204671Y-99656202D01*
X209204664Y-99656206D01*
X209089455Y-99742452D01*
X209089452Y-99742455D01*
X209003206Y-99857664D01*
X209003202Y-99857671D01*
X208952908Y-99992517D01*
X208946501Y-100052116D01*
X208946501Y-100052123D01*
X208946500Y-100052135D01*
X207135963Y-100052135D01*
X206980803Y-99933075D01*
X206753700Y-99801958D01*
X206753690Y-99801953D01*
X206511428Y-99701605D01*
X206511421Y-99701603D01*
X206511419Y-99701602D01*
X206258116Y-99633730D01*
X206200339Y-99626123D01*
X205998127Y-99599500D01*
X205998120Y-99599500D01*
X205735880Y-99599500D01*
X205735872Y-99599500D01*
X205504772Y-99629926D01*
X205475884Y-99633730D01*
X205294491Y-99682334D01*
X205222581Y-99701602D01*
X205222571Y-99701605D01*
X204980309Y-99801953D01*
X204980299Y-99801958D01*
X204753196Y-99933075D01*
X204545148Y-100092718D01*
X204359718Y-100278148D01*
X204200075Y-100486196D01*
X204068958Y-100713299D01*
X204068953Y-100713309D01*
X203968605Y-100955571D01*
X203968602Y-100955581D01*
X203900730Y-101208884D01*
X203898609Y-101224991D01*
X203866500Y-101468872D01*
X200287515Y-101468872D01*
X200251095Y-101356782D01*
X200154620Y-101167442D01*
X200029727Y-100995540D01*
X200029723Y-100995535D01*
X199879464Y-100845276D01*
X199879459Y-100845272D01*
X199707557Y-100720379D01*
X199518215Y-100623903D01*
X199316124Y-100558241D01*
X199250000Y-100547768D01*
X199250000Y-101595854D01*
X199183343Y-101557370D01*
X199062535Y-101525000D01*
X198937465Y-101525000D01*
X198816657Y-101557370D01*
X198750000Y-101595854D01*
X198750000Y-100547768D01*
X198749999Y-100547768D01*
X198683875Y-100558241D01*
X198481784Y-100623903D01*
X198292442Y-100720379D01*
X198120540Y-100845272D01*
X198120535Y-100845276D01*
X197970276Y-100995535D01*
X197970272Y-100995540D01*
X197850627Y-101160218D01*
X197795297Y-101202884D01*
X197725684Y-101208863D01*
X197663889Y-101176257D01*
X197649991Y-101160218D01*
X197530109Y-100995214D01*
X197530105Y-100995209D01*
X197379786Y-100844890D01*
X197207820Y-100719951D01*
X197018414Y-100623444D01*
X197018413Y-100623443D01*
X197018412Y-100623443D01*
X196816243Y-100557754D01*
X196816241Y-100557753D01*
X196816240Y-100557753D01*
X196654957Y-100532208D01*
X196606287Y-100524500D01*
X196393713Y-100524500D01*
X196345042Y-100532208D01*
X196183760Y-100557753D01*
X195981585Y-100623444D01*
X195792179Y-100719951D01*
X195620213Y-100844890D01*
X195469894Y-100995209D01*
X195469890Y-100995214D01*
X195350318Y-101159793D01*
X195294989Y-101202459D01*
X195225375Y-101208438D01*
X195163580Y-101175833D01*
X195149682Y-101159793D01*
X195030109Y-100995214D01*
X195030105Y-100995209D01*
X194879786Y-100844890D01*
X194707820Y-100719951D01*
X194518414Y-100623444D01*
X194518413Y-100623443D01*
X194518412Y-100623443D01*
X194316243Y-100557754D01*
X194316241Y-100557753D01*
X194316240Y-100557753D01*
X194154957Y-100532208D01*
X194106287Y-100524500D01*
X193893713Y-100524500D01*
X193839841Y-100533032D01*
X193702342Y-100554810D01*
X193633048Y-100545855D01*
X193579596Y-100500859D01*
X193558957Y-100434107D01*
X193577682Y-100366794D01*
X193595260Y-100344658D01*
X194224101Y-99715819D01*
X194285424Y-99682334D01*
X194311782Y-99679500D01*
X195678543Y-99679500D01*
X195718449Y-99671561D01*
X195795657Y-99656204D01*
X195871836Y-99641051D01*
X195925165Y-99618961D01*
X196053914Y-99565632D01*
X196217782Y-99456139D01*
X196357139Y-99316782D01*
X196357139Y-99316780D01*
X196367347Y-99306573D01*
X196367348Y-99306570D01*
X197773937Y-97899983D01*
X217699500Y-97899983D01*
X217699500Y-99100001D01*
X217699501Y-99100018D01*
X217710000Y-99202796D01*
X217710001Y-99202799D01*
X217744387Y-99306567D01*
X217765186Y-99369334D01*
X217857288Y-99518656D01*
X217981344Y-99642712D01*
X218130666Y-99734814D01*
X218297203Y-99789999D01*
X218399991Y-99800500D01*
X219600008Y-99800499D01*
X219702797Y-99789999D01*
X219869334Y-99734814D01*
X220018656Y-99642712D01*
X220142712Y-99518656D01*
X220234814Y-99369334D01*
X220289999Y-99202797D01*
X220300500Y-99100009D01*
X220300499Y-97899992D01*
X220289999Y-97797203D01*
X220234814Y-97630666D01*
X220142712Y-97481344D01*
X220018656Y-97357288D01*
X219869334Y-97265186D01*
X219702797Y-97210001D01*
X219702795Y-97210000D01*
X219600010Y-97199500D01*
X218399998Y-97199500D01*
X218399981Y-97199501D01*
X218297203Y-97210000D01*
X218297200Y-97210001D01*
X218130668Y-97265185D01*
X218130663Y-97265187D01*
X217981342Y-97357289D01*
X217857289Y-97481342D01*
X217765187Y-97630663D01*
X217765186Y-97630666D01*
X217710001Y-97797203D01*
X217710001Y-97797204D01*
X217710000Y-97797204D01*
X217699500Y-97899983D01*
X197773937Y-97899983D01*
X198886059Y-96787862D01*
X199777136Y-95896785D01*
X199777136Y-95896784D01*
X199777139Y-95896782D01*
X199886631Y-95732915D01*
X199886632Y-95732914D01*
X199940465Y-95602948D01*
X199962051Y-95550836D01*
X200000500Y-95357541D01*
X200000500Y-95160460D01*
X200000500Y-95131204D01*
X200020185Y-95064165D01*
X200072989Y-95018410D01*
X200142147Y-95008466D01*
X200205703Y-95037491D01*
X200212181Y-95043523D01*
X200283072Y-95114414D01*
X200423212Y-95216232D01*
X200577555Y-95294873D01*
X200742299Y-95348402D01*
X200913389Y-95375500D01*
X200913390Y-95375500D01*
X201086610Y-95375500D01*
X201086611Y-95375500D01*
X201257701Y-95348402D01*
X201422445Y-95294873D01*
X201576788Y-95216232D01*
X201716928Y-95114414D01*
X201839414Y-94991928D01*
X201941232Y-94851788D01*
X202019873Y-94697445D01*
X202073402Y-94532701D01*
X202100500Y-94361611D01*
X202100500Y-93638389D01*
X202073402Y-93467299D01*
X202027160Y-93324983D01*
X223899500Y-93324983D01*
X223899500Y-94675001D01*
X223899501Y-94675018D01*
X223910000Y-94777796D01*
X223910001Y-94777799D01*
X223948013Y-94892510D01*
X223965186Y-94944334D01*
X224057288Y-95093656D01*
X224181344Y-95217712D01*
X224330666Y-95309814D01*
X224497203Y-95364999D01*
X224599991Y-95375500D01*
X225400008Y-95375499D01*
X225400016Y-95375498D01*
X225400019Y-95375498D01*
X225456302Y-95369748D01*
X225502797Y-95364999D01*
X225669334Y-95309814D01*
X225818656Y-95217712D01*
X225942712Y-95093656D01*
X225982581Y-95029016D01*
X226034525Y-94982294D01*
X226103488Y-94971071D01*
X226167570Y-94998914D01*
X226175799Y-95006434D01*
X226283397Y-95114032D01*
X226423475Y-95215804D01*
X226577744Y-95294408D01*
X226742415Y-95347914D01*
X226742414Y-95347914D01*
X226749999Y-95349115D01*
X226750000Y-95349114D01*
X226750000Y-94280330D01*
X226769745Y-94300075D01*
X226855255Y-94349444D01*
X226950630Y-94375000D01*
X227049370Y-94375000D01*
X227144745Y-94349444D01*
X227230255Y-94300075D01*
X227250000Y-94280330D01*
X227250000Y-95349115D01*
X227257584Y-95347914D01*
X227422255Y-95294408D01*
X227576524Y-95215804D01*
X227716602Y-95114032D01*
X227839036Y-94991598D01*
X227899371Y-94908552D01*
X227954700Y-94865886D01*
X228024313Y-94859905D01*
X228086109Y-94892510D01*
X228100008Y-94908550D01*
X228100318Y-94908976D01*
X228160586Y-94991928D01*
X228283072Y-95114414D01*
X228423212Y-95216232D01*
X228577555Y-95294873D01*
X228742299Y-95348402D01*
X228913389Y-95375500D01*
X228913390Y-95375500D01*
X229086610Y-95375500D01*
X229086611Y-95375500D01*
X229257701Y-95348402D01*
X229422445Y-95294873D01*
X229576788Y-95216232D01*
X229716928Y-95114414D01*
X229839414Y-94991928D01*
X229899682Y-94908975D01*
X229955012Y-94866311D01*
X230024626Y-94860332D01*
X230086421Y-94892938D01*
X230100315Y-94908973D01*
X230160586Y-94991928D01*
X230283072Y-95114414D01*
X230423212Y-95216232D01*
X230577555Y-95294873D01*
X230742299Y-95348402D01*
X230913389Y-95375500D01*
X230913390Y-95375500D01*
X231086610Y-95375500D01*
X231086611Y-95375500D01*
X231257701Y-95348402D01*
X231422445Y-95294873D01*
X231576788Y-95216232D01*
X231716928Y-95114414D01*
X231787819Y-95043523D01*
X231849142Y-95010038D01*
X231918834Y-95015022D01*
X231974767Y-95056894D01*
X231999184Y-95122358D01*
X231999500Y-95131204D01*
X231999500Y-96099217D01*
X231979815Y-96166256D01*
X231963181Y-96186898D01*
X231362220Y-96787859D01*
X231362218Y-96787861D01*
X231293252Y-96856827D01*
X231222859Y-96927219D01*
X231113371Y-97091079D01*
X231113364Y-97091092D01*
X231037950Y-97273160D01*
X231037947Y-97273170D01*
X230999500Y-97466456D01*
X230999500Y-100914800D01*
X230993474Y-100935321D01*
X230992216Y-100956672D01*
X230982069Y-100974162D01*
X230979815Y-100981839D01*
X230975692Y-100987859D01*
X230971510Y-100993593D01*
X230969896Y-100995208D01*
X230850319Y-101159793D01*
X230850192Y-101159967D01*
X230822518Y-101181229D01*
X230794989Y-101202459D01*
X230794876Y-101202468D01*
X230794788Y-101202537D01*
X230760086Y-101205456D01*
X230725375Y-101208438D01*
X230725275Y-101208385D01*
X230725164Y-101208395D01*
X230694611Y-101192206D01*
X230663580Y-101175833D01*
X230663468Y-101175704D01*
X230663426Y-101175682D01*
X230663383Y-101175605D01*
X230649682Y-101159793D01*
X230530109Y-100995214D01*
X230530105Y-100995209D01*
X230379786Y-100844890D01*
X230207820Y-100719951D01*
X230018414Y-100623444D01*
X230018413Y-100623443D01*
X230018412Y-100623443D01*
X229816243Y-100557754D01*
X229816241Y-100557753D01*
X229816240Y-100557753D01*
X229654957Y-100532208D01*
X229606287Y-100524500D01*
X229393713Y-100524500D01*
X229345042Y-100532208D01*
X229183760Y-100557753D01*
X228981585Y-100623444D01*
X228792179Y-100719951D01*
X228620215Y-100844889D01*
X228481398Y-100983706D01*
X228420075Y-101017190D01*
X228350383Y-101012206D01*
X228294450Y-100970334D01*
X228288178Y-100961120D01*
X228192712Y-100806344D01*
X228068657Y-100682289D01*
X228068656Y-100682288D01*
X227919334Y-100590186D01*
X227752797Y-100535001D01*
X227752795Y-100535000D01*
X227650010Y-100524500D01*
X226349998Y-100524500D01*
X226349981Y-100524501D01*
X226247203Y-100535000D01*
X226247200Y-100535001D01*
X226080668Y-100590185D01*
X226080663Y-100590187D01*
X225931342Y-100682289D01*
X225807289Y-100806342D01*
X225715187Y-100955663D01*
X225715185Y-100955668D01*
X225711893Y-100965604D01*
X225660001Y-101122203D01*
X225660001Y-101122204D01*
X225660000Y-101122204D01*
X225649500Y-101224983D01*
X225649500Y-102775001D01*
X225649501Y-102775018D01*
X225660000Y-102877796D01*
X225660001Y-102877799D01*
X225705894Y-103016294D01*
X225715186Y-103044334D01*
X225807288Y-103193656D01*
X225931344Y-103317712D01*
X226080666Y-103409814D01*
X226247203Y-103464999D01*
X226349991Y-103475500D01*
X227650008Y-103475499D01*
X227752797Y-103464999D01*
X227919334Y-103409814D01*
X228068656Y-103317712D01*
X228192712Y-103193656D01*
X228284814Y-103044334D01*
X228284814Y-103044331D01*
X228288178Y-103038879D01*
X228340126Y-102992154D01*
X228409088Y-102980931D01*
X228473170Y-103008774D01*
X228481398Y-103016294D01*
X228620213Y-103155109D01*
X228792179Y-103280048D01*
X228792181Y-103280049D01*
X228792184Y-103280051D01*
X228981588Y-103376557D01*
X229183757Y-103442246D01*
X229393713Y-103475500D01*
X229393714Y-103475500D01*
X229606286Y-103475500D01*
X229606287Y-103475500D01*
X229816243Y-103442246D01*
X230018412Y-103376557D01*
X230207816Y-103280051D01*
X230307698Y-103207483D01*
X230379786Y-103155109D01*
X230379788Y-103155106D01*
X230379792Y-103155104D01*
X230530104Y-103004792D01*
X230649683Y-102840204D01*
X230705011Y-102797540D01*
X230774624Y-102791561D01*
X230836420Y-102824166D01*
X230850313Y-102840199D01*
X230909643Y-102921860D01*
X230969896Y-103004792D01*
X231120213Y-103155109D01*
X231292179Y-103280048D01*
X231292181Y-103280049D01*
X231292184Y-103280051D01*
X231481588Y-103376557D01*
X231683757Y-103442246D01*
X231893713Y-103475500D01*
X231893714Y-103475500D01*
X232106286Y-103475500D01*
X232106287Y-103475500D01*
X232316243Y-103442246D01*
X232518412Y-103376557D01*
X232707816Y-103280051D01*
X232807698Y-103207483D01*
X232879786Y-103155109D01*
X232879788Y-103155106D01*
X232879792Y-103155104D01*
X233030104Y-103004792D01*
X233149991Y-102839779D01*
X233205320Y-102797115D01*
X233274933Y-102791136D01*
X233336729Y-102823741D01*
X233350627Y-102839781D01*
X233470272Y-103004459D01*
X233470276Y-103004464D01*
X233620535Y-103154723D01*
X233620540Y-103154727D01*
X233792442Y-103279620D01*
X233981782Y-103376095D01*
X234183871Y-103441757D01*
X234250000Y-103452231D01*
X234250000Y-102404145D01*
X234316657Y-102442630D01*
X234437465Y-102475000D01*
X234562535Y-102475000D01*
X234683343Y-102442630D01*
X234750000Y-102404145D01*
X234750000Y-103452230D01*
X234816126Y-103441757D01*
X234816129Y-103441757D01*
X235018217Y-103376095D01*
X235207557Y-103279620D01*
X235379459Y-103154727D01*
X235379464Y-103154723D01*
X235529723Y-103004464D01*
X235529727Y-103004459D01*
X235654620Y-102832557D01*
X235751095Y-102643217D01*
X235816757Y-102441130D01*
X235816757Y-102441127D01*
X235847030Y-102250000D01*
X234904146Y-102250000D01*
X234942630Y-102183343D01*
X234975000Y-102062535D01*
X234975000Y-101937465D01*
X234942630Y-101816657D01*
X234904146Y-101750000D01*
X235847030Y-101750000D01*
X235816757Y-101558872D01*
X235816757Y-101558869D01*
X235751095Y-101356782D01*
X235654620Y-101167442D01*
X235529727Y-100995540D01*
X235529723Y-100995535D01*
X235379464Y-100845276D01*
X235379459Y-100845272D01*
X235207557Y-100720379D01*
X235018215Y-100623903D01*
X234816124Y-100558241D01*
X234750000Y-100547768D01*
X234750000Y-101595854D01*
X234683343Y-101557370D01*
X234562535Y-101525000D01*
X234437465Y-101525000D01*
X234316657Y-101557370D01*
X234250000Y-101595854D01*
X234250000Y-100547768D01*
X234249999Y-100547768D01*
X234183875Y-100558241D01*
X233981784Y-100623903D01*
X233792442Y-100720379D01*
X233620540Y-100845272D01*
X233620535Y-100845276D01*
X233470276Y-100995535D01*
X233470272Y-100995540D01*
X233350627Y-101160218D01*
X233328431Y-101177333D01*
X233308365Y-101196902D01*
X233301138Y-101198379D01*
X233295297Y-101202884D01*
X233267369Y-101205282D01*
X233239911Y-101210896D01*
X233233032Y-101208231D01*
X233225684Y-101208863D01*
X233200897Y-101195784D01*
X233174759Y-101185660D01*
X233167417Y-101178118D01*
X233163889Y-101176257D01*
X233150117Y-101160392D01*
X233149940Y-101160149D01*
X233030104Y-100995208D01*
X233028489Y-100993593D01*
X233024308Y-100987859D01*
X233014056Y-100959281D01*
X233001641Y-100931581D01*
X233001061Y-100923059D01*
X233000715Y-100922093D01*
X233000931Y-100921152D01*
X233000500Y-100914800D01*
X233000500Y-98030782D01*
X233020185Y-97963743D01*
X233036819Y-97943101D01*
X233777137Y-97202784D01*
X233777137Y-97202783D01*
X233777140Y-97202781D01*
X233886632Y-97038914D01*
X233962052Y-96856835D01*
X234000501Y-96663540D01*
X234000501Y-96466459D01*
X234000501Y-96461349D01*
X234000500Y-96461323D01*
X234000500Y-95131204D01*
X234020185Y-95064165D01*
X234072989Y-95018410D01*
X234142147Y-95008466D01*
X234205703Y-95037491D01*
X234212181Y-95043523D01*
X234283072Y-95114414D01*
X234423212Y-95216232D01*
X234577555Y-95294873D01*
X234742299Y-95348402D01*
X234913389Y-95375500D01*
X234913390Y-95375500D01*
X235086610Y-95375500D01*
X235086611Y-95375500D01*
X235257701Y-95348402D01*
X235422445Y-95294873D01*
X235576788Y-95216232D01*
X235716928Y-95114414D01*
X235839414Y-94991928D01*
X235941232Y-94851788D01*
X236019873Y-94697445D01*
X236073402Y-94532701D01*
X236100500Y-94361611D01*
X236100500Y-93638389D01*
X236073402Y-93467299D01*
X236019873Y-93302555D01*
X235941232Y-93148212D01*
X235839414Y-93008072D01*
X235716928Y-92885586D01*
X235576788Y-92783768D01*
X235422445Y-92705127D01*
X235257701Y-92651598D01*
X235257699Y-92651597D01*
X235257698Y-92651597D01*
X235126271Y-92630781D01*
X235086611Y-92624500D01*
X234913389Y-92624500D01*
X234873728Y-92630781D01*
X234742302Y-92651597D01*
X234577552Y-92705128D01*
X234423211Y-92783768D01*
X234343256Y-92841859D01*
X234283072Y-92885586D01*
X234283070Y-92885588D01*
X234283069Y-92885588D01*
X234160588Y-93008069D01*
X234160581Y-93008078D01*
X234100317Y-93091023D01*
X234044987Y-93133689D01*
X233975374Y-93139667D01*
X233913579Y-93107061D01*
X233899683Y-93091023D01*
X233839418Y-93008078D01*
X233839414Y-93008072D01*
X233716928Y-92885586D01*
X233576788Y-92783768D01*
X233422445Y-92705127D01*
X233257701Y-92651598D01*
X233257699Y-92651597D01*
X233257698Y-92651597D01*
X233126271Y-92630781D01*
X233086611Y-92624500D01*
X232913389Y-92624500D01*
X232873728Y-92630781D01*
X232742302Y-92651597D01*
X232577552Y-92705128D01*
X232423211Y-92783768D01*
X232343256Y-92841859D01*
X232283072Y-92885586D01*
X232283070Y-92885588D01*
X232283069Y-92885588D01*
X232160588Y-93008069D01*
X232160581Y-93008078D01*
X232100317Y-93091023D01*
X232044987Y-93133689D01*
X231975374Y-93139667D01*
X231913579Y-93107061D01*
X231899683Y-93091023D01*
X231839418Y-93008078D01*
X231839414Y-93008072D01*
X231716928Y-92885586D01*
X231576788Y-92783768D01*
X231422445Y-92705127D01*
X231257701Y-92651598D01*
X231257699Y-92651597D01*
X231257698Y-92651597D01*
X231126271Y-92630781D01*
X231086611Y-92624500D01*
X230913389Y-92624500D01*
X230873728Y-92630781D01*
X230742302Y-92651597D01*
X230577552Y-92705128D01*
X230423211Y-92783768D01*
X230343256Y-92841859D01*
X230283072Y-92885586D01*
X230283070Y-92885588D01*
X230283069Y-92885588D01*
X230160588Y-93008069D01*
X230160581Y-93008078D01*
X230100317Y-93091023D01*
X230044987Y-93133689D01*
X229975374Y-93139667D01*
X229913579Y-93107061D01*
X229899683Y-93091023D01*
X229839418Y-93008078D01*
X229839414Y-93008072D01*
X229716928Y-92885586D01*
X229576788Y-92783768D01*
X229422445Y-92705127D01*
X229257701Y-92651598D01*
X229257699Y-92651597D01*
X229257698Y-92651597D01*
X229126271Y-92630781D01*
X229086611Y-92624500D01*
X228913389Y-92624500D01*
X228873728Y-92630781D01*
X228742302Y-92651597D01*
X228577552Y-92705128D01*
X228423211Y-92783768D01*
X228343256Y-92841859D01*
X228283072Y-92885586D01*
X228283070Y-92885588D01*
X228283069Y-92885588D01*
X228160585Y-93008072D01*
X228100007Y-93091450D01*
X228044677Y-93134115D01*
X227975063Y-93140093D01*
X227913269Y-93107486D01*
X227899371Y-93091447D01*
X227839036Y-93008401D01*
X227716602Y-92885967D01*
X227576524Y-92784195D01*
X227422257Y-92705591D01*
X227257589Y-92652087D01*
X227257581Y-92652085D01*
X227250000Y-92650884D01*
X227250000Y-93719670D01*
X227230255Y-93699925D01*
X227144745Y-93650556D01*
X227049370Y-93625000D01*
X226950630Y-93625000D01*
X226855255Y-93650556D01*
X226769745Y-93699925D01*
X226750000Y-93719670D01*
X226750000Y-92650884D01*
X226749999Y-92650884D01*
X226742418Y-92652085D01*
X226742410Y-92652087D01*
X226577742Y-92705591D01*
X226423475Y-92784195D01*
X226283401Y-92885964D01*
X226175799Y-92993566D01*
X226114476Y-93027050D01*
X226044784Y-93022066D01*
X225988851Y-92980194D01*
X225982585Y-92970988D01*
X225942712Y-92906344D01*
X225818656Y-92782288D01*
X225693559Y-92705128D01*
X225669336Y-92690187D01*
X225669331Y-92690185D01*
X225667862Y-92689698D01*
X225502797Y-92635001D01*
X225502795Y-92635000D01*
X225400010Y-92624500D01*
X224599998Y-92624500D01*
X224599980Y-92624501D01*
X224497203Y-92635000D01*
X224497200Y-92635001D01*
X224330668Y-92690185D01*
X224330663Y-92690187D01*
X224181342Y-92782289D01*
X224057289Y-92906342D01*
X223965187Y-93055663D01*
X223965185Y-93055668D01*
X223939332Y-93133689D01*
X223910001Y-93222203D01*
X223910001Y-93222204D01*
X223910000Y-93222204D01*
X223899500Y-93324983D01*
X202027160Y-93324983D01*
X202019873Y-93302555D01*
X201941232Y-93148212D01*
X201839414Y-93008072D01*
X201716928Y-92885586D01*
X201576788Y-92783768D01*
X201422445Y-92705127D01*
X201257701Y-92651598D01*
X201257699Y-92651597D01*
X201257698Y-92651597D01*
X201126271Y-92630781D01*
X201086611Y-92624500D01*
X200913389Y-92624500D01*
X200873728Y-92630781D01*
X200742302Y-92651597D01*
X200577552Y-92705128D01*
X200423211Y-92783768D01*
X200343256Y-92841859D01*
X200283072Y-92885586D01*
X200283070Y-92885588D01*
X200283069Y-92885588D01*
X200160588Y-93008069D01*
X200160581Y-93008078D01*
X200100317Y-93091023D01*
X200044987Y-93133689D01*
X199975374Y-93139667D01*
X199913579Y-93107061D01*
X199899683Y-93091023D01*
X199839418Y-93008078D01*
X199839414Y-93008072D01*
X199716928Y-92885586D01*
X199576788Y-92783768D01*
X199422445Y-92705127D01*
X199257701Y-92651598D01*
X199257699Y-92651597D01*
X199257698Y-92651597D01*
X199126271Y-92630781D01*
X199086611Y-92624500D01*
X198913389Y-92624500D01*
X198873728Y-92630781D01*
X198742302Y-92651597D01*
X198577552Y-92705128D01*
X198423211Y-92783768D01*
X198343256Y-92841859D01*
X198283072Y-92885586D01*
X198283070Y-92885588D01*
X198283069Y-92885588D01*
X198160588Y-93008069D01*
X198160581Y-93008078D01*
X198100317Y-93091023D01*
X198044987Y-93133689D01*
X197975374Y-93139667D01*
X197913579Y-93107061D01*
X197899683Y-93091023D01*
X197839418Y-93008078D01*
X197839414Y-93008072D01*
X197716928Y-92885586D01*
X197576788Y-92783768D01*
X197422445Y-92705127D01*
X197257701Y-92651598D01*
X197257699Y-92651597D01*
X197257698Y-92651597D01*
X197126271Y-92630781D01*
X197086611Y-92624500D01*
X196913389Y-92624500D01*
X196873728Y-92630781D01*
X196742302Y-92651597D01*
X196577552Y-92705128D01*
X196423211Y-92783768D01*
X196343256Y-92841859D01*
X196283072Y-92885586D01*
X196283070Y-92885588D01*
X196283069Y-92885588D01*
X196160588Y-93008069D01*
X196160581Y-93008078D01*
X196100317Y-93091023D01*
X196044987Y-93133689D01*
X195975374Y-93139667D01*
X195913579Y-93107061D01*
X195899683Y-93091023D01*
X195839418Y-93008078D01*
X195839414Y-93008072D01*
X195716928Y-92885586D01*
X195576788Y-92783768D01*
X195422445Y-92705127D01*
X195257701Y-92651598D01*
X195257699Y-92651597D01*
X195257698Y-92651597D01*
X195126271Y-92630781D01*
X195086611Y-92624500D01*
X194913389Y-92624500D01*
X194873728Y-92630781D01*
X194742302Y-92651597D01*
X194577552Y-92705128D01*
X194423211Y-92783768D01*
X194343256Y-92841859D01*
X194283072Y-92885586D01*
X194283070Y-92885588D01*
X194283069Y-92885588D01*
X194160585Y-93008072D01*
X194100007Y-93091450D01*
X194044677Y-93134115D01*
X193975063Y-93140093D01*
X193913269Y-93107486D01*
X193899371Y-93091447D01*
X193839036Y-93008401D01*
X193716602Y-92885967D01*
X193576524Y-92784195D01*
X193422257Y-92705591D01*
X193257589Y-92652087D01*
X193257581Y-92652085D01*
X193250000Y-92650884D01*
X193250000Y-93719670D01*
X193230255Y-93699925D01*
X193144745Y-93650556D01*
X193049370Y-93625000D01*
X192950630Y-93625000D01*
X192855255Y-93650556D01*
X192769745Y-93699925D01*
X192750000Y-93719670D01*
X192750000Y-92650884D01*
X192749999Y-92650884D01*
X192742418Y-92652085D01*
X192742410Y-92652087D01*
X192577742Y-92705591D01*
X192423475Y-92784195D01*
X192283401Y-92885964D01*
X192175799Y-92993566D01*
X192114476Y-93027050D01*
X192044784Y-93022066D01*
X191988851Y-92980194D01*
X191982585Y-92970988D01*
X191942712Y-92906344D01*
X191818656Y-92782288D01*
X191693559Y-92705128D01*
X191669336Y-92690187D01*
X191669331Y-92690185D01*
X191667862Y-92689698D01*
X191502797Y-92635001D01*
X191502795Y-92635000D01*
X191400010Y-92624500D01*
X190599998Y-92624500D01*
X190599980Y-92624501D01*
X190497203Y-92635000D01*
X190497200Y-92635001D01*
X190330668Y-92690185D01*
X190330663Y-92690187D01*
X190181342Y-92782289D01*
X190057289Y-92906342D01*
X189965187Y-93055663D01*
X189965185Y-93055668D01*
X189939332Y-93133689D01*
X189910001Y-93222203D01*
X189910001Y-93222204D01*
X189910000Y-93222204D01*
X189899500Y-93324983D01*
X188500500Y-93324983D01*
X188500500Y-89798008D01*
X188520185Y-89730969D01*
X188572989Y-89685214D01*
X188642147Y-89675270D01*
X188705703Y-89704295D01*
X188733858Y-89739555D01*
X188822140Y-89904720D01*
X188822151Y-89904738D01*
X189024140Y-90207035D01*
X189024150Y-90207049D01*
X189254807Y-90488106D01*
X189511893Y-90745192D01*
X189511898Y-90745196D01*
X189511899Y-90745197D01*
X189792956Y-90975854D01*
X190095268Y-91177853D01*
X190095277Y-91177858D01*
X190095279Y-91177859D01*
X190415916Y-91349243D01*
X190415918Y-91349243D01*
X190415924Y-91349247D01*
X190751836Y-91488386D01*
X191099767Y-91593930D01*
X191099773Y-91593931D01*
X191099776Y-91593932D01*
X191099787Y-91593935D01*
X191456369Y-91664862D01*
X191818206Y-91700500D01*
X191818209Y-91700500D01*
X192181791Y-91700500D01*
X192181794Y-91700500D01*
X192543631Y-91664862D01*
X192613045Y-91651054D01*
X192900212Y-91593935D01*
X192900223Y-91593932D01*
X192900223Y-91593931D01*
X192900233Y-91593930D01*
X193248164Y-91488386D01*
X193584076Y-91349247D01*
X193904732Y-91177853D01*
X194207044Y-90975854D01*
X194488101Y-90745197D01*
X194745197Y-90488101D01*
X194975854Y-90207044D01*
X195166881Y-89921153D01*
X201199500Y-89921153D01*
X201199500Y-90078846D01*
X201230261Y-90233489D01*
X201230264Y-90233501D01*
X201290602Y-90379172D01*
X201290609Y-90379185D01*
X201378210Y-90510288D01*
X201378213Y-90510292D01*
X201489707Y-90621786D01*
X201489711Y-90621789D01*
X201620814Y-90709390D01*
X201620827Y-90709397D01*
X201766498Y-90769735D01*
X201766503Y-90769737D01*
X201921153Y-90800499D01*
X201921156Y-90800500D01*
X201921158Y-90800500D01*
X202078844Y-90800500D01*
X202078845Y-90800499D01*
X202233497Y-90769737D01*
X202379179Y-90709394D01*
X202510289Y-90621789D01*
X202621789Y-90510289D01*
X202709394Y-90379179D01*
X202769737Y-90233497D01*
X202800500Y-90078842D01*
X202800500Y-89921158D01*
X202800500Y-89921155D01*
X202800499Y-89921153D01*
X202787661Y-89856613D01*
X202769737Y-89766503D01*
X202758575Y-89739555D01*
X202709397Y-89620827D01*
X202709390Y-89620814D01*
X202621789Y-89489711D01*
X202621786Y-89489707D01*
X202510292Y-89378213D01*
X202510288Y-89378210D01*
X202379185Y-89290609D01*
X202379172Y-89290602D01*
X202233501Y-89230264D01*
X202233489Y-89230261D01*
X202078845Y-89199500D01*
X202078842Y-89199500D01*
X201921158Y-89199500D01*
X201921155Y-89199500D01*
X201766510Y-89230261D01*
X201766498Y-89230264D01*
X201620827Y-89290602D01*
X201620814Y-89290609D01*
X201489711Y-89378210D01*
X201489707Y-89378213D01*
X201378213Y-89489707D01*
X201378210Y-89489711D01*
X201290609Y-89620814D01*
X201290602Y-89620827D01*
X201230264Y-89766498D01*
X201230261Y-89766510D01*
X201199500Y-89921153D01*
X195166881Y-89921153D01*
X195177853Y-89904732D01*
X195349247Y-89584076D01*
X195488386Y-89248164D01*
X195558031Y-89018577D01*
X216934975Y-89018577D01*
X217040236Y-89062178D01*
X217040240Y-89062179D01*
X217185126Y-89090999D01*
X217185129Y-89091000D01*
X217332871Y-89091000D01*
X217332873Y-89090999D01*
X217477759Y-89062179D01*
X217477767Y-89062177D01*
X217611547Y-89006764D01*
X217681016Y-88999295D01*
X217706453Y-89006764D01*
X217840232Y-89062177D01*
X217840240Y-89062179D01*
X217985126Y-89090999D01*
X217985129Y-89091000D01*
X218132871Y-89091000D01*
X218132873Y-89090999D01*
X218277759Y-89062179D01*
X218277767Y-89062177D01*
X218411547Y-89006764D01*
X218481016Y-88999295D01*
X218506453Y-89006764D01*
X218640232Y-89062177D01*
X218640240Y-89062179D01*
X218785126Y-89090999D01*
X218785129Y-89091000D01*
X218932871Y-89091000D01*
X218932873Y-89090999D01*
X219077760Y-89062179D01*
X219077775Y-89062175D01*
X219183024Y-89018578D01*
X219183024Y-89018577D01*
X218682223Y-88517777D01*
X218485555Y-88321109D01*
X218759000Y-88321109D01*
X218759000Y-88360891D01*
X218774224Y-88397645D01*
X218802355Y-88425776D01*
X218839109Y-88441000D01*
X218878891Y-88441000D01*
X218915645Y-88425776D01*
X218943776Y-88397645D01*
X218959000Y-88360891D01*
X218959000Y-88321109D01*
X218943776Y-88284355D01*
X218915645Y-88256224D01*
X218878891Y-88241000D01*
X218839109Y-88241000D01*
X218802355Y-88256224D01*
X218774224Y-88284355D01*
X218759000Y-88321109D01*
X218485555Y-88321109D01*
X218459000Y-88294554D01*
X218323458Y-88430096D01*
X218262135Y-88463581D01*
X218192443Y-88458597D01*
X218148096Y-88430096D01*
X218129710Y-88411710D01*
X218143776Y-88397645D01*
X218159000Y-88360891D01*
X218159000Y-88321109D01*
X218143776Y-88284355D01*
X218115645Y-88256224D01*
X218078891Y-88241000D01*
X218039109Y-88241000D01*
X218002355Y-88256224D01*
X217974224Y-88284355D01*
X217959000Y-88321109D01*
X217959000Y-88360891D01*
X217974224Y-88397645D01*
X217988289Y-88411710D01*
X217969904Y-88430096D01*
X217908581Y-88463581D01*
X217838889Y-88458597D01*
X217794542Y-88430096D01*
X217659000Y-88294554D01*
X217435777Y-88517777D01*
X216934975Y-89018577D01*
X195558031Y-89018577D01*
X195593930Y-88900233D01*
X195593932Y-88900223D01*
X195593935Y-88900212D01*
X195664862Y-88543630D01*
X195676470Y-88425776D01*
X195700500Y-88181794D01*
X195700500Y-87818206D01*
X195664862Y-87456369D01*
X195646248Y-87362789D01*
X195593935Y-87099787D01*
X195593932Y-87099776D01*
X195593931Y-87099773D01*
X195593930Y-87099767D01*
X195488386Y-86751836D01*
X195453298Y-86667126D01*
X216509000Y-86667126D01*
X216509000Y-86814873D01*
X216537820Y-86959759D01*
X216537823Y-86959771D01*
X216593235Y-87093548D01*
X216600704Y-87163017D01*
X216593235Y-87188452D01*
X216537823Y-87322228D01*
X216537820Y-87322240D01*
X216509000Y-87467126D01*
X216509000Y-87614873D01*
X216537820Y-87759759D01*
X216537823Y-87759771D01*
X216593235Y-87893548D01*
X216600704Y-87963017D01*
X216593235Y-87988452D01*
X216537823Y-88122228D01*
X216537820Y-88122240D01*
X216509000Y-88267126D01*
X216509000Y-88414873D01*
X216537820Y-88559759D01*
X216537822Y-88559767D01*
X216581421Y-88665024D01*
X216925336Y-88321109D01*
X217159000Y-88321109D01*
X217159000Y-88360891D01*
X217174224Y-88397645D01*
X217202355Y-88425776D01*
X217239109Y-88441000D01*
X217278891Y-88441000D01*
X217315645Y-88425776D01*
X217343776Y-88397645D01*
X217359000Y-88360891D01*
X217359000Y-88321109D01*
X217343776Y-88284355D01*
X217315645Y-88256224D01*
X217278891Y-88241000D01*
X217239109Y-88241000D01*
X217202355Y-88256224D01*
X217174224Y-88284355D01*
X217159000Y-88321109D01*
X216925336Y-88321109D01*
X217305446Y-87941000D01*
X218012554Y-87941000D01*
X218059000Y-87987446D01*
X218105446Y-87941000D01*
X218059000Y-87894554D01*
X218012554Y-87941000D01*
X217305446Y-87941000D01*
X217169904Y-87805458D01*
X217136419Y-87744135D01*
X217141403Y-87674443D01*
X217169904Y-87630096D01*
X217188289Y-87611710D01*
X217202355Y-87625776D01*
X217239109Y-87641000D01*
X217278891Y-87641000D01*
X217315645Y-87625776D01*
X217343776Y-87597645D01*
X217359000Y-87560891D01*
X217359000Y-87541000D01*
X217612554Y-87541000D01*
X217659000Y-87587446D01*
X217705446Y-87541000D01*
X217685555Y-87521109D01*
X217959000Y-87521109D01*
X217959000Y-87560891D01*
X217974224Y-87597645D01*
X218002355Y-87625776D01*
X218039109Y-87641000D01*
X218078891Y-87641000D01*
X218115645Y-87625776D01*
X218143776Y-87597645D01*
X218159000Y-87560891D01*
X218159000Y-87541000D01*
X218412554Y-87541000D01*
X218459000Y-87587446D01*
X218505446Y-87541000D01*
X218485555Y-87521109D01*
X218759000Y-87521109D01*
X218759000Y-87560891D01*
X218774224Y-87597645D01*
X218802355Y-87625776D01*
X218839109Y-87641000D01*
X218878891Y-87641000D01*
X218915645Y-87625776D01*
X218929710Y-87611710D01*
X218948096Y-87630096D01*
X218981581Y-87691419D01*
X218976597Y-87761111D01*
X218948096Y-87805458D01*
X218812554Y-87941000D01*
X219035777Y-88164223D01*
X219536577Y-88665024D01*
X219536578Y-88665024D01*
X219580175Y-88559775D01*
X219580179Y-88559760D01*
X219608999Y-88414873D01*
X219609000Y-88414871D01*
X219609000Y-88267128D01*
X219608999Y-88267126D01*
X219580179Y-88122240D01*
X219580177Y-88122232D01*
X219524764Y-87988453D01*
X219517295Y-87918984D01*
X219524764Y-87893547D01*
X219580177Y-87759767D01*
X219580179Y-87759759D01*
X219608999Y-87614873D01*
X219609000Y-87614871D01*
X219609000Y-87467128D01*
X219608999Y-87467126D01*
X219580179Y-87322240D01*
X219580177Y-87322232D01*
X219524764Y-87188453D01*
X219517295Y-87118984D01*
X219524764Y-87093547D01*
X219580177Y-86959767D01*
X219580179Y-86959759D01*
X219608999Y-86814873D01*
X219609000Y-86814871D01*
X219609000Y-86667136D01*
X219608998Y-86667119D01*
X219608010Y-86662153D01*
X220687500Y-86662153D01*
X220687500Y-86819846D01*
X220718261Y-86974489D01*
X220718264Y-86974501D01*
X220778602Y-87120172D01*
X220778609Y-87120185D01*
X220866210Y-87251288D01*
X220866213Y-87251292D01*
X220977707Y-87362786D01*
X220977711Y-87362789D01*
X221108814Y-87450390D01*
X221108827Y-87450397D01*
X221215433Y-87494554D01*
X221254503Y-87510737D01*
X221406644Y-87541000D01*
X221409153Y-87541499D01*
X221409156Y-87541500D01*
X221409158Y-87541500D01*
X221566844Y-87541500D01*
X221566845Y-87541499D01*
X221721497Y-87510737D01*
X221867179Y-87450394D01*
X221998289Y-87362789D01*
X222109789Y-87251289D01*
X222197394Y-87120179D01*
X222225348Y-87052691D01*
X222234904Y-87040832D01*
X222240128Y-87026525D01*
X222256381Y-87014181D01*
X222269187Y-86998290D01*
X222283639Y-86993479D01*
X222295770Y-86984267D01*
X222316116Y-86982670D01*
X222335481Y-86976225D01*
X222351310Y-86979907D01*
X222365426Y-86978800D01*
X222388789Y-86988627D01*
X222398579Y-86990905D01*
X222403840Y-86993730D01*
X222487420Y-87049577D01*
X222576599Y-87086515D01*
X222582070Y-87089454D01*
X222602697Y-87109796D01*
X222625254Y-87127974D01*
X222629020Y-87135757D01*
X222631817Y-87138515D01*
X222633085Y-87144156D01*
X222638141Y-87154604D01*
X222638886Y-87154296D01*
X222701556Y-87305598D01*
X222701563Y-87305611D01*
X222789164Y-87436714D01*
X222789167Y-87436718D01*
X222900661Y-87548212D01*
X222900665Y-87548215D01*
X223031768Y-87635816D01*
X223031781Y-87635823D01*
X223150827Y-87685133D01*
X223205231Y-87728974D01*
X223217936Y-87752242D01*
X223267244Y-87871284D01*
X223267251Y-87871297D01*
X223354852Y-88002400D01*
X223354855Y-88002404D01*
X223466349Y-88113898D01*
X223466353Y-88113901D01*
X223597456Y-88201502D01*
X223597469Y-88201509D01*
X223729565Y-88256224D01*
X223743145Y-88261849D01*
X223856290Y-88284355D01*
X223897795Y-88292611D01*
X223897798Y-88292612D01*
X223897800Y-88292612D01*
X224055486Y-88292612D01*
X224055487Y-88292611D01*
X224210139Y-88261849D01*
X224355821Y-88201506D01*
X224486931Y-88113901D01*
X224598431Y-88002401D01*
X224686036Y-87871291D01*
X224746379Y-87725609D01*
X224777142Y-87570954D01*
X224777142Y-87413270D01*
X224777142Y-87413267D01*
X224777141Y-87413265D01*
X224755726Y-87305605D01*
X224746379Y-87258615D01*
X224743346Y-87251292D01*
X224686039Y-87112939D01*
X224686032Y-87112926D01*
X224598431Y-86981823D01*
X224598428Y-86981819D01*
X224486934Y-86870325D01*
X224486930Y-86870322D01*
X224355827Y-86782721D01*
X224355818Y-86782716D01*
X224236767Y-86733404D01*
X224182364Y-86689563D01*
X224169659Y-86666295D01*
X224120351Y-86547253D01*
X224120344Y-86547240D01*
X224032743Y-86416137D01*
X224032740Y-86416133D01*
X223921246Y-86304639D01*
X223921242Y-86304636D01*
X223790139Y-86217035D01*
X223790126Y-86217028D01*
X223706701Y-86182473D01*
X223652297Y-86138632D01*
X223639412Y-86112005D01*
X223638667Y-86112314D01*
X223631606Y-86095268D01*
X223618415Y-86063420D01*
X223575996Y-85961010D01*
X223575989Y-85960997D01*
X223488388Y-85829894D01*
X223488385Y-85829890D01*
X223376891Y-85718396D01*
X223376887Y-85718393D01*
X223245784Y-85630792D01*
X223245771Y-85630785D01*
X223100100Y-85570447D01*
X223100088Y-85570444D01*
X222945444Y-85539683D01*
X222945441Y-85539683D01*
X222787757Y-85539683D01*
X222787754Y-85539683D01*
X222633109Y-85570444D01*
X222633097Y-85570447D01*
X222487426Y-85630785D01*
X222487413Y-85630792D01*
X222356310Y-85718393D01*
X222356306Y-85718396D01*
X222244812Y-85829890D01*
X222244809Y-85829894D01*
X222157208Y-85960997D01*
X222157205Y-85961003D01*
X222129251Y-86028490D01*
X222085409Y-86082893D01*
X222019115Y-86104957D01*
X221951416Y-86087677D01*
X221945799Y-86084138D01*
X221867185Y-86031609D01*
X221867172Y-86031602D01*
X221721501Y-85971264D01*
X221721489Y-85971261D01*
X221566845Y-85940500D01*
X221566842Y-85940500D01*
X221409158Y-85940500D01*
X221409155Y-85940500D01*
X221254510Y-85971261D01*
X221254498Y-85971264D01*
X221108827Y-86031602D01*
X221108814Y-86031609D01*
X220977711Y-86119210D01*
X220977707Y-86119213D01*
X220866213Y-86230707D01*
X220866210Y-86230711D01*
X220778609Y-86361814D01*
X220778602Y-86361827D01*
X220718264Y-86507498D01*
X220718261Y-86507510D01*
X220687500Y-86662153D01*
X219608010Y-86662153D01*
X219580179Y-86522240D01*
X219580178Y-86522236D01*
X219536577Y-86416975D01*
X219035777Y-86917777D01*
X218812554Y-87141000D01*
X218948096Y-87276542D01*
X218981581Y-87337865D01*
X218976597Y-87407557D01*
X218948096Y-87451904D01*
X218929710Y-87470289D01*
X218915645Y-87456224D01*
X218878891Y-87441000D01*
X218839109Y-87441000D01*
X218802355Y-87456224D01*
X218774224Y-87484355D01*
X218759000Y-87521109D01*
X218485555Y-87521109D01*
X218459000Y-87494554D01*
X218412554Y-87541000D01*
X218159000Y-87541000D01*
X218159000Y-87521109D01*
X218143776Y-87484355D01*
X218115645Y-87456224D01*
X218078891Y-87441000D01*
X218039109Y-87441000D01*
X218002355Y-87456224D01*
X217974224Y-87484355D01*
X217959000Y-87521109D01*
X217685555Y-87521109D01*
X217659000Y-87494554D01*
X217612554Y-87541000D01*
X217359000Y-87541000D01*
X217359000Y-87521109D01*
X217343776Y-87484355D01*
X217315645Y-87456224D01*
X217278891Y-87441000D01*
X217239109Y-87441000D01*
X217202355Y-87456224D01*
X217188289Y-87470289D01*
X217169904Y-87451904D01*
X217136419Y-87390581D01*
X217141403Y-87320889D01*
X217169904Y-87276542D01*
X217305446Y-87141000D01*
X218012554Y-87141000D01*
X218059000Y-87187446D01*
X218105446Y-87141000D01*
X218059000Y-87094554D01*
X218012554Y-87141000D01*
X217305446Y-87141000D01*
X217082223Y-86917777D01*
X216885555Y-86721109D01*
X217159000Y-86721109D01*
X217159000Y-86760891D01*
X217174224Y-86797645D01*
X217202355Y-86825776D01*
X217239109Y-86841000D01*
X217278891Y-86841000D01*
X217315645Y-86825776D01*
X217343776Y-86797645D01*
X217359000Y-86760891D01*
X217359000Y-86721109D01*
X217343776Y-86684355D01*
X217315645Y-86656224D01*
X217278891Y-86641000D01*
X217239109Y-86641000D01*
X217202355Y-86656224D01*
X217174224Y-86684355D01*
X217159000Y-86721109D01*
X216885555Y-86721109D01*
X216581421Y-86416974D01*
X216581420Y-86416974D01*
X216537823Y-86522228D01*
X216537820Y-86522240D01*
X216509000Y-86667126D01*
X195453298Y-86667126D01*
X195349247Y-86415924D01*
X195320328Y-86361821D01*
X195250249Y-86230711D01*
X195177853Y-86095268D01*
X195156573Y-86063420D01*
X216934974Y-86063420D01*
X216934974Y-86063421D01*
X217435777Y-86564223D01*
X217659000Y-86787446D01*
X217794542Y-86651904D01*
X217855865Y-86618419D01*
X217925557Y-86623403D01*
X217969904Y-86651904D01*
X217988289Y-86670289D01*
X217974224Y-86684355D01*
X217959000Y-86721109D01*
X217959000Y-86760891D01*
X217974224Y-86797645D01*
X218002355Y-86825776D01*
X218039109Y-86841000D01*
X218078891Y-86841000D01*
X218115645Y-86825776D01*
X218143776Y-86797645D01*
X218159000Y-86760891D01*
X218159000Y-86721109D01*
X218143776Y-86684355D01*
X218129710Y-86670289D01*
X218148096Y-86651904D01*
X218209419Y-86618419D01*
X218279111Y-86623403D01*
X218323458Y-86651904D01*
X218459000Y-86787446D01*
X218525337Y-86721109D01*
X218759000Y-86721109D01*
X218759000Y-86760891D01*
X218774224Y-86797645D01*
X218802355Y-86825776D01*
X218839109Y-86841000D01*
X218878891Y-86841000D01*
X218915645Y-86825776D01*
X218943776Y-86797645D01*
X218959000Y-86760891D01*
X218959000Y-86721109D01*
X218943776Y-86684355D01*
X218915645Y-86656224D01*
X218878891Y-86641000D01*
X218839109Y-86641000D01*
X218802355Y-86656224D01*
X218774224Y-86684355D01*
X218759000Y-86721109D01*
X218525337Y-86721109D01*
X219183024Y-86063421D01*
X219077767Y-86019822D01*
X219077759Y-86019820D01*
X218932872Y-85991000D01*
X218785128Y-85991000D01*
X218640240Y-86019820D01*
X218640228Y-86019823D01*
X218506452Y-86075235D01*
X218436983Y-86082704D01*
X218411548Y-86075235D01*
X218277771Y-86019823D01*
X218277759Y-86019820D01*
X218132872Y-85991000D01*
X217985128Y-85991000D01*
X217840240Y-86019820D01*
X217840228Y-86019823D01*
X217706452Y-86075235D01*
X217636983Y-86082704D01*
X217611548Y-86075235D01*
X217477771Y-86019823D01*
X217477759Y-86019820D01*
X217332872Y-85991000D01*
X217185128Y-85991000D01*
X217040240Y-86019820D01*
X217040228Y-86019823D01*
X216934974Y-86063420D01*
X195156573Y-86063420D01*
X194975854Y-85792956D01*
X194745197Y-85511899D01*
X194745196Y-85511898D01*
X194745192Y-85511893D01*
X194488106Y-85254807D01*
X194207049Y-85024150D01*
X194207048Y-85024149D01*
X194207044Y-85024146D01*
X193904732Y-84822147D01*
X193904727Y-84822144D01*
X193904720Y-84822140D01*
X193584083Y-84650756D01*
X193584078Y-84650754D01*
X193248168Y-84511615D01*
X193227590Y-84505373D01*
X192900233Y-84406070D01*
X192900232Y-84406069D01*
X192900223Y-84406067D01*
X192900212Y-84406064D01*
X192749836Y-84376153D01*
X217893500Y-84376153D01*
X217893500Y-84533846D01*
X217924261Y-84688489D01*
X217924264Y-84688501D01*
X217984602Y-84834172D01*
X217984609Y-84834185D01*
X218072210Y-84965288D01*
X218072213Y-84965292D01*
X218183707Y-85076786D01*
X218183711Y-85076789D01*
X218314814Y-85164390D01*
X218314827Y-85164397D01*
X218460498Y-85224735D01*
X218460503Y-85224737D01*
X218611654Y-85254803D01*
X218615153Y-85255499D01*
X218615156Y-85255500D01*
X218615158Y-85255500D01*
X218772844Y-85255500D01*
X218772845Y-85255499D01*
X218927497Y-85224737D01*
X219073179Y-85164394D01*
X219204289Y-85076789D01*
X219315789Y-84965289D01*
X219403394Y-84834179D01*
X219463737Y-84688497D01*
X219494500Y-84533842D01*
X219494500Y-84376158D01*
X219494500Y-84376155D01*
X219494499Y-84376153D01*
X219463737Y-84221503D01*
X219463735Y-84221498D01*
X219403397Y-84075827D01*
X219403390Y-84075814D01*
X219315789Y-83944711D01*
X219315786Y-83944707D01*
X219204292Y-83833213D01*
X219204288Y-83833210D01*
X219073185Y-83745609D01*
X219073172Y-83745602D01*
X218927501Y-83685264D01*
X218927489Y-83685261D01*
X218772845Y-83654500D01*
X218772842Y-83654500D01*
X218615158Y-83654500D01*
X218615155Y-83654500D01*
X218460510Y-83685261D01*
X218460498Y-83685264D01*
X218314827Y-83745602D01*
X218314814Y-83745609D01*
X218183711Y-83833210D01*
X218183707Y-83833213D01*
X218072213Y-83944707D01*
X218072210Y-83944711D01*
X217984609Y-84075814D01*
X217984602Y-84075827D01*
X217924264Y-84221498D01*
X217924261Y-84221510D01*
X217893500Y-84376153D01*
X192749836Y-84376153D01*
X192543630Y-84335137D01*
X192271111Y-84308296D01*
X192181794Y-84299500D01*
X191818206Y-84299500D01*
X191735679Y-84307628D01*
X191456369Y-84335137D01*
X191099787Y-84406064D01*
X191099776Y-84406067D01*
X190751834Y-84511614D01*
X190415921Y-84650754D01*
X190415916Y-84650756D01*
X190095279Y-84822140D01*
X190095261Y-84822151D01*
X189792964Y-85024140D01*
X189792950Y-85024150D01*
X189511893Y-85254807D01*
X189254807Y-85511893D01*
X189024150Y-85792950D01*
X189024140Y-85792964D01*
X188822151Y-86095261D01*
X188822140Y-86095279D01*
X188733858Y-86260444D01*
X188684896Y-86310289D01*
X188616758Y-86325749D01*
X188551078Y-86301917D01*
X188508710Y-86246360D01*
X188500500Y-86201991D01*
X188500500Y-79102155D01*
X194110000Y-79102155D01*
X194110000Y-79750000D01*
X195026988Y-79750000D01*
X194994075Y-79807007D01*
X194960000Y-79934174D01*
X194960000Y-80065826D01*
X194994075Y-80192993D01*
X195026988Y-80250000D01*
X194110000Y-80250000D01*
X194110000Y-80897844D01*
X194116401Y-80957372D01*
X194116403Y-80957379D01*
X194166645Y-81092086D01*
X194166649Y-81092093D01*
X194252809Y-81207187D01*
X194252812Y-81207190D01*
X194367906Y-81293350D01*
X194367913Y-81293354D01*
X194502620Y-81343596D01*
X194502627Y-81343598D01*
X194562155Y-81349999D01*
X194562172Y-81350000D01*
X195210000Y-81350000D01*
X195210000Y-80433012D01*
X195267007Y-80465925D01*
X195394174Y-80500000D01*
X195525826Y-80500000D01*
X195652993Y-80465925D01*
X195710000Y-80433012D01*
X195710000Y-81350000D01*
X196357828Y-81350000D01*
X196357844Y-81349999D01*
X196417372Y-81343598D01*
X196417379Y-81343596D01*
X196552086Y-81293354D01*
X196552093Y-81293350D01*
X196667187Y-81207190D01*
X196667190Y-81207187D01*
X196753350Y-81092093D01*
X196753354Y-81092086D01*
X196802422Y-80960529D01*
X196844293Y-80904595D01*
X196909757Y-80880178D01*
X196978030Y-80895030D01*
X197006285Y-80916181D01*
X197120213Y-81030109D01*
X197292179Y-81155048D01*
X197292181Y-81155049D01*
X197292184Y-81155051D01*
X197481588Y-81251557D01*
X197683757Y-81317246D01*
X197893713Y-81350500D01*
X197893714Y-81350500D01*
X198106286Y-81350500D01*
X198106287Y-81350500D01*
X198316243Y-81317246D01*
X198518412Y-81251557D01*
X198707816Y-81155051D01*
X198794478Y-81092088D01*
X198879786Y-81030109D01*
X198879788Y-81030106D01*
X198879792Y-81030104D01*
X199030104Y-80879792D01*
X199030106Y-80879788D01*
X199030109Y-80879786D01*
X199155048Y-80707820D01*
X199155047Y-80707820D01*
X199155051Y-80707816D01*
X199159514Y-80699054D01*
X199207488Y-80648259D01*
X199275308Y-80631463D01*
X199341444Y-80653999D01*
X199380486Y-80699056D01*
X199384951Y-80707820D01*
X199509890Y-80879786D01*
X199660213Y-81030109D01*
X199832179Y-81155048D01*
X199832181Y-81155049D01*
X199832184Y-81155051D01*
X200021588Y-81251557D01*
X200223757Y-81317246D01*
X200433713Y-81350500D01*
X200433714Y-81350500D01*
X200646286Y-81350500D01*
X200646287Y-81350500D01*
X200856243Y-81317246D01*
X201058412Y-81251557D01*
X201247816Y-81155051D01*
X201334478Y-81092088D01*
X201419786Y-81030109D01*
X201419788Y-81030106D01*
X201419792Y-81030104D01*
X201570104Y-80879792D01*
X201570106Y-80879788D01*
X201570109Y-80879786D01*
X201695048Y-80707820D01*
X201695047Y-80707820D01*
X201695051Y-80707816D01*
X201791557Y-80518412D01*
X201857246Y-80316243D01*
X201890500Y-80106287D01*
X201890500Y-79893713D01*
X224109500Y-79893713D01*
X224109500Y-80106286D01*
X224142753Y-80316239D01*
X224208444Y-80518414D01*
X224304951Y-80707820D01*
X224429890Y-80879786D01*
X224580213Y-81030109D01*
X224752179Y-81155048D01*
X224752181Y-81155049D01*
X224752184Y-81155051D01*
X224941588Y-81251557D01*
X225143757Y-81317246D01*
X225353713Y-81350500D01*
X225353714Y-81350500D01*
X225566286Y-81350500D01*
X225566287Y-81350500D01*
X225776243Y-81317246D01*
X225978412Y-81251557D01*
X226167816Y-81155051D01*
X226254478Y-81092088D01*
X226339786Y-81030109D01*
X226339788Y-81030106D01*
X226339792Y-81030104D01*
X226490104Y-80879792D01*
X226490106Y-80879788D01*
X226490109Y-80879786D01*
X226615048Y-80707820D01*
X226615047Y-80707820D01*
X226615051Y-80707816D01*
X226619514Y-80699054D01*
X226667488Y-80648259D01*
X226735308Y-80631463D01*
X226801444Y-80653999D01*
X226840486Y-80699056D01*
X226844951Y-80707820D01*
X226969890Y-80879786D01*
X227120213Y-81030109D01*
X227292179Y-81155048D01*
X227292181Y-81155049D01*
X227292184Y-81155051D01*
X227481588Y-81251557D01*
X227683757Y-81317246D01*
X227893713Y-81350500D01*
X227893714Y-81350500D01*
X228106286Y-81350500D01*
X228106287Y-81350500D01*
X228316243Y-81317246D01*
X228518412Y-81251557D01*
X228707816Y-81155051D01*
X228794478Y-81092088D01*
X228879784Y-81030110D01*
X228879784Y-81030109D01*
X228879792Y-81030104D01*
X228993717Y-80916178D01*
X229055036Y-80882696D01*
X229124728Y-80887680D01*
X229180662Y-80929551D01*
X229197577Y-80960528D01*
X229246646Y-81092088D01*
X229246649Y-81092093D01*
X229332809Y-81207187D01*
X229332812Y-81207190D01*
X229447906Y-81293350D01*
X229447913Y-81293354D01*
X229582620Y-81343596D01*
X229582627Y-81343598D01*
X229642155Y-81349999D01*
X229642172Y-81350000D01*
X230290000Y-81350000D01*
X230290000Y-80433012D01*
X230347007Y-80465925D01*
X230474174Y-80500000D01*
X230605826Y-80500000D01*
X230732993Y-80465925D01*
X230790000Y-80433012D01*
X230790000Y-81350000D01*
X231437828Y-81350000D01*
X231437844Y-81349999D01*
X231497372Y-81343598D01*
X231497379Y-81343596D01*
X231632086Y-81293354D01*
X231632093Y-81293350D01*
X231747187Y-81207190D01*
X231747190Y-81207187D01*
X231833350Y-81092093D01*
X231833354Y-81092086D01*
X231883596Y-80957379D01*
X231883598Y-80957372D01*
X231889999Y-80897844D01*
X231890000Y-80897827D01*
X231890000Y-80250000D01*
X230973012Y-80250000D01*
X231005925Y-80192993D01*
X231040000Y-80065826D01*
X231040000Y-79934174D01*
X231005925Y-79807007D01*
X230973012Y-79750000D01*
X231890000Y-79750000D01*
X231890000Y-79102172D01*
X231889999Y-79102155D01*
X231883598Y-79042627D01*
X231883596Y-79042620D01*
X231833354Y-78907913D01*
X231833350Y-78907906D01*
X231747190Y-78792812D01*
X231747187Y-78792809D01*
X231632093Y-78706649D01*
X231632086Y-78706645D01*
X231497379Y-78656403D01*
X231497372Y-78656401D01*
X231437844Y-78650000D01*
X230790000Y-78650000D01*
X230790000Y-79566988D01*
X230732993Y-79534075D01*
X230605826Y-79500000D01*
X230474174Y-79500000D01*
X230347007Y-79534075D01*
X230290000Y-79566988D01*
X230290000Y-78650000D01*
X229642155Y-78650000D01*
X229582627Y-78656401D01*
X229582620Y-78656403D01*
X229447913Y-78706645D01*
X229447906Y-78706649D01*
X229332812Y-78792809D01*
X229332809Y-78792812D01*
X229246649Y-78907906D01*
X229246646Y-78907912D01*
X229197577Y-79039471D01*
X229155705Y-79095404D01*
X229090241Y-79119821D01*
X229021968Y-79104969D01*
X228993714Y-79083818D01*
X228879786Y-78969890D01*
X228707820Y-78844951D01*
X228518414Y-78748444D01*
X228518413Y-78748443D01*
X228518412Y-78748443D01*
X228316243Y-78682754D01*
X228316241Y-78682753D01*
X228316240Y-78682753D01*
X228154957Y-78657208D01*
X228106287Y-78649500D01*
X227893713Y-78649500D01*
X227845042Y-78657208D01*
X227683760Y-78682753D01*
X227481585Y-78748444D01*
X227292179Y-78844951D01*
X227120213Y-78969890D01*
X226969890Y-79120213D01*
X226844949Y-79292182D01*
X226840484Y-79300946D01*
X226792509Y-79351742D01*
X226724688Y-79368536D01*
X226658553Y-79345998D01*
X226619516Y-79300946D01*
X226615050Y-79292182D01*
X226490109Y-79120213D01*
X226339786Y-78969890D01*
X226167820Y-78844951D01*
X225978414Y-78748444D01*
X225978413Y-78748443D01*
X225978412Y-78748443D01*
X225776243Y-78682754D01*
X225776241Y-78682753D01*
X225776240Y-78682753D01*
X225614957Y-78657208D01*
X225566287Y-78649500D01*
X225353713Y-78649500D01*
X225305042Y-78657208D01*
X225143760Y-78682753D01*
X224941585Y-78748444D01*
X224752179Y-78844951D01*
X224580213Y-78969890D01*
X224429890Y-79120213D01*
X224304951Y-79292179D01*
X224208444Y-79481585D01*
X224142753Y-79683760D01*
X224109500Y-79893713D01*
X201890500Y-79893713D01*
X201857246Y-79683757D01*
X201791557Y-79481588D01*
X201695051Y-79292184D01*
X201695049Y-79292181D01*
X201695048Y-79292179D01*
X201570109Y-79120213D01*
X201419786Y-78969890D01*
X201247820Y-78844951D01*
X201058414Y-78748444D01*
X201058413Y-78748443D01*
X201058412Y-78748443D01*
X200856243Y-78682754D01*
X200856241Y-78682753D01*
X200856240Y-78682753D01*
X200694957Y-78657208D01*
X200646287Y-78649500D01*
X200433713Y-78649500D01*
X200385042Y-78657208D01*
X200223760Y-78682753D01*
X200021585Y-78748444D01*
X199832179Y-78844951D01*
X199660213Y-78969890D01*
X199509890Y-79120213D01*
X199384949Y-79292182D01*
X199380484Y-79300946D01*
X199332509Y-79351742D01*
X199264688Y-79368536D01*
X199198553Y-79345998D01*
X199159516Y-79300946D01*
X199155050Y-79292182D01*
X199030109Y-79120213D01*
X198879786Y-78969890D01*
X198707820Y-78844951D01*
X198518414Y-78748444D01*
X198518413Y-78748443D01*
X198518412Y-78748443D01*
X198316243Y-78682754D01*
X198316241Y-78682753D01*
X198316240Y-78682753D01*
X198154957Y-78657208D01*
X198106287Y-78649500D01*
X197893713Y-78649500D01*
X197845042Y-78657208D01*
X197683760Y-78682753D01*
X197481585Y-78748444D01*
X197292179Y-78844951D01*
X197120215Y-78969889D01*
X197006285Y-79083819D01*
X196944962Y-79117303D01*
X196875270Y-79112319D01*
X196819337Y-79070447D01*
X196802422Y-79039470D01*
X196753354Y-78907913D01*
X196753350Y-78907906D01*
X196667190Y-78792812D01*
X196667187Y-78792809D01*
X196552093Y-78706649D01*
X196552086Y-78706645D01*
X196417379Y-78656403D01*
X196417372Y-78656401D01*
X196357844Y-78650000D01*
X195710000Y-78650000D01*
X195710000Y-79566988D01*
X195652993Y-79534075D01*
X195525826Y-79500000D01*
X195394174Y-79500000D01*
X195267007Y-79534075D01*
X195210000Y-79566988D01*
X195210000Y-78650000D01*
X194562155Y-78650000D01*
X194502627Y-78656401D01*
X194502620Y-78656403D01*
X194367913Y-78706645D01*
X194367906Y-78706649D01*
X194252812Y-78792809D01*
X194252809Y-78792812D01*
X194166649Y-78907906D01*
X194166645Y-78907913D01*
X194116403Y-79042620D01*
X194116401Y-79042627D01*
X194110000Y-79102155D01*
X188500500Y-79102155D01*
X188500500Y-78565658D01*
X189630893Y-78565658D01*
X189713828Y-78625914D01*
X189924197Y-78733102D01*
X190148752Y-78806065D01*
X190148751Y-78806065D01*
X190381948Y-78843000D01*
X190618052Y-78843000D01*
X190851247Y-78806065D01*
X191075802Y-78733102D01*
X191286163Y-78625918D01*
X191286169Y-78625914D01*
X191369104Y-78565658D01*
X191369105Y-78565658D01*
X190500000Y-77696554D01*
X189630893Y-78565658D01*
X188500500Y-78565658D01*
X188500500Y-77224947D01*
X189000000Y-77224947D01*
X189000000Y-77461052D01*
X189036934Y-77694247D01*
X189109897Y-77918802D01*
X189217087Y-78129174D01*
X189277338Y-78212104D01*
X189277340Y-78212105D01*
X190146446Y-77343000D01*
X190146446Y-77342999D01*
X190853554Y-77342999D01*
X190853554Y-77343000D01*
X191722658Y-78212105D01*
X191722658Y-78212104D01*
X191782914Y-78129169D01*
X191782918Y-78129163D01*
X191890102Y-77918802D01*
X191963065Y-77694247D01*
X192000000Y-77461052D01*
X192000000Y-77224947D01*
X191963065Y-76991752D01*
X191890102Y-76767197D01*
X191782914Y-76556828D01*
X191722658Y-76473894D01*
X191722658Y-76473893D01*
X190853554Y-77342999D01*
X190146446Y-77342999D01*
X189277340Y-76473894D01*
X189217084Y-76556830D01*
X189109897Y-76767197D01*
X189036934Y-76991752D01*
X189000000Y-77224947D01*
X188500500Y-77224947D01*
X188500500Y-76120340D01*
X189630894Y-76120340D01*
X190500000Y-76989446D01*
X190500001Y-76989446D01*
X191369105Y-76120340D01*
X191369104Y-76120338D01*
X191286174Y-76060087D01*
X191075802Y-75952897D01*
X190851247Y-75879934D01*
X190851248Y-75879934D01*
X190618052Y-75843000D01*
X190381948Y-75843000D01*
X190148752Y-75879934D01*
X189924197Y-75952897D01*
X189713830Y-76060084D01*
X189630894Y-76120340D01*
X188500500Y-76120340D01*
X188500500Y-75001902D01*
X192499500Y-75001902D01*
X192499500Y-75238097D01*
X192536446Y-75471368D01*
X192609433Y-75695996D01*
X192684336Y-75843000D01*
X192716657Y-75906433D01*
X192855483Y-76097510D01*
X193022490Y-76264517D01*
X193213567Y-76403343D01*
X193312991Y-76454002D01*
X193424003Y-76510566D01*
X193424005Y-76510566D01*
X193424008Y-76510568D01*
X193516471Y-76540611D01*
X193648631Y-76583553D01*
X193881903Y-76620500D01*
X193881908Y-76620500D01*
X194034218Y-76620500D01*
X194101257Y-76640185D01*
X194121899Y-76656819D01*
X194553735Y-77088655D01*
X194553764Y-77088686D01*
X194696214Y-77231136D01*
X194696218Y-77231139D01*
X194860079Y-77340628D01*
X194860092Y-77340635D01*
X194988833Y-77393961D01*
X194991902Y-77395232D01*
X195042164Y-77416051D01*
X195138812Y-77435275D01*
X195187135Y-77444887D01*
X195235458Y-77454500D01*
X195235459Y-77454500D01*
X195235460Y-77454500D01*
X195432540Y-77454500D01*
X195978763Y-77454500D01*
X196035059Y-77468016D01*
X196046550Y-77473871D01*
X196046552Y-77473871D01*
X196046555Y-77473873D01*
X196211299Y-77527402D01*
X196382389Y-77554500D01*
X196382390Y-77554500D01*
X196555610Y-77554500D01*
X196555611Y-77554500D01*
X196726701Y-77527402D01*
X196891445Y-77473873D01*
X197045788Y-77395232D01*
X197185928Y-77293414D01*
X197308414Y-77170928D01*
X197410232Y-77030788D01*
X197488873Y-76876445D01*
X197542402Y-76711701D01*
X197569500Y-76540611D01*
X197569500Y-76367389D01*
X197542402Y-76196299D01*
X197488873Y-76031555D01*
X197410232Y-75877212D01*
X197308414Y-75737072D01*
X197185928Y-75614586D01*
X197115858Y-75563677D01*
X197045786Y-75512766D01*
X196949194Y-75463551D01*
X196949193Y-75463551D01*
X196891447Y-75434128D01*
X196891446Y-75434127D01*
X196891445Y-75434127D01*
X196726701Y-75380598D01*
X196726699Y-75380597D01*
X196726698Y-75380597D01*
X196591303Y-75359153D01*
X201002500Y-75359153D01*
X201002500Y-75516846D01*
X201033261Y-75671489D01*
X201033264Y-75671501D01*
X201093602Y-75817172D01*
X201093609Y-75817185D01*
X201181210Y-75948288D01*
X201181213Y-75948292D01*
X201292707Y-76059786D01*
X201292711Y-76059789D01*
X201423814Y-76147390D01*
X201423827Y-76147397D01*
X201541889Y-76196299D01*
X201569503Y-76207737D01*
X201724153Y-76238499D01*
X201724156Y-76238500D01*
X201724158Y-76238500D01*
X201881844Y-76238500D01*
X201881845Y-76238499D01*
X202036497Y-76207737D01*
X202182179Y-76147394D01*
X202313289Y-76059789D01*
X202424789Y-75948289D01*
X202512394Y-75817179D01*
X202572737Y-75671497D01*
X202603500Y-75516842D01*
X202603500Y-75359158D01*
X202603500Y-75359155D01*
X202603499Y-75359153D01*
X202602375Y-75353500D01*
X202572737Y-75204503D01*
X202562826Y-75180576D01*
X202512397Y-75058827D01*
X202512390Y-75058814D01*
X202424789Y-74927711D01*
X202424786Y-74927707D01*
X202313292Y-74816213D01*
X202313288Y-74816210D01*
X202182185Y-74728609D01*
X202182172Y-74728602D01*
X202036501Y-74668264D01*
X202036489Y-74668261D01*
X201881845Y-74637500D01*
X201881842Y-74637500D01*
X201724158Y-74637500D01*
X201724155Y-74637500D01*
X201569510Y-74668261D01*
X201569498Y-74668264D01*
X201423827Y-74728602D01*
X201423814Y-74728609D01*
X201292711Y-74816210D01*
X201292707Y-74816213D01*
X201181213Y-74927707D01*
X201181210Y-74927711D01*
X201093609Y-75058814D01*
X201093602Y-75058827D01*
X201033264Y-75204498D01*
X201033261Y-75204510D01*
X201002500Y-75359153D01*
X196591303Y-75359153D01*
X196555611Y-75353500D01*
X196382389Y-75353500D01*
X196346697Y-75359153D01*
X196211302Y-75380597D01*
X196046550Y-75434128D01*
X196035059Y-75439984D01*
X196022055Y-75443105D01*
X196013698Y-75448477D01*
X195978763Y-75453500D01*
X195799782Y-75453500D01*
X195732743Y-75433815D01*
X195712101Y-75417181D01*
X195536819Y-75241899D01*
X195503334Y-75180576D01*
X195500500Y-75154218D01*
X195500500Y-75001902D01*
X195463553Y-74768631D01*
X195390566Y-74544003D01*
X195283342Y-74333566D01*
X195144517Y-74142490D01*
X194977510Y-73975483D01*
X194786433Y-73836657D01*
X194575996Y-73729433D01*
X194351368Y-73656446D01*
X194118097Y-73619500D01*
X194118092Y-73619500D01*
X193881908Y-73619500D01*
X193881903Y-73619500D01*
X193648631Y-73656446D01*
X193424003Y-73729433D01*
X193213566Y-73836657D01*
X193104550Y-73915862D01*
X193022490Y-73975483D01*
X193022488Y-73975485D01*
X193022487Y-73975485D01*
X192855485Y-74142487D01*
X192855485Y-74142488D01*
X192855483Y-74142490D01*
X192795862Y-74224550D01*
X192716657Y-74333566D01*
X192609433Y-74544003D01*
X192536446Y-74768631D01*
X192499500Y-75001902D01*
X188500500Y-75001902D01*
X188500500Y-71001902D01*
X192499500Y-71001902D01*
X192499500Y-71238097D01*
X192536446Y-71471368D01*
X192609433Y-71695996D01*
X192679670Y-71833842D01*
X192716657Y-71906433D01*
X192855483Y-72097510D01*
X193022490Y-72264517D01*
X193213567Y-72403343D01*
X193312991Y-72454002D01*
X193424003Y-72510566D01*
X193424005Y-72510566D01*
X193424008Y-72510568D01*
X193467616Y-72524737D01*
X193648631Y-72583553D01*
X193881903Y-72620500D01*
X193881908Y-72620500D01*
X194118097Y-72620500D01*
X194351368Y-72583553D01*
X194575992Y-72510568D01*
X194786433Y-72403343D01*
X194977510Y-72264517D01*
X195085208Y-72156819D01*
X195146531Y-72123334D01*
X195172889Y-72120500D01*
X197255543Y-72120500D01*
X197287911Y-72114061D01*
X197397155Y-72092331D01*
X197448836Y-72082051D01*
X197502165Y-72059961D01*
X197630914Y-72006632D01*
X197794782Y-71897139D01*
X197934139Y-71757782D01*
X197934139Y-71757780D01*
X197944347Y-71747573D01*
X197944349Y-71747570D01*
X198015766Y-71676153D01*
X202145500Y-71676153D01*
X202145500Y-71833846D01*
X202176261Y-71988489D01*
X202176264Y-71988501D01*
X202236602Y-72134172D01*
X202236609Y-72134185D01*
X202324210Y-72265288D01*
X202324213Y-72265292D01*
X202435707Y-72376786D01*
X202435711Y-72376789D01*
X202566814Y-72464390D01*
X202566827Y-72464397D01*
X202712498Y-72524735D01*
X202712503Y-72524737D01*
X202867153Y-72555499D01*
X202867156Y-72555500D01*
X202867158Y-72555500D01*
X203024844Y-72555500D01*
X203024845Y-72555499D01*
X203179497Y-72524737D01*
X203325179Y-72464394D01*
X203456289Y-72376789D01*
X203567789Y-72265289D01*
X203655394Y-72134179D01*
X203715737Y-71988497D01*
X203746500Y-71833842D01*
X203746500Y-71676158D01*
X203746500Y-71676155D01*
X203746499Y-71676153D01*
X203742092Y-71653999D01*
X203715737Y-71521503D01*
X203694971Y-71471368D01*
X203655397Y-71375827D01*
X203655390Y-71375814D01*
X203567789Y-71244711D01*
X203567786Y-71244707D01*
X203456292Y-71133213D01*
X203456288Y-71133210D01*
X203325185Y-71045609D01*
X203325172Y-71045602D01*
X203179501Y-70985264D01*
X203179489Y-70985261D01*
X203024845Y-70954500D01*
X203024842Y-70954500D01*
X202867158Y-70954500D01*
X202867155Y-70954500D01*
X202712510Y-70985261D01*
X202712498Y-70985264D01*
X202566827Y-71045602D01*
X202566814Y-71045609D01*
X202435711Y-71133210D01*
X202435707Y-71133213D01*
X202324213Y-71244707D01*
X202324210Y-71244711D01*
X202236609Y-71375814D01*
X202236602Y-71375827D01*
X202176264Y-71521498D01*
X202176261Y-71521510D01*
X202145500Y-71676153D01*
X198015766Y-71676153D01*
X198279810Y-71412108D01*
X198329176Y-71381859D01*
X198341445Y-71377873D01*
X198495788Y-71299232D01*
X198635928Y-71197414D01*
X198758414Y-71074928D01*
X198860232Y-70934788D01*
X198938873Y-70780445D01*
X198992402Y-70615701D01*
X199019500Y-70444611D01*
X199019500Y-70271389D01*
X199013689Y-70234697D01*
X198995238Y-70118204D01*
X198994244Y-70111931D01*
X198992693Y-70102135D01*
X204029500Y-70102135D01*
X204029500Y-71897870D01*
X204029501Y-71897876D01*
X204035908Y-71957483D01*
X204086202Y-72092328D01*
X204086206Y-72092335D01*
X204172452Y-72207544D01*
X204172455Y-72207547D01*
X204287664Y-72293793D01*
X204287671Y-72293797D01*
X204422517Y-72344091D01*
X204422516Y-72344091D01*
X204429444Y-72344835D01*
X204482127Y-72350500D01*
X206277872Y-72350499D01*
X206337483Y-72344091D01*
X206472331Y-72293796D01*
X206587546Y-72207546D01*
X206673796Y-72092331D01*
X206722810Y-71960916D01*
X206764681Y-71904984D01*
X206830145Y-71880566D01*
X206898418Y-71895417D01*
X206926673Y-71916569D01*
X207040213Y-72030109D01*
X207212179Y-72155048D01*
X207212181Y-72155049D01*
X207212184Y-72155051D01*
X207401588Y-72251557D01*
X207603757Y-72317246D01*
X207813713Y-72350500D01*
X207813714Y-72350500D01*
X208026286Y-72350500D01*
X208026287Y-72350500D01*
X208236243Y-72317246D01*
X208438412Y-72251557D01*
X208627816Y-72155051D01*
X208675372Y-72120500D01*
X208799786Y-72030109D01*
X208799788Y-72030106D01*
X208799792Y-72030104D01*
X208950104Y-71879792D01*
X208950106Y-71879788D01*
X208950109Y-71879786D01*
X209075048Y-71707820D01*
X209075047Y-71707820D01*
X209075051Y-71707816D01*
X209079514Y-71699054D01*
X209127488Y-71648259D01*
X209195308Y-71631463D01*
X209261444Y-71653999D01*
X209300486Y-71699056D01*
X209304951Y-71707820D01*
X209429890Y-71879786D01*
X209580213Y-72030109D01*
X209752179Y-72155048D01*
X209752181Y-72155049D01*
X209752184Y-72155051D01*
X209941588Y-72251557D01*
X210143757Y-72317246D01*
X210353713Y-72350500D01*
X210353714Y-72350500D01*
X210566286Y-72350500D01*
X210566287Y-72350500D01*
X210776243Y-72317246D01*
X210978412Y-72251557D01*
X211167816Y-72155051D01*
X211215372Y-72120500D01*
X211339786Y-72030109D01*
X211339788Y-72030106D01*
X211339792Y-72030104D01*
X211490104Y-71879792D01*
X211490106Y-71879788D01*
X211490109Y-71879786D01*
X211615048Y-71707820D01*
X211615047Y-71707820D01*
X211615051Y-71707816D01*
X211619514Y-71699054D01*
X211667488Y-71648259D01*
X211735308Y-71631463D01*
X211801444Y-71653999D01*
X211840486Y-71699056D01*
X211844951Y-71707820D01*
X211969890Y-71879786D01*
X212120213Y-72030109D01*
X212292179Y-72155048D01*
X212292181Y-72155049D01*
X212292184Y-72155051D01*
X212481588Y-72251557D01*
X212683757Y-72317246D01*
X212893713Y-72350500D01*
X212893714Y-72350500D01*
X213106286Y-72350500D01*
X213106287Y-72350500D01*
X213316243Y-72317246D01*
X213518412Y-72251557D01*
X213707816Y-72155051D01*
X213755372Y-72120500D01*
X213879786Y-72030109D01*
X213879788Y-72030106D01*
X213879792Y-72030104D01*
X214030104Y-71879792D01*
X214030106Y-71879788D01*
X214030109Y-71879786D01*
X214155048Y-71707820D01*
X214155047Y-71707820D01*
X214155051Y-71707816D01*
X214159514Y-71699054D01*
X214207488Y-71648259D01*
X214275308Y-71631463D01*
X214341444Y-71653999D01*
X214380486Y-71699056D01*
X214384951Y-71707820D01*
X214509890Y-71879786D01*
X214660213Y-72030109D01*
X214832179Y-72155048D01*
X214832181Y-72155049D01*
X214832184Y-72155051D01*
X215021588Y-72251557D01*
X215223757Y-72317246D01*
X215433713Y-72350500D01*
X215433714Y-72350500D01*
X215646286Y-72350500D01*
X215646287Y-72350500D01*
X215856243Y-72317246D01*
X216058412Y-72251557D01*
X216247816Y-72155051D01*
X216295372Y-72120500D01*
X216419786Y-72030109D01*
X216419788Y-72030106D01*
X216419792Y-72030104D01*
X216570104Y-71879792D01*
X216570106Y-71879788D01*
X216570109Y-71879786D01*
X216695048Y-71707820D01*
X216695047Y-71707820D01*
X216695051Y-71707816D01*
X216699514Y-71699054D01*
X216747488Y-71648259D01*
X216815308Y-71631463D01*
X216881444Y-71653999D01*
X216920486Y-71699056D01*
X216924951Y-71707820D01*
X217049890Y-71879786D01*
X217200213Y-72030109D01*
X217372179Y-72155048D01*
X217372181Y-72155049D01*
X217372184Y-72155051D01*
X217561588Y-72251557D01*
X217763757Y-72317246D01*
X217973713Y-72350500D01*
X217973714Y-72350500D01*
X218186286Y-72350500D01*
X218186287Y-72350500D01*
X218396243Y-72317246D01*
X218598412Y-72251557D01*
X218787816Y-72155051D01*
X218835372Y-72120500D01*
X218959786Y-72030109D01*
X218959788Y-72030106D01*
X218959792Y-72030104D01*
X219110104Y-71879792D01*
X219110106Y-71879788D01*
X219110109Y-71879786D01*
X219235048Y-71707820D01*
X219235047Y-71707820D01*
X219235051Y-71707816D01*
X219239514Y-71699054D01*
X219287488Y-71648259D01*
X219355308Y-71631463D01*
X219421444Y-71653999D01*
X219460486Y-71699056D01*
X219464951Y-71707820D01*
X219589890Y-71879786D01*
X219740213Y-72030109D01*
X219912179Y-72155048D01*
X219912181Y-72155049D01*
X219912184Y-72155051D01*
X220101588Y-72251557D01*
X220303757Y-72317246D01*
X220513713Y-72350500D01*
X220513714Y-72350500D01*
X220726286Y-72350500D01*
X220726287Y-72350500D01*
X220936243Y-72317246D01*
X221138412Y-72251557D01*
X221327816Y-72155051D01*
X221375372Y-72120500D01*
X221499786Y-72030109D01*
X221499788Y-72030106D01*
X221499792Y-72030104D01*
X221650104Y-71879792D01*
X221650106Y-71879788D01*
X221650109Y-71879786D01*
X221775048Y-71707820D01*
X221775047Y-71707820D01*
X221775051Y-71707816D01*
X221871557Y-71518412D01*
X221937246Y-71316243D01*
X221970500Y-71106287D01*
X221970500Y-70893713D01*
X221937246Y-70683757D01*
X221871557Y-70481588D01*
X221775051Y-70292184D01*
X221775049Y-70292181D01*
X221775048Y-70292179D01*
X221650109Y-70120213D01*
X221499786Y-69969890D01*
X221390361Y-69890389D01*
X228007500Y-69890389D01*
X228007500Y-70063611D01*
X228034598Y-70234701D01*
X228088127Y-70399445D01*
X228166768Y-70553788D01*
X228268586Y-70693928D01*
X228391072Y-70816414D01*
X228531212Y-70918232D01*
X228685555Y-70996873D01*
X228850299Y-71050402D01*
X229021389Y-71077500D01*
X229021390Y-71077500D01*
X229194610Y-71077500D01*
X229194611Y-71077500D01*
X229365701Y-71050402D01*
X229530445Y-70996873D01*
X229684788Y-70918232D01*
X229824928Y-70816414D01*
X229947414Y-70693928D01*
X230049232Y-70553788D01*
X230127873Y-70399445D01*
X230181402Y-70234701D01*
X230208500Y-70063611D01*
X230208500Y-69890389D01*
X230181402Y-69719299D01*
X230127873Y-69554555D01*
X230049232Y-69400212D01*
X229947414Y-69260072D01*
X229824928Y-69137586D01*
X229684788Y-69035768D01*
X229530445Y-68957127D01*
X229365701Y-68903598D01*
X229365699Y-68903597D01*
X229365698Y-68903597D01*
X229234271Y-68882781D01*
X229194611Y-68876500D01*
X229021389Y-68876500D01*
X228981728Y-68882781D01*
X228850302Y-68903597D01*
X228685552Y-68957128D01*
X228531211Y-69035768D01*
X228451256Y-69093859D01*
X228391072Y-69137586D01*
X228391070Y-69137588D01*
X228391069Y-69137588D01*
X228268588Y-69260069D01*
X228268588Y-69260070D01*
X228268586Y-69260072D01*
X228250767Y-69284598D01*
X228166768Y-69400211D01*
X228088128Y-69554552D01*
X228034597Y-69719302D01*
X228023011Y-69792454D01*
X228007500Y-69890389D01*
X221390361Y-69890389D01*
X221327820Y-69844951D01*
X221138414Y-69748444D01*
X221138413Y-69748443D01*
X221138412Y-69748443D01*
X220936243Y-69682754D01*
X220936241Y-69682753D01*
X220936240Y-69682753D01*
X220770142Y-69656446D01*
X220726287Y-69649500D01*
X220513713Y-69649500D01*
X220469858Y-69656446D01*
X220303760Y-69682753D01*
X220202672Y-69715598D01*
X220160095Y-69729433D01*
X220101585Y-69748444D01*
X219912179Y-69844951D01*
X219740213Y-69969890D01*
X219589890Y-70120213D01*
X219464949Y-70292182D01*
X219460484Y-70300946D01*
X219412509Y-70351742D01*
X219344688Y-70368536D01*
X219278553Y-70345998D01*
X219239516Y-70300946D01*
X219235050Y-70292182D01*
X219110109Y-70120213D01*
X218959786Y-69969890D01*
X218787820Y-69844951D01*
X218598414Y-69748444D01*
X218598413Y-69748443D01*
X218598412Y-69748443D01*
X218396243Y-69682754D01*
X218396241Y-69682753D01*
X218396240Y-69682753D01*
X218230142Y-69656446D01*
X218186287Y-69649500D01*
X217973713Y-69649500D01*
X217929858Y-69656446D01*
X217763760Y-69682753D01*
X217662672Y-69715598D01*
X217620095Y-69729433D01*
X217561585Y-69748444D01*
X217372179Y-69844951D01*
X217200213Y-69969890D01*
X217049890Y-70120213D01*
X216924949Y-70292182D01*
X216920484Y-70300946D01*
X216872509Y-70351742D01*
X216804688Y-70368536D01*
X216738553Y-70345998D01*
X216699516Y-70300946D01*
X216695050Y-70292182D01*
X216570109Y-70120213D01*
X216419786Y-69969890D01*
X216247820Y-69844951D01*
X216058414Y-69748444D01*
X216058413Y-69748443D01*
X216058412Y-69748443D01*
X215856243Y-69682754D01*
X215856241Y-69682753D01*
X215856240Y-69682753D01*
X215690142Y-69656446D01*
X215646287Y-69649500D01*
X215433713Y-69649500D01*
X215389858Y-69656446D01*
X215223760Y-69682753D01*
X215122672Y-69715598D01*
X215080095Y-69729433D01*
X215021585Y-69748444D01*
X214832179Y-69844951D01*
X214660213Y-69969890D01*
X214509890Y-70120213D01*
X214384949Y-70292182D01*
X214380484Y-70300946D01*
X214332509Y-70351742D01*
X214264688Y-70368536D01*
X214198553Y-70345998D01*
X214159516Y-70300946D01*
X214155050Y-70292182D01*
X214030109Y-70120213D01*
X213879786Y-69969890D01*
X213707820Y-69844951D01*
X213518414Y-69748444D01*
X213518413Y-69748443D01*
X213518412Y-69748443D01*
X213316243Y-69682754D01*
X213316241Y-69682753D01*
X213316240Y-69682753D01*
X213150142Y-69656446D01*
X213106287Y-69649500D01*
X212893713Y-69649500D01*
X212849858Y-69656446D01*
X212683760Y-69682753D01*
X212582672Y-69715598D01*
X212540095Y-69729433D01*
X212481585Y-69748444D01*
X212292179Y-69844951D01*
X212120213Y-69969890D01*
X211969890Y-70120213D01*
X211844949Y-70292182D01*
X211840484Y-70300946D01*
X211792509Y-70351742D01*
X211724688Y-70368536D01*
X211658553Y-70345998D01*
X211619516Y-70300946D01*
X211615050Y-70292182D01*
X211490109Y-70120213D01*
X211339786Y-69969890D01*
X211167820Y-69844951D01*
X210978414Y-69748444D01*
X210978413Y-69748443D01*
X210978412Y-69748443D01*
X210776243Y-69682754D01*
X210776241Y-69682753D01*
X210776240Y-69682753D01*
X210610142Y-69656446D01*
X210566287Y-69649500D01*
X210353713Y-69649500D01*
X210309858Y-69656446D01*
X210143760Y-69682753D01*
X210042672Y-69715598D01*
X210000095Y-69729433D01*
X209941585Y-69748444D01*
X209752179Y-69844951D01*
X209580213Y-69969890D01*
X209429890Y-70120213D01*
X209304949Y-70292182D01*
X209300484Y-70300946D01*
X209252509Y-70351742D01*
X209184688Y-70368536D01*
X209118553Y-70345998D01*
X209079516Y-70300946D01*
X209075050Y-70292182D01*
X208950109Y-70120213D01*
X208799786Y-69969890D01*
X208627820Y-69844951D01*
X208438414Y-69748444D01*
X208438413Y-69748443D01*
X208438412Y-69748443D01*
X208236243Y-69682754D01*
X208236241Y-69682753D01*
X208236240Y-69682753D01*
X208070142Y-69656446D01*
X208026287Y-69649500D01*
X207813713Y-69649500D01*
X207769858Y-69656446D01*
X207603760Y-69682753D01*
X207502672Y-69715598D01*
X207460095Y-69729433D01*
X207401585Y-69748444D01*
X207212179Y-69844951D01*
X207040215Y-69969889D01*
X206926673Y-70083431D01*
X206865350Y-70116915D01*
X206795658Y-70111931D01*
X206739725Y-70070059D01*
X206722810Y-70039082D01*
X206673797Y-69907671D01*
X206673793Y-69907664D01*
X206587547Y-69792455D01*
X206587544Y-69792452D01*
X206472335Y-69706206D01*
X206472328Y-69706202D01*
X206337482Y-69655908D01*
X206337483Y-69655908D01*
X206277883Y-69649501D01*
X206277881Y-69649500D01*
X206277873Y-69649500D01*
X206277864Y-69649500D01*
X204482129Y-69649500D01*
X204482123Y-69649501D01*
X204422516Y-69655908D01*
X204287671Y-69706202D01*
X204287664Y-69706206D01*
X204172455Y-69792452D01*
X204172452Y-69792455D01*
X204086206Y-69907664D01*
X204086202Y-69907671D01*
X204035908Y-70042517D01*
X204029501Y-70102116D01*
X204029500Y-70102135D01*
X198992693Y-70102135D01*
X198992402Y-70100299D01*
X198938873Y-69935555D01*
X198860232Y-69781212D01*
X198758414Y-69641072D01*
X198635928Y-69518586D01*
X198495788Y-69416768D01*
X198341445Y-69338127D01*
X198176701Y-69284598D01*
X198176699Y-69284597D01*
X198176698Y-69284597D01*
X198045271Y-69263781D01*
X198005611Y-69257500D01*
X197832389Y-69257500D01*
X197792728Y-69263781D01*
X197661302Y-69284597D01*
X197496552Y-69338128D01*
X197342211Y-69416768D01*
X197262256Y-69474859D01*
X197202072Y-69518586D01*
X197202070Y-69518588D01*
X197202069Y-69518588D01*
X197079588Y-69641069D01*
X197079588Y-69641070D01*
X197079586Y-69641072D01*
X197049303Y-69682753D01*
X196977768Y-69781211D01*
X196899128Y-69935551D01*
X196895139Y-69947829D01*
X196888152Y-69959229D01*
X196886042Y-69968933D01*
X196864890Y-69997188D01*
X196819563Y-70042517D01*
X196778899Y-70083181D01*
X196717576Y-70116666D01*
X196691217Y-70119500D01*
X195172889Y-70119500D01*
X195105850Y-70099815D01*
X195085208Y-70083181D01*
X194977512Y-69975485D01*
X194977510Y-69975483D01*
X194786433Y-69836657D01*
X194699682Y-69792455D01*
X194575996Y-69729433D01*
X194351368Y-69656446D01*
X194118097Y-69619500D01*
X194118092Y-69619500D01*
X193881908Y-69619500D01*
X193881903Y-69619500D01*
X193648631Y-69656446D01*
X193424003Y-69729433D01*
X193213566Y-69836657D01*
X193115828Y-69907669D01*
X193022490Y-69975483D01*
X193022488Y-69975485D01*
X193022487Y-69975485D01*
X192855485Y-70142487D01*
X192855485Y-70142488D01*
X192855483Y-70142490D01*
X192795862Y-70224550D01*
X192716657Y-70333566D01*
X192609433Y-70544003D01*
X192536446Y-70768631D01*
X192499500Y-71001902D01*
X188500500Y-71001902D01*
X188500500Y-66677902D01*
X192499500Y-66677902D01*
X192499500Y-66914097D01*
X192536446Y-67147368D01*
X192609433Y-67371996D01*
X192716657Y-67582433D01*
X192855483Y-67773510D01*
X193022490Y-67940517D01*
X193213567Y-68079343D01*
X193312991Y-68130002D01*
X193424003Y-68186566D01*
X193424005Y-68186566D01*
X193424008Y-68186568D01*
X193544412Y-68225689D01*
X193648631Y-68259553D01*
X193881903Y-68296500D01*
X193881908Y-68296500D01*
X194118097Y-68296500D01*
X194351368Y-68259553D01*
X194575992Y-68186568D01*
X194786433Y-68079343D01*
X194977510Y-67940517D01*
X195085208Y-67832819D01*
X195146531Y-67799334D01*
X195172889Y-67796500D01*
X196074083Y-67796500D01*
X196098273Y-67798882D01*
X196116459Y-67802500D01*
X196116460Y-67802500D01*
X196313540Y-67802500D01*
X198137763Y-67802500D01*
X198194059Y-67816016D01*
X198205550Y-67821871D01*
X198205552Y-67821871D01*
X198205555Y-67821873D01*
X198370299Y-67875402D01*
X198541389Y-67902500D01*
X198541390Y-67902500D01*
X198714610Y-67902500D01*
X198714611Y-67902500D01*
X198885701Y-67875402D01*
X199050445Y-67821873D01*
X199204788Y-67743232D01*
X199344928Y-67641414D01*
X199467414Y-67518928D01*
X199569232Y-67378788D01*
X199647873Y-67224445D01*
X199701402Y-67059701D01*
X199728500Y-66888611D01*
X199728500Y-66715389D01*
X199701402Y-66544299D01*
X199647873Y-66379555D01*
X199569232Y-66225212D01*
X199467414Y-66085072D01*
X199344928Y-65962586D01*
X199204788Y-65860768D01*
X199050445Y-65782127D01*
X198885701Y-65728598D01*
X198885699Y-65728597D01*
X198885698Y-65728597D01*
X198754271Y-65707781D01*
X198714611Y-65701500D01*
X198541389Y-65701500D01*
X198501728Y-65707781D01*
X198370302Y-65728597D01*
X198205550Y-65782128D01*
X198194059Y-65787984D01*
X198137763Y-65801500D01*
X196349917Y-65801500D01*
X196325726Y-65799117D01*
X196307541Y-65795500D01*
X195172889Y-65795500D01*
X195105850Y-65775815D01*
X195085208Y-65759181D01*
X194977512Y-65651485D01*
X194977510Y-65651483D01*
X194786433Y-65512657D01*
X194727072Y-65482411D01*
X194575996Y-65405433D01*
X194351368Y-65332446D01*
X194118097Y-65295500D01*
X194118092Y-65295500D01*
X193881908Y-65295500D01*
X193881903Y-65295500D01*
X193648631Y-65332446D01*
X193424003Y-65405433D01*
X193213566Y-65512657D01*
X193115054Y-65584231D01*
X193022490Y-65651483D01*
X193022488Y-65651485D01*
X193022487Y-65651485D01*
X192855485Y-65818487D01*
X192855485Y-65818488D01*
X192855483Y-65818490D01*
X192824766Y-65860768D01*
X192716657Y-66009566D01*
X192609433Y-66220003D01*
X192536446Y-66444631D01*
X192499500Y-66677902D01*
X188500500Y-66677902D01*
X188500500Y-64556389D01*
X199813500Y-64556389D01*
X199813500Y-64729611D01*
X199840598Y-64900701D01*
X199894127Y-65065445D01*
X199972768Y-65219788D01*
X200074586Y-65359928D01*
X200197072Y-65482414D01*
X200337212Y-65584232D01*
X200491555Y-65662873D01*
X200656299Y-65716402D01*
X200827389Y-65743500D01*
X200827390Y-65743500D01*
X201000610Y-65743500D01*
X201000611Y-65743500D01*
X201171701Y-65716402D01*
X201336445Y-65662873D01*
X201490788Y-65584232D01*
X201630928Y-65482414D01*
X201753414Y-65359928D01*
X201855232Y-65219788D01*
X201933873Y-65065445D01*
X201987402Y-64900701D01*
X202014500Y-64729611D01*
X202014500Y-64556389D01*
X201987402Y-64385299D01*
X201933873Y-64220555D01*
X201855232Y-64066212D01*
X201753414Y-63926072D01*
X201630928Y-63803586D01*
X201490788Y-63701768D01*
X201336445Y-63623127D01*
X201171701Y-63569598D01*
X201171699Y-63569597D01*
X201171698Y-63569597D01*
X201040271Y-63548781D01*
X201000611Y-63542500D01*
X200827389Y-63542500D01*
X200787728Y-63548781D01*
X200656302Y-63569597D01*
X200491552Y-63623128D01*
X200337211Y-63701768D01*
X200257256Y-63759859D01*
X200197072Y-63803586D01*
X200197070Y-63803588D01*
X200197069Y-63803588D01*
X200074588Y-63926069D01*
X200074588Y-63926070D01*
X200074586Y-63926072D01*
X200030859Y-63986256D01*
X199972768Y-64066211D01*
X199894128Y-64220552D01*
X199840597Y-64385302D01*
X199813500Y-64556389D01*
X188500500Y-64556389D01*
X188500500Y-60365389D01*
X202988500Y-60365389D01*
X202988500Y-60538611D01*
X203015598Y-60709701D01*
X203069127Y-60874445D01*
X203147768Y-61028788D01*
X203249586Y-61168928D01*
X203372072Y-61291414D01*
X203512212Y-61393232D01*
X203666555Y-61471873D01*
X203831299Y-61525402D01*
X204002389Y-61552500D01*
X204002390Y-61552500D01*
X204175610Y-61552500D01*
X204175611Y-61552500D01*
X204346701Y-61525402D01*
X204511445Y-61471873D01*
X204665788Y-61393232D01*
X204805928Y-61291414D01*
X204928414Y-61168928D01*
X205030232Y-61028788D01*
X205108873Y-60874445D01*
X205162402Y-60709701D01*
X205189500Y-60538611D01*
X205189500Y-60365389D01*
X205162402Y-60194299D01*
X205108873Y-60029555D01*
X205030232Y-59875212D01*
X204928414Y-59735072D01*
X204805928Y-59612586D01*
X204665788Y-59510768D01*
X204511445Y-59432127D01*
X204346701Y-59378598D01*
X204346699Y-59378597D01*
X204346698Y-59378597D01*
X204215271Y-59357781D01*
X204175611Y-59351500D01*
X204002389Y-59351500D01*
X203962728Y-59357781D01*
X203831302Y-59378597D01*
X203831299Y-59378598D01*
X203739733Y-59408350D01*
X203666552Y-59432128D01*
X203512211Y-59510768D01*
X203446453Y-59558545D01*
X203372072Y-59612586D01*
X203372070Y-59612588D01*
X203372069Y-59612588D01*
X203249588Y-59735069D01*
X203249588Y-59735070D01*
X203249586Y-59735072D01*
X203205859Y-59795256D01*
X203147768Y-59875211D01*
X203069128Y-60029552D01*
X203015597Y-60194302D01*
X202990858Y-60350499D01*
X202988500Y-60365389D01*
X188500500Y-60365389D01*
X188500500Y-58893713D01*
X207839500Y-58893713D01*
X207839500Y-59106287D01*
X207872754Y-59316243D01*
X207935959Y-59510768D01*
X207938444Y-59518414D01*
X208034951Y-59707820D01*
X208159890Y-59879786D01*
X208310213Y-60030109D01*
X208482179Y-60155048D01*
X208482181Y-60155049D01*
X208482184Y-60155051D01*
X208671588Y-60251557D01*
X208873757Y-60317246D01*
X209083713Y-60350500D01*
X209083714Y-60350500D01*
X209296286Y-60350500D01*
X209296287Y-60350500D01*
X209506243Y-60317246D01*
X209708412Y-60251557D01*
X209897816Y-60155051D01*
X209984138Y-60092335D01*
X210069786Y-60030109D01*
X210069788Y-60030106D01*
X210069792Y-60030104D01*
X210220104Y-59879792D01*
X210220106Y-59879788D01*
X210220109Y-59879786D01*
X210345048Y-59707820D01*
X210345047Y-59707820D01*
X210345051Y-59707816D01*
X210349514Y-59699054D01*
X210397488Y-59648259D01*
X210465308Y-59631463D01*
X210531444Y-59653999D01*
X210570486Y-59699056D01*
X210574951Y-59707820D01*
X210699890Y-59879786D01*
X210850213Y-60030109D01*
X211022179Y-60155048D01*
X211022181Y-60155049D01*
X211022184Y-60155051D01*
X211211588Y-60251557D01*
X211413757Y-60317246D01*
X211623713Y-60350500D01*
X211623714Y-60350500D01*
X211836286Y-60350500D01*
X211836287Y-60350500D01*
X212046243Y-60317246D01*
X212248412Y-60251557D01*
X212437816Y-60155051D01*
X212524138Y-60092335D01*
X212609786Y-60030109D01*
X212609788Y-60030106D01*
X212609792Y-60030104D01*
X212760104Y-59879792D01*
X212760106Y-59879788D01*
X212760109Y-59879786D01*
X212885048Y-59707820D01*
X212885047Y-59707820D01*
X212885051Y-59707816D01*
X212889514Y-59699054D01*
X212937488Y-59648259D01*
X213005308Y-59631463D01*
X213071444Y-59653999D01*
X213110486Y-59699056D01*
X213114951Y-59707820D01*
X213239890Y-59879786D01*
X213390213Y-60030109D01*
X213562179Y-60155048D01*
X213562181Y-60155049D01*
X213562184Y-60155051D01*
X213751588Y-60251557D01*
X213953757Y-60317246D01*
X214163713Y-60350500D01*
X214163714Y-60350500D01*
X214376286Y-60350500D01*
X214376287Y-60350500D01*
X214586243Y-60317246D01*
X214788412Y-60251557D01*
X214977816Y-60155051D01*
X215149792Y-60030104D01*
X215263329Y-59916566D01*
X215324648Y-59883084D01*
X215394340Y-59888068D01*
X215450274Y-59929939D01*
X215467189Y-59960917D01*
X215516202Y-60092328D01*
X215516206Y-60092335D01*
X215602452Y-60207544D01*
X215602455Y-60207547D01*
X215717664Y-60293793D01*
X215717671Y-60293797D01*
X215852517Y-60344091D01*
X215852516Y-60344091D01*
X215859444Y-60344835D01*
X215912127Y-60350500D01*
X217707872Y-60350499D01*
X217767483Y-60344091D01*
X217902331Y-60293796D01*
X218017546Y-60207546D01*
X218103796Y-60092331D01*
X218154091Y-59957483D01*
X218160500Y-59897873D01*
X218160500Y-59564632D01*
X219878979Y-59564632D01*
X219878979Y-59722325D01*
X219909740Y-59876968D01*
X219909743Y-59876980D01*
X219970081Y-60022651D01*
X219970088Y-60022664D01*
X220057689Y-60153767D01*
X220057692Y-60153771D01*
X220169186Y-60265265D01*
X220169190Y-60265268D01*
X220300293Y-60352869D01*
X220300306Y-60352876D01*
X220444350Y-60412540D01*
X220498754Y-60456380D01*
X220511459Y-60479649D01*
X220571123Y-60623693D01*
X220571130Y-60623706D01*
X220658731Y-60754809D01*
X220658734Y-60754813D01*
X220770228Y-60866307D01*
X220770232Y-60866310D01*
X220901335Y-60953911D01*
X220901348Y-60953918D01*
X221047019Y-61014256D01*
X221047024Y-61014258D01*
X221201674Y-61045020D01*
X221201677Y-61045021D01*
X221201679Y-61045021D01*
X221359365Y-61045021D01*
X221359366Y-61045020D01*
X221514018Y-61014258D01*
X221659700Y-60953915D01*
X221790810Y-60866310D01*
X221902310Y-60754810D01*
X221989915Y-60623700D01*
X222050258Y-60478018D01*
X222081021Y-60323363D01*
X222081021Y-60165679D01*
X222081021Y-60165676D01*
X222081020Y-60165674D01*
X222052572Y-60022658D01*
X222050258Y-60011024D01*
X222028081Y-59957483D01*
X221989918Y-59865348D01*
X221989911Y-59865335D01*
X221902310Y-59734232D01*
X221902307Y-59734228D01*
X221790813Y-59622734D01*
X221790809Y-59622731D01*
X221659706Y-59535130D01*
X221659693Y-59535123D01*
X221515649Y-59475459D01*
X221461245Y-59431618D01*
X221448540Y-59408350D01*
X221388876Y-59264306D01*
X221388869Y-59264293D01*
X221301268Y-59133190D01*
X221301265Y-59133186D01*
X221189771Y-59021692D01*
X221189767Y-59021689D01*
X221058664Y-58934088D01*
X221058651Y-58934081D01*
X220912980Y-58873743D01*
X220912968Y-58873740D01*
X220758324Y-58842979D01*
X220758321Y-58842979D01*
X220600637Y-58842979D01*
X220600634Y-58842979D01*
X220445989Y-58873740D01*
X220445977Y-58873743D01*
X220300306Y-58934081D01*
X220300293Y-58934088D01*
X220169190Y-59021689D01*
X220169186Y-59021692D01*
X220057692Y-59133186D01*
X220057689Y-59133190D01*
X219970088Y-59264293D01*
X219970081Y-59264306D01*
X219909743Y-59409977D01*
X219909740Y-59409989D01*
X219878979Y-59564632D01*
X218160500Y-59564632D01*
X218160499Y-58934088D01*
X218160499Y-58102129D01*
X218160498Y-58102123D01*
X218154091Y-58042516D01*
X218103797Y-57907671D01*
X218103793Y-57907664D01*
X218017547Y-57792455D01*
X218017544Y-57792452D01*
X217902335Y-57706206D01*
X217902328Y-57706202D01*
X217767482Y-57655908D01*
X217767483Y-57655908D01*
X217707883Y-57649501D01*
X217707881Y-57649500D01*
X217707873Y-57649500D01*
X217707864Y-57649500D01*
X215912129Y-57649500D01*
X215912123Y-57649501D01*
X215852516Y-57655908D01*
X215717671Y-57706202D01*
X215717664Y-57706206D01*
X215602455Y-57792452D01*
X215602452Y-57792455D01*
X215516206Y-57907664D01*
X215516203Y-57907669D01*
X215467189Y-58039083D01*
X215425317Y-58095016D01*
X215359853Y-58119433D01*
X215291580Y-58104581D01*
X215263326Y-58083430D01*
X215149786Y-57969890D01*
X214977820Y-57844951D01*
X214788414Y-57748444D01*
X214788413Y-57748443D01*
X214788412Y-57748443D01*
X214586243Y-57682754D01*
X214586241Y-57682753D01*
X214586240Y-57682753D01*
X214424957Y-57657208D01*
X214376287Y-57649500D01*
X214163713Y-57649500D01*
X214115042Y-57657208D01*
X213953760Y-57682753D01*
X213751585Y-57748444D01*
X213562179Y-57844951D01*
X213390213Y-57969890D01*
X213239890Y-58120213D01*
X213114949Y-58292182D01*
X213110484Y-58300946D01*
X213062509Y-58351742D01*
X212994688Y-58368536D01*
X212928553Y-58345998D01*
X212889516Y-58300946D01*
X212885050Y-58292182D01*
X212760109Y-58120213D01*
X212609786Y-57969890D01*
X212437820Y-57844951D01*
X212248414Y-57748444D01*
X212248413Y-57748443D01*
X212248412Y-57748443D01*
X212046243Y-57682754D01*
X212046241Y-57682753D01*
X212046240Y-57682753D01*
X211884957Y-57657208D01*
X211836287Y-57649500D01*
X211623713Y-57649500D01*
X211575042Y-57657208D01*
X211413760Y-57682753D01*
X211211585Y-57748444D01*
X211022179Y-57844951D01*
X210850213Y-57969890D01*
X210699890Y-58120213D01*
X210574949Y-58292182D01*
X210570484Y-58300946D01*
X210522509Y-58351742D01*
X210454688Y-58368536D01*
X210388553Y-58345998D01*
X210349516Y-58300946D01*
X210345050Y-58292182D01*
X210220109Y-58120213D01*
X210069786Y-57969890D01*
X209897820Y-57844951D01*
X209708414Y-57748444D01*
X209708413Y-57748443D01*
X209708412Y-57748443D01*
X209506243Y-57682754D01*
X209506241Y-57682753D01*
X209506240Y-57682753D01*
X209344957Y-57657208D01*
X209296287Y-57649500D01*
X209083713Y-57649500D01*
X209035042Y-57657208D01*
X208873760Y-57682753D01*
X208671585Y-57748444D01*
X208482179Y-57844951D01*
X208310213Y-57969890D01*
X208159890Y-58120213D01*
X208034951Y-58292179D01*
X207938444Y-58481585D01*
X207872753Y-58683760D01*
X207842663Y-58873740D01*
X207839500Y-58893713D01*
X188500500Y-58893713D01*
X188500500Y-48427389D01*
X190542500Y-48427389D01*
X190542500Y-48600611D01*
X190569598Y-48771701D01*
X190623127Y-48936445D01*
X190701768Y-49090788D01*
X190803586Y-49230928D01*
X190926072Y-49353414D01*
X191066212Y-49455232D01*
X191220555Y-49533873D01*
X191385299Y-49587402D01*
X191556389Y-49614500D01*
X191556390Y-49614500D01*
X191729610Y-49614500D01*
X191729611Y-49614500D01*
X191900701Y-49587402D01*
X192065445Y-49533873D01*
X192219788Y-49455232D01*
X192359928Y-49353414D01*
X192366786Y-49346555D01*
X192428105Y-49313069D01*
X192497797Y-49318050D01*
X192553733Y-49359919D01*
X192569030Y-49386781D01*
X192650754Y-49584078D01*
X192650756Y-49584083D01*
X192822140Y-49904720D01*
X192822151Y-49904738D01*
X193024140Y-50207035D01*
X193024150Y-50207049D01*
X193254807Y-50488106D01*
X193511893Y-50745192D01*
X193511898Y-50745196D01*
X193511899Y-50745197D01*
X193792956Y-50975854D01*
X194095268Y-51177853D01*
X194095277Y-51177858D01*
X194095279Y-51177859D01*
X194415916Y-51349243D01*
X194415918Y-51349243D01*
X194415924Y-51349247D01*
X194751836Y-51488386D01*
X195099767Y-51593930D01*
X195099773Y-51593931D01*
X195099776Y-51593932D01*
X195099787Y-51593935D01*
X195456369Y-51664862D01*
X195818206Y-51700500D01*
X195818209Y-51700500D01*
X196181791Y-51700500D01*
X196181794Y-51700500D01*
X196543631Y-51664862D01*
X196613045Y-51651054D01*
X196900212Y-51593935D01*
X196900223Y-51593932D01*
X196900223Y-51593931D01*
X196900233Y-51593930D01*
X197248164Y-51488386D01*
X197584076Y-51349247D01*
X197823282Y-51221389D01*
X200829500Y-51221389D01*
X200829500Y-51394610D01*
X200844352Y-51488386D01*
X200856598Y-51565701D01*
X200910127Y-51730445D01*
X200988768Y-51884788D01*
X201090586Y-52024928D01*
X201213072Y-52147414D01*
X201353212Y-52249232D01*
X201507555Y-52327873D01*
X201672299Y-52381402D01*
X201843389Y-52408500D01*
X201843390Y-52408500D01*
X202016610Y-52408500D01*
X202016611Y-52408500D01*
X202187701Y-52381402D01*
X202352445Y-52327873D01*
X202506788Y-52249232D01*
X202646928Y-52147414D01*
X202769414Y-52024928D01*
X202871232Y-51884788D01*
X202949873Y-51730445D01*
X203003402Y-51565701D01*
X203030500Y-51394611D01*
X203030500Y-51221389D01*
X203003402Y-51050299D01*
X202949873Y-50885555D01*
X202871232Y-50731212D01*
X202769414Y-50591072D01*
X202646928Y-50468586D01*
X202506788Y-50366768D01*
X202352445Y-50288127D01*
X202187701Y-50234598D01*
X202187699Y-50234597D01*
X202187698Y-50234597D01*
X202056271Y-50213781D01*
X202016611Y-50207500D01*
X201843389Y-50207500D01*
X201803728Y-50213781D01*
X201672302Y-50234597D01*
X201507552Y-50288128D01*
X201353211Y-50366768D01*
X201273256Y-50424859D01*
X201213072Y-50468586D01*
X201213070Y-50468588D01*
X201213069Y-50468588D01*
X201090588Y-50591069D01*
X201090588Y-50591070D01*
X201090586Y-50591072D01*
X201046859Y-50651256D01*
X200988768Y-50731211D01*
X200910128Y-50885552D01*
X200856597Y-51050302D01*
X200829500Y-51221389D01*
X197823282Y-51221389D01*
X197904732Y-51177853D01*
X198207044Y-50975854D01*
X198488101Y-50745197D01*
X198745197Y-50488101D01*
X198975854Y-50207044D01*
X199177853Y-49904732D01*
X199349247Y-49584076D01*
X199488386Y-49248164D01*
X199593930Y-48900233D01*
X199593932Y-48900223D01*
X199593935Y-48900212D01*
X199664862Y-48543630D01*
X199673574Y-48455172D01*
X199700500Y-48181794D01*
X199700500Y-47818206D01*
X199664862Y-47456369D01*
X199662928Y-47446645D01*
X199662928Y-47446643D01*
X199659086Y-47427329D01*
X207647379Y-47427329D01*
X207647379Y-47600551D01*
X207674477Y-47771641D01*
X207728006Y-47936385D01*
X207806647Y-48090728D01*
X207908465Y-48230868D01*
X208030951Y-48353354D01*
X208171091Y-48455172D01*
X208325434Y-48533813D01*
X208490178Y-48587342D01*
X208661268Y-48614440D01*
X208661269Y-48614440D01*
X208834489Y-48614440D01*
X208834490Y-48614440D01*
X209005580Y-48587342D01*
X209170324Y-48533813D01*
X209324667Y-48455172D01*
X209464807Y-48353354D01*
X209587293Y-48230868D01*
X209689111Y-48090728D01*
X209767752Y-47936385D01*
X209806151Y-47818206D01*
X225996556Y-47818206D01*
X225996556Y-48181794D01*
X226007393Y-48291829D01*
X226032193Y-48543630D01*
X226103120Y-48900212D01*
X226103123Y-48900223D01*
X226208670Y-49248165D01*
X226252265Y-49353412D01*
X226327013Y-49533871D01*
X226347810Y-49584078D01*
X226347812Y-49584083D01*
X226519196Y-49904720D01*
X226519207Y-49904738D01*
X226721196Y-50207035D01*
X226721206Y-50207049D01*
X226951863Y-50488106D01*
X227208949Y-50745192D01*
X227208954Y-50745196D01*
X227208955Y-50745197D01*
X227490012Y-50975854D01*
X227792324Y-51177853D01*
X227792333Y-51177858D01*
X227792335Y-51177859D01*
X228112972Y-51349243D01*
X228112974Y-51349243D01*
X228112980Y-51349247D01*
X228448892Y-51488386D01*
X228796823Y-51593930D01*
X228796829Y-51593931D01*
X228796832Y-51593932D01*
X228796843Y-51593935D01*
X229153425Y-51664862D01*
X229515262Y-51700500D01*
X229515265Y-51700500D01*
X229878847Y-51700500D01*
X229878850Y-51700500D01*
X230240687Y-51664862D01*
X230310101Y-51651054D01*
X230597268Y-51593935D01*
X230597279Y-51593932D01*
X230597279Y-51593931D01*
X230597289Y-51593930D01*
X230945220Y-51488386D01*
X231281132Y-51349247D01*
X231601788Y-51177853D01*
X231904100Y-50975854D01*
X232185157Y-50745197D01*
X232442253Y-50488101D01*
X232672910Y-50207044D01*
X232874909Y-49904732D01*
X233046303Y-49584076D01*
X233185442Y-49248164D01*
X233290986Y-48900233D01*
X233290988Y-48900223D01*
X233290991Y-48900212D01*
X233361918Y-48543630D01*
X233370630Y-48455172D01*
X233397556Y-48181794D01*
X233397556Y-47818206D01*
X233361918Y-47456369D01*
X233322111Y-47256242D01*
X233290991Y-47099787D01*
X233290988Y-47099776D01*
X233290987Y-47099773D01*
X233290986Y-47099767D01*
X233185442Y-46751836D01*
X233046303Y-46415924D01*
X233044975Y-46413440D01*
X232874915Y-46095279D01*
X232874914Y-46095277D01*
X232874909Y-46095268D01*
X232672910Y-45792956D01*
X232442253Y-45511899D01*
X232442252Y-45511898D01*
X232442248Y-45511893D01*
X232185162Y-45254807D01*
X231904105Y-45024150D01*
X231904104Y-45024149D01*
X231904100Y-45024146D01*
X231601788Y-44822147D01*
X231601783Y-44822144D01*
X231601776Y-44822140D01*
X231281139Y-44650756D01*
X231281134Y-44650754D01*
X230945221Y-44511614D01*
X230597279Y-44406067D01*
X230597268Y-44406064D01*
X230240686Y-44335137D01*
X229968167Y-44308296D01*
X229878850Y-44299500D01*
X229515262Y-44299500D01*
X229432735Y-44307628D01*
X229153425Y-44335137D01*
X228796843Y-44406064D01*
X228796832Y-44406067D01*
X228448890Y-44511614D01*
X228112977Y-44650754D01*
X228112972Y-44650756D01*
X227792335Y-44822140D01*
X227792317Y-44822151D01*
X227490020Y-45024140D01*
X227490006Y-45024150D01*
X227208949Y-45254807D01*
X226951863Y-45511893D01*
X226721206Y-45792950D01*
X226721196Y-45792964D01*
X226519207Y-46095261D01*
X226519196Y-46095279D01*
X226347812Y-46415916D01*
X226347810Y-46415921D01*
X226208670Y-46751834D01*
X226103123Y-47099776D01*
X226103120Y-47099787D01*
X226032193Y-47456369D01*
X226017993Y-47600550D01*
X225996556Y-47818206D01*
X209806151Y-47818206D01*
X209821281Y-47771641D01*
X209848379Y-47600551D01*
X209848379Y-47427329D01*
X209821281Y-47256239D01*
X209767752Y-47091495D01*
X209689111Y-46937152D01*
X209587293Y-46797012D01*
X209464807Y-46674526D01*
X209324667Y-46572708D01*
X209170324Y-46494067D01*
X209005580Y-46440538D01*
X209005578Y-46440537D01*
X209005577Y-46440537D01*
X208850154Y-46415921D01*
X208834490Y-46413440D01*
X208661268Y-46413440D01*
X208645604Y-46415921D01*
X208490181Y-46440537D01*
X208325431Y-46494068D01*
X208171090Y-46572708D01*
X208091135Y-46630799D01*
X208030951Y-46674526D01*
X208030949Y-46674528D01*
X208030948Y-46674528D01*
X207908467Y-46797009D01*
X207908467Y-46797010D01*
X207908465Y-46797012D01*
X207864738Y-46857196D01*
X207806647Y-46937151D01*
X207728007Y-47091492D01*
X207674476Y-47256242D01*
X207649569Y-47413500D01*
X207647379Y-47427329D01*
X199659086Y-47427329D01*
X199593935Y-47099787D01*
X199593932Y-47099776D01*
X199593931Y-47099773D01*
X199593930Y-47099767D01*
X199488386Y-46751836D01*
X199349247Y-46415924D01*
X199347919Y-46413440D01*
X199177859Y-46095279D01*
X199177858Y-46095277D01*
X199177853Y-46095268D01*
X198975854Y-45792956D01*
X198745197Y-45511899D01*
X198745196Y-45511898D01*
X198745192Y-45511893D01*
X198488106Y-45254807D01*
X198207049Y-45024150D01*
X198207048Y-45024149D01*
X198207044Y-45024146D01*
X197904732Y-44822147D01*
X197904727Y-44822144D01*
X197904720Y-44822140D01*
X197584083Y-44650756D01*
X197584078Y-44650754D01*
X197248165Y-44511614D01*
X196900223Y-44406067D01*
X196900212Y-44406064D01*
X196543630Y-44335137D01*
X196271111Y-44308296D01*
X196181794Y-44299500D01*
X195818206Y-44299500D01*
X195735679Y-44307628D01*
X195456369Y-44335137D01*
X195099787Y-44406064D01*
X195099776Y-44406067D01*
X194751834Y-44511614D01*
X194415921Y-44650754D01*
X194415916Y-44650756D01*
X194095279Y-44822140D01*
X194095261Y-44822151D01*
X193792964Y-45024140D01*
X193792950Y-45024150D01*
X193511893Y-45254807D01*
X193254807Y-45511893D01*
X193024150Y-45792950D01*
X193024140Y-45792964D01*
X192822151Y-46095261D01*
X192822140Y-46095279D01*
X192650756Y-46415916D01*
X192650754Y-46415921D01*
X192511614Y-46751834D01*
X192406067Y-47099776D01*
X192406064Y-47099787D01*
X192335457Y-47454760D01*
X192303072Y-47516671D01*
X192242357Y-47551245D01*
X192172587Y-47547506D01*
X192157545Y-47541054D01*
X192065447Y-47494128D01*
X192065446Y-47494127D01*
X192065445Y-47494127D01*
X191900701Y-47440598D01*
X191900699Y-47440597D01*
X191900698Y-47440597D01*
X191769271Y-47419781D01*
X191729611Y-47413500D01*
X191556389Y-47413500D01*
X191516728Y-47419781D01*
X191385302Y-47440597D01*
X191220552Y-47494128D01*
X191066211Y-47572768D01*
X191027973Y-47600550D01*
X190926072Y-47674586D01*
X190926070Y-47674588D01*
X190926069Y-47674588D01*
X190803588Y-47797069D01*
X190803588Y-47797070D01*
X190803586Y-47797072D01*
X190788229Y-47818209D01*
X190701768Y-47937211D01*
X190623128Y-48091552D01*
X190569597Y-48256302D01*
X190554226Y-48353351D01*
X190542500Y-48427389D01*
X188500500Y-48427389D01*
X188500500Y-44423499D01*
X188520185Y-44356460D01*
X188572989Y-44310705D01*
X188624500Y-44299499D01*
X190404871Y-44299499D01*
X190404872Y-44299499D01*
X190464483Y-44293091D01*
X190599331Y-44242796D01*
X190714546Y-44156546D01*
X190800796Y-44041331D01*
X190851091Y-43906483D01*
X190857500Y-43846873D01*
X190857499Y-41160128D01*
X190851091Y-41100517D01*
X190844344Y-41082428D01*
X192734000Y-41082428D01*
X192734000Y-41194000D01*
X193553670Y-41194000D01*
X193533925Y-41213745D01*
X193484556Y-41299255D01*
X193459000Y-41394630D01*
X193459000Y-41493370D01*
X193484556Y-41588745D01*
X193533925Y-41674255D01*
X193553670Y-41694000D01*
X192734000Y-41694000D01*
X192734000Y-41805571D01*
X192761085Y-41976584D01*
X192814591Y-42141257D01*
X192893195Y-42295524D01*
X192994967Y-42435602D01*
X193117397Y-42558032D01*
X193257475Y-42659804D01*
X193411744Y-42738408D01*
X193576415Y-42791914D01*
X193576414Y-42791914D01*
X193583999Y-42793115D01*
X193584000Y-42793114D01*
X193584000Y-41724330D01*
X193603745Y-41744075D01*
X193689255Y-41793444D01*
X193784630Y-41819000D01*
X193883370Y-41819000D01*
X193978745Y-41793444D01*
X194064255Y-41744075D01*
X194084000Y-41724330D01*
X194084000Y-42793115D01*
X194091584Y-42791914D01*
X194256255Y-42738408D01*
X194410524Y-42659804D01*
X194550602Y-42558032D01*
X194673036Y-42435598D01*
X194733371Y-42352552D01*
X194788700Y-42309886D01*
X194858313Y-42303905D01*
X194920109Y-42336510D01*
X194934008Y-42352550D01*
X194954587Y-42380874D01*
X194994586Y-42435928D01*
X195117072Y-42558414D01*
X195257212Y-42660232D01*
X195411555Y-42738873D01*
X195576299Y-42792402D01*
X195747389Y-42819500D01*
X195747390Y-42819500D01*
X195920610Y-42819500D01*
X195920611Y-42819500D01*
X196091701Y-42792402D01*
X196256445Y-42738873D01*
X196410788Y-42660232D01*
X196550928Y-42558414D01*
X196658472Y-42450869D01*
X196719791Y-42417387D01*
X196789483Y-42422371D01*
X196845417Y-42464242D01*
X196851688Y-42473456D01*
X196891285Y-42537652D01*
X196891288Y-42537656D01*
X197015344Y-42661712D01*
X197164666Y-42753814D01*
X197331203Y-42808999D01*
X197433991Y-42819500D01*
X198234008Y-42819499D01*
X198234016Y-42819498D01*
X198234019Y-42819498D01*
X198290302Y-42813748D01*
X198336797Y-42808999D01*
X198503334Y-42753814D01*
X198652656Y-42661712D01*
X198776712Y-42537656D01*
X198868814Y-42388334D01*
X198923999Y-42221797D01*
X198934500Y-42119009D01*
X198934499Y-40768992D01*
X198923999Y-40666203D01*
X198868814Y-40499666D01*
X198776712Y-40350344D01*
X198652656Y-40226288D01*
X198527559Y-40149128D01*
X198503336Y-40134187D01*
X198503331Y-40134185D01*
X198501862Y-40133698D01*
X198336797Y-40079001D01*
X198336795Y-40079000D01*
X198234010Y-40068500D01*
X197433998Y-40068500D01*
X197433980Y-40068501D01*
X197331203Y-40079000D01*
X197331200Y-40079001D01*
X197164668Y-40134185D01*
X197164663Y-40134187D01*
X197015342Y-40226289D01*
X196891287Y-40350344D01*
X196851688Y-40414544D01*
X196799739Y-40461268D01*
X196730777Y-40472489D01*
X196666695Y-40444645D01*
X196658469Y-40437127D01*
X196550930Y-40329588D01*
X196550928Y-40329586D01*
X196410788Y-40227768D01*
X196256445Y-40149127D01*
X196091701Y-40095598D01*
X196091699Y-40095597D01*
X196091698Y-40095597D01*
X195960271Y-40074781D01*
X195920611Y-40068500D01*
X195747389Y-40068500D01*
X195707728Y-40074781D01*
X195576302Y-40095597D01*
X195411552Y-40149128D01*
X195257211Y-40227768D01*
X195177256Y-40285859D01*
X195117072Y-40329586D01*
X195117070Y-40329588D01*
X195117069Y-40329588D01*
X194994585Y-40452072D01*
X194934007Y-40535450D01*
X194878677Y-40578115D01*
X194809063Y-40584093D01*
X194747269Y-40551486D01*
X194733371Y-40535447D01*
X194673036Y-40452401D01*
X194550602Y-40329967D01*
X194410524Y-40228195D01*
X194256257Y-40149591D01*
X194091589Y-40096087D01*
X194091581Y-40096085D01*
X194084000Y-40094884D01*
X194084000Y-41163670D01*
X194064255Y-41143925D01*
X193978745Y-41094556D01*
X193883370Y-41069000D01*
X193784630Y-41069000D01*
X193689255Y-41094556D01*
X193603745Y-41143925D01*
X193584000Y-41163670D01*
X193584000Y-40094884D01*
X193583999Y-40094884D01*
X193576418Y-40096085D01*
X193576410Y-40096087D01*
X193411742Y-40149591D01*
X193257475Y-40228195D01*
X193117397Y-40329967D01*
X192994967Y-40452397D01*
X192893195Y-40592475D01*
X192814591Y-40746742D01*
X192761085Y-40911415D01*
X192734000Y-41082428D01*
X190844344Y-41082428D01*
X190800797Y-40965671D01*
X190800793Y-40965664D01*
X190714547Y-40850455D01*
X190714544Y-40850452D01*
X190599335Y-40764206D01*
X190599328Y-40764202D01*
X190464482Y-40713908D01*
X190464483Y-40713908D01*
X190404883Y-40707501D01*
X190404881Y-40707500D01*
X190404873Y-40707500D01*
X190404865Y-40707500D01*
X188624500Y-40707500D01*
X188557461Y-40687815D01*
X188511706Y-40635011D01*
X188500500Y-40583500D01*
X188500500Y-32256504D01*
X196500000Y-32256504D01*
X196500000Y-32655000D01*
X197200000Y-32655000D01*
X197200000Y-33155000D01*
X196500000Y-33155000D01*
X196500000Y-33553495D01*
X196538427Y-33746681D01*
X196538430Y-33746693D01*
X196613807Y-33928671D01*
X196613814Y-33928684D01*
X196723248Y-34092462D01*
X196723251Y-34092466D01*
X196862533Y-34231748D01*
X196862537Y-34231751D01*
X197026315Y-34341185D01*
X197026328Y-34341192D01*
X197208308Y-34416569D01*
X197250000Y-34424862D01*
X197750000Y-34424862D01*
X197791689Y-34416570D01*
X197906514Y-34369008D01*
X197975983Y-34361539D01*
X198038463Y-34392814D01*
X198041648Y-34395888D01*
X198068438Y-34422678D01*
X198068447Y-34422685D01*
X198209801Y-34506281D01*
X198367514Y-34552100D01*
X198367511Y-34552100D01*
X198369998Y-34552295D01*
X198370000Y-34552295D01*
X198370000Y-33730000D01*
X197750000Y-33730000D01*
X197750000Y-34424862D01*
X197250000Y-34424862D01*
X197250000Y-33621988D01*
X197259940Y-33639205D01*
X197315795Y-33695060D01*
X197384204Y-33734556D01*
X197460504Y-33755000D01*
X197539496Y-33755000D01*
X197615796Y-33734556D01*
X197684205Y-33695060D01*
X197740060Y-33639205D01*
X197779556Y-33570796D01*
X197800000Y-33494496D01*
X197800000Y-33230000D01*
X198495500Y-33230000D01*
X198562539Y-33249685D01*
X198608294Y-33302489D01*
X198619500Y-33354000D01*
X198619500Y-33970701D01*
X198622401Y-34007567D01*
X198622402Y-34007573D01*
X198668254Y-34165393D01*
X198668255Y-34165396D01*
X198668256Y-34165398D01*
X198751919Y-34306865D01*
X198833682Y-34388628D01*
X198867166Y-34449949D01*
X198870000Y-34476308D01*
X198870000Y-34552295D01*
X198870001Y-34552295D01*
X198872490Y-34552100D01*
X198984507Y-34519555D01*
X199053697Y-34519555D01*
X199167431Y-34552598D01*
X199204306Y-34555500D01*
X199345499Y-34555500D01*
X199412538Y-34575185D01*
X199458293Y-34627989D01*
X199469499Y-34679500D01*
X199469499Y-34795054D01*
X199469498Y-34795054D01*
X199510423Y-34947785D01*
X199533018Y-34986919D01*
X199533019Y-34986923D01*
X199589475Y-35084709D01*
X199589481Y-35084717D01*
X199708349Y-35203585D01*
X199708355Y-35203590D01*
X200079425Y-35574660D01*
X200112910Y-35635983D01*
X200113361Y-35638149D01*
X200144261Y-35793491D01*
X200144264Y-35793501D01*
X200204602Y-35939172D01*
X200204609Y-35939185D01*
X200292210Y-36070288D01*
X200292213Y-36070292D01*
X200403707Y-36181786D01*
X200403711Y-36181789D01*
X200534814Y-36269390D01*
X200534827Y-36269397D01*
X200680498Y-36329735D01*
X200680503Y-36329737D01*
X200835153Y-36360499D01*
X200835156Y-36360500D01*
X200835158Y-36360500D01*
X200992844Y-36360500D01*
X200992845Y-36360499D01*
X201147497Y-36329737D01*
X201293179Y-36269394D01*
X201424289Y-36181789D01*
X201483761Y-36122316D01*
X201545082Y-36088833D01*
X201614774Y-36093817D01*
X201618893Y-36095438D01*
X201683788Y-36122318D01*
X201722872Y-36138507D01*
X201877522Y-36169269D01*
X201877525Y-36169270D01*
X201877527Y-36169270D01*
X202035213Y-36169270D01*
X202035214Y-36169269D01*
X202189866Y-36138507D01*
X202335548Y-36078164D01*
X202466658Y-35990559D01*
X202578158Y-35879059D01*
X202665763Y-35747949D01*
X202665764Y-35747946D01*
X202665766Y-35747943D01*
X202712140Y-35635983D01*
X202725430Y-35603896D01*
X202769270Y-35549494D01*
X202792535Y-35536790D01*
X202857501Y-35509881D01*
X202936584Y-35477125D01*
X202936587Y-35477123D01*
X202936590Y-35477122D01*
X203067700Y-35389517D01*
X203088602Y-35368614D01*
X203149923Y-35335130D01*
X203219614Y-35340113D01*
X203275549Y-35381984D01*
X203297900Y-35432104D01*
X203319261Y-35539491D01*
X203319264Y-35539501D01*
X203379602Y-35685172D01*
X203379609Y-35685185D01*
X203467210Y-35816288D01*
X203467213Y-35816292D01*
X203578707Y-35927786D01*
X203578711Y-35927789D01*
X203709814Y-36015390D01*
X203709827Y-36015397D01*
X203855498Y-36075735D01*
X203855503Y-36075737D01*
X204010153Y-36106499D01*
X204010156Y-36106500D01*
X204010158Y-36106500D01*
X204167844Y-36106500D01*
X204167845Y-36106499D01*
X204322497Y-36075737D01*
X204468179Y-36015394D01*
X204599289Y-35927789D01*
X204710789Y-35816289D01*
X204798394Y-35685179D01*
X204858737Y-35539497D01*
X204889500Y-35384842D01*
X204889500Y-35227158D01*
X204889500Y-35227155D01*
X204889499Y-35227153D01*
X204883406Y-35196520D01*
X204858737Y-35072503D01*
X204823289Y-34986923D01*
X204798397Y-34926827D01*
X204798390Y-34926814D01*
X204710789Y-34795711D01*
X204710786Y-34795707D01*
X204679193Y-34764114D01*
X204645708Y-34702791D01*
X204650692Y-34633099D01*
X204662206Y-34609945D01*
X204789332Y-34409820D01*
X204789589Y-34409594D01*
X204789685Y-34409269D01*
X204806314Y-34388631D01*
X204888081Y-34306865D01*
X204971744Y-34165398D01*
X205017598Y-34007569D01*
X205020500Y-33970694D01*
X205020500Y-33604000D01*
X205023050Y-33595314D01*
X205021762Y-33586353D01*
X205032740Y-33562312D01*
X205040185Y-33536961D01*
X205047025Y-33531033D01*
X205050787Y-33522797D01*
X205073021Y-33508507D01*
X205092989Y-33491206D01*
X205103503Y-33488918D01*
X205109565Y-33485023D01*
X205144500Y-33480000D01*
X205146000Y-33480000D01*
X205213039Y-33499685D01*
X205258794Y-33552489D01*
X205270000Y-33604000D01*
X205270000Y-34552295D01*
X205270001Y-34552295D01*
X205272486Y-34552100D01*
X205430198Y-34506281D01*
X205571550Y-34422686D01*
X205571553Y-34422683D01*
X205598348Y-34395889D01*
X205659671Y-34362403D01*
X205729363Y-34367387D01*
X205733483Y-34369008D01*
X205848308Y-34416569D01*
X205890000Y-34424862D01*
X205890000Y-33621988D01*
X205899940Y-33639205D01*
X205955795Y-33695060D01*
X206024204Y-33734556D01*
X206100504Y-33755000D01*
X206179496Y-33755000D01*
X206255796Y-33734556D01*
X206324205Y-33695060D01*
X206380060Y-33639205D01*
X206390000Y-33621988D01*
X206390000Y-34424862D01*
X206431690Y-34416569D01*
X206431692Y-34416569D01*
X206613671Y-34341192D01*
X206613684Y-34341185D01*
X206777462Y-34231751D01*
X206777466Y-34231748D01*
X206916748Y-34092466D01*
X206916751Y-34092462D01*
X207026185Y-33928684D01*
X207026192Y-33928671D01*
X207101569Y-33746693D01*
X207101572Y-33746681D01*
X207139999Y-33553495D01*
X207140000Y-33553492D01*
X207140000Y-33155000D01*
X206440000Y-33155000D01*
X206440000Y-32655000D01*
X207140000Y-32655000D01*
X207140000Y-32256508D01*
X207139999Y-32256504D01*
X207101572Y-32063318D01*
X207101569Y-32063306D01*
X207026192Y-31881328D01*
X207026185Y-31881315D01*
X206916751Y-31717537D01*
X206916748Y-31717533D01*
X206777466Y-31578251D01*
X206777462Y-31578248D01*
X206613684Y-31468814D01*
X206613671Y-31468807D01*
X206431691Y-31393429D01*
X206431683Y-31393427D01*
X206390000Y-31385135D01*
X206390000Y-32188011D01*
X206380060Y-32170795D01*
X206324205Y-32114940D01*
X206255796Y-32075444D01*
X206179496Y-32055000D01*
X206100504Y-32055000D01*
X206024204Y-32075444D01*
X205955795Y-32114940D01*
X205899940Y-32170795D01*
X205890000Y-32188011D01*
X205890000Y-31385136D01*
X205889999Y-31385135D01*
X205848316Y-31393427D01*
X205848308Y-31393429D01*
X205666328Y-31468807D01*
X205666315Y-31468814D01*
X205502537Y-31578248D01*
X205502533Y-31578251D01*
X205363251Y-31717533D01*
X205363248Y-31717537D01*
X205253814Y-31881315D01*
X205253809Y-31881324D01*
X205249866Y-31890845D01*
X205206023Y-31945247D01*
X205139728Y-31967310D01*
X205072030Y-31950029D01*
X205066597Y-31946351D01*
X204932136Y-31868719D01*
X204830010Y-31841355D01*
X204785766Y-31829500D01*
X204634234Y-31829500D01*
X204487863Y-31868719D01*
X204356635Y-31944485D01*
X204356632Y-31944487D01*
X204320358Y-31980762D01*
X204312412Y-31985100D01*
X204306987Y-31992348D01*
X204282227Y-32001582D01*
X204259035Y-32014247D01*
X204250005Y-32013601D01*
X204241523Y-32016765D01*
X204215702Y-32011148D01*
X204189343Y-32009263D01*
X204180289Y-32003444D01*
X204173250Y-32001913D01*
X204144996Y-31980762D01*
X204005589Y-31841355D01*
X204005587Y-31841352D01*
X203886716Y-31722481D01*
X203886708Y-31722475D01*
X203792615Y-31668151D01*
X203792614Y-31668151D01*
X203749784Y-31643423D01*
X203597056Y-31602499D01*
X203438942Y-31602499D01*
X203431346Y-31602499D01*
X203431330Y-31602500D01*
X200042941Y-31602500D01*
X200002020Y-31613464D01*
X200002020Y-31613465D01*
X199964752Y-31623451D01*
X199890215Y-31643423D01*
X199890210Y-31643426D01*
X199753291Y-31722475D01*
X199753283Y-31722481D01*
X199641481Y-31834283D01*
X199641481Y-31834284D01*
X199641479Y-31834286D01*
X199531280Y-31944485D01*
X199495003Y-31980762D01*
X199433680Y-32014246D01*
X199363988Y-32009262D01*
X199319641Y-31980761D01*
X199283367Y-31944487D01*
X199283365Y-31944485D01*
X199213406Y-31904094D01*
X199152136Y-31868719D01*
X199050010Y-31841355D01*
X199005766Y-31829500D01*
X198854234Y-31829500D01*
X198707863Y-31868719D01*
X198616428Y-31921510D01*
X198576635Y-31944485D01*
X198576633Y-31944486D01*
X198569597Y-31948549D01*
X198568327Y-31946349D01*
X198514995Y-31966960D01*
X198446552Y-31952914D01*
X198396568Y-31904094D01*
X198390131Y-31890838D01*
X198386192Y-31881328D01*
X198386185Y-31881315D01*
X198276751Y-31717537D01*
X198276748Y-31717533D01*
X198137466Y-31578251D01*
X198137462Y-31578248D01*
X197973684Y-31468814D01*
X197973671Y-31468807D01*
X197791691Y-31393429D01*
X197791683Y-31393427D01*
X197750000Y-31385135D01*
X197750000Y-32188011D01*
X197740060Y-32170795D01*
X197684205Y-32114940D01*
X197615796Y-32075444D01*
X197539496Y-32055000D01*
X197460504Y-32055000D01*
X197384204Y-32075444D01*
X197315795Y-32114940D01*
X197259940Y-32170795D01*
X197250000Y-32188011D01*
X197250000Y-31385136D01*
X197249999Y-31385135D01*
X197208316Y-31393427D01*
X197208308Y-31393429D01*
X197026328Y-31468807D01*
X197026315Y-31468814D01*
X196862537Y-31578248D01*
X196862533Y-31578251D01*
X196723251Y-31717533D01*
X196723248Y-31717537D01*
X196613814Y-31881315D01*
X196613807Y-31881328D01*
X196538430Y-32063306D01*
X196538427Y-32063318D01*
X196500000Y-32256504D01*
X188500500Y-32256504D01*
X188500500Y-30368872D01*
X208184500Y-30368872D01*
X208184500Y-30631127D01*
X208211123Y-30833339D01*
X208218730Y-30891116D01*
X208251962Y-31015139D01*
X208286602Y-31144418D01*
X208286605Y-31144428D01*
X208386953Y-31386690D01*
X208386958Y-31386700D01*
X208518075Y-31613803D01*
X208677718Y-31821851D01*
X208677726Y-31821860D01*
X208863140Y-32007274D01*
X208863148Y-32007281D01*
X208863149Y-32007282D01*
X208911554Y-32044424D01*
X209071196Y-32166924D01*
X209298299Y-32298041D01*
X209298309Y-32298046D01*
X209540571Y-32398394D01*
X209540581Y-32398398D01*
X209793884Y-32466270D01*
X210042188Y-32498960D01*
X210053864Y-32500498D01*
X210053880Y-32500500D01*
X210053887Y-32500500D01*
X210316113Y-32500500D01*
X210316120Y-32500500D01*
X210576116Y-32466270D01*
X210829419Y-32398398D01*
X211006340Y-32325114D01*
X211071690Y-32298046D01*
X211071691Y-32298045D01*
X211071697Y-32298043D01*
X211298803Y-32166924D01*
X211506851Y-32007282D01*
X211506855Y-32007277D01*
X211506860Y-32007274D01*
X211692274Y-31821860D01*
X211692277Y-31821855D01*
X211692282Y-31821851D01*
X211851924Y-31613803D01*
X211983043Y-31386697D01*
X212083398Y-31144419D01*
X212151270Y-30891116D01*
X212185500Y-30631120D01*
X212185500Y-30368880D01*
X212151270Y-30108884D01*
X212083398Y-29855581D01*
X212055859Y-29789096D01*
X211983046Y-29613309D01*
X211983041Y-29613299D01*
X211851924Y-29386196D01*
X211719024Y-29213000D01*
X211692282Y-29178149D01*
X211692281Y-29178148D01*
X211692274Y-29178140D01*
X211506860Y-28992726D01*
X211506851Y-28992718D01*
X211453963Y-28952135D01*
X213264500Y-28952135D01*
X213264500Y-32047870D01*
X213264501Y-32047876D01*
X213270908Y-32107483D01*
X213321202Y-32242328D01*
X213321206Y-32242335D01*
X213407452Y-32357544D01*
X213407455Y-32357547D01*
X213522664Y-32443793D01*
X213522671Y-32443797D01*
X213657517Y-32494091D01*
X213657516Y-32494091D01*
X213664444Y-32494835D01*
X213717127Y-32500500D01*
X216812872Y-32500499D01*
X216872483Y-32494091D01*
X217007331Y-32443796D01*
X217122546Y-32357546D01*
X217208796Y-32242331D01*
X217259091Y-32107483D01*
X217265500Y-32047873D01*
X217265499Y-28952128D01*
X217259091Y-28892517D01*
X217258981Y-28892223D01*
X217208797Y-28757671D01*
X217208793Y-28757664D01*
X217122547Y-28642455D01*
X217122544Y-28642452D01*
X217007335Y-28556206D01*
X217007328Y-28556202D01*
X216872482Y-28505908D01*
X216872483Y-28505908D01*
X216812883Y-28499501D01*
X216812881Y-28499500D01*
X216812873Y-28499500D01*
X216812864Y-28499500D01*
X213717129Y-28499500D01*
X213717123Y-28499501D01*
X213657516Y-28505908D01*
X213522671Y-28556202D01*
X213522664Y-28556206D01*
X213407455Y-28642452D01*
X213407452Y-28642455D01*
X213321206Y-28757664D01*
X213321202Y-28757671D01*
X213270908Y-28892517D01*
X213264501Y-28952116D01*
X213264501Y-28952123D01*
X213264500Y-28952135D01*
X211453963Y-28952135D01*
X211298803Y-28833075D01*
X211071700Y-28701958D01*
X211071690Y-28701953D01*
X210829428Y-28601605D01*
X210829421Y-28601603D01*
X210829419Y-28601602D01*
X210576116Y-28533730D01*
X210518339Y-28526123D01*
X210316127Y-28499500D01*
X210316120Y-28499500D01*
X210053880Y-28499500D01*
X210053872Y-28499500D01*
X209822772Y-28529926D01*
X209793884Y-28533730D01*
X209623026Y-28579511D01*
X209540581Y-28601602D01*
X209540571Y-28601605D01*
X209298309Y-28701953D01*
X209298299Y-28701958D01*
X209071196Y-28833075D01*
X208863148Y-28992718D01*
X208677718Y-29178148D01*
X208518075Y-29386196D01*
X208386958Y-29613299D01*
X208386953Y-29613309D01*
X208286605Y-29855571D01*
X208286602Y-29855581D01*
X208224710Y-30086569D01*
X208218730Y-30108885D01*
X208184500Y-30368872D01*
X188500500Y-30368872D01*
X188500500Y-29919500D01*
X188520185Y-29852461D01*
X188572989Y-29806706D01*
X188624500Y-29795500D01*
X189107000Y-29795500D01*
X189607000Y-29795500D01*
X190404828Y-29795500D01*
X190404844Y-29795499D01*
X190464372Y-29789098D01*
X190464379Y-29789096D01*
X190599086Y-29738854D01*
X190599093Y-29738850D01*
X190714187Y-29652690D01*
X190714190Y-29652687D01*
X190800350Y-29537593D01*
X190800354Y-29537586D01*
X190843780Y-29421153D01*
X193199500Y-29421153D01*
X193199500Y-29578846D01*
X193230261Y-29733489D01*
X193230264Y-29733501D01*
X193290602Y-29879172D01*
X193290609Y-29879185D01*
X193378210Y-30010288D01*
X193378213Y-30010292D01*
X193489707Y-30121786D01*
X193489711Y-30121789D01*
X193620814Y-30209390D01*
X193620827Y-30209397D01*
X193766498Y-30269735D01*
X193766503Y-30269737D01*
X193921153Y-30300499D01*
X193921156Y-30300500D01*
X193921158Y-30300500D01*
X194078844Y-30300500D01*
X194078845Y-30300499D01*
X194233497Y-30269737D01*
X194254760Y-30260929D01*
X194280520Y-30250260D01*
X194379172Y-30209397D01*
X194379172Y-30209396D01*
X194379179Y-30209394D01*
X194510289Y-30121789D01*
X194621789Y-30010289D01*
X194709394Y-29879179D01*
X194769737Y-29733497D01*
X194800500Y-29578842D01*
X194800500Y-29421158D01*
X194800500Y-29421155D01*
X194800499Y-29421153D01*
X194793546Y-29386197D01*
X194769737Y-29266503D01*
X194751923Y-29223495D01*
X194709397Y-29120827D01*
X194709390Y-29120814D01*
X194623672Y-28992529D01*
X194623671Y-28992527D01*
X194623670Y-28992526D01*
X194621788Y-28989709D01*
X194510292Y-28878213D01*
X194510288Y-28878210D01*
X194379185Y-28790609D01*
X194379172Y-28790602D01*
X194233501Y-28730264D01*
X194233489Y-28730261D01*
X194078845Y-28699500D01*
X194078842Y-28699500D01*
X193921158Y-28699500D01*
X193921155Y-28699500D01*
X193766510Y-28730261D01*
X193766498Y-28730264D01*
X193620827Y-28790602D01*
X193620814Y-28790609D01*
X193489711Y-28878210D01*
X193489707Y-28878213D01*
X193378213Y-28989707D01*
X193378210Y-28989711D01*
X193290609Y-29120814D01*
X193290602Y-29120827D01*
X193230264Y-29266498D01*
X193230261Y-29266510D01*
X193199500Y-29421153D01*
X190843780Y-29421153D01*
X190850596Y-29402879D01*
X190850598Y-29402874D01*
X190850713Y-29401806D01*
X190850713Y-29401804D01*
X190856999Y-29343344D01*
X190857000Y-29343327D01*
X190857000Y-28250000D01*
X189607000Y-28250000D01*
X189607000Y-29795500D01*
X189107000Y-29795500D01*
X189107000Y-28226504D01*
X196500000Y-28226504D01*
X196500000Y-28475000D01*
X197200000Y-28475000D01*
X197200000Y-28975000D01*
X196500000Y-28975000D01*
X196500000Y-29223495D01*
X196538427Y-29416681D01*
X196538430Y-29416693D01*
X196613807Y-29598671D01*
X196613814Y-29598684D01*
X196723248Y-29762462D01*
X196723251Y-29762466D01*
X196862533Y-29901748D01*
X196862537Y-29901751D01*
X197026315Y-30011185D01*
X197026328Y-30011192D01*
X197208308Y-30086569D01*
X197250000Y-30094862D01*
X197250000Y-29291988D01*
X197259940Y-29309205D01*
X197315795Y-29365060D01*
X197384204Y-29404556D01*
X197460504Y-29425000D01*
X197539496Y-29425000D01*
X197615796Y-29404556D01*
X197684205Y-29365060D01*
X197740060Y-29309205D01*
X197750000Y-29291988D01*
X197750000Y-30094862D01*
X197791690Y-30086569D01*
X197791692Y-30086569D01*
X197973671Y-30011192D01*
X197973684Y-30011185D01*
X198137462Y-29901751D01*
X198137466Y-29901748D01*
X198276748Y-29762466D01*
X198276751Y-29762462D01*
X198386185Y-29598684D01*
X198386192Y-29598671D01*
X198461569Y-29416693D01*
X198461572Y-29416681D01*
X198499999Y-29223495D01*
X198500000Y-29223492D01*
X198500000Y-28975000D01*
X197800000Y-28975000D01*
X197800000Y-28475000D01*
X198500000Y-28475000D01*
X198500000Y-28226508D01*
X198499999Y-28226504D01*
X205140000Y-28226504D01*
X205140000Y-28475000D01*
X205840000Y-28475000D01*
X205840000Y-28975000D01*
X205140000Y-28975000D01*
X205140000Y-29223495D01*
X205178427Y-29416681D01*
X205178430Y-29416693D01*
X205253807Y-29598671D01*
X205253814Y-29598684D01*
X205363248Y-29762462D01*
X205363251Y-29762466D01*
X205502533Y-29901748D01*
X205502537Y-29901751D01*
X205666315Y-30011185D01*
X205666328Y-30011192D01*
X205848308Y-30086569D01*
X205890000Y-30094862D01*
X205890000Y-29291988D01*
X205899940Y-29309205D01*
X205955795Y-29365060D01*
X206024204Y-29404556D01*
X206100504Y-29425000D01*
X206179496Y-29425000D01*
X206255796Y-29404556D01*
X206324205Y-29365060D01*
X206380060Y-29309205D01*
X206390000Y-29291988D01*
X206390000Y-30094862D01*
X206431690Y-30086569D01*
X206431692Y-30086569D01*
X206613671Y-30011192D01*
X206613684Y-30011185D01*
X206777462Y-29901751D01*
X206777466Y-29901748D01*
X206916748Y-29762466D01*
X206916751Y-29762462D01*
X207026185Y-29598684D01*
X207026192Y-29598671D01*
X207101569Y-29416693D01*
X207101572Y-29416681D01*
X207139999Y-29223495D01*
X207140000Y-29223492D01*
X207140000Y-28975000D01*
X206440000Y-28975000D01*
X206440000Y-28475000D01*
X207140000Y-28475000D01*
X207140000Y-28226508D01*
X207139999Y-28226504D01*
X207101572Y-28033318D01*
X207101569Y-28033306D01*
X207026192Y-27851328D01*
X207026185Y-27851315D01*
X206916751Y-27687537D01*
X206916748Y-27687533D01*
X206777466Y-27548251D01*
X206777462Y-27548248D01*
X206613684Y-27438814D01*
X206613671Y-27438807D01*
X206431691Y-27363429D01*
X206431683Y-27363427D01*
X206390000Y-27355135D01*
X206390000Y-28158011D01*
X206380060Y-28140795D01*
X206324205Y-28084940D01*
X206255796Y-28045444D01*
X206179496Y-28025000D01*
X206100504Y-28025000D01*
X206024204Y-28045444D01*
X205955795Y-28084940D01*
X205899940Y-28140795D01*
X205890000Y-28158011D01*
X205890000Y-27355136D01*
X205889999Y-27355135D01*
X205848316Y-27363427D01*
X205848308Y-27363429D01*
X205666328Y-27438807D01*
X205666315Y-27438814D01*
X205502537Y-27548248D01*
X205502533Y-27548251D01*
X205363251Y-27687533D01*
X205363248Y-27687537D01*
X205253814Y-27851315D01*
X205253807Y-27851328D01*
X205178430Y-28033306D01*
X205178427Y-28033318D01*
X205140000Y-28226504D01*
X198499999Y-28226504D01*
X198461572Y-28033318D01*
X198461569Y-28033306D01*
X198386192Y-27851328D01*
X198386185Y-27851315D01*
X198276751Y-27687537D01*
X198276748Y-27687533D01*
X198137466Y-27548251D01*
X198137462Y-27548248D01*
X197973684Y-27438814D01*
X197973671Y-27438807D01*
X197791691Y-27363429D01*
X197791683Y-27363427D01*
X197750000Y-27355135D01*
X197750000Y-28158011D01*
X197740060Y-28140795D01*
X197684205Y-28084940D01*
X197615796Y-28045444D01*
X197539496Y-28025000D01*
X197460504Y-28025000D01*
X197384204Y-28045444D01*
X197315795Y-28084940D01*
X197259940Y-28140795D01*
X197250000Y-28158011D01*
X197250000Y-27355136D01*
X197249999Y-27355135D01*
X197208316Y-27363427D01*
X197208308Y-27363429D01*
X197026328Y-27438807D01*
X197026315Y-27438814D01*
X196862537Y-27548248D01*
X196862533Y-27548251D01*
X196723251Y-27687533D01*
X196723248Y-27687537D01*
X196613814Y-27851315D01*
X196613807Y-27851328D01*
X196538430Y-28033306D01*
X196538427Y-28033318D01*
X196500000Y-28226504D01*
X189107000Y-28226504D01*
X189107000Y-28124000D01*
X189126685Y-28056961D01*
X189157000Y-28030692D01*
X189157000Y-28039782D01*
X189187448Y-28113291D01*
X189243709Y-28169552D01*
X189317218Y-28200000D01*
X189396782Y-28200000D01*
X189470291Y-28169552D01*
X189526552Y-28113291D01*
X189557000Y-28039782D01*
X189557000Y-27960218D01*
X189526552Y-27886709D01*
X189470291Y-27830448D01*
X189396782Y-27800000D01*
X189384718Y-27800000D01*
X189429489Y-27761206D01*
X189481000Y-27750000D01*
X190857000Y-27750000D01*
X190857000Y-26656672D01*
X190856999Y-26656655D01*
X190854967Y-26637756D01*
X190867372Y-26568997D01*
X190914982Y-26517859D01*
X190978256Y-26500500D01*
X219590741Y-26500500D01*
X219657780Y-26520185D01*
G37*
%TD.AperFunction*%
%TD*%
M02*
