%TF.GenerationSoftware,KiCad,Pcbnew,9.0.4*%
%TF.CreationDate,2025-10-03T16:52:29+02:00*%
%TF.ProjectId,pami_2026,70616d69-5f32-4303-9236-2e6b69636164,rev?*%
%TF.SameCoordinates,Original*%
%TF.FileFunction,Copper,L3,Inr*%
%TF.FilePolarity,Positive*%
%FSLAX46Y46*%
G04 Gerber Fmt 4.6, Leading zero omitted, Abs format (unit mm)*
G04 Created by KiCad (PCBNEW 9.0.4) date 2025-10-03 16:52:29*
%MOMM*%
%LPD*%
G01*
G04 APERTURE LIST*
G04 Aperture macros list*
%AMRoundRect*
0 Rectangle with rounded corners*
0 $1 Rounding radius*
0 $2 $3 $4 $5 $6 $7 $8 $9 X,Y pos of 4 corners*
0 Add a 4 corners polygon primitive as box body*
4,1,4,$2,$3,$4,$5,$6,$7,$8,$9,$2,$3,0*
0 Add four circle primitives for the rounded corners*
1,1,$1+$1,$2,$3*
1,1,$1+$1,$4,$5*
1,1,$1+$1,$6,$7*
1,1,$1+$1,$8,$9*
0 Add four rect primitives between the rounded corners*
20,1,$1+$1,$2,$3,$4,$5,0*
20,1,$1+$1,$4,$5,$6,$7,0*
20,1,$1+$1,$6,$7,$8,$9,0*
20,1,$1+$1,$8,$9,$2,$3,0*%
G04 Aperture macros list end*
%TA.AperFunction,ComponentPad*%
%ADD10C,3.000000*%
%TD*%
%TA.AperFunction,ComponentPad*%
%ADD11R,3.000000X3.000000*%
%TD*%
%TA.AperFunction,ComponentPad*%
%ADD12C,0.800000*%
%TD*%
%TA.AperFunction,ComponentPad*%
%ADD13C,6.400000*%
%TD*%
%TA.AperFunction,ComponentPad*%
%ADD14RoundRect,0.250000X-0.600000X-0.725000X0.600000X-0.725000X0.600000X0.725000X-0.600000X0.725000X0*%
%TD*%
%TA.AperFunction,ComponentPad*%
%ADD15O,1.700000X1.950000*%
%TD*%
%TA.AperFunction,ComponentPad*%
%ADD16RoundRect,0.250000X-0.625000X0.350000X-0.625000X-0.350000X0.625000X-0.350000X0.625000X0.350000X0*%
%TD*%
%TA.AperFunction,ComponentPad*%
%ADD17O,1.750000X1.200000*%
%TD*%
%TA.AperFunction,ComponentPad*%
%ADD18RoundRect,0.250000X-0.350000X-0.625000X0.350000X-0.625000X0.350000X0.625000X-0.350000X0.625000X0*%
%TD*%
%TA.AperFunction,ComponentPad*%
%ADD19O,1.200000X1.750000*%
%TD*%
%TA.AperFunction,ComponentPad*%
%ADD20R,1.700000X1.700000*%
%TD*%
%TA.AperFunction,ComponentPad*%
%ADD21C,1.700000*%
%TD*%
%TA.AperFunction,ComponentPad*%
%ADD22C,0.600000*%
%TD*%
%TA.AperFunction,ComponentPad*%
%ADD23O,0.900000X1.900000*%
%TD*%
%TA.AperFunction,ComponentPad*%
%ADD24RoundRect,0.250000X-0.600000X-0.750000X0.600000X-0.750000X0.600000X0.750000X-0.600000X0.750000X0*%
%TD*%
%TA.AperFunction,ComponentPad*%
%ADD25O,1.700000X2.000000*%
%TD*%
%TA.AperFunction,ComponentPad*%
%ADD26R,2.000000X2.591000*%
%TD*%
%TA.AperFunction,ComponentPad*%
%ADD27RoundRect,0.250000X-0.550000X0.550000X-0.550000X-0.550000X0.550000X-0.550000X0.550000X0.550000X0*%
%TD*%
%TA.AperFunction,ComponentPad*%
%ADD28C,1.600000*%
%TD*%
%TA.AperFunction,ComponentPad*%
%ADD29RoundRect,0.250000X0.600000X0.750000X-0.600000X0.750000X-0.600000X-0.750000X0.600000X-0.750000X0*%
%TD*%
%TA.AperFunction,HeatsinkPad*%
%ADD30C,0.500000*%
%TD*%
%TA.AperFunction,ComponentPad*%
%ADD31RoundRect,0.250000X-0.450000X-0.450000X0.450000X-0.450000X0.450000X0.450000X-0.450000X0.450000X0*%
%TD*%
%TA.AperFunction,ComponentPad*%
%ADD32C,1.400000*%
%TD*%
%TA.AperFunction,ViaPad*%
%ADD33C,0.600000*%
%TD*%
%TA.AperFunction,ViaPad*%
%ADD34C,1.200000*%
%TD*%
%TA.AperFunction,Conductor*%
%ADD35C,1.600000*%
%TD*%
%TA.AperFunction,Conductor*%
%ADD36C,0.200000*%
%TD*%
%TA.AperFunction,Conductor*%
%ADD37C,0.600000*%
%TD*%
%TA.AperFunction,Conductor*%
%ADD38C,0.800000*%
%TD*%
G04 APERTURE END LIST*
D10*
%TO.N,Net-(J4-Pin_2)*%
%TO.C,J4*%
X64008000Y-116600000D03*
D11*
%TO.N,Net-(J4-Pin_1)*%
X58928000Y-116600000D03*
%TD*%
D12*
%TO.N,N/C*%
%TO.C,H2*%
X80297056Y-63000000D03*
X81000000Y-61302944D03*
X81000000Y-64697056D03*
X82697056Y-60600000D03*
D13*
X82697056Y-63000000D03*
D12*
X82697056Y-65400000D03*
X84394112Y-61302944D03*
X84394112Y-64697056D03*
X85097056Y-63000000D03*
%TD*%
D14*
%TO.N,+3.3V*%
%TO.C,J9*%
X44500000Y-117000000D03*
D15*
%TO.N,I2C_scl*%
X47000000Y-117000000D03*
%TO.N,I2C_sda*%
X49500000Y-117000000D03*
%TO.N,GND*%
X52000000Y-117000000D03*
%TD*%
D16*
%TO.N,+5V*%
%TO.C,J7*%
X56039318Y-43548682D03*
D17*
%TO.N,Net-(D8-DOUT)*%
X56039318Y-45548682D03*
%TO.N,GND*%
X56039318Y-47548682D03*
%TD*%
D12*
%TO.N,N/C*%
%TO.C,H4*%
X84600000Y-103000000D03*
X85302944Y-101302944D03*
X85302944Y-104697056D03*
X87000000Y-100600000D03*
D13*
X87000000Y-103000000D03*
D12*
X87000000Y-105400000D03*
X88697056Y-101302944D03*
X88697056Y-104697056D03*
X89400000Y-103000000D03*
%TD*%
D18*
%TO.N,Net-(J12-Pin_1)*%
%TO.C,J12*%
X78000000Y-109000000D03*
D19*
%TO.N,GND*%
X80000000Y-109000000D03*
%TO.N,motor_enc_b+*%
X82000000Y-109000000D03*
%TO.N,motor_enc_b-*%
X84000000Y-109000000D03*
%TO.N,+3.3V*%
X86000000Y-109000000D03*
%TO.N,Net-(J12-Pin_6)*%
X88000000Y-109000000D03*
%TD*%
D20*
%TO.N,Net-(J1-Pin_1)*%
%TO.C,J1*%
X69810000Y-74000000D03*
D21*
%TO.N,+3.3V*%
X67270000Y-74000000D03*
%TO.N,I2C_scl*%
X64730000Y-74000000D03*
%TO.N,I2C_sda*%
X62190000Y-74000000D03*
%TD*%
D22*
%TO.N,GND*%
%TO.C,J8*%
X47858963Y-46209000D03*
%TO.N,Net-(D1-A)*%
X47858963Y-47109000D03*
%TO.N,Net-(J8-CC1)*%
X47858963Y-48009000D03*
%TO.N,usb_d+*%
X47858963Y-48909000D03*
%TO.N,usb_d-*%
X47858963Y-49809000D03*
%TO.N,Net-(D1-A)*%
X47858963Y-50709000D03*
%TO.N,GND*%
X47858963Y-51609000D03*
X47078963Y-51159000D03*
%TO.N,Net-(D1-A)*%
X47078963Y-50259000D03*
%TO.N,Net-(J8-CC2)*%
X47078963Y-49359000D03*
%TO.N,usb_d+*%
X47078963Y-48459000D03*
%TO.N,usb_d-*%
X47078963Y-47559000D03*
%TO.N,Net-(D1-A)*%
X47078963Y-46659000D03*
%TO.N,GND*%
X47078963Y-45759000D03*
D23*
%TO.N,N/C*%
X48898963Y-46259000D03*
X46038963Y-46259000D03*
X48898963Y-51059000D03*
X46038963Y-51059000D03*
%TD*%
D20*
%TO.N,GND*%
%TO.C,J14*%
X83540000Y-95000000D03*
D21*
%TO.N,+5V*%
X81000000Y-95000000D03*
%TO.N,SERVO2*%
X78460000Y-95000000D03*
%TD*%
D12*
%TO.N,N/C*%
%TO.C,H1*%
X46600000Y-63000000D03*
X47302944Y-61302944D03*
X47302944Y-64697056D03*
X49000000Y-60600000D03*
D13*
X49000000Y-63000000D03*
D12*
X49000000Y-65400000D03*
X50697056Y-61302944D03*
X50697056Y-64697056D03*
X51400000Y-63000000D03*
%TD*%
D20*
%TO.N,tft_rst*%
%TO.C,J10*%
X58380000Y-86000000D03*
D21*
%TO.N,tft_cs*%
X60920000Y-86000000D03*
%TO.N,tft_dc*%
X63460000Y-86000000D03*
%TO.N,tft_scl*%
X66000000Y-86000000D03*
%TO.N,tft_sda*%
X68540000Y-86000000D03*
%TO.N,Net-(J1-Pin_1)*%
X71080000Y-86000000D03*
%TO.N,+3.3V*%
X73620000Y-86000000D03*
%TD*%
D14*
%TO.N,RX_lidar*%
%TO.C,J3*%
X80000000Y-117000000D03*
D15*
%TO.N,TX_lidar*%
X82500000Y-117000000D03*
%TO.N,+3.3V*%
X85000000Y-117000000D03*
%TO.N,GND*%
X87500000Y-117000000D03*
%TD*%
D24*
%TO.N,Net-(J4-Pin_1)*%
%TO.C,J6*%
X59944000Y-108458000D03*
D25*
%TO.N,Net-(J4-Pin_2)*%
X62444000Y-108458000D03*
%TD*%
D26*
%TO.N,GND*%
%TO.C,SW4*%
X42577318Y-43000000D03*
%TO.N,sw_tirette*%
X42577318Y-57503500D03*
%TD*%
D20*
%TO.N,GND*%
%TO.C,J5*%
X75692000Y-62611000D03*
D21*
%TO.N,EN*%
X73152000Y-62611000D03*
%TO.N,GPIO0*%
X70612000Y-62611000D03*
%TO.N,RX0*%
X68072000Y-62611000D03*
%TO.N,TX0*%
X65532000Y-62611000D03*
%TD*%
D20*
%TO.N,GND*%
%TO.C,J2*%
X48460000Y-95000000D03*
D21*
%TO.N,+5V*%
X51000000Y-95000000D03*
%TO.N,SERVO1*%
X53540000Y-95000000D03*
%TD*%
D27*
%TO.N,+BATT*%
%TO.C,C18*%
X72000000Y-113500000D03*
D28*
%TO.N,GND*%
X72000000Y-118500000D03*
%TD*%
D12*
%TO.N,N/C*%
%TO.C,H3*%
X42600000Y-103000000D03*
X43302944Y-101302944D03*
X43302944Y-104697056D03*
X45000000Y-100600000D03*
D13*
X45000000Y-103000000D03*
D12*
X45000000Y-105400000D03*
X46697056Y-101302944D03*
X46697056Y-104697056D03*
X47400000Y-103000000D03*
%TD*%
D18*
%TO.N,Net-(J11-Pin_1)*%
%TO.C,J11*%
X44000000Y-109000000D03*
D19*
%TO.N,GND*%
X46000000Y-109000000D03*
%TO.N,motor_enc_a+*%
X48000000Y-109000000D03*
%TO.N,motor_enc_a-*%
X50000000Y-109000000D03*
%TO.N,+3.3V*%
X52000000Y-109000000D03*
%TO.N,Net-(J11-Pin_6)*%
X54000000Y-109000000D03*
%TD*%
D29*
%TO.N,Net-(SW3-A)*%
%TO.C,SW3*%
X70231000Y-57785000D03*
D25*
%TO.N,Net-(J4-Pin_2)*%
X67731000Y-57785000D03*
%TD*%
D30*
%TO.N,GND*%
%TO.C,U1*%
X71859000Y-101741000D03*
X71059000Y-101741000D03*
X70259000Y-101741000D03*
X71859000Y-102541000D03*
X71059000Y-102541000D03*
X70259000Y-102541000D03*
X71859000Y-103341000D03*
X71059000Y-103341000D03*
X70259000Y-103341000D03*
%TD*%
D31*
%TO.N,sw_team*%
%TO.C,SW2*%
X72600000Y-45591000D03*
D32*
%TO.N,GND*%
X75100000Y-45591000D03*
%TO.N,N/C*%
X77600000Y-45591000D03*
X77600000Y-42291000D03*
X75100000Y-42291000D03*
X72600000Y-42291000D03*
%TD*%
D33*
%TO.N,Net-(J4-Pin_1)*%
X55851000Y-105000000D03*
%TO.N,GND*%
X89674042Y-119774000D03*
X89674042Y-118494000D03*
X89674042Y-117214000D03*
X89674042Y-115934000D03*
X89674042Y-114654000D03*
X89674042Y-113374000D03*
X89674042Y-112094000D03*
X89674042Y-110814000D03*
X89674042Y-109534000D03*
X89674042Y-108254000D03*
X89674042Y-106974000D03*
X89674042Y-99294000D03*
X89674042Y-54494000D03*
X89674042Y-45534000D03*
X89674042Y-44254000D03*
X88394042Y-119774000D03*
X88394042Y-114654000D03*
X88394042Y-113374000D03*
X88394042Y-112094000D03*
X88394042Y-110814000D03*
X88394042Y-54494000D03*
X87114042Y-119774000D03*
X87114042Y-114654000D03*
X87114042Y-113374000D03*
X87114042Y-54494000D03*
X87114042Y-42974000D03*
X85834042Y-119774000D03*
X85834042Y-45534000D03*
X85834042Y-44254000D03*
X85834042Y-42974000D03*
X84554042Y-119774000D03*
X84554042Y-78814000D03*
X84554042Y-77534000D03*
X84554042Y-76254000D03*
X84554042Y-74974000D03*
X84554042Y-73694000D03*
X84554042Y-72414000D03*
X84554042Y-71134000D03*
X84554042Y-58334000D03*
X84554042Y-54494000D03*
X84554042Y-44254000D03*
X84554042Y-42974000D03*
X83274042Y-119774000D03*
X83274042Y-113374000D03*
X83274042Y-112094000D03*
X83274042Y-110814000D03*
X83274042Y-96734000D03*
X83274042Y-92894000D03*
X83274042Y-91614000D03*
X83274042Y-77534000D03*
X83274042Y-76254000D03*
X83274042Y-74974000D03*
X83274042Y-73694000D03*
X83274042Y-72414000D03*
X83274042Y-71134000D03*
X83274042Y-58334000D03*
X83274042Y-54494000D03*
X83274042Y-48094000D03*
X83274042Y-42974000D03*
X81994042Y-119774000D03*
X81994042Y-112094000D03*
X81994042Y-110814000D03*
X81994042Y-92894000D03*
X81994042Y-91614000D03*
X81994042Y-72414000D03*
X81994042Y-58334000D03*
X81994042Y-54494000D03*
X80714042Y-119774000D03*
X80714042Y-110814000D03*
X80714042Y-58334000D03*
X80714042Y-57054000D03*
X80714042Y-45534000D03*
X80714042Y-44254000D03*
X79434042Y-119774000D03*
X79434042Y-106974000D03*
X79434042Y-96734000D03*
X79434042Y-46814000D03*
X79434042Y-45534000D03*
X79434042Y-44254000D03*
X79434042Y-42974000D03*
X78154042Y-119774000D03*
X78154042Y-118494000D03*
X78154042Y-117214000D03*
X78154042Y-113374000D03*
X78154042Y-96734000D03*
X76874042Y-119774000D03*
X76874042Y-118494000D03*
X76874042Y-117214000D03*
X76874042Y-113374000D03*
X76874042Y-112094000D03*
X75594042Y-119774000D03*
X75594042Y-118494000D03*
X75594042Y-117214000D03*
X75594042Y-113374000D03*
X75594042Y-112094000D03*
X75594042Y-110814000D03*
X75594042Y-55774000D03*
X75594042Y-54494000D03*
X75594042Y-53214000D03*
X74314042Y-119774000D03*
X74314042Y-118494000D03*
X74314042Y-117214000D03*
X74314042Y-113374000D03*
X74314042Y-112094000D03*
X74314042Y-50654000D03*
X73034042Y-64734000D03*
X70474042Y-119774000D03*
X70474042Y-89054000D03*
X70474042Y-87774000D03*
X69194042Y-119774000D03*
X69194042Y-113374000D03*
X69194042Y-90334000D03*
X69194042Y-89054000D03*
X69194042Y-87774000D03*
X69194042Y-53214000D03*
X67914042Y-114654000D03*
X67914042Y-113374000D03*
X67914042Y-112094000D03*
X67914042Y-91614000D03*
X67914042Y-90334000D03*
X67914042Y-89054000D03*
X67914042Y-87774000D03*
X66634042Y-115934000D03*
X66634042Y-114654000D03*
X66634042Y-113374000D03*
X66634042Y-112094000D03*
X66634042Y-110814000D03*
X66634042Y-92894000D03*
X66634042Y-91614000D03*
X66634042Y-90334000D03*
X66634042Y-89054000D03*
X66634042Y-87774000D03*
X65354042Y-94174000D03*
X65354042Y-92894000D03*
X65354042Y-91614000D03*
X65354042Y-90334000D03*
X65354042Y-89054000D03*
X65354042Y-87774000D03*
X65354042Y-68574000D03*
X65354042Y-58334000D03*
X64074042Y-95454000D03*
X64074042Y-94174000D03*
X64074042Y-92894000D03*
X64074042Y-91614000D03*
X64074042Y-90334000D03*
X64074042Y-89054000D03*
X64074042Y-87774000D03*
X64074042Y-68574000D03*
X62794042Y-99294000D03*
X62794042Y-98014000D03*
X62794042Y-95454000D03*
X62794042Y-94174000D03*
X62794042Y-92894000D03*
X62794042Y-91614000D03*
X62794042Y-90334000D03*
X62794042Y-89054000D03*
X62794042Y-87774000D03*
X61514042Y-117214000D03*
X61514042Y-115934000D03*
X61514042Y-114654000D03*
X61514042Y-113374000D03*
X61514042Y-112094000D03*
X61514042Y-99294000D03*
X61514042Y-98014000D03*
X61514042Y-95454000D03*
X61514042Y-94174000D03*
X61514042Y-92894000D03*
X61514042Y-91614000D03*
X61514042Y-90334000D03*
X61514042Y-89054000D03*
X61514042Y-87774000D03*
X60234042Y-94174000D03*
X60234042Y-90334000D03*
X60234042Y-89054000D03*
X60234042Y-87774000D03*
X60234042Y-76254000D03*
X60234042Y-74974000D03*
X60234042Y-73694000D03*
X60234042Y-72414000D03*
X58954042Y-90334000D03*
X58954042Y-89054000D03*
X58954042Y-87774000D03*
X58954042Y-71134000D03*
X58954042Y-42974000D03*
X57674042Y-90334000D03*
X57674042Y-89054000D03*
X57674042Y-87774000D03*
X56394042Y-57054000D03*
X55114042Y-119774000D03*
X53834042Y-119774000D03*
X53834042Y-118494000D03*
X53834042Y-117214000D03*
X53834042Y-115934000D03*
X53834042Y-76254000D03*
X53834042Y-74974000D03*
X53834042Y-71134000D03*
X53834042Y-69854000D03*
X52554042Y-119774000D03*
X51274042Y-119774000D03*
X49994042Y-119774000D03*
X49994042Y-96734000D03*
X49994042Y-42974000D03*
X48714042Y-119774000D03*
X48714042Y-110814000D03*
X48714042Y-42974000D03*
X47434042Y-119774000D03*
X47434042Y-112094000D03*
X47434042Y-110814000D03*
X47434042Y-42974000D03*
X46154042Y-119774000D03*
X46154042Y-112094000D03*
X46154042Y-110814000D03*
X46154042Y-42974000D03*
X44874042Y-119774000D03*
X44874042Y-112094000D03*
X44874042Y-110814000D03*
X44874042Y-66014000D03*
X44874042Y-64734000D03*
X44874042Y-42974000D03*
X43594042Y-119774000D03*
X43594042Y-113374000D03*
X43594042Y-112094000D03*
X43594042Y-110814000D03*
X43594042Y-106974000D03*
X43594042Y-98014000D03*
X43594042Y-48094000D03*
X43594042Y-46814000D03*
X43594042Y-45534000D03*
X42314042Y-119774000D03*
X42314042Y-118494000D03*
X42314042Y-117214000D03*
X42314042Y-115934000D03*
X42314042Y-114654000D03*
X42314042Y-113374000D03*
X42314042Y-112094000D03*
X42314042Y-110814000D03*
X42314042Y-109534000D03*
X42314042Y-108254000D03*
X42314042Y-106974000D03*
X42314042Y-99294000D03*
X42314042Y-98014000D03*
X42314042Y-96734000D03*
X42314042Y-95454000D03*
X42314042Y-94174000D03*
X42314042Y-59614000D03*
X42314042Y-54494000D03*
X42314042Y-53214000D03*
X42314042Y-51934000D03*
X42314042Y-50654000D03*
X42314042Y-49374000D03*
X42314042Y-48094000D03*
X42314042Y-46814000D03*
X42314042Y-45534000D03*
%TO.N,NEOPIXEL*%
X70866000Y-70866000D03*
%TO.N,I2C_scl*%
X54803000Y-90438000D03*
X61417264Y-80034264D03*
%TO.N,Net-(J1-Pin_1)*%
X64114293Y-79034293D03*
D34*
%TO.N,+3.3V*%
X79337461Y-50985221D03*
X53406000Y-85358000D03*
X79568000Y-90057000D03*
D33*
%TO.N,I2C_sda*%
X55880000Y-86755000D03*
X62550000Y-80151000D03*
%TO.N,GND*%
X70653862Y-106445668D03*
X79026318Y-76155682D03*
%TO.N,tft_scl*%
X76867318Y-71621685D03*
%TO.N,Net-(D8-DOUT)*%
X52070000Y-45593000D03*
%TO.N,Net-(D8-DIN)*%
X56642000Y-50635000D03*
X53015526Y-44760526D03*
%TO.N,tft_dc*%
X76867318Y-70821682D03*
%TO.N,tft_cs*%
X76450000Y-70059682D03*
%TO.N,NEOPIXEL*%
X68439682Y-64529318D03*
X55658318Y-52152682D03*
%TO.N,tft_rst*%
X75597318Y-70059682D03*
%TO.N,sw_team*%
X69501318Y-71837682D03*
%TO.N,sw_tirette*%
X70266000Y-69684682D03*
%TO.N,motor_enable*%
X68138000Y-101868000D03*
X72456000Y-88152000D03*
%TO.N,motor_a+*%
X74016521Y-81584521D03*
X65217000Y-97677000D03*
%TO.N,motor_a-*%
X65125000Y-98737000D03*
X73415479Y-80983479D03*
%TO.N,motor_b-*%
X77886411Y-101615800D03*
X83009839Y-79665161D03*
%TO.N,SERVO1*%
X73338000Y-88533000D03*
X57343000Y-97042000D03*
D34*
%TO.N,+5V*%
X60727500Y-52973000D03*
X49088000Y-92470000D03*
X54884000Y-63306000D03*
X61747596Y-57647278D03*
X74500000Y-104641000D03*
X64963000Y-103880000D03*
X53914000Y-79643000D03*
X49723000Y-68467000D03*
D33*
%TO.N,RX_lidar*%
X74200318Y-74123682D03*
%TO.N,TX_lidar*%
X74723318Y-73483510D03*
%TO.N,SERVO2*%
X78740000Y-87757000D03*
D34*
%TO.N,+BATT*%
X73660000Y-57785000D03*
X51628000Y-81802000D03*
X57089000Y-75452000D03*
X57343000Y-66308000D03*
D33*
%TO.N,Net-(SW3-A)*%
X57216000Y-92216000D03*
X63942000Y-56442000D03*
%TO.N,LEVEL_BATTERY*%
X76352318Y-60096318D03*
X76212083Y-75373447D03*
X76200000Y-50673000D03*
%TO.N,motor_b+*%
X77290938Y-101081556D03*
X82408797Y-80266203D03*
%TO.N,motor_a_sense*%
X69408000Y-96915000D03*
X78126793Y-86098207D03*
%TO.N,button_user*%
X86138318Y-51390682D03*
X69501318Y-70694682D03*
%TO.N,tft_sda*%
X73692318Y-74758682D03*
%TO.N,TX0*%
X79036986Y-67961750D03*
%TO.N,EN*%
X86561000Y-53000000D03*
X85122318Y-66884682D03*
X79026318Y-66249682D03*
X71120000Y-64770000D03*
%TO.N,RX0*%
X79026318Y-67049685D03*
%TO.N,GPIO0*%
X82489000Y-51517682D03*
X81185318Y-81743682D03*
%TO.N,motor_b_sense*%
X71984000Y-99269682D03*
X78139967Y-86995000D03*
%TO.N,motor_fault*%
X76774000Y-100471000D03*
X81820318Y-80854682D03*
%TO.N,usb_d-*%
X73992839Y-70648161D03*
X51206401Y-49399018D03*
%TO.N,usb_d+*%
X49828586Y-49130093D03*
X73391797Y-71249203D03*
%TO.N,Net-(D1-A)*%
X45693981Y-48874019D03*
X51374000Y-57037000D03*
%TO.N,Net-(J11-Pin_1)*%
X59535261Y-105136739D03*
X67249000Y-100217000D03*
%TO.N,Net-(J11-Pin_6)*%
X59883000Y-106059000D03*
X70069954Y-97730715D03*
%TO.N,motor_enc_a-*%
X56962000Y-103563000D03*
X78750000Y-85090000D03*
%TO.N,motor_enc_a+*%
X56962000Y-102713000D03*
X78750000Y-84215000D03*
%TO.N,motor_enc_b-*%
X83043521Y-101821479D03*
X77663000Y-92597000D03*
%TO.N,Net-(J12-Pin_6)*%
X73347614Y-97075511D03*
%TO.N,motor_enc_b+*%
X77061958Y-91995958D03*
X82442479Y-102422521D03*
%TO.N,Net-(J12-Pin_1)*%
X74838053Y-101558417D03*
%TD*%
D35*
%TO.N,Net-(J4-Pin_1)*%
X55851000Y-105000000D02*
X58867000Y-108016000D01*
X58867000Y-108016000D02*
X58867000Y-116600000D01*
D36*
%TO.N,sw_tirette*%
X51343702Y-57638000D02*
X42491500Y-57638000D01*
X67606031Y-65751395D02*
X67596318Y-65741682D01*
X67606031Y-65772329D02*
X67606031Y-65751395D01*
X70136318Y-68302616D02*
X67606031Y-65772329D01*
X42491500Y-57638000D02*
X42357000Y-57503500D01*
X67596318Y-65741682D02*
X59447384Y-65741682D01*
X70136318Y-69555000D02*
X70136318Y-68302616D01*
X59447384Y-65741682D02*
X51343702Y-57638000D01*
X70266000Y-69684682D02*
X70136318Y-69555000D01*
%TO.N,I2C_scl*%
X64709000Y-77023957D02*
X64709000Y-74021000D01*
X55311000Y-107583000D02*
X53279000Y-105551000D01*
X55184000Y-85866000D02*
X57978000Y-83072000D01*
X49402000Y-114000000D02*
X52339518Y-114000000D01*
X64709000Y-74021000D02*
X64730000Y-74000000D01*
X55184000Y-90184000D02*
X55184000Y-85866000D01*
X55184000Y-90184000D02*
X54930000Y-90438000D01*
X55819000Y-99201000D02*
X55819000Y-90819000D01*
X57978000Y-83072000D02*
X58660957Y-83072000D01*
X47000000Y-116402000D02*
X49402000Y-114000000D01*
X53279000Y-101741000D02*
X55819000Y-99201000D01*
X58660957Y-83072000D02*
X64709000Y-77023957D01*
X55311000Y-111028518D02*
X55311000Y-107583000D01*
X53279000Y-105551000D02*
X53279000Y-101741000D01*
X55819000Y-90819000D02*
X55184000Y-90184000D01*
X52339518Y-114000000D02*
X55311000Y-111028518D01*
X54930000Y-90438000D02*
X54803000Y-90438000D01*
X47000000Y-117000000D02*
X47000000Y-116402000D01*
%TO.N,I2C_sda*%
X65881000Y-76419057D02*
X65881000Y-73523240D01*
X56220000Y-99367100D02*
X56220000Y-90652900D01*
X53680000Y-101907100D02*
X56220000Y-99367100D01*
X58212000Y-83473000D02*
X58827057Y-83473000D01*
X65206760Y-72849000D02*
X63341000Y-72849000D01*
X65881000Y-73523240D02*
X65206760Y-72849000D01*
X49500000Y-117000000D02*
X49500000Y-114918000D01*
X61664793Y-80635264D02*
X61666207Y-80635264D01*
X53680000Y-105384900D02*
X53680000Y-101907100D01*
X52338618Y-114568000D02*
X55712000Y-111194618D01*
X62018264Y-80281793D02*
X65881000Y-76419057D01*
X49850000Y-114568000D02*
X52338618Y-114568000D01*
X55585000Y-86755000D02*
X55585000Y-86100000D01*
X55712000Y-107416900D02*
X53680000Y-105384900D01*
X55585000Y-86100000D02*
X58212000Y-83473000D01*
X58827057Y-83473000D02*
X61664793Y-80635264D01*
X55585000Y-86755000D02*
X55880000Y-86755000D01*
X61666207Y-80635264D02*
X62018264Y-80283207D01*
X56220000Y-90652900D02*
X55585000Y-90017900D01*
X62018264Y-80283207D02*
X62018264Y-80281793D01*
X55712000Y-111194618D02*
X55712000Y-107416900D01*
X49500000Y-114918000D02*
X49850000Y-114568000D01*
X63341000Y-72849000D02*
X62190000Y-74000000D01*
X55585000Y-90017900D02*
X55585000Y-86755000D01*
%TO.N,GND*%
X47408963Y-45759000D02*
X47858963Y-46209000D01*
X47078963Y-51159000D02*
X47528963Y-51609000D01*
X47078963Y-45759000D02*
X47408963Y-45759000D01*
X47528963Y-51609000D02*
X47858963Y-51609000D01*
%TO.N,tft_scl*%
X72233467Y-75446734D02*
X72233467Y-75124833D01*
X66000000Y-81680200D02*
X72233467Y-75446734D01*
X72233467Y-75124833D02*
X75736615Y-71621685D01*
X75736615Y-71621685D02*
X76867318Y-71621685D01*
X66000000Y-86000000D02*
X66000000Y-81680200D01*
%TO.N,Net-(D8-DIN)*%
X53015526Y-44760526D02*
X53015526Y-47008526D01*
X53015526Y-47008526D02*
X56642000Y-50635000D01*
%TO.N,tft_dc*%
X63460000Y-83653100D02*
X71832467Y-75280634D01*
X76279826Y-71061682D02*
X76519826Y-70821682D01*
X63460000Y-86000000D02*
X63460000Y-83653100D01*
X75729518Y-71061682D02*
X76279826Y-71061682D01*
X71832467Y-75280634D02*
X71832467Y-74958733D01*
X76519826Y-70821682D02*
X76867318Y-70821682D01*
X71832467Y-74958733D02*
X75729518Y-71061682D01*
%TO.N,tft_cs*%
X71431467Y-75114534D02*
X62897318Y-83648682D01*
X75563418Y-70660682D02*
X71431467Y-74792633D01*
X76450000Y-70059682D02*
X76450000Y-70324408D01*
X60920000Y-84864000D02*
X60920000Y-86000000D01*
X71431467Y-74792633D02*
X71431467Y-75114534D01*
X76113726Y-70660682D02*
X75563418Y-70660682D01*
X62135318Y-83648682D02*
X60920000Y-84864000D01*
X62897318Y-83648682D02*
X62135318Y-83648682D01*
X76450000Y-70324408D02*
X76113726Y-70660682D01*
%TO.N,NEOPIXEL*%
X59888298Y-64412000D02*
X54682318Y-59206020D01*
X68171636Y-64412000D02*
X59888298Y-64412000D01*
X54682318Y-53128682D02*
X55658318Y-52152682D01*
X68439682Y-64529318D02*
X68288954Y-64529318D01*
X54682318Y-59206020D02*
X54682318Y-53128682D01*
X68288954Y-64529318D02*
X68171636Y-64412000D01*
%TO.N,tft_rst*%
X62838219Y-83140682D02*
X71025318Y-74953583D01*
X71025318Y-74953583D02*
X71025318Y-74631682D01*
X61239318Y-83140682D02*
X62838219Y-83140682D01*
X58380000Y-86000000D02*
X61239318Y-83140682D01*
X71025318Y-74631682D02*
X75597318Y-70059682D01*
%TO.N,motor_a+*%
X65217000Y-97677000D02*
X65217000Y-97550000D01*
X75250000Y-82374198D02*
X74309282Y-81433480D01*
X65217000Y-97550000D02*
X75250000Y-87517000D01*
X75250000Y-87517000D02*
X75250000Y-82374198D01*
X74167562Y-81433480D02*
X74016521Y-81584521D01*
X74309282Y-81433480D02*
X74167562Y-81433480D01*
%TO.N,motor_a-*%
X75631000Y-82118802D02*
X74495677Y-80983479D01*
X75651000Y-87937101D02*
X75651000Y-82208098D01*
X65125000Y-98737000D02*
X65159000Y-98737000D01*
X66106000Y-97790000D02*
X66106000Y-97482101D01*
X65159000Y-98737000D02*
X66106000Y-97790000D01*
X74495677Y-80983479D02*
X73415479Y-80983479D01*
X66106000Y-97482101D02*
X75651000Y-87937101D01*
X75651000Y-82208098D02*
X75631000Y-82188098D01*
X75631000Y-82188098D02*
X75631000Y-82118802D01*
%TO.N,motor_b-*%
X79668267Y-99553000D02*
X77886411Y-101334856D01*
X83009839Y-79665161D02*
X83009839Y-79948004D01*
X83979198Y-99553000D02*
X79668267Y-99553000D01*
X83009839Y-79948004D02*
X86143000Y-83081165D01*
X86143000Y-97389198D02*
X83979198Y-99553000D01*
X86143000Y-83081165D02*
X86143000Y-97389198D01*
X77886411Y-101334856D02*
X77886411Y-101615800D01*
%TO.N,SERVO1*%
X65351000Y-96520000D02*
X57865000Y-96520000D01*
X73338000Y-88533000D02*
X65351000Y-96520000D01*
X57865000Y-96520000D02*
X57343000Y-97042000D01*
%TO.N,RX_lidar*%
X79407000Y-88034900D02*
X79407000Y-83902364D01*
X73672318Y-99308782D02*
X72245614Y-97882077D01*
X80000000Y-113383464D02*
X76593318Y-109976782D01*
X72245614Y-97882077D02*
X72245614Y-95196286D01*
X76593318Y-104964682D02*
X73672318Y-102043682D01*
X72245614Y-95196286D02*
X79407000Y-88034900D01*
X73672318Y-102043682D02*
X73672318Y-99308782D01*
X80000000Y-117000000D02*
X80000000Y-113383464D01*
X79407000Y-83902364D02*
X74293318Y-78788682D01*
X74293318Y-74216682D02*
X74200318Y-74123682D01*
X76593318Y-109976782D02*
X76593318Y-104964682D01*
X74293318Y-78788682D02*
X74293318Y-74216682D01*
%TO.N,TX_lidar*%
X82500000Y-115316364D02*
X76994318Y-109810682D01*
X72646614Y-97715977D02*
X72646614Y-95362386D01*
X74801318Y-73561510D02*
X74723318Y-73483510D01*
X82500000Y-117000000D02*
X82500000Y-115316364D01*
X72646614Y-95362386D02*
X79808000Y-88201000D01*
X74073318Y-101785046D02*
X74073318Y-99142682D01*
X79808000Y-88201000D02*
X79808000Y-83736264D01*
X74801318Y-78729582D02*
X74801318Y-73561510D01*
X76994318Y-109810682D02*
X76994318Y-104706046D01*
X74073318Y-99142682D02*
X72646614Y-97715977D01*
X79808000Y-83736264D02*
X74801318Y-78729582D01*
X76994318Y-104706046D02*
X74073318Y-101785046D01*
%TO.N,LEVEL_BATTERY*%
X76352318Y-60096318D02*
X78795056Y-62539056D01*
X78795056Y-65144421D02*
X80784318Y-67133683D01*
X80784318Y-67133683D02*
X80784318Y-70801212D01*
X80784318Y-70801212D02*
X76212083Y-75373447D01*
X78795056Y-62539056D02*
X78795056Y-65144421D01*
%TO.N,motor_b+*%
X79481869Y-99103000D02*
X83792802Y-99103000D01*
X85693000Y-97202802D02*
X85693000Y-83267563D01*
X83792802Y-99103000D02*
X85693000Y-97202802D01*
X77290938Y-101081556D02*
X77503313Y-101081556D01*
X82691640Y-80266203D02*
X82408797Y-80266203D01*
X85693000Y-83267563D02*
X82691640Y-80266203D01*
X77503313Y-101081556D02*
X79481869Y-99103000D01*
%TO.N,motor_a_sense*%
X69408000Y-96062443D02*
X69408000Y-96915000D01*
X78126793Y-86098207D02*
X78126793Y-86143207D01*
X77250543Y-88219900D02*
X69408000Y-96062443D01*
X78126793Y-86143207D02*
X77282000Y-86988000D01*
X77282000Y-88219900D02*
X77250543Y-88219900D01*
X77282000Y-86988000D02*
X77282000Y-88219900D01*
%TO.N,tft_sda*%
X68540000Y-79784000D02*
X73565318Y-74758682D01*
X73565318Y-74758682D02*
X73692318Y-74758682D01*
X68540000Y-86000000D02*
X68540000Y-79784000D01*
%TO.N,TX0*%
X72599682Y-67773682D02*
X68707000Y-63881000D01*
X79036986Y-67961750D02*
X78963997Y-67961750D01*
X78775929Y-67773682D02*
X72599682Y-67773682D01*
X68707000Y-63881000D02*
X66802000Y-63881000D01*
X78963997Y-67961750D02*
X78775929Y-67773682D01*
X66802000Y-63881000D02*
X65518000Y-62597000D01*
%TO.N,EN*%
X73152000Y-62611000D02*
X71120000Y-64643000D01*
X73152000Y-62611000D02*
X76790682Y-66249682D01*
X71120000Y-64643000D02*
X71120000Y-64770000D01*
X86198056Y-53362944D02*
X86561000Y-53000000D01*
X85122318Y-66884682D02*
X86198056Y-65808944D01*
X79026318Y-66249682D02*
X76790682Y-66249682D01*
X73392000Y-62851000D02*
X73138000Y-62851000D01*
X86198056Y-65808944D02*
X86198056Y-53362944D01*
%TO.N,RX0*%
X79026318Y-67049685D02*
X79023315Y-67049685D01*
X72783318Y-67372682D02*
X68058000Y-62647364D01*
X79023315Y-67049685D02*
X78700318Y-67372682D01*
X78700318Y-67372682D02*
X72783318Y-67372682D01*
%TO.N,GPIO0*%
X74522576Y-59010682D02*
X70922258Y-62611000D01*
X70922258Y-62611000D02*
X70612000Y-62611000D01*
X79196056Y-53381387D02*
X79196056Y-59010682D01*
X81059761Y-51517682D02*
X79196056Y-53381387D01*
X82489000Y-51517682D02*
X81059761Y-51517682D01*
X81185318Y-66967583D02*
X81185318Y-70967312D01*
X79196056Y-59010682D02*
X79196056Y-64978321D01*
X79196056Y-64978321D02*
X81185318Y-66967583D01*
X81185318Y-70967312D02*
X79915318Y-72237312D01*
X79915318Y-72237312D02*
X79915318Y-80473682D01*
X79196056Y-59010682D02*
X74522576Y-59010682D01*
X79915318Y-80473682D02*
X81185318Y-81743682D01*
%TO.N,motor_b_sense*%
X78139967Y-86999563D02*
X77683000Y-87456530D01*
X78139967Y-86995000D02*
X78139967Y-86999563D01*
X77683000Y-87456530D02*
X77683000Y-88386000D01*
X71533318Y-94535682D02*
X71533318Y-98369882D01*
X71533318Y-98369882D02*
X71984000Y-98820564D01*
X77683000Y-88386000D02*
X71533318Y-94535682D01*
X71984000Y-98820564D02*
X71984000Y-99269682D01*
%TO.N,motor_fault*%
X79441000Y-98566000D02*
X77536000Y-100471000D01*
X81820318Y-80854682D02*
X81864636Y-80899000D01*
X81864636Y-80899000D02*
X82677000Y-80899000D01*
X85292000Y-83514000D02*
X85292000Y-96906000D01*
X83632000Y-98566000D02*
X79441000Y-98566000D01*
X85292000Y-96906000D02*
X83632000Y-98566000D01*
X82677000Y-80899000D02*
X85292000Y-83514000D01*
X77536000Y-100471000D02*
X76774000Y-100471000D01*
%TO.N,usb_d-*%
X73992839Y-70648161D02*
X73709996Y-70648161D01*
X73709996Y-70648161D02*
X67874834Y-64813000D01*
X45663963Y-45008000D02*
X49210037Y-45008000D01*
X49210037Y-45008000D02*
X49649963Y-45447926D01*
X45287963Y-47070074D02*
X45287963Y-45384000D01*
X45287963Y-45384000D02*
X45663963Y-45008000D01*
X54281318Y-59372120D02*
X54281318Y-50970582D01*
X54261318Y-50755682D02*
X52697636Y-49192000D01*
X54281318Y-50970582D02*
X54261318Y-50950582D01*
X52697636Y-49192000D02*
X51413419Y-49192000D01*
X45776889Y-47559000D02*
X45287963Y-47070074D01*
X59722198Y-64813000D02*
X54281318Y-59372120D01*
X49649963Y-48018000D02*
X47858963Y-49809000D01*
X67874834Y-64813000D02*
X59722198Y-64813000D01*
X49649963Y-45447926D02*
X49649963Y-48018000D01*
X51413419Y-49192000D02*
X51206401Y-49399018D01*
X54261318Y-50950582D02*
X54261318Y-50755682D01*
X47078963Y-47559000D02*
X45776889Y-47559000D01*
%TO.N,usb_d+*%
X59535802Y-65263000D02*
X67688438Y-65263000D01*
X51784181Y-49671181D02*
X52414817Y-49671181D01*
X52414817Y-49671181D02*
X53880318Y-51136682D01*
X73391797Y-70966360D02*
X73391797Y-71249203D01*
X67688438Y-65263000D02*
X73391797Y-70966360D01*
X53880318Y-59607516D02*
X59535802Y-65263000D01*
X53600318Y-52712564D02*
X53640318Y-52712564D01*
X53600318Y-53912564D02*
X53640318Y-53912564D01*
X53640318Y-53312564D02*
X53600318Y-53312564D01*
X53880318Y-52952564D02*
X53880318Y-53072564D01*
X50739000Y-50052000D02*
X51403362Y-50052000D01*
X49828586Y-49141586D02*
X50739000Y-50052000D01*
X53880318Y-54839980D02*
X53880318Y-59607516D01*
X53640318Y-52112564D02*
X53600318Y-52112564D01*
X53880318Y-54152564D02*
X53880318Y-54272564D01*
X49828586Y-49130093D02*
X49828586Y-49141586D01*
X47078963Y-48459000D02*
X47408963Y-48459000D01*
X53360318Y-53552564D02*
X53360318Y-53672564D01*
X53880318Y-54272564D02*
X53880318Y-54839980D01*
X53360318Y-52352564D02*
X53360318Y-52472564D01*
X51403362Y-50052000D02*
X51784181Y-49671181D01*
X53880318Y-51136682D02*
X53880318Y-51872564D01*
X47408963Y-48459000D02*
X47858963Y-48909000D01*
X53600318Y-53312564D02*
G75*
G03*
X53360264Y-53552564I-18J-240036D01*
G01*
X53640318Y-52712564D02*
G75*
G02*
X53880336Y-52952564I-18J-240036D01*
G01*
X53880318Y-51872564D02*
G75*
G02*
X53640318Y-52112618I-240018J-36D01*
G01*
X53360318Y-53672564D02*
G75*
G03*
X53600318Y-53912582I239982J-36D01*
G01*
X53640318Y-53912564D02*
G75*
G02*
X53880336Y-54152564I-18J-240036D01*
G01*
X53600318Y-52112564D02*
G75*
G03*
X53360264Y-52352564I-18J-240036D01*
G01*
X53360318Y-52472564D02*
G75*
G03*
X53600318Y-52712582I239982J-36D01*
G01*
X53880318Y-53072564D02*
G75*
G02*
X53640318Y-53312618I-240018J-36D01*
G01*
%TO.N,Net-(D1-A)*%
X47408963Y-50259000D02*
X47858963Y-50709000D01*
X47408963Y-46659000D02*
X47858963Y-47109000D01*
X47078963Y-46659000D02*
X47408963Y-46659000D01*
X47078963Y-50259000D02*
X47408963Y-50259000D01*
D37*
%TO.N,Net-(J11-Pin_1)*%
X63058000Y-101614000D02*
X65852000Y-101614000D01*
X59535261Y-105136739D02*
X63058000Y-101614000D01*
X65852000Y-101614000D02*
X67249000Y-100217000D01*
%TO.N,Net-(J11-Pin_6)*%
X68231318Y-99396682D02*
X68231318Y-100631682D01*
X69897285Y-97730715D02*
X68231318Y-99396682D01*
X70069954Y-97730715D02*
X69897285Y-97730715D01*
X68231318Y-100631682D02*
X66233000Y-102630000D01*
X66233000Y-102630000D02*
X63312000Y-102630000D01*
X63312000Y-102630000D02*
X59883000Y-106059000D01*
D36*
%TO.N,motor_enc_a-*%
X77692697Y-84884501D02*
X76520000Y-86057198D01*
X76453000Y-88450343D02*
X68070980Y-96832363D01*
X78586501Y-84884501D02*
X77692697Y-84884501D01*
X68070980Y-96832363D02*
X68070980Y-97342120D01*
X78750000Y-85048000D02*
X78586501Y-84884501D01*
X64400100Y-101013000D02*
X62809058Y-101013000D01*
X60459057Y-103363001D02*
X57161999Y-103363001D01*
X76453000Y-88346000D02*
X76453000Y-88450343D01*
X76520000Y-88279000D02*
X76453000Y-88346000D01*
X78750000Y-85090000D02*
X78750000Y-85048000D01*
X57161999Y-103363001D02*
X56962000Y-103563000D01*
X68070980Y-97342120D02*
X64400100Y-101013000D01*
X76520000Y-86057198D02*
X76520000Y-88279000D01*
X62809058Y-101013000D02*
X60459057Y-103363001D01*
%TO.N,motor_enc_a+*%
X67669980Y-97176020D02*
X64282980Y-100563020D01*
X78750000Y-84215000D02*
X78750000Y-84271000D01*
X57161999Y-102912999D02*
X56962000Y-102713000D01*
X78586501Y-84434499D02*
X77506303Y-84434499D01*
X76052000Y-85888802D02*
X76052000Y-88284243D01*
X77506303Y-84434499D02*
X76052000Y-85888802D01*
X60272691Y-102912999D02*
X57161999Y-102912999D01*
X62622670Y-100563020D02*
X60272691Y-102912999D01*
X64282980Y-100563020D02*
X62622670Y-100563020D01*
X67669980Y-96666263D02*
X67669980Y-97176020D01*
X78750000Y-84271000D02*
X78586501Y-84434499D01*
X76052000Y-88284243D02*
X67669980Y-96666263D01*
D38*
%TO.N,Net-(J12-Pin_6)*%
X86426000Y-106948000D02*
X88000000Y-108522000D01*
X75724318Y-100793682D02*
X81878636Y-106948000D01*
X81878636Y-106948000D02*
X86426000Y-106948000D01*
X73347614Y-97075511D02*
X73375943Y-97047182D01*
X75724318Y-98126682D02*
X75724318Y-100793682D01*
X88000000Y-108522000D02*
X88000000Y-109000000D01*
X74644818Y-97047182D02*
X75724318Y-98126682D01*
X73375943Y-97047182D02*
X74644818Y-97047182D01*
%TO.N,Net-(J12-Pin_1)*%
X78000000Y-104720364D02*
X78000000Y-109000000D01*
X74838053Y-101558417D02*
X78000000Y-104720364D01*
%TD*%
M02*
