M48
; DRILL file {KiCad 9.0.4} date 2025-10-03T16:52:32+0200
; FORMAT={-:-/ absolute / metric / decimal}
; #@! TF.CreationDate,2025-10-03T16:52:32+02:00
; #@! TF.GenerationSoftware,Kicad,Pcbnew,9.0.4
; #@! TF.FileFunction,Plated,1,4,PTH
FMAT,2
METRIC
; #@! TA.AperFunction,Plated,PTH,ViaDrill
T1C0.300
; #@! TA.AperFunction,Plated,PTH,ComponentDrill
T2C0.300
; #@! TA.AperFunction,Plated,PTH,ComponentDrill
T3C0.400
; #@! TA.AperFunction,Plated,PTH,ComponentDrill
T4C0.500
; #@! TA.AperFunction,Plated,PTH,ComponentDrill
T5C0.600
; #@! TA.AperFunction,Plated,PTH,ComponentDrill
T6C0.750
; #@! TA.AperFunction,Plated,PTH,ComponentDrill
T7C0.800
; #@! TA.AperFunction,Plated,PTH,ComponentDrill
T8C0.900
; #@! TA.AperFunction,Plated,PTH,ComponentDrill
T9C0.950
; #@! TA.AperFunction,Plated,PTH,ComponentDrill
T10C1.000
; #@! TA.AperFunction,Plated,PTH,ComponentDrill
T11C1.520
; #@! TA.AperFunction,Plated,PTH,ComponentDrill
T12C3.200
%
G90
G05
T1
X42.314Y-45.534
X42.314Y-46.814
X42.314Y-48.094
X42.314Y-49.374
X42.314Y-50.654
X42.314Y-51.934
X42.314Y-53.214
X42.314Y-54.494
X42.314Y-59.614
X42.314Y-94.174
X42.314Y-95.454
X42.314Y-96.734
X42.314Y-98.014
X42.314Y-99.294
X42.314Y-106.974
X42.314Y-108.254
X42.314Y-109.534
X42.314Y-110.814
X42.314Y-112.094
X42.314Y-113.374
X42.314Y-114.654
X42.314Y-115.934
X42.314Y-117.214
X42.314Y-118.494
X42.314Y-119.774
X43.594Y-45.534
X43.594Y-46.814
X43.594Y-48.094
X43.594Y-98.014
X43.594Y-106.974
X43.594Y-110.814
X43.594Y-112.094
X43.594Y-113.374
X43.594Y-119.774
X44.874Y-42.974
X44.874Y-64.734
X44.874Y-66.014
X44.874Y-110.814
X44.874Y-112.094
X44.874Y-119.774
X45.694Y-48.874
X46.154Y-42.974
X46.154Y-110.814
X46.154Y-112.094
X46.154Y-119.774
X47.434Y-42.974
X47.434Y-110.814
X47.434Y-112.094
X47.434Y-119.774
X48.714Y-42.974
X48.714Y-110.814
X48.714Y-119.774
X49.088Y-92.47
X49.723Y-68.467
X49.829Y-49.13
X49.994Y-42.974
X49.994Y-96.734
X49.994Y-119.774
X51.206Y-49.399
X51.274Y-119.774
X51.374Y-57.037
X51.628Y-81.802
X52.07Y-45.593
X52.554Y-119.774
X53.016Y-44.761
X53.406Y-85.358
X53.834Y-69.854
X53.834Y-71.134
X53.834Y-74.974
X53.834Y-76.254
X53.834Y-115.934
X53.834Y-117.214
X53.834Y-118.494
X53.834Y-119.774
X53.914Y-79.643
X54.803Y-90.438
X54.884Y-63.306
X55.114Y-119.774
X55.658Y-52.153
X55.851Y-105.0
X55.88Y-86.755
X56.394Y-57.054
X56.642Y-50.635
X56.962Y-102.713
X56.962Y-103.563
X57.089Y-75.452
X57.216Y-92.216
X57.343Y-66.308
X57.343Y-97.042
X57.674Y-87.774
X57.674Y-89.054
X57.674Y-90.334
X58.954Y-42.974
X58.954Y-71.134
X58.954Y-87.774
X58.954Y-89.054
X58.954Y-90.334
X59.535Y-105.137
X59.883Y-106.059
X60.234Y-72.414
X60.234Y-73.694
X60.234Y-74.974
X60.234Y-76.254
X60.234Y-87.774
X60.234Y-89.054
X60.234Y-90.334
X60.234Y-94.174
X60.727Y-52.973
X61.417Y-80.034
X61.514Y-87.774
X61.514Y-89.054
X61.514Y-90.334
X61.514Y-91.614
X61.514Y-92.894
X61.514Y-94.174
X61.514Y-95.454
X61.514Y-98.014
X61.514Y-99.294
X61.514Y-112.094
X61.514Y-113.374
X61.514Y-114.654
X61.514Y-115.934
X61.514Y-117.214
X61.748Y-57.647
X62.55Y-80.151
X62.794Y-87.774
X62.794Y-89.054
X62.794Y-90.334
X62.794Y-91.614
X62.794Y-92.894
X62.794Y-94.174
X62.794Y-95.454
X62.794Y-98.014
X62.794Y-99.294
X63.942Y-56.442
X64.074Y-68.574
X64.074Y-87.774
X64.074Y-89.054
X64.074Y-90.334
X64.074Y-91.614
X64.074Y-92.894
X64.074Y-94.174
X64.074Y-95.454
X64.114Y-79.034
X64.963Y-103.88
X65.125Y-98.737
X65.217Y-97.677
X65.354Y-58.334
X65.354Y-68.574
X65.354Y-87.774
X65.354Y-89.054
X65.354Y-90.334
X65.354Y-91.614
X65.354Y-92.894
X65.354Y-94.174
X66.634Y-87.774
X66.634Y-89.054
X66.634Y-90.334
X66.634Y-91.614
X66.634Y-92.894
X66.634Y-110.814
X66.634Y-112.094
X66.634Y-113.374
X66.634Y-114.654
X66.634Y-115.934
X67.249Y-100.217
X67.914Y-87.774
X67.914Y-89.054
X67.914Y-90.334
X67.914Y-91.614
X67.914Y-112.094
X67.914Y-113.374
X67.914Y-114.654
X68.138Y-101.868
X68.44Y-64.529
X69.194Y-53.214
X69.194Y-87.774
X69.194Y-89.054
X69.194Y-90.334
X69.194Y-113.374
X69.194Y-119.774
X69.408Y-96.915
X69.501Y-70.695
X69.501Y-71.838
X70.07Y-97.731
X70.266Y-69.685
X70.474Y-87.774
X70.474Y-89.054
X70.474Y-119.774
X70.654Y-106.446
X70.866Y-70.866
X71.12Y-64.77
X71.984Y-99.27
X72.456Y-88.152
X73.034Y-64.734
X73.338Y-88.533
X73.348Y-97.076
X73.392Y-71.249
X73.415Y-80.983
X73.66Y-57.785
X73.692Y-74.759
X73.993Y-70.648
X74.017Y-81.585
X74.2Y-74.124
X74.314Y-50.654
X74.314Y-112.094
X74.314Y-113.374
X74.314Y-117.214
X74.314Y-118.494
X74.314Y-119.774
X74.5Y-104.641
X74.723Y-73.484
X74.838Y-101.558
X75.594Y-53.214
X75.594Y-54.494
X75.594Y-55.774
X75.594Y-110.814
X75.594Y-112.094
X75.594Y-113.374
X75.594Y-117.214
X75.594Y-118.494
X75.594Y-119.774
X75.597Y-70.06
X76.2Y-50.673
X76.212Y-75.373
X76.352Y-60.096
X76.45Y-70.06
X76.774Y-100.471
X76.867Y-70.822
X76.867Y-71.622
X76.874Y-112.094
X76.874Y-113.374
X76.874Y-117.214
X76.874Y-118.494
X76.874Y-119.774
X77.062Y-91.996
X77.291Y-101.082
X77.663Y-92.597
X77.886Y-101.616
X78.127Y-86.098
X78.14Y-86.995
X78.154Y-96.734
X78.154Y-113.374
X78.154Y-117.214
X78.154Y-118.494
X78.154Y-119.774
X78.74Y-87.757
X78.75Y-84.215
X78.75Y-85.09
X79.026Y-66.25
X79.026Y-67.05
X79.026Y-76.156
X79.037Y-67.962
X79.337Y-50.985
X79.434Y-42.974
X79.434Y-44.254
X79.434Y-45.534
X79.434Y-46.814
X79.434Y-96.734
X79.434Y-106.974
X79.434Y-119.774
X79.568Y-90.057
X80.714Y-44.254
X80.714Y-45.534
X80.714Y-57.054
X80.714Y-58.334
X80.714Y-110.814
X80.714Y-119.774
X81.185Y-81.744
X81.82Y-80.855
X81.994Y-54.494
X81.994Y-58.334
X81.994Y-72.414
X81.994Y-91.614
X81.994Y-92.894
X81.994Y-110.814
X81.994Y-112.094
X81.994Y-119.774
X82.409Y-80.266
X82.442Y-102.423
X82.489Y-51.518
X83.01Y-79.665
X83.044Y-101.821
X83.274Y-42.974
X83.274Y-48.094
X83.274Y-54.494
X83.274Y-58.334
X83.274Y-71.134
X83.274Y-72.414
X83.274Y-73.694
X83.274Y-74.974
X83.274Y-76.254
X83.274Y-77.534
X83.274Y-91.614
X83.274Y-92.894
X83.274Y-96.734
X83.274Y-110.814
X83.274Y-112.094
X83.274Y-113.374
X83.274Y-119.774
X84.554Y-42.974
X84.554Y-44.254
X84.554Y-54.494
X84.554Y-58.334
X84.554Y-71.134
X84.554Y-72.414
X84.554Y-73.694
X84.554Y-74.974
X84.554Y-76.254
X84.554Y-77.534
X84.554Y-78.814
X84.554Y-119.774
X85.122Y-66.885
X85.834Y-42.974
X85.834Y-44.254
X85.834Y-45.534
X85.834Y-119.774
X86.138Y-51.391
X86.561Y-53.0
X87.114Y-42.974
X87.114Y-54.494
X87.114Y-113.374
X87.114Y-114.654
X87.114Y-119.774
X88.394Y-54.494
X88.394Y-110.814
X88.394Y-112.094
X88.394Y-113.374
X88.394Y-114.654
X88.394Y-119.774
X89.674Y-44.254
X89.674Y-45.534
X89.674Y-54.494
X89.674Y-99.294
X89.674Y-106.974
X89.674Y-108.254
X89.674Y-109.534
X89.674Y-110.814
X89.674Y-112.094
X89.674Y-113.374
X89.674Y-114.654
X89.674Y-115.934
X89.674Y-117.214
X89.674Y-118.494
X89.674Y-119.774
T2
X70.259Y-101.741
X70.259Y-102.541
X70.259Y-103.341
X71.059Y-101.741
X71.059Y-102.541
X71.059Y-103.341
X71.859Y-101.741
X71.859Y-102.541
X71.859Y-103.341
T3
X42.577Y-43.0
X42.577Y-57.503
X47.079Y-45.759
X47.079Y-46.659
X47.079Y-47.559
X47.079Y-48.459
X47.079Y-49.359
X47.079Y-50.259
X47.079Y-51.159
X47.859Y-46.209
X47.859Y-47.109
X47.859Y-48.009
X47.859Y-48.909
X47.859Y-49.809
X47.859Y-50.709
X47.859Y-51.609
T4
X42.6Y-103.0
X43.303Y-101.303
X43.303Y-104.697
X45.0Y-100.6
X45.0Y-105.4
X46.6Y-63.0
X46.697Y-101.303
X46.697Y-104.697
X47.303Y-61.303
X47.303Y-64.697
X47.4Y-103.0
X49.0Y-60.6
X49.0Y-65.4
X50.697Y-61.303
X50.697Y-64.697
X51.4Y-63.0
X80.297Y-63.0
X81.0Y-61.303
X81.0Y-64.697
X82.697Y-60.6
X82.697Y-65.4
X84.394Y-61.303
X84.394Y-64.697
X84.6Y-103.0
X85.097Y-63.0
X85.303Y-101.303
X85.303Y-104.697
X87.0Y-100.6
X87.0Y-105.4
X88.697Y-101.303
X88.697Y-104.697
X89.4Y-103.0
T6
X44.0Y-109.0
X46.0Y-109.0
X48.0Y-109.0
X50.0Y-109.0
X52.0Y-109.0
X54.0Y-109.0
X56.039Y-43.549
X56.039Y-45.549
X56.039Y-47.549
X78.0Y-109.0
X80.0Y-109.0
X82.0Y-109.0
X84.0Y-109.0
X86.0Y-109.0
X88.0Y-109.0
T7
X72.0Y-113.5
X72.0Y-118.5
T8
X72.6Y-42.291
X72.6Y-45.591
X75.1Y-42.291
X75.1Y-45.591
X77.6Y-42.291
X77.6Y-45.591
T9
X44.5Y-117.0
X47.0Y-117.0
X49.5Y-117.0
X52.0Y-117.0
X80.0Y-117.0
X82.5Y-117.0
X85.0Y-117.0
X87.5Y-117.0
T10
X48.46Y-95.0
X51.0Y-95.0
X53.54Y-95.0
X58.38Y-86.0
X59.944Y-108.458
X60.92Y-86.0
X62.19Y-74.0
X62.444Y-108.458
X63.46Y-86.0
X64.73Y-74.0
X65.532Y-62.611
X66.0Y-86.0
X67.27Y-74.0
X67.731Y-57.785
X68.072Y-62.611
X68.54Y-86.0
X69.81Y-74.0
X70.231Y-57.785
X70.612Y-62.611
X71.08Y-86.0
X73.152Y-62.611
X73.62Y-86.0
X75.692Y-62.611
X78.46Y-95.0
X81.0Y-95.0
X83.54Y-95.0
T11
X58.928Y-116.6
X64.008Y-116.6
T12
X45.0Y-103.0
X49.0Y-63.0
X82.697Y-63.0
X87.0Y-103.0
T5
G00X46.039Y-46.759
M15
G01X46.039Y-45.759
M16
G05
G00X46.039Y-51.559
M15
G01X46.039Y-50.559
M16
G05
G00X48.899Y-46.759
M15
G01X48.899Y-45.759
M16
G05
G00X48.899Y-51.559
M15
G01X48.899Y-50.559
M16
G05
M30
