%TF.GenerationSoftware,KiCad,Pcbnew,9.0.4*%
%TF.CreationDate,2025-08-24T10:42:23+02:00*%
%TF.ProjectId,pami_2026,70616d69-5f32-4303-9236-2e6b69636164,rev?*%
%TF.SameCoordinates,Original*%
%TF.FileFunction,Copper,L3,Inr*%
%TF.FilePolarity,Positive*%
%FSLAX46Y46*%
G04 Gerber Fmt 4.6, Leading zero omitted, Abs format (unit mm)*
G04 Created by KiCad (PCBNEW 9.0.4) date 2025-08-24 10:42:23*
%MOMM*%
%LPD*%
G01*
G04 APERTURE LIST*
G04 Aperture macros list*
%AMRoundRect*
0 Rectangle with rounded corners*
0 $1 Rounding radius*
0 $2 $3 $4 $5 $6 $7 $8 $9 X,Y pos of 4 corners*
0 Add a 4 corners polygon primitive as box body*
4,1,4,$2,$3,$4,$5,$6,$7,$8,$9,$2,$3,0*
0 Add four circle primitives for the rounded corners*
1,1,$1+$1,$2,$3*
1,1,$1+$1,$4,$5*
1,1,$1+$1,$6,$7*
1,1,$1+$1,$8,$9*
0 Add four rect primitives between the rounded corners*
20,1,$1+$1,$2,$3,$4,$5,0*
20,1,$1+$1,$4,$5,$6,$7,0*
20,1,$1+$1,$6,$7,$8,$9,0*
20,1,$1+$1,$8,$9,$2,$3,0*%
G04 Aperture macros list end*
%TA.AperFunction,ComponentPad*%
%ADD10O,1.200000X1.750000*%
%TD*%
%TA.AperFunction,ComponentPad*%
%ADD11RoundRect,0.250000X-0.350000X-0.625000X0.350000X-0.625000X0.350000X0.625000X-0.350000X0.625000X0*%
%TD*%
%TA.AperFunction,HeatsinkPad*%
%ADD12O,1.000000X2.100000*%
%TD*%
%TA.AperFunction,HeatsinkPad*%
%ADD13O,1.000000X1.800000*%
%TD*%
%TA.AperFunction,ComponentPad*%
%ADD14C,0.800000*%
%TD*%
%TA.AperFunction,ComponentPad*%
%ADD15C,6.400000*%
%TD*%
%TA.AperFunction,ComponentPad*%
%ADD16RoundRect,0.250000X-0.600000X-0.725000X0.600000X-0.725000X0.600000X0.725000X-0.600000X0.725000X0*%
%TD*%
%TA.AperFunction,ComponentPad*%
%ADD17O,1.700000X1.950000*%
%TD*%
%TA.AperFunction,ComponentPad*%
%ADD18RoundRect,0.250000X0.350000X0.625000X-0.350000X0.625000X-0.350000X-0.625000X0.350000X-0.625000X0*%
%TD*%
%TA.AperFunction,ComponentPad*%
%ADD19R,3.000000X3.000000*%
%TD*%
%TA.AperFunction,ComponentPad*%
%ADD20C,3.000000*%
%TD*%
%TA.AperFunction,ComponentPad*%
%ADD21RoundRect,0.250000X-0.600000X-0.750000X0.600000X-0.750000X0.600000X0.750000X-0.600000X0.750000X0*%
%TD*%
%TA.AperFunction,ComponentPad*%
%ADD22O,1.700000X2.000000*%
%TD*%
%TA.AperFunction,ComponentPad*%
%ADD23C,2.100000*%
%TD*%
%TA.AperFunction,ComponentPad*%
%ADD24C,1.750000*%
%TD*%
%TA.AperFunction,ComponentPad*%
%ADD25R,1.700000X1.700000*%
%TD*%
%TA.AperFunction,ComponentPad*%
%ADD26C,1.700000*%
%TD*%
%TA.AperFunction,ComponentPad*%
%ADD27R,2.000000X2.591000*%
%TD*%
%TA.AperFunction,HeatsinkPad*%
%ADD28C,0.500000*%
%TD*%
%TA.AperFunction,ComponentPad*%
%ADD29RoundRect,0.250000X-0.550000X0.550000X-0.550000X-0.550000X0.550000X-0.550000X0.550000X0.550000X0*%
%TD*%
%TA.AperFunction,ComponentPad*%
%ADD30C,1.600000*%
%TD*%
%TA.AperFunction,ViaPad*%
%ADD31C,0.600000*%
%TD*%
%TA.AperFunction,ViaPad*%
%ADD32C,1.200000*%
%TD*%
%TA.AperFunction,Conductor*%
%ADD33C,0.200000*%
%TD*%
%TA.AperFunction,Conductor*%
%ADD34C,1.000000*%
%TD*%
G04 APERTURE END LIST*
D10*
%TO.N,Net-(J11-Pin_6)*%
%TO.C,J11*%
X201000000Y-94000000D03*
%TO.N,+3.3V*%
X199000000Y-94000000D03*
%TO.N,motor_enc_a-*%
X197000000Y-94000000D03*
%TO.N,motor_enc_a+*%
X195000000Y-94000000D03*
%TO.N,GND*%
X193000000Y-94000000D03*
D11*
%TO.N,Net-(J11-Pin_1)*%
X191000000Y-94000000D03*
%TD*%
D12*
%TO.N,GND*%
%TO.C,J8*%
X206140000Y-32905000D03*
D13*
X206140000Y-28725000D03*
D12*
X197500000Y-32905000D03*
D13*
X197500000Y-28725000D03*
%TD*%
D10*
%TO.N,Net-(J12-Pin_6)*%
%TO.C,J12*%
X235000000Y-94000000D03*
%TO.N,+3.3V*%
X233000000Y-94000000D03*
%TO.N,motor_enc_b-*%
X231000000Y-94000000D03*
%TO.N,motor_enc_b+*%
X229000000Y-94000000D03*
%TO.N,GND*%
X227000000Y-94000000D03*
D11*
%TO.N,Net-(J12-Pin_1)*%
X225000000Y-94000000D03*
%TD*%
D14*
%TO.N,N/C*%
%TO.C,H2*%
X227297056Y-48000000D03*
X228000000Y-46302944D03*
X228000000Y-49697056D03*
X229697056Y-45600000D03*
D15*
X229697056Y-48000000D03*
D14*
X229697056Y-50400000D03*
X231394112Y-46302944D03*
X231394112Y-49697056D03*
X232097056Y-48000000D03*
%TD*%
D16*
%TO.N,+3.3V*%
%TO.C,J9*%
X191500000Y-102000000D03*
D17*
%TO.N,I2C_scl*%
X194000000Y-102000000D03*
%TO.N,I2C_sda*%
X196500000Y-102000000D03*
%TO.N,GND*%
X199000000Y-102000000D03*
%TD*%
D18*
%TO.N,+5V*%
%TO.C,J7*%
X197834000Y-41444000D03*
D10*
%TO.N,Net-(D8-DOUT)*%
X195834000Y-41444000D03*
%TO.N,GND*%
X193834000Y-41444000D03*
%TD*%
D19*
%TO.N,Net-(J4-Pin_1)*%
%TO.C,J4*%
X210947000Y-101600000D03*
D20*
%TO.N,Net-(J4-Pin_2)*%
X205867000Y-101600000D03*
%TD*%
D14*
%TO.N,N/C*%
%TO.C,H4*%
X231600000Y-88000000D03*
X232302944Y-86302944D03*
X232302944Y-89697056D03*
X234000000Y-85600000D03*
D15*
X234000000Y-88000000D03*
D14*
X234000000Y-90400000D03*
X235697056Y-86302944D03*
X235697056Y-89697056D03*
X236400000Y-88000000D03*
%TD*%
D21*
%TO.N,sw_team*%
%TO.C,SW2*%
X221000000Y-27712500D03*
D22*
%TO.N,GND*%
X223500000Y-27712500D03*
%TD*%
D23*
%TO.N,*%
%TO.C,SW1*%
X228475000Y-30202500D03*
X235485000Y-30202500D03*
D24*
%TO.N,GND*%
X229725000Y-27712500D03*
%TO.N,Net-(U2-EN)*%
X234225000Y-27712500D03*
%TD*%
D25*
%TO.N,Net-(J1-Pin_1)*%
%TO.C,J1*%
X216810000Y-59000000D03*
D26*
%TO.N,+3.3V*%
X214270000Y-59000000D03*
%TO.N,I2C_scl*%
X211730000Y-59000000D03*
%TO.N,I2C_sda*%
X209190000Y-59000000D03*
%TD*%
D25*
%TO.N,GND*%
%TO.C,J14*%
X230540000Y-80000000D03*
D26*
%TO.N,+5V*%
X228000000Y-80000000D03*
%TO.N,SERVO2*%
X225460000Y-80000000D03*
%TD*%
D14*
%TO.N,N/C*%
%TO.C,H1*%
X193600000Y-48000000D03*
X194302944Y-46302944D03*
X194302944Y-49697056D03*
X196000000Y-45600000D03*
D15*
X196000000Y-48000000D03*
D14*
X196000000Y-50400000D03*
X197697056Y-46302944D03*
X197697056Y-49697056D03*
X198400000Y-48000000D03*
%TD*%
D25*
%TO.N,tft_rst*%
%TO.C,J10*%
X205380000Y-71000000D03*
D26*
%TO.N,tft_cs*%
X207920000Y-71000000D03*
%TO.N,tft_dc*%
X210460000Y-71000000D03*
%TO.N,tft_scl*%
X213000000Y-71000000D03*
X215540000Y-71000000D03*
%TO.N,Net-(J1-Pin_1)*%
X218080000Y-71000000D03*
%TO.N,+3.3V*%
X220620000Y-71000000D03*
%TD*%
D16*
%TO.N,RX_lidar*%
%TO.C,J3*%
X227000000Y-102000000D03*
D17*
%TO.N,TX_lidar*%
X229500000Y-102000000D03*
%TO.N,+3.3V*%
X232000000Y-102000000D03*
%TO.N,GND*%
X234500000Y-102000000D03*
%TD*%
D27*
%TO.N,GND*%
%TO.C,SW4*%
X189357000Y-28000000D03*
%TO.N,sw_tirette*%
X189357000Y-42503500D03*
%TD*%
D25*
%TO.N,GND*%
%TO.C,J2*%
X195460000Y-80000000D03*
D26*
%TO.N,+5V*%
X198000000Y-80000000D03*
%TO.N,SERVO1*%
X200540000Y-80000000D03*
%TD*%
D14*
%TO.N,N/C*%
%TO.C,H3*%
X189600000Y-88000000D03*
X190302944Y-86302944D03*
X190302944Y-89697056D03*
X192000000Y-85600000D03*
D15*
X192000000Y-88000000D03*
D14*
X192000000Y-90400000D03*
X193697056Y-86302944D03*
X193697056Y-89697056D03*
X194400000Y-88000000D03*
%TD*%
D28*
%TO.N,GND*%
%TO.C,U1*%
X218859000Y-86741000D03*
X218059000Y-86741000D03*
X217259000Y-86741000D03*
X218859000Y-87541000D03*
X218059000Y-87541000D03*
X217259000Y-87541000D03*
X218859000Y-88341000D03*
X218059000Y-88341000D03*
X217259000Y-88341000D03*
%TD*%
D29*
%TO.N,+BATT*%
%TO.C,C18*%
X219000000Y-98500000D03*
D30*
%TO.N,GND*%
X219000000Y-103500000D03*
%TD*%
D19*
%TO.N,Net-(SW3-A)*%
%TO.C,SW3*%
X215265000Y-30500000D03*
D20*
%TO.N,Net-(J4-Pin_1)*%
X210185000Y-30500000D03*
%TD*%
D31*
%TO.N,Net-(J8-CC1)*%
X204089000Y-35306000D03*
%TO.N,Net-(J8-CC2)*%
X200914000Y-35560000D03*
D32*
%TO.N,+BATT*%
X201930000Y-51308000D03*
X208747879Y-47513940D03*
D31*
%TO.N,I2C_sda*%
X202946000Y-71755000D03*
%TO.N,I2C_scl*%
X201803000Y-75438000D03*
D32*
%TO.N,+3.3V*%
X197919000Y-70358000D03*
%TO.N,+BATT*%
X204089000Y-60452000D03*
%TO.N,+5V*%
X200914000Y-64643000D03*
X196469000Y-76454000D03*
%TO.N,+3.3V*%
X229108000Y-69977000D03*
%TO.N,+5V*%
X191643000Y-48514000D03*
D31*
%TO.N,motor_b-*%
X223976642Y-87492112D03*
%TO.N,motor_b+*%
X223410954Y-86926426D03*
%TO.N,motor_fault*%
X222866599Y-86340183D03*
%TO.N,Net-(J12-Pin_6)*%
X218694000Y-84455000D03*
%TO.N,Net-(J12-Pin_1)*%
X221488000Y-86741000D03*
D32*
%TO.N,+BATT*%
X198628000Y-66802000D03*
D31*
%TO.N,usb_d-*%
X202557411Y-34767728D03*
%TO.N,usb_d+*%
X201956369Y-35368770D03*
%TO.N,usb_d-*%
X221280521Y-60244521D03*
%TO.N,usb_d+*%
X220679479Y-59643479D03*
%TO.N,Net-(J4-Pin_2)*%
X202000000Y-90000000D03*
%TO.N,Net-(D8-DOUT)*%
X194000000Y-29500000D03*
%TD*%
D33*
%TO.N,I2C_sda*%
X202585000Y-71755000D02*
X202585000Y-71032100D01*
X202585000Y-71755000D02*
X202946000Y-71755000D01*
%TO.N,I2C_scl*%
X201930000Y-75438000D02*
X201803000Y-75438000D01*
X202184000Y-75184000D02*
X201930000Y-75438000D01*
D34*
%TO.N,Net-(J4-Pin_2)*%
X202000000Y-90000000D02*
X205867000Y-93867000D01*
X205867000Y-93867000D02*
X205867000Y-101600000D01*
%TO.N,+5V*%
X191643000Y-46628020D02*
X191643000Y-48514000D01*
X194322020Y-43949000D02*
X191643000Y-46628020D01*
X196204000Y-43949000D02*
X194322020Y-43949000D01*
X197834000Y-42319000D02*
X196204000Y-43949000D01*
X197834000Y-41444000D02*
X197834000Y-42319000D01*
D33*
%TO.N,usb_d+*%
X220466011Y-55789141D02*
X220294890Y-55960259D01*
X220830520Y-55921718D02*
X220697943Y-55789141D01*
X219886183Y-55209313D02*
X219715062Y-55380431D01*
X219483132Y-55380432D02*
X219425149Y-55322449D01*
X220062960Y-55960260D02*
X220004977Y-55902277D01*
X220004977Y-55902277D02*
G75*
G02*
X220004965Y-55670334I115923J115977D01*
G01*
X220830520Y-59492438D02*
X220830520Y-55921718D01*
X220679479Y-59643479D02*
X220830520Y-59492438D01*
X219596267Y-54687466D02*
X219538287Y-54629485D01*
X219296901Y-54388099D02*
X215171802Y-50263000D01*
X203581000Y-47308198D02*
X203581000Y-36710558D01*
X215171802Y-50263000D02*
X206535802Y-50263000D01*
X206535802Y-50263000D02*
X203581000Y-47308198D01*
X203581000Y-36710558D02*
X202239212Y-35368770D01*
X219715062Y-55380431D02*
G75*
G02*
X219483136Y-55380429I-115962J115931D01*
G01*
X219596268Y-54919398D02*
G75*
G03*
X219596300Y-54687434I-115968J115998D01*
G01*
X220118115Y-55209313D02*
G75*
G03*
X219886183Y-55209313I-115966J-115962D01*
G01*
X220697943Y-55789141D02*
G75*
G03*
X220466011Y-55789141I-115966J-115962D01*
G01*
X220176096Y-55499226D02*
G75*
G03*
X220176056Y-55267333I-115996J115926D01*
G01*
X219425149Y-55322449D02*
G75*
G02*
X219425165Y-55090535I115951J115949D01*
G01*
X220294890Y-55960259D02*
G75*
G02*
X220062936Y-55960285I-115990J115959D01*
G01*
X220004976Y-55670345D02*
X220176096Y-55499226D01*
X220176095Y-55267294D02*
X220118115Y-55209313D01*
X219425148Y-55090517D02*
X219596268Y-54919398D01*
X219538287Y-54629485D02*
X219296901Y-54388099D01*
X202239212Y-35368770D02*
X201956369Y-35368770D01*
%TO.N,motor_fault*%
X230632000Y-83566000D02*
X232292000Y-81906000D01*
X222866599Y-86340183D02*
X222973782Y-86233000D01*
X222973782Y-86233000D02*
X223774000Y-86233000D01*
X223774000Y-86233000D02*
X226441000Y-83566000D01*
X226441000Y-83566000D02*
X230632000Y-83566000D01*
X232292000Y-81906000D02*
X232292000Y-74549000D01*
%TO.N,motor_b+*%
X226481869Y-84103000D02*
X230792802Y-84103000D01*
X223410954Y-86926426D02*
X223658443Y-86926426D01*
X223658443Y-86926426D02*
X226481869Y-84103000D01*
X230792802Y-84103000D02*
X232693000Y-82202802D01*
X232693000Y-82202802D02*
X232693000Y-74295000D01*
%TO.N,motor_b-*%
X223976642Y-87244625D02*
X226668267Y-84553000D01*
X230979198Y-84553000D02*
X233143000Y-82389198D01*
X233143000Y-82389198D02*
X233143000Y-74295000D01*
X226668267Y-84553000D02*
X230979198Y-84553000D01*
X223976642Y-87492112D02*
X223976642Y-87244625D01*
%TO.N,Net-(J12-Pin_6)*%
X218694000Y-84455000D02*
X220091000Y-84455000D01*
X220091000Y-84455000D02*
X227584000Y-91948000D01*
X227584000Y-91948000D02*
X232948000Y-91948000D01*
X232948000Y-91948000D02*
X235000000Y-94000000D01*
%TO.N,Net-(J12-Pin_1)*%
X225000000Y-90253000D02*
X221488000Y-86741000D01*
X225000000Y-94000000D02*
X225000000Y-90253000D01*
%TO.N,Net-(D8-DOUT)*%
X194000000Y-29500000D02*
X194000000Y-34869000D01*
X194000000Y-34869000D02*
X195834000Y-36703000D01*
X195834000Y-36703000D02*
X195834000Y-41444000D01*
%TO.N,usb_d-*%
X221280521Y-60244521D02*
X221280521Y-55735323D01*
X221280521Y-55735323D02*
X215358198Y-49813000D01*
X204089000Y-36582160D02*
X202557411Y-35050571D01*
X215358198Y-49813000D02*
X206722198Y-49813000D01*
X206722198Y-49813000D02*
X204089000Y-47179802D01*
X204089000Y-47179802D02*
X204089000Y-36582160D01*
X202557411Y-35050571D02*
X202557411Y-34767728D01*
%TO.N,I2C_sda*%
X196500000Y-102000000D02*
X196500000Y-99918000D01*
X202712000Y-92416900D02*
X200680000Y-90384900D01*
X196500000Y-99918000D02*
X196850000Y-99568000D01*
X199338618Y-99568000D02*
X202712000Y-96194618D01*
X196850000Y-99568000D02*
X199338618Y-99568000D01*
X202712000Y-96194618D02*
X202712000Y-92416900D01*
X200680000Y-90384900D02*
X200680000Y-86907100D01*
X200680000Y-86907100D02*
X203220000Y-84367100D01*
X203220000Y-84367100D02*
X203220000Y-75652900D01*
X203220000Y-75652900D02*
X202585000Y-75017900D01*
X212881000Y-60736100D02*
X212881000Y-58523240D01*
X202585000Y-75017900D02*
X202585000Y-71755000D01*
X202585000Y-71032100D02*
X212881000Y-60736100D01*
X212881000Y-58523240D02*
X212206760Y-57849000D01*
X212206760Y-57849000D02*
X210341000Y-57849000D01*
X210341000Y-57849000D02*
X209190000Y-59000000D01*
%TO.N,I2C_scl*%
X202184000Y-75184000D02*
X202184000Y-70866000D01*
X202184000Y-70866000D02*
X211709000Y-61341000D01*
X211709000Y-61341000D02*
X211709000Y-59021000D01*
X202819000Y-75819000D02*
X202184000Y-75184000D01*
X200279000Y-86741000D02*
X202819000Y-84201000D01*
X194000000Y-101402000D02*
X196402000Y-99000000D01*
X211709000Y-59021000D02*
X211730000Y-59000000D01*
X202311000Y-92583000D02*
X200279000Y-90551000D01*
X202311000Y-96028518D02*
X202311000Y-92583000D01*
X199339518Y-99000000D02*
X202311000Y-96028518D01*
X196402000Y-99000000D02*
X199339518Y-99000000D01*
X202819000Y-84201000D02*
X202819000Y-75819000D01*
X200279000Y-90551000D02*
X200279000Y-86741000D01*
X194000000Y-102000000D02*
X194000000Y-101402000D01*
%TD*%
M02*
