M48
; DRILL file {KiCad 9.0.4} date 2025-08-24T10:42:27+0200
; FORMAT={-:-/ absolute / metric / decimal}
; #@! TF.CreationDate,2025-08-24T10:42:27+02:00
; #@! TF.GenerationSoftware,Kicad,Pcbnew,9.0.4
; #@! TF.FileFunction,Plated,1,4,PTH
FMAT,2
METRIC
; #@! TA.AperFunction,Plated,PTH,ComponentDrill
T1C0.200
; #@! TA.AperFunction,Plated,PTH,ViaDrill
T2C0.300
; #@! TA.AperFunction,Plated,PTH,ComponentDrill
T3C0.400
; #@! TA.AperFunction,Plated,PTH,ComponentDrill
T4C0.500
; #@! TA.AperFunction,Plated,PTH,ComponentDrill
T5C0.600
; #@! TA.AperFunction,Plated,PTH,ComponentDrill
T6C0.750
; #@! TA.AperFunction,Plated,PTH,ComponentDrill
T7C0.800
; #@! TA.AperFunction,Plated,PTH,ComponentDrill
T8C0.950
; #@! TA.AperFunction,Plated,PTH,ComponentDrill
T9C0.990
; #@! TA.AperFunction,Plated,PTH,ComponentDrill
T10C1.000
; #@! TA.AperFunction,Plated,PTH,ComponentDrill
T11C1.300
; #@! TA.AperFunction,Plated,PTH,ComponentDrill
T12C1.520
; #@! TA.AperFunction,Plated,PTH,ComponentDrill
T13C3.200
%
G90
G05
T1
X217.259Y-86.741
X217.259Y-87.541
X217.259Y-88.341
X218.059Y-86.741
X218.059Y-87.541
X218.059Y-88.341
X218.859Y-86.741
X218.859Y-87.541
X218.859Y-88.341
T2
X191.643Y-48.514
X194.0Y-29.5
X196.469Y-76.454
X197.919Y-70.358
X198.628Y-66.802
X200.914Y-35.56
X200.914Y-64.643
X201.803Y-75.438
X201.93Y-51.308
X201.956Y-35.369
X202.0Y-90.0
X202.557Y-34.768
X202.946Y-71.755
X204.089Y-35.306
X204.089Y-60.452
X208.748Y-47.514
X218.694Y-84.455
X220.679Y-59.643
X221.281Y-60.245
X221.488Y-86.741
X222.867Y-86.34
X223.411Y-86.926
X223.977Y-87.492
X229.108Y-69.977
T3
X189.357Y-28.0
X189.357Y-42.503
T4
X189.6Y-88.0
X190.303Y-86.303
X190.303Y-89.697
X192.0Y-85.6
X192.0Y-90.4
X193.6Y-48.0
X193.697Y-86.303
X193.697Y-89.697
X194.303Y-46.303
X194.303Y-49.697
X194.4Y-88.0
X196.0Y-45.6
X196.0Y-50.4
X197.697Y-46.303
X197.697Y-49.697
X198.4Y-48.0
X227.297Y-48.0
X228.0Y-46.303
X228.0Y-49.697
X229.697Y-45.6
X229.697Y-50.4
X231.394Y-46.303
X231.394Y-49.697
X231.6Y-88.0
X232.097Y-48.0
X232.303Y-86.303
X232.303Y-89.697
X234.0Y-85.6
X234.0Y-90.4
X235.697Y-86.303
X235.697Y-89.697
X236.4Y-88.0
T6
X191.0Y-94.0
X193.0Y-94.0
X193.834Y-41.444
X195.0Y-94.0
X195.834Y-41.444
X197.0Y-94.0
X197.834Y-41.444
X199.0Y-94.0
X201.0Y-94.0
X225.0Y-94.0
X227.0Y-94.0
X229.0Y-94.0
X231.0Y-94.0
X233.0Y-94.0
X235.0Y-94.0
T7
X219.0Y-98.5
X219.0Y-103.5
T8
X191.5Y-102.0
X194.0Y-102.0
X196.5Y-102.0
X199.0Y-102.0
X227.0Y-102.0
X229.5Y-102.0
X232.0Y-102.0
X234.5Y-102.0
T9
X229.725Y-27.712
X234.225Y-27.712
T10
X195.46Y-80.0
X198.0Y-80.0
X200.54Y-80.0
X205.38Y-71.0
X207.92Y-71.0
X209.19Y-59.0
X210.46Y-71.0
X211.73Y-59.0
X213.0Y-71.0
X214.27Y-59.0
X215.54Y-71.0
X216.81Y-59.0
X218.08Y-71.0
X220.62Y-71.0
X221.0Y-27.712
X223.5Y-27.712
X225.46Y-80.0
X228.0Y-80.0
X230.54Y-80.0
T11
X228.475Y-30.202
X235.485Y-30.202
T12
X205.867Y-101.6
X210.185Y-30.5
X210.947Y-101.6
X215.265Y-30.5
T13
X192.0Y-88.0
X196.0Y-48.0
X229.697Y-48.0
X234.0Y-88.0
T5
G00X197.5Y-29.125
M15
G01X197.5Y-28.325
M16
G05
G00X197.5Y-33.455
M15
G01X197.5Y-32.355
M16
G05
G00X206.14Y-29.125
M15
G01X206.14Y-28.325
M16
G05
G00X206.14Y-33.455
M15
G01X206.14Y-32.355
M16
G05
M30
