%TF.GenerationSoftware,KiCad,Pcbnew,9.0.4*%
%TF.CreationDate,2025-10-03T16:52:30+02:00*%
%TF.ProjectId,pami_2026,70616d69-5f32-4303-9236-2e6b69636164,rev?*%
%TF.SameCoordinates,Original*%
%TF.FileFunction,Soldermask,Bot*%
%TF.FilePolarity,Negative*%
%FSLAX46Y46*%
G04 Gerber Fmt 4.6, Leading zero omitted, Abs format (unit mm)*
G04 Created by KiCad (PCBNEW 9.0.4) date 2025-10-03 16:52:30*
%MOMM*%
%LPD*%
G01*
G04 APERTURE LIST*
G04 Aperture macros list*
%AMRoundRect*
0 Rectangle with rounded corners*
0 $1 Rounding radius*
0 $2 $3 $4 $5 $6 $7 $8 $9 X,Y pos of 4 corners*
0 Add a 4 corners polygon primitive as box body*
4,1,4,$2,$3,$4,$5,$6,$7,$8,$9,$2,$3,0*
0 Add four circle primitives for the rounded corners*
1,1,$1+$1,$2,$3*
1,1,$1+$1,$4,$5*
1,1,$1+$1,$6,$7*
1,1,$1+$1,$8,$9*
0 Add four rect primitives between the rounded corners*
20,1,$1+$1,$2,$3,$4,$5,0*
20,1,$1+$1,$4,$5,$6,$7,0*
20,1,$1+$1,$6,$7,$8,$9,0*
20,1,$1+$1,$8,$9,$2,$3,0*%
G04 Aperture macros list end*
%ADD10C,0.000000*%
%ADD11C,0.363500*%
%ADD12C,3.000000*%
%ADD13R,3.000000X3.000000*%
%ADD14R,1.200000X1.200000*%
%ADD15R,0.800000X0.800000*%
%ADD16R,0.800000X0.400000*%
%ADD17R,0.400000X0.800000*%
%ADD18C,0.800000*%
%ADD19C,6.400000*%
%ADD20RoundRect,0.250000X-0.600000X-0.725000X0.600000X-0.725000X0.600000X0.725000X-0.600000X0.725000X0*%
%ADD21O,1.700000X1.950000*%
%ADD22RoundRect,0.250000X-0.625000X0.350000X-0.625000X-0.350000X0.625000X-0.350000X0.625000X0.350000X0*%
%ADD23O,1.750000X1.200000*%
%ADD24RoundRect,0.250000X-0.350000X-0.625000X0.350000X-0.625000X0.350000X0.625000X-0.350000X0.625000X0*%
%ADD25O,1.200000X1.750000*%
%ADD26R,1.700000X1.700000*%
%ADD27C,1.700000*%
%ADD28O,1.052400X2.052400*%
%ADD29RoundRect,0.250000X-0.600000X-0.750000X0.600000X-0.750000X0.600000X0.750000X-0.600000X0.750000X0*%
%ADD30O,1.700000X2.000000*%
%ADD31R,2.000000X2.591000*%
%ADD32RoundRect,0.250000X-0.550000X0.550000X-0.550000X-0.550000X0.550000X-0.550000X0.550000X0.550000X0*%
%ADD33C,1.600000*%
%ADD34RoundRect,0.250000X0.600000X0.750000X-0.600000X0.750000X-0.600000X-0.750000X0.600000X-0.750000X0*%
%ADD35RoundRect,0.250000X-0.475000X0.337500X-0.475000X-0.337500X0.475000X-0.337500X0.475000X0.337500X0*%
%ADD36RoundRect,0.200000X-0.750000X-0.200000X0.750000X-0.200000X0.750000X0.200000X-0.750000X0.200000X0*%
%ADD37RoundRect,0.250000X0.450000X-0.350000X0.450000X0.350000X-0.450000X0.350000X-0.450000X-0.350000X0*%
%ADD38RoundRect,0.250000X0.350000X0.450000X-0.350000X0.450000X-0.350000X-0.450000X0.350000X-0.450000X0*%
%ADD39R,1.000000X1.900000*%
%ADD40R,1.500000X1.300000*%
%ADD41RoundRect,0.087500X-0.087500X0.425000X-0.087500X-0.425000X0.087500X-0.425000X0.087500X0.425000X0*%
%ADD42RoundRect,0.087500X-0.425000X0.087500X-0.425000X-0.087500X0.425000X-0.087500X0.425000X0.087500X0*%
%ADD43R,2.100000X2.100000*%
%ADD44RoundRect,0.250000X0.337500X0.475000X-0.337500X0.475000X-0.337500X-0.475000X0.337500X-0.475000X0*%
%ADD45RoundRect,0.250000X0.475000X-0.337500X0.475000X0.337500X-0.475000X0.337500X-0.475000X-0.337500X0*%
%ADD46RoundRect,0.250000X-0.450000X-0.450000X0.450000X-0.450000X0.450000X0.450000X-0.450000X0.450000X0*%
%ADD47C,1.400000*%
%ADD48RoundRect,0.250000X-0.325000X-0.450000X0.325000X-0.450000X0.325000X0.450000X-0.325000X0.450000X0*%
%ADD49RoundRect,0.250000X-0.450000X0.350000X-0.450000X-0.350000X0.450000X-0.350000X0.450000X0.350000X0*%
%ADD50RoundRect,0.250000X-1.150000X-0.250000X1.150000X-0.250000X1.150000X0.250000X-1.150000X0.250000X0*%
%ADD51RoundRect,0.249997X2.950003X2.650003X-2.950003X2.650003X-2.950003X-2.650003X2.950003X-2.650003X0*%
%ADD52RoundRect,0.250000X0.850000X0.350000X-0.850000X0.350000X-0.850000X-0.350000X0.850000X-0.350000X0*%
%ADD53RoundRect,0.250000X-0.350000X-0.450000X0.350000X-0.450000X0.350000X0.450000X-0.350000X0.450000X0*%
%ADD54R,0.850000X1.600000*%
%ADD55R,4.240000X3.810000*%
%ADD56RoundRect,0.200000X0.750000X0.200000X-0.750000X0.200000X-0.750000X-0.200000X0.750000X-0.200000X0*%
%ADD57RoundRect,0.250000X-0.337500X-0.475000X0.337500X-0.475000X0.337500X0.475000X-0.337500X0.475000X0*%
%ADD58RoundRect,0.250000X2.050000X0.300000X-2.050000X0.300000X-2.050000X-0.300000X2.050000X-0.300000X0*%
%ADD59RoundRect,0.250002X4.449998X5.149998X-4.449998X5.149998X-4.449998X-5.149998X4.449998X-5.149998X0*%
%ADD60RoundRect,0.243750X0.243750X0.456250X-0.243750X0.456250X-0.243750X-0.456250X0.243750X-0.456250X0*%
%ADD61RoundRect,0.375000X-0.375000X0.625000X-0.375000X-0.625000X0.375000X-0.625000X0.375000X0.625000X0*%
%ADD62RoundRect,0.500000X-1.400000X0.500000X-1.400000X-0.500000X1.400000X-0.500000X1.400000X0.500000X0*%
%ADD63RoundRect,0.225000X0.375000X-0.225000X0.375000X0.225000X-0.375000X0.225000X-0.375000X-0.225000X0*%
G04 APERTURE END LIST*
D10*
G36*
X74450675Y-66661955D02*
G01*
X74462240Y-66662560D01*
X74473535Y-66663757D01*
X74484564Y-66665536D01*
X74495338Y-66667901D01*
X74505874Y-66670844D01*
X74516177Y-66674366D01*
X74526256Y-66678463D01*
X74536122Y-66683130D01*
X74545786Y-66688369D01*
X74558324Y-66696250D01*
X74569908Y-66705127D01*
X74580707Y-66715488D01*
X74590893Y-66727832D01*
X74600644Y-66742646D01*
X74610129Y-66760429D01*
X74619517Y-66781667D01*
X74628984Y-66806857D01*
X74638704Y-66836495D01*
X74648849Y-66871065D01*
X74671095Y-66956986D01*
X74697107Y-67068568D01*
X74728259Y-67209750D01*
X74753199Y-67328069D01*
X74763857Y-67381623D01*
X74773322Y-67431574D01*
X74781606Y-67478022D01*
X74788722Y-67521066D01*
X74794685Y-67560809D01*
X74799500Y-67597352D01*
X74803191Y-67630792D01*
X74805756Y-67661233D01*
X74807216Y-67688775D01*
X74807585Y-67713518D01*
X74806868Y-67735563D01*
X74805084Y-67755009D01*
X74802240Y-67771962D01*
X74798351Y-67786515D01*
X74798230Y-67786108D01*
X74794457Y-67796495D01*
X74790046Y-67806797D01*
X74785051Y-67816941D01*
X74779532Y-67826873D01*
X74773529Y-67836532D01*
X74767113Y-67845850D01*
X74760328Y-67854766D01*
X74753232Y-67863222D01*
X74745880Y-67871152D01*
X74738323Y-67878498D01*
X74730620Y-67885193D01*
X74722823Y-67891176D01*
X74714990Y-67896392D01*
X74707172Y-67900766D01*
X74699421Y-67904249D01*
X74695590Y-67905631D01*
X74691797Y-67906769D01*
X74682746Y-67908877D01*
X74673200Y-67910492D01*
X74663206Y-67911639D01*
X74652817Y-67912329D01*
X74642075Y-67912574D01*
X74631033Y-67912399D01*
X74619734Y-67911814D01*
X74608234Y-67910832D01*
X74596573Y-67909476D01*
X74584800Y-67907752D01*
X74561126Y-67903289D01*
X74537585Y-67897564D01*
X74514570Y-67890701D01*
X74492463Y-67882833D01*
X74471641Y-67874075D01*
X74461837Y-67869406D01*
X74452500Y-67864562D01*
X74443676Y-67859562D01*
X74435417Y-67854417D01*
X74427769Y-67849143D01*
X74420779Y-67843760D01*
X74414503Y-67838284D01*
X74408974Y-67832723D01*
X74404251Y-67827102D01*
X74400382Y-67821431D01*
X74397411Y-67815728D01*
X74395387Y-67810010D01*
X74394622Y-67807477D01*
X74393724Y-67805080D01*
X74392698Y-67802818D01*
X74391548Y-67800695D01*
X74390273Y-67798706D01*
X74388878Y-67796854D01*
X74387366Y-67795140D01*
X74385743Y-67793562D01*
X74384009Y-67792122D01*
X74382166Y-67790824D01*
X74380221Y-67789661D01*
X74378177Y-67788638D01*
X74376037Y-67787758D01*
X74373803Y-67787013D01*
X74371477Y-67786412D01*
X74369065Y-67785949D01*
X74366570Y-67785632D01*
X74363993Y-67785456D01*
X74361338Y-67785418D01*
X74358609Y-67785524D01*
X74352945Y-67786169D01*
X74347023Y-67787386D01*
X74340869Y-67789185D01*
X74334511Y-67791563D01*
X74327974Y-67794527D01*
X74321283Y-67798079D01*
X74318048Y-67799812D01*
X74314690Y-67801408D01*
X74311220Y-67802871D01*
X74307646Y-67804193D01*
X74300208Y-67806441D01*
X74292448Y-67808152D01*
X74284426Y-67809335D01*
X74276207Y-67809990D01*
X74267854Y-67810129D01*
X74259426Y-67809750D01*
X74250994Y-67808860D01*
X74242618Y-67807463D01*
X74234359Y-67805563D01*
X74226288Y-67803168D01*
X74218464Y-67800278D01*
X74210950Y-67796902D01*
X74203812Y-67793039D01*
X74200403Y-67790930D01*
X74197110Y-67788700D01*
X74190480Y-67784247D01*
X74183545Y-67780048D01*
X74176357Y-67776123D01*
X74168979Y-67772483D01*
X74161465Y-67769152D01*
X74153875Y-67766140D01*
X74146260Y-67763469D01*
X74138688Y-67761145D01*
X74131204Y-67759195D01*
X74123868Y-67757629D01*
X74116739Y-67756465D01*
X74109876Y-67755720D01*
X74103335Y-67755411D01*
X74097166Y-67755547D01*
X74091432Y-67756153D01*
X74088746Y-67756634D01*
X74086189Y-67757240D01*
X74083662Y-67757847D01*
X74081054Y-67758340D01*
X74078377Y-67758723D01*
X74075632Y-67758989D01*
X74072824Y-67759147D01*
X74069966Y-67759198D01*
X74064111Y-67758983D01*
X74058107Y-67758357D01*
X74052001Y-67757338D01*
X74045843Y-67755939D01*
X74039677Y-67754177D01*
X74033550Y-67752063D01*
X74027508Y-67749612D01*
X74021595Y-67746843D01*
X74015863Y-67743766D01*
X74010359Y-67740402D01*
X74005121Y-67736757D01*
X74000202Y-67732857D01*
X73997877Y-67730811D01*
X73995649Y-67728707D01*
X73990861Y-67724383D01*
X73985260Y-67719966D01*
X73978909Y-67715490D01*
X73971882Y-67710979D01*
X73964251Y-67706478D01*
X73956078Y-67702010D01*
X73947439Y-67697611D01*
X73938403Y-67693307D01*
X73929036Y-67689135D01*
X73919408Y-67685128D01*
X73909592Y-67681311D01*
X73899656Y-67677722D01*
X73889666Y-67674393D01*
X73879696Y-67671351D01*
X73869812Y-67668630D01*
X73860085Y-67666267D01*
X73850505Y-67663843D01*
X73841050Y-67660944D01*
X73831773Y-67657611D01*
X73822730Y-67653880D01*
X73813975Y-67649793D01*
X73805564Y-67645383D01*
X73797554Y-67640688D01*
X73789993Y-67635749D01*
X73782950Y-67630605D01*
X73776464Y-67625293D01*
X73770603Y-67619845D01*
X73765413Y-67614307D01*
X73763090Y-67611516D01*
X73760958Y-67608712D01*
X73759022Y-67605909D01*
X73757283Y-67603104D01*
X73755760Y-67600304D01*
X73754450Y-67597513D01*
X73753368Y-67594737D01*
X73752515Y-67591982D01*
X73751720Y-67589272D01*
X73750801Y-67586632D01*
X73749770Y-67584061D01*
X73748629Y-67581566D01*
X73747376Y-67579148D01*
X73746026Y-67576808D01*
X73744572Y-67574551D01*
X73743026Y-67572377D01*
X73741387Y-67570291D01*
X73739663Y-67568294D01*
X73737857Y-67566389D01*
X73735973Y-67564580D01*
X73734011Y-67562867D01*
X73731983Y-67561254D01*
X73729887Y-67559743D01*
X73727727Y-67558338D01*
X73725515Y-67557038D01*
X73723245Y-67555850D01*
X73720928Y-67554776D01*
X73718566Y-67553813D01*
X73716161Y-67552969D01*
X73713716Y-67552248D01*
X73711247Y-67551647D01*
X73708740Y-67551171D01*
X73706213Y-67550822D01*
X73703664Y-67550605D01*
X73701098Y-67550521D01*
X73698521Y-67550570D01*
X73695935Y-67550759D01*
X73693346Y-67551090D01*
X73690757Y-67551563D01*
X73688172Y-67552181D01*
X73680435Y-67553939D01*
X73672694Y-67555088D01*
X73664964Y-67555638D01*
X73657258Y-67555610D01*
X73649598Y-67555019D01*
X73641993Y-67553880D01*
X73634460Y-67552208D01*
X73627023Y-67550019D01*
X73619692Y-67547331D01*
X73612482Y-67544160D01*
X73605413Y-67540520D01*
X73598501Y-67536428D01*
X73591758Y-67531901D01*
X73585205Y-67526952D01*
X73578857Y-67521601D01*
X73572726Y-67515859D01*
X73566835Y-67509746D01*
X73561196Y-67503278D01*
X73555824Y-67496468D01*
X73550738Y-67489334D01*
X73545957Y-67481890D01*
X73541490Y-67474155D01*
X73537356Y-67466143D01*
X73533572Y-67457872D01*
X73530156Y-67449355D01*
X73527121Y-67440608D01*
X73524484Y-67431652D01*
X73522262Y-67422496D01*
X73520474Y-67413160D01*
X73519126Y-67403661D01*
X73518246Y-67394010D01*
X73517844Y-67384229D01*
X73520314Y-67362892D01*
X73528208Y-67338658D01*
X73541307Y-67311742D01*
X73559398Y-67282362D01*
X73582260Y-67250737D01*
X73609674Y-67217079D01*
X73641425Y-67181609D01*
X73677296Y-67144544D01*
X73717070Y-67106100D01*
X73760526Y-67066496D01*
X73807449Y-67025947D01*
X73857618Y-66984669D01*
X73910821Y-66942881D01*
X73966840Y-66900800D01*
X74025454Y-66858643D01*
X74086449Y-66816628D01*
X74127134Y-66789930D01*
X74165851Y-66765822D01*
X74202678Y-66744287D01*
X74237692Y-66725298D01*
X74270978Y-66708839D01*
X74302613Y-66694884D01*
X74332678Y-66683416D01*
X74347144Y-66678603D01*
X74361248Y-66674408D01*
X74375003Y-66670819D01*
X74388415Y-66667839D01*
X74401495Y-66665464D01*
X74414247Y-66663691D01*
X74426691Y-66662516D01*
X74438831Y-66661939D01*
X74450675Y-66661955D01*
G37*
G36*
X68963579Y-68167151D02*
G01*
X69072002Y-68173384D01*
X69188137Y-68184637D01*
X69308108Y-68200601D01*
X69428043Y-68220974D01*
X69544059Y-68245452D01*
X69583122Y-68254767D01*
X69618071Y-68263501D01*
X69649170Y-68271807D01*
X69676688Y-68279847D01*
X69700879Y-68287780D01*
X69711814Y-68291753D01*
X69722015Y-68295761D01*
X69731515Y-68299819D01*
X69740349Y-68303948D01*
X69748550Y-68308168D01*
X69756147Y-68312502D01*
X69763178Y-68316962D01*
X69769673Y-68321574D01*
X69775666Y-68326359D01*
X69781189Y-68331332D01*
X69786275Y-68336514D01*
X69790956Y-68341925D01*
X69795265Y-68347585D01*
X69799234Y-68353515D01*
X69802903Y-68359735D01*
X69806292Y-68366258D01*
X69809443Y-68373117D01*
X69812389Y-68380318D01*
X69815158Y-68387886D01*
X69817785Y-68395844D01*
X69822742Y-68412996D01*
X69826283Y-68427300D01*
X69829037Y-68440913D01*
X69830114Y-68447473D01*
X69830993Y-68453876D01*
X69831673Y-68460121D01*
X69832152Y-68466218D01*
X69832421Y-68472170D01*
X69832490Y-68477984D01*
X69832351Y-68483661D01*
X69832007Y-68489207D01*
X69831450Y-68494628D01*
X69830689Y-68499927D01*
X69829716Y-68505111D01*
X69828532Y-68510180D01*
X69827134Y-68515143D01*
X69825521Y-68520003D01*
X69823693Y-68524765D01*
X69821650Y-68529435D01*
X69819385Y-68534015D01*
X69816905Y-68538510D01*
X69814205Y-68542925D01*
X69811281Y-68547267D01*
X69808136Y-68551537D01*
X69804767Y-68555744D01*
X69801173Y-68559886D01*
X69797353Y-68563974D01*
X69793307Y-68568011D01*
X69789028Y-68572000D01*
X69784522Y-68575948D01*
X69779789Y-68579856D01*
X69772499Y-68585987D01*
X69765540Y-68592402D01*
X69758934Y-68599043D01*
X69752719Y-68605860D01*
X69746918Y-68612801D01*
X69741569Y-68619812D01*
X69736699Y-68626843D01*
X69732341Y-68633842D01*
X69728524Y-68640755D01*
X69725278Y-68647526D01*
X69722638Y-68654111D01*
X69721556Y-68657313D01*
X69720636Y-68660450D01*
X69719881Y-68663513D01*
X69719296Y-68666495D01*
X69718884Y-68669390D01*
X69718654Y-68672193D01*
X69718603Y-68674894D01*
X69718737Y-68677490D01*
X69719060Y-68679971D01*
X69719580Y-68682338D01*
X69720103Y-68684715D01*
X69720438Y-68687231D01*
X69720586Y-68689878D01*
X69720553Y-68692649D01*
X69719962Y-68698527D01*
X69718688Y-68704817D01*
X69716764Y-68711455D01*
X69714219Y-68718391D01*
X69711083Y-68725573D01*
X69707391Y-68732936D01*
X69703165Y-68740431D01*
X69698440Y-68748001D01*
X69693244Y-68755587D01*
X69687608Y-68763138D01*
X69681561Y-68770597D01*
X69675132Y-68777907D01*
X69668358Y-68785011D01*
X69661263Y-68791860D01*
X69654019Y-68798755D01*
X69646813Y-68806038D01*
X69639697Y-68813648D01*
X69632709Y-68821522D01*
X69625900Y-68829599D01*
X69619305Y-68837808D01*
X69612974Y-68846096D01*
X69606951Y-68854396D01*
X69601276Y-68862648D01*
X69596000Y-68870783D01*
X69591155Y-68878744D01*
X69586798Y-68886467D01*
X69582971Y-68893887D01*
X69579709Y-68900945D01*
X69577066Y-68907573D01*
X69575081Y-68913716D01*
X69573217Y-68919599D01*
X69570910Y-68925450D01*
X69568200Y-68931230D01*
X69565116Y-68936903D01*
X69561691Y-68942434D01*
X69557957Y-68947789D01*
X69553949Y-68952927D01*
X69549698Y-68957820D01*
X69545239Y-68962425D01*
X69540601Y-68966712D01*
X69535823Y-68970640D01*
X69530935Y-68974178D01*
X69525970Y-68977288D01*
X69520957Y-68979936D01*
X69515935Y-68982084D01*
X69513432Y-68982958D01*
X69510937Y-68983696D01*
X69508421Y-68984451D01*
X69505853Y-68985376D01*
X69500586Y-68987719D01*
X69495176Y-68990684D01*
X69489667Y-68994223D01*
X69484096Y-68998300D01*
X69478504Y-69002873D01*
X69472936Y-69007893D01*
X69467431Y-69013326D01*
X69462031Y-69019125D01*
X69456778Y-69025246D01*
X69451707Y-69031649D01*
X69446867Y-69038291D01*
X69442295Y-69045130D01*
X69438036Y-69052124D01*
X69434123Y-69059228D01*
X69430608Y-69066404D01*
X69426960Y-69073465D01*
X69422700Y-69080349D01*
X69417875Y-69087013D01*
X69412542Y-69093423D01*
X69406754Y-69099539D01*
X69400556Y-69105325D01*
X69394007Y-69110743D01*
X69387152Y-69115752D01*
X69380052Y-69120315D01*
X69372756Y-69124396D01*
X69365311Y-69127957D01*
X69357777Y-69130956D01*
X69350205Y-69133362D01*
X69342638Y-69135132D01*
X69335141Y-69136228D01*
X69327759Y-69136613D01*
X69323931Y-69136688D01*
X69320211Y-69136877D01*
X69316594Y-69137173D01*
X69313087Y-69137579D01*
X69309689Y-69138087D01*
X69306405Y-69138701D01*
X69303237Y-69139415D01*
X69300186Y-69140229D01*
X69297256Y-69141137D01*
X69294455Y-69142139D01*
X69291777Y-69143234D01*
X69289229Y-69144422D01*
X69286810Y-69145693D01*
X69284526Y-69147052D01*
X69282382Y-69148496D01*
X69280377Y-69150018D01*
X69278515Y-69151622D01*
X69276795Y-69153302D01*
X69275229Y-69155059D01*
X69273807Y-69156886D01*
X69272542Y-69158784D01*
X69271429Y-69160751D01*
X69270477Y-69162782D01*
X69269686Y-69164879D01*
X69269057Y-69167039D01*
X69268597Y-69169256D01*
X69268305Y-69171532D01*
X69268182Y-69173864D01*
X69268237Y-69176247D01*
X69268466Y-69178685D01*
X69268876Y-69181167D01*
X69269469Y-69183700D01*
X69270026Y-69186200D01*
X69270400Y-69188868D01*
X69270598Y-69191705D01*
X69270626Y-69194696D01*
X69270177Y-69201117D01*
X69269082Y-69208069D01*
X69267365Y-69215485D01*
X69265055Y-69223299D01*
X69262185Y-69231454D01*
X69258771Y-69239876D01*
X69254852Y-69248508D01*
X69250449Y-69257284D01*
X69245594Y-69266143D01*
X69240311Y-69275012D01*
X69234631Y-69283833D01*
X69228577Y-69292545D01*
X69222185Y-69301073D01*
X69215475Y-69309362D01*
X69215424Y-69309297D01*
X69206143Y-69319880D01*
X69196561Y-69329977D01*
X69186695Y-69339583D01*
X69176579Y-69348690D01*
X69166232Y-69357294D01*
X69155684Y-69365388D01*
X69144954Y-69372968D01*
X69134072Y-69380029D01*
X69123060Y-69386565D01*
X69111941Y-69392568D01*
X69100747Y-69398039D01*
X69089497Y-69402965D01*
X69078219Y-69407349D01*
X69066930Y-69411178D01*
X69055665Y-69414450D01*
X69044444Y-69417159D01*
X69033291Y-69419301D01*
X69022234Y-69420870D01*
X69011297Y-69421859D01*
X69000504Y-69422264D01*
X68989879Y-69422077D01*
X68979447Y-69421300D01*
X68969236Y-69419918D01*
X68959263Y-69417934D01*
X68949566Y-69415333D01*
X68940158Y-69412122D01*
X68931068Y-69408285D01*
X68922322Y-69403821D01*
X68913944Y-69398724D01*
X68905958Y-69392991D01*
X68898392Y-69386611D01*
X68891265Y-69379584D01*
X68884252Y-69370466D01*
X68875923Y-69356780D01*
X68855752Y-69316800D01*
X68831610Y-69261859D01*
X68804353Y-69194167D01*
X68774842Y-69115935D01*
X68743945Y-69029380D01*
X68712515Y-68936709D01*
X68681416Y-68840139D01*
X68652507Y-68746660D01*
X68627615Y-68663050D01*
X68606786Y-68588690D01*
X68597905Y-68554783D01*
X68590055Y-68522951D01*
X68583240Y-68493125D01*
X68577462Y-68465222D01*
X68572731Y-68439170D01*
X68569049Y-68414883D01*
X68566418Y-68392289D01*
X68564851Y-68371309D01*
X68564347Y-68351868D01*
X68564914Y-68333888D01*
X68566550Y-68317288D01*
X68569267Y-68301995D01*
X68573067Y-68287928D01*
X68577960Y-68275013D01*
X68583945Y-68263169D01*
X68591028Y-68252320D01*
X68599214Y-68242390D01*
X68608510Y-68233301D01*
X68618918Y-68224972D01*
X68630448Y-68217332D01*
X68643099Y-68210299D01*
X68656880Y-68203796D01*
X68671793Y-68197746D01*
X68687846Y-68192075D01*
X68705037Y-68186701D01*
X68723382Y-68181545D01*
X68751726Y-68175476D01*
X68785393Y-68170929D01*
X68823896Y-68167858D01*
X68866753Y-68166232D01*
X68913475Y-68166007D01*
X68963579Y-68167151D01*
G37*
G36*
X80967823Y-102542172D02*
G01*
X80995843Y-102545385D01*
X81024698Y-102550773D01*
X81040780Y-102555221D01*
X81056643Y-102560280D01*
X81072296Y-102565919D01*
X81087747Y-102572109D01*
X81118084Y-102586017D01*
X81147723Y-102601762D01*
X81176737Y-102619102D01*
X81205196Y-102637795D01*
X81233171Y-102657598D01*
X81260735Y-102678270D01*
X81314913Y-102721249D01*
X81368299Y-102764794D01*
X81421463Y-102806968D01*
X81448141Y-102826935D01*
X81474977Y-102845832D01*
X81507196Y-102865132D01*
X81545373Y-102883932D01*
X81588508Y-102902425D01*
X81635600Y-102920800D01*
X81843539Y-102996957D01*
X81895414Y-103017615D01*
X81945246Y-103039302D01*
X81992033Y-103062210D01*
X82034775Y-103086529D01*
X82054317Y-103099278D01*
X82072473Y-103112451D01*
X82089117Y-103126073D01*
X82104125Y-103140167D01*
X82117371Y-103154757D01*
X82128731Y-103169867D01*
X82138080Y-103185522D01*
X82145292Y-103201744D01*
X82151590Y-103221750D01*
X82155639Y-103241400D01*
X82157543Y-103260686D01*
X82157407Y-103279605D01*
X82155336Y-103298149D01*
X82151436Y-103316312D01*
X82145811Y-103334090D01*
X82138567Y-103351476D01*
X82129809Y-103368465D01*
X82119641Y-103385050D01*
X82108169Y-103401226D01*
X82095498Y-103416988D01*
X82081733Y-103432328D01*
X82066979Y-103447243D01*
X82034924Y-103475769D01*
X82000174Y-103502519D01*
X81963570Y-103527448D01*
X81925951Y-103550510D01*
X81888160Y-103571657D01*
X81851036Y-103590843D01*
X81815420Y-103608023D01*
X81752073Y-103636177D01*
X81665173Y-103670609D01*
X81575440Y-103701483D01*
X81483243Y-103728768D01*
X81388951Y-103752433D01*
X81292931Y-103772446D01*
X81195553Y-103788777D01*
X81097183Y-103801393D01*
X80998192Y-103810264D01*
X80898946Y-103815359D01*
X80799814Y-103816645D01*
X80701165Y-103814093D01*
X80603367Y-103807671D01*
X80506788Y-103797346D01*
X80411796Y-103783090D01*
X80318760Y-103764869D01*
X80228048Y-103742652D01*
X80197369Y-103733508D01*
X80160310Y-103720843D01*
X80118351Y-103704859D01*
X80072968Y-103685760D01*
X80025639Y-103663749D01*
X79977841Y-103639028D01*
X79931053Y-103611800D01*
X79886752Y-103582269D01*
X79865996Y-103566703D01*
X79846416Y-103550638D01*
X79828197Y-103534098D01*
X79811523Y-103517109D01*
X79796579Y-103499696D01*
X79783549Y-103481885D01*
X79772620Y-103463701D01*
X79763974Y-103445170D01*
X79757797Y-103426316D01*
X79754274Y-103407166D01*
X79753589Y-103387744D01*
X79755927Y-103368076D01*
X79761473Y-103348188D01*
X79770411Y-103328104D01*
X79782926Y-103307850D01*
X79799204Y-103287452D01*
X79810471Y-103275470D01*
X79822425Y-103264009D01*
X79848228Y-103242521D01*
X79876284Y-103222741D01*
X79906268Y-103204418D01*
X79937851Y-103187305D01*
X79970708Y-103171152D01*
X80038931Y-103140729D01*
X80108320Y-103111159D01*
X80142635Y-103096070D01*
X80176260Y-103080448D01*
X80208868Y-103064042D01*
X80240133Y-103046605D01*
X80269727Y-103027886D01*
X80297323Y-103007637D01*
X80343701Y-102967316D01*
X80388313Y-102925180D01*
X80431510Y-102881952D01*
X80473646Y-102838360D01*
X80556141Y-102752979D01*
X80597206Y-102712642D01*
X80638617Y-102674840D01*
X80680729Y-102640301D01*
X80702157Y-102624480D01*
X80723893Y-102609748D01*
X80745979Y-102596193D01*
X80768461Y-102583907D01*
X80791382Y-102572980D01*
X80814786Y-102563503D01*
X80838717Y-102555568D01*
X80863219Y-102549263D01*
X80888337Y-102544681D01*
X80914115Y-102541911D01*
X80940595Y-102541045D01*
X80967823Y-102542172D01*
G37*
D11*
%TO.C,J8*%
X47260713Y-45759000D02*
G75*
G02*
X46897213Y-45759000I-181750J0D01*
G01*
X46897213Y-45759000D02*
G75*
G02*
X47260713Y-45759000I181750J0D01*
G01*
X47260713Y-46659000D02*
G75*
G02*
X46897213Y-46659000I-181750J0D01*
G01*
X46897213Y-46659000D02*
G75*
G02*
X47260713Y-46659000I181750J0D01*
G01*
X47260713Y-47559000D02*
G75*
G02*
X46897213Y-47559000I-181750J0D01*
G01*
X46897213Y-47559000D02*
G75*
G02*
X47260713Y-47559000I181750J0D01*
G01*
X47260713Y-48459000D02*
G75*
G02*
X46897213Y-48459000I-181750J0D01*
G01*
X46897213Y-48459000D02*
G75*
G02*
X47260713Y-48459000I181750J0D01*
G01*
X47260713Y-49359000D02*
G75*
G02*
X46897213Y-49359000I-181750J0D01*
G01*
X46897213Y-49359000D02*
G75*
G02*
X47260713Y-49359000I181750J0D01*
G01*
X47260713Y-50259000D02*
G75*
G02*
X46897213Y-50259000I-181750J0D01*
G01*
X46897213Y-50259000D02*
G75*
G02*
X47260713Y-50259000I181750J0D01*
G01*
X47260713Y-51159000D02*
G75*
G02*
X46897213Y-51159000I-181750J0D01*
G01*
X46897213Y-51159000D02*
G75*
G02*
X47260713Y-51159000I181750J0D01*
G01*
X48040713Y-46209000D02*
G75*
G02*
X47677213Y-46209000I-181750J0D01*
G01*
X47677213Y-46209000D02*
G75*
G02*
X48040713Y-46209000I181750J0D01*
G01*
X48040713Y-47109000D02*
G75*
G02*
X47677213Y-47109000I-181750J0D01*
G01*
X47677213Y-47109000D02*
G75*
G02*
X48040713Y-47109000I181750J0D01*
G01*
X48040713Y-48009000D02*
G75*
G02*
X47677213Y-48009000I-181750J0D01*
G01*
X47677213Y-48009000D02*
G75*
G02*
X48040713Y-48009000I181750J0D01*
G01*
X48040713Y-48909000D02*
G75*
G02*
X47677213Y-48909000I-181750J0D01*
G01*
X47677213Y-48909000D02*
G75*
G02*
X48040713Y-48909000I181750J0D01*
G01*
X48040713Y-49809000D02*
G75*
G02*
X47677213Y-49809000I-181750J0D01*
G01*
X47677213Y-49809000D02*
G75*
G02*
X48040713Y-49809000I181750J0D01*
G01*
X48040713Y-50709000D02*
G75*
G02*
X47677213Y-50709000I-181750J0D01*
G01*
X47677213Y-50709000D02*
G75*
G02*
X48040713Y-50709000I181750J0D01*
G01*
X48040713Y-51609000D02*
G75*
G02*
X47677213Y-51609000I-181750J0D01*
G01*
X47677213Y-51609000D02*
G75*
G02*
X48040713Y-51609000I181750J0D01*
G01*
%TD*%
D12*
%TO.C,J4*%
X64008000Y-116600000D03*
D13*
X58928000Y-116600000D03*
%TD*%
D14*
%TO.C,U2*%
X80666318Y-76155682D03*
X80666318Y-74505682D03*
X79016318Y-74505682D03*
X77366318Y-74505682D03*
X77366318Y-76155682D03*
X77366318Y-77805682D03*
X79016318Y-77805682D03*
X80666318Y-77805682D03*
D15*
X86016318Y-69155682D03*
X72016318Y-69155682D03*
X72016318Y-83155682D03*
X86016318Y-83155682D03*
D14*
X79016318Y-76155682D03*
D16*
X86016318Y-82105682D03*
X86016318Y-81255682D03*
X86016318Y-80405682D03*
X86016318Y-79555682D03*
X86016318Y-78705682D03*
X86016318Y-77855682D03*
X86016318Y-77005682D03*
X86016318Y-76155682D03*
X86016318Y-75305682D03*
X86016318Y-74455682D03*
X86016318Y-73605682D03*
X86016318Y-72755682D03*
X86016318Y-71905682D03*
X86016318Y-71055682D03*
X86016318Y-70205682D03*
D17*
X84966318Y-69155682D03*
X84116318Y-69155682D03*
X83266318Y-69155682D03*
X82416318Y-69155682D03*
X81566318Y-69155682D03*
X80716318Y-69155682D03*
X79866318Y-69155682D03*
X79016318Y-69155682D03*
X78166318Y-69155682D03*
X77316318Y-69155682D03*
X76466318Y-69155682D03*
X75616318Y-69155682D03*
X74766318Y-69155682D03*
X73916318Y-69155682D03*
X73066318Y-69155682D03*
D16*
X72016318Y-70205682D03*
X72016318Y-71055682D03*
X72016318Y-71905682D03*
X72016318Y-72755682D03*
X72016318Y-73605682D03*
X72016318Y-74455682D03*
X72016318Y-75305682D03*
X72016318Y-76155682D03*
X72016318Y-77005682D03*
X72016318Y-77855682D03*
X72016318Y-78705682D03*
X72016318Y-79555682D03*
X72016318Y-80405682D03*
X72016318Y-81255682D03*
X72016318Y-82105682D03*
D17*
X73066318Y-83155682D03*
X73916318Y-83155682D03*
X74766318Y-83155682D03*
X75616318Y-83155682D03*
X76466318Y-83155682D03*
X77316318Y-83155682D03*
X78166318Y-83155682D03*
X79016318Y-83155682D03*
X79866318Y-83155682D03*
X80716318Y-83155682D03*
X81566318Y-83155682D03*
X82416318Y-83155682D03*
X83266318Y-83155682D03*
X84116318Y-83155682D03*
X84966318Y-83155682D03*
%TD*%
D18*
%TO.C,H2*%
X80297056Y-63000000D03*
X81000000Y-61302944D03*
X81000000Y-64697056D03*
X82697056Y-60600000D03*
D19*
X82697056Y-63000000D03*
D18*
X82697056Y-65400000D03*
X84394112Y-61302944D03*
X84394112Y-64697056D03*
X85097056Y-63000000D03*
%TD*%
D20*
%TO.C,J9*%
X44500000Y-117000000D03*
D21*
X47000000Y-117000000D03*
X49500000Y-117000000D03*
X52000000Y-117000000D03*
%TD*%
D22*
%TO.C,J7*%
X56039318Y-43548682D03*
D23*
X56039318Y-45548682D03*
X56039318Y-47548682D03*
%TD*%
D18*
%TO.C,H4*%
X84600000Y-103000000D03*
X85302944Y-101302944D03*
X85302944Y-104697056D03*
X87000000Y-100600000D03*
D19*
X87000000Y-103000000D03*
D18*
X87000000Y-105400000D03*
X88697056Y-101302944D03*
X88697056Y-104697056D03*
X89400000Y-103000000D03*
%TD*%
D24*
%TO.C,J12*%
X78000000Y-109000000D03*
D25*
X80000000Y-109000000D03*
X82000000Y-109000000D03*
X84000000Y-109000000D03*
X86000000Y-109000000D03*
X88000000Y-109000000D03*
%TD*%
D26*
%TO.C,J1*%
X69810000Y-74000000D03*
D27*
X67270000Y-74000000D03*
X64730000Y-74000000D03*
X62190000Y-74000000D03*
%TD*%
D28*
%TO.C,J8*%
X48898963Y-46259000D03*
X46038963Y-46259000D03*
X48898963Y-51059000D03*
X46038963Y-51059000D03*
%TD*%
D26*
%TO.C,J14*%
X83540000Y-95000000D03*
D27*
X81000000Y-95000000D03*
X78460000Y-95000000D03*
%TD*%
D18*
%TO.C,H1*%
X46600000Y-63000000D03*
X47302944Y-61302944D03*
X47302944Y-64697056D03*
X49000000Y-60600000D03*
D19*
X49000000Y-63000000D03*
D18*
X49000000Y-65400000D03*
X50697056Y-61302944D03*
X50697056Y-64697056D03*
X51400000Y-63000000D03*
%TD*%
D26*
%TO.C,J10*%
X58380000Y-86000000D03*
D27*
X60920000Y-86000000D03*
X63460000Y-86000000D03*
X66000000Y-86000000D03*
X68540000Y-86000000D03*
X71080000Y-86000000D03*
X73620000Y-86000000D03*
%TD*%
D20*
%TO.C,J3*%
X80000000Y-117000000D03*
D21*
X82500000Y-117000000D03*
X85000000Y-117000000D03*
X87500000Y-117000000D03*
%TD*%
D29*
%TO.C,J6*%
X59944000Y-108458000D03*
D30*
X62444000Y-108458000D03*
%TD*%
D31*
%TO.C,SW4*%
X42577318Y-43000000D03*
X42577318Y-57503500D03*
%TD*%
D26*
%TO.C,J5*%
X75692000Y-62611000D03*
D27*
X73152000Y-62611000D03*
X70612000Y-62611000D03*
X68072000Y-62611000D03*
X65532000Y-62611000D03*
%TD*%
D26*
%TO.C,J2*%
X48460000Y-95000000D03*
D27*
X51000000Y-95000000D03*
X53540000Y-95000000D03*
%TD*%
D32*
%TO.C,C18*%
X72000000Y-113500000D03*
D33*
X72000000Y-118500000D03*
%TD*%
D18*
%TO.C,H3*%
X42600000Y-103000000D03*
X43302944Y-101302944D03*
X43302944Y-104697056D03*
X45000000Y-100600000D03*
D19*
X45000000Y-103000000D03*
D18*
X45000000Y-105400000D03*
X46697056Y-101302944D03*
X46697056Y-104697056D03*
X47400000Y-103000000D03*
%TD*%
D24*
%TO.C,J11*%
X44000000Y-109000000D03*
D25*
X46000000Y-109000000D03*
X48000000Y-109000000D03*
X50000000Y-109000000D03*
X52000000Y-109000000D03*
X54000000Y-109000000D03*
%TD*%
D34*
%TO.C,SW3*%
X70231000Y-57785000D03*
D30*
X67731000Y-57785000D03*
%TD*%
D35*
%TO.C,C2*%
X70949000Y-107650000D03*
X70949000Y-109725000D03*
%TD*%
D36*
%TO.C,Q3*%
X58682000Y-54135000D03*
X55682000Y-55085000D03*
X55682000Y-53185000D03*
%TD*%
D37*
%TO.C,R4*%
X52682000Y-55135000D03*
X52682000Y-53135000D03*
%TD*%
D38*
%TO.C,R17*%
X75000000Y-49022000D03*
X73000000Y-49022000D03*
%TD*%
D39*
%TO.C,SW5*%
X83100000Y-45016682D03*
X87600000Y-45016682D03*
D40*
X81050000Y-47316682D03*
X89650000Y-47316682D03*
X81050000Y-42716682D03*
X89650000Y-42716682D03*
%TD*%
D41*
%TO.C,U1*%
X70084000Y-100678500D03*
X70734000Y-100678500D03*
X71384000Y-100678500D03*
X72034000Y-100678500D03*
D42*
X72921500Y-101566000D03*
X72921500Y-102216000D03*
X72921500Y-102866000D03*
X72921500Y-103516000D03*
D41*
X72034000Y-104403500D03*
X71384000Y-104403500D03*
X70734000Y-104403500D03*
X70084000Y-104403500D03*
D42*
X69196500Y-103516000D03*
X69196500Y-102866000D03*
X69196500Y-102216000D03*
X69196500Y-101566000D03*
D43*
X71059000Y-102541000D03*
%TD*%
D44*
%TO.C,C11*%
X54282818Y-68281682D03*
X52207818Y-68281682D03*
%TD*%
D45*
%TO.C,C3*%
X73472000Y-109725000D03*
X73472000Y-107650000D03*
%TD*%
D38*
%TO.C,R6*%
X74996000Y-98439000D03*
X72996000Y-98439000D03*
%TD*%
D35*
%TO.C,C9*%
X65310318Y-64936682D03*
X65310318Y-67011682D03*
%TD*%
D46*
%TO.C,SW2*%
X72600000Y-45591000D03*
D47*
X75100000Y-45591000D03*
X77600000Y-45591000D03*
X77600000Y-42291000D03*
X75100000Y-42291000D03*
X72600000Y-42291000D03*
%TD*%
D48*
%TO.C,D4*%
X42564000Y-89240000D03*
X44614000Y-89240000D03*
%TD*%
D38*
%TO.C,R7*%
X54009000Y-89676000D03*
X52009000Y-89676000D03*
%TD*%
D49*
%TO.C,R2*%
X67977318Y-96237682D03*
X67977318Y-98237682D03*
%TD*%
D50*
%TO.C,SW1*%
X83272000Y-57000000D03*
X89072000Y-57000000D03*
X83272000Y-53000000D03*
X89072000Y-53000000D03*
%TD*%
D38*
%TO.C,R16*%
X79000000Y-49022000D03*
X77000000Y-49022000D03*
%TD*%
D51*
%TO.C,Q1*%
X52922000Y-100726000D03*
D52*
X59222000Y-98446000D03*
X59222000Y-103006000D03*
%TD*%
D53*
%TO.C,R3*%
X53182000Y-50635000D03*
X55182000Y-50635000D03*
%TD*%
%TO.C,R11*%
X46802000Y-89240000D03*
X48802000Y-89240000D03*
%TD*%
%TO.C,R14*%
X82614318Y-50165000D03*
X84614318Y-50165000D03*
%TD*%
D54*
%TO.C,D8*%
X51830000Y-46835000D03*
X51830000Y-43335000D03*
X53580000Y-43335000D03*
X53580000Y-46835000D03*
%TD*%
D55*
%TO.C,F1*%
X66157000Y-53848000D03*
X72527000Y-53848000D03*
%TD*%
D53*
%TO.C,R1*%
X67564000Y-66040000D03*
X69564000Y-66040000D03*
%TD*%
D56*
%TO.C,Q2*%
X63500000Y-78000000D03*
X66500000Y-77050000D03*
X66500000Y-78950000D03*
%TD*%
D44*
%TO.C,C12*%
X46249500Y-68326000D03*
X44174500Y-68326000D03*
%TD*%
D49*
%TO.C,R12*%
X46207963Y-53989000D03*
X46207963Y-55989000D03*
%TD*%
D57*
%TO.C,C4*%
X81049000Y-90057000D03*
X83124000Y-90057000D03*
%TD*%
D58*
%TO.C,U4*%
X56702000Y-72766000D03*
D59*
X47552000Y-75306000D03*
D58*
X56702000Y-77846000D03*
%TD*%
D57*
%TO.C,C5*%
X87100500Y-50165000D03*
X89175500Y-50165000D03*
%TD*%
D53*
%TO.C,R8*%
X52041000Y-87390000D03*
X54041000Y-87390000D03*
%TD*%
D60*
%TO.C,D1*%
X54900000Y-57545000D03*
X53025000Y-57545000D03*
%TD*%
D35*
%TO.C,C7*%
X80330000Y-52733943D03*
X80330000Y-54808943D03*
%TD*%
D57*
%TO.C,C25*%
X81070500Y-87555000D03*
X83145500Y-87555000D03*
%TD*%
D49*
%TO.C,R13*%
X48874963Y-53989000D03*
X48874963Y-55989000D03*
%TD*%
D48*
%TO.C,D2*%
X42564000Y-83652000D03*
X44614000Y-83652000D03*
%TD*%
D53*
%TO.C,R10*%
X46786000Y-86446000D03*
X48786000Y-86446000D03*
%TD*%
D57*
%TO.C,C6*%
X75692000Y-65024000D03*
X77767000Y-65024000D03*
%TD*%
D48*
%TO.C,D3*%
X42564000Y-86446000D03*
X44614000Y-86446000D03*
%TD*%
D61*
%TO.C,U3*%
X57964000Y-61913000D03*
X60264000Y-61913000D03*
D62*
X60264000Y-68213000D03*
D61*
X62564000Y-61913000D03*
%TD*%
D44*
%TO.C,C10*%
X60264000Y-59323000D03*
X58189000Y-59323000D03*
%TD*%
D49*
%TO.C,R5*%
X56708000Y-93500000D03*
X56708000Y-95500000D03*
%TD*%
D53*
%TO.C,R9*%
X46786000Y-83652000D03*
X48786000Y-83652000D03*
%TD*%
D45*
%TO.C,C1*%
X68392000Y-109725000D03*
X68392000Y-107650000D03*
%TD*%
D63*
%TO.C,D5*%
X59248000Y-95650000D03*
X59248000Y-92350000D03*
%TD*%
M02*
