%TF.GenerationSoftware,KiCad,Pcbnew,9.0.4*%
%TF.CreationDate,2025-08-24T10:42:23+02:00*%
%TF.ProjectId,pami_2026,70616d69-5f32-4303-9236-2e6b69636164,rev?*%
%TF.SameCoordinates,Original*%
%TF.FileFunction,Soldermask,Bot*%
%TF.FilePolarity,Negative*%
%FSLAX46Y46*%
G04 Gerber Fmt 4.6, Leading zero omitted, Abs format (unit mm)*
G04 Created by KiCad (PCBNEW 9.0.4) date 2025-08-24 10:42:23*
%MOMM*%
%LPD*%
G01*
G04 APERTURE LIST*
G04 Aperture macros list*
%AMRoundRect*
0 Rectangle with rounded corners*
0 $1 Rounding radius*
0 $2 $3 $4 $5 $6 $7 $8 $9 X,Y pos of 4 corners*
0 Add a 4 corners polygon primitive as box body*
4,1,4,$2,$3,$4,$5,$6,$7,$8,$9,$2,$3,0*
0 Add four circle primitives for the rounded corners*
1,1,$1+$1,$2,$3*
1,1,$1+$1,$4,$5*
1,1,$1+$1,$6,$7*
1,1,$1+$1,$8,$9*
0 Add four rect primitives between the rounded corners*
20,1,$1+$1,$2,$3,$4,$5,0*
20,1,$1+$1,$4,$5,$6,$7,0*
20,1,$1+$1,$6,$7,$8,$9,0*
20,1,$1+$1,$8,$9,$2,$3,0*%
%AMOutline5P*
0 Free polygon, 5 corners , with rotation*
0 The origin of the aperture is its center*
0 number of corners: always 5*
0 $1 to $10 corner X, Y*
0 $11 Rotation angle, in degrees counterclockwise*
0 create outline with 5 corners*
4,1,5,$1,$2,$3,$4,$5,$6,$7,$8,$9,$10,$1,$2,$11*%
%AMOutline6P*
0 Free polygon, 6 corners , with rotation*
0 The origin of the aperture is its center*
0 number of corners: always 6*
0 $1 to $12 corner X, Y*
0 $13 Rotation angle, in degrees counterclockwise*
0 create outline with 6 corners*
4,1,6,$1,$2,$3,$4,$5,$6,$7,$8,$9,$10,$11,$12,$1,$2,$13*%
%AMOutline7P*
0 Free polygon, 7 corners , with rotation*
0 The origin of the aperture is its center*
0 number of corners: always 7*
0 $1 to $14 corner X, Y*
0 $15 Rotation angle, in degrees counterclockwise*
0 create outline with 7 corners*
4,1,7,$1,$2,$3,$4,$5,$6,$7,$8,$9,$10,$11,$12,$13,$14,$1,$2,$15*%
%AMOutline8P*
0 Free polygon, 8 corners , with rotation*
0 The origin of the aperture is its center*
0 number of corners: always 8*
0 $1 to $16 corner X, Y*
0 $17 Rotation angle, in degrees counterclockwise*
0 create outline with 8 corners*
4,1,8,$1,$2,$3,$4,$5,$6,$7,$8,$9,$10,$11,$12,$13,$14,$15,$16,$1,$2,$17*%
G04 Aperture macros list end*
%ADD10R,0.800000X0.800000*%
%ADD11R,1.200000X1.200000*%
%ADD12Outline5P,-0.600000X0.600000X0.600000X0.600000X0.600000X-0.600000X-0.204000X-0.600000X-0.600000X-0.204000X90.000000*%
%ADD13R,0.800000X0.400000*%
%ADD14R,0.400000X0.800000*%
%ADD15O,1.200000X1.750000*%
%ADD16RoundRect,0.250000X-0.350000X-0.625000X0.350000X-0.625000X0.350000X0.625000X-0.350000X0.625000X0*%
%ADD17RoundRect,0.250000X0.850000X0.350000X-0.850000X0.350000X-0.850000X-0.350000X0.850000X-0.350000X0*%
%ADD18RoundRect,0.249997X2.950003X2.650003X-2.950003X2.650003X-2.950003X-2.650003X2.950003X-2.650003X0*%
%ADD19RoundRect,0.250000X-0.450000X0.350000X-0.450000X-0.350000X0.450000X-0.350000X0.450000X0.350000X0*%
%ADD20C,0.650000*%
%ADD21O,1.000000X2.100000*%
%ADD22O,1.000000X1.800000*%
%ADD23RoundRect,0.250000X-0.337500X-0.475000X0.337500X-0.475000X0.337500X0.475000X-0.337500X0.475000X0*%
%ADD24RoundRect,0.250000X-0.350000X-0.450000X0.350000X-0.450000X0.350000X0.450000X-0.350000X0.450000X0*%
%ADD25RoundRect,0.250000X0.350000X0.450000X-0.350000X0.450000X-0.350000X-0.450000X0.350000X-0.450000X0*%
%ADD26RoundRect,0.250000X0.475000X-0.337500X0.475000X0.337500X-0.475000X0.337500X-0.475000X-0.337500X0*%
%ADD27RoundRect,0.250000X-0.475000X0.337500X-0.475000X-0.337500X0.475000X-0.337500X0.475000X0.337500X0*%
%ADD28C,0.800000*%
%ADD29C,6.400000*%
%ADD30RoundRect,0.250000X-0.600000X-0.725000X0.600000X-0.725000X0.600000X0.725000X-0.600000X0.725000X0*%
%ADD31O,1.700000X1.950000*%
%ADD32RoundRect,0.250000X0.350000X0.625000X-0.350000X0.625000X-0.350000X-0.625000X0.350000X-0.625000X0*%
%ADD33R,3.000000X3.000000*%
%ADD34C,3.000000*%
%ADD35RoundRect,0.250000X-0.600000X-0.750000X0.600000X-0.750000X0.600000X0.750000X-0.600000X0.750000X0*%
%ADD36O,1.700000X2.000000*%
%ADD37C,2.100000*%
%ADD38C,1.750000*%
%ADD39R,1.700000X1.700000*%
%ADD40C,1.700000*%
%ADD41R,3.810000X4.240000*%
%ADD42R,2.000000X2.591000*%
%ADD43RoundRect,0.200000X-0.750000X-0.200000X0.750000X-0.200000X0.750000X0.200000X-0.750000X0.200000X0*%
%ADD44RoundRect,0.250000X0.450000X-0.350000X0.450000X0.350000X-0.450000X0.350000X-0.450000X-0.350000X0*%
%ADD45RoundRect,0.087500X-0.087500X0.425000X-0.087500X-0.425000X0.087500X-0.425000X0.087500X0.425000X0*%
%ADD46RoundRect,0.087500X-0.425000X0.087500X-0.425000X-0.087500X0.425000X-0.087500X0.425000X0.087500X0*%
%ADD47R,2.100000X2.100000*%
%ADD48RoundRect,0.250000X0.337500X0.475000X-0.337500X0.475000X-0.337500X-0.475000X0.337500X-0.475000X0*%
%ADD49RoundRect,0.250000X-0.325000X-0.450000X0.325000X-0.450000X0.325000X0.450000X-0.325000X0.450000X0*%
%ADD50R,0.850000X1.600000*%
%ADD51RoundRect,0.200000X0.750000X0.200000X-0.750000X0.200000X-0.750000X-0.200000X0.750000X-0.200000X0*%
%ADD52RoundRect,0.250000X2.050000X0.300000X-2.050000X0.300000X-2.050000X-0.300000X2.050000X-0.300000X0*%
%ADD53RoundRect,0.250002X4.449998X5.149998X-4.449998X5.149998X-4.449998X-5.149998X4.449998X-5.149998X0*%
%ADD54RoundRect,0.250000X-0.550000X0.550000X-0.550000X-0.550000X0.550000X-0.550000X0.550000X0.550000X0*%
%ADD55C,1.600000*%
%ADD56RoundRect,0.375000X-0.375000X0.625000X-0.375000X-0.625000X0.375000X-0.625000X0.375000X0.625000X0*%
%ADD57RoundRect,0.500000X-1.400000X0.500000X-1.400000X-0.500000X1.400000X-0.500000X1.400000X0.500000X0*%
%ADD58RoundRect,0.225000X0.375000X-0.225000X0.375000X0.225000X-0.375000X0.225000X-0.375000X-0.225000X0*%
G04 APERTURE END LIST*
D10*
%TO.C,U2*%
X233000000Y-54000000D03*
X219000000Y-54000000D03*
X219000000Y-68000000D03*
X233000000Y-68000000D03*
D11*
X227650000Y-59350000D03*
X226000000Y-59350000D03*
X224350000Y-59350000D03*
X227650000Y-61000000D03*
X226000000Y-61000000D03*
X224350000Y-61000000D03*
D12*
X227650000Y-62650000D03*
D11*
X226000000Y-62650000D03*
X224350000Y-62650000D03*
D13*
X233000000Y-66950000D03*
X233000000Y-66100000D03*
X233000000Y-65250000D03*
X233000000Y-64400000D03*
X233000000Y-63550000D03*
X233000000Y-62700000D03*
X233000000Y-61850000D03*
X233000000Y-61000000D03*
X233000000Y-60150000D03*
X233000000Y-59300000D03*
X233000000Y-58450000D03*
X233000000Y-57600000D03*
X233000000Y-56750000D03*
X233000000Y-55900000D03*
X233000000Y-55050000D03*
D14*
X231950000Y-54000000D03*
X231100000Y-54000000D03*
X230250000Y-54000000D03*
X229400000Y-54000000D03*
X228550000Y-54000000D03*
X227700000Y-54000000D03*
X226850000Y-54000000D03*
X226000000Y-54000000D03*
X225150000Y-54000000D03*
X224300000Y-54000000D03*
X223450000Y-54000000D03*
X222600000Y-54000000D03*
X221750000Y-54000000D03*
X220900000Y-54000000D03*
X220050000Y-54000000D03*
D13*
X219000000Y-55050000D03*
X219000000Y-55900000D03*
X219000000Y-56750000D03*
X219000000Y-57600000D03*
X219000000Y-58450000D03*
X219000000Y-59300000D03*
X219000000Y-60150000D03*
X219000000Y-61000000D03*
X219000000Y-61850000D03*
X219000000Y-62700000D03*
X219000000Y-63550000D03*
X219000000Y-64400000D03*
X219000000Y-65250000D03*
X219000000Y-66100000D03*
X219000000Y-66950000D03*
D14*
X220050000Y-68000000D03*
X220900000Y-68000000D03*
X221750000Y-68000000D03*
X222600000Y-68000000D03*
X223450000Y-68000000D03*
X224300000Y-68000000D03*
X225150000Y-68000000D03*
X226000000Y-68000000D03*
X226850000Y-68000000D03*
X227700000Y-68000000D03*
X228550000Y-68000000D03*
X229400000Y-68000000D03*
X230250000Y-68000000D03*
X231100000Y-68000000D03*
X231950000Y-68000000D03*
%TD*%
D15*
%TO.C,J11*%
X201000000Y-94000000D03*
X199000000Y-94000000D03*
X197000000Y-94000000D03*
X195000000Y-94000000D03*
X193000000Y-94000000D03*
D16*
X191000000Y-94000000D03*
%TD*%
D17*
%TO.C,Q1*%
X206222000Y-88006000D03*
X206222000Y-83446000D03*
D18*
X199922000Y-85726000D03*
%TD*%
D19*
%TO.C,R13*%
X205486000Y-37592000D03*
X205486000Y-39592000D03*
%TD*%
%TO.C,R12*%
X202946000Y-37608000D03*
X202946000Y-39608000D03*
%TD*%
D20*
%TO.C,J8*%
X204710000Y-32405000D03*
X198930000Y-32405000D03*
D21*
X206140000Y-32905000D03*
D22*
X206140000Y-28725000D03*
D21*
X197500000Y-32905000D03*
D22*
X197500000Y-28725000D03*
%TD*%
D23*
%TO.C,C24*%
X227584000Y-75565000D03*
X229659000Y-75565000D03*
%TD*%
D15*
%TO.C,J12*%
X235000000Y-94000000D03*
X233000000Y-94000000D03*
X231000000Y-94000000D03*
X229000000Y-94000000D03*
X227000000Y-94000000D03*
D16*
X225000000Y-94000000D03*
%TD*%
D24*
%TO.C,R8*%
X199041000Y-72390000D03*
X201041000Y-72390000D03*
%TD*%
D25*
%TO.C,R7*%
X201009000Y-74676000D03*
X199009000Y-74676000D03*
%TD*%
%TO.C,R6*%
X221996000Y-83439000D03*
X219996000Y-83439000D03*
%TD*%
D24*
%TO.C,R2*%
X214011000Y-83439000D03*
X216011000Y-83439000D03*
%TD*%
D26*
%TO.C,C3*%
X220235000Y-94725000D03*
X220235000Y-92650000D03*
%TD*%
D27*
%TO.C,C2*%
X217949000Y-92650000D03*
X217949000Y-94725000D03*
%TD*%
D26*
%TO.C,C1*%
X215663000Y-94725000D03*
X215663000Y-92650000D03*
%TD*%
D28*
%TO.C,H2*%
X227297056Y-48000000D03*
X228000000Y-46302944D03*
X228000000Y-49697056D03*
X229697056Y-45600000D03*
D29*
X229697056Y-48000000D03*
D28*
X229697056Y-50400000D03*
X231394112Y-46302944D03*
X231394112Y-49697056D03*
X232097056Y-48000000D03*
%TD*%
D30*
%TO.C,J9*%
X191500000Y-102000000D03*
D31*
X194000000Y-102000000D03*
X196500000Y-102000000D03*
X199000000Y-102000000D03*
%TD*%
D32*
%TO.C,J7*%
X197834000Y-41444000D03*
D15*
X195834000Y-41444000D03*
X193834000Y-41444000D03*
%TD*%
D33*
%TO.C,J4*%
X210947000Y-101600000D03*
D34*
X205867000Y-101600000D03*
%TD*%
D28*
%TO.C,H4*%
X231600000Y-88000000D03*
X232302944Y-86302944D03*
X232302944Y-89697056D03*
X234000000Y-85600000D03*
D29*
X234000000Y-88000000D03*
D28*
X234000000Y-90400000D03*
X235697056Y-86302944D03*
X235697056Y-89697056D03*
X236400000Y-88000000D03*
%TD*%
D35*
%TO.C,SW2*%
X221000000Y-27712500D03*
D36*
X223500000Y-27712500D03*
%TD*%
D37*
%TO.C,SW1*%
X228475000Y-30202500D03*
X235485000Y-30202500D03*
D38*
X229725000Y-27712500D03*
X234225000Y-27712500D03*
%TD*%
D39*
%TO.C,J1*%
X216810000Y-59000000D03*
D40*
X214270000Y-59000000D03*
X211730000Y-59000000D03*
X209190000Y-59000000D03*
%TD*%
D41*
%TO.C,F1*%
X217000000Y-38000000D03*
X217000000Y-44370000D03*
%TD*%
D39*
%TO.C,J14*%
X230540000Y-80000000D03*
D40*
X228000000Y-80000000D03*
X225460000Y-80000000D03*
%TD*%
D28*
%TO.C,H1*%
X193600000Y-48000000D03*
X194302944Y-46302944D03*
X194302944Y-49697056D03*
X196000000Y-45600000D03*
D29*
X196000000Y-48000000D03*
D28*
X196000000Y-50400000D03*
X197697056Y-46302944D03*
X197697056Y-49697056D03*
X198400000Y-48000000D03*
%TD*%
D39*
%TO.C,J10*%
X205380000Y-71000000D03*
D40*
X207920000Y-71000000D03*
X210460000Y-71000000D03*
X213000000Y-71000000D03*
X215540000Y-71000000D03*
X218080000Y-71000000D03*
X220620000Y-71000000D03*
%TD*%
D30*
%TO.C,J3*%
X227000000Y-102000000D03*
D31*
X229500000Y-102000000D03*
X232000000Y-102000000D03*
X234500000Y-102000000D03*
%TD*%
D42*
%TO.C,SW4*%
X189357000Y-28000000D03*
X189357000Y-42503500D03*
%TD*%
D39*
%TO.C,J2*%
X195460000Y-80000000D03*
D40*
X198000000Y-80000000D03*
X200540000Y-80000000D03*
%TD*%
D28*
%TO.C,H3*%
X189600000Y-88000000D03*
X190302944Y-86302944D03*
X190302944Y-89697056D03*
X192000000Y-85600000D03*
D29*
X192000000Y-88000000D03*
D28*
X192000000Y-90400000D03*
X193697056Y-86302944D03*
X193697056Y-89697056D03*
X194400000Y-88000000D03*
%TD*%
D43*
%TO.C,Q3*%
X198500000Y-38000000D03*
X195500000Y-38950000D03*
X195500000Y-37050000D03*
%TD*%
D44*
%TO.C,R4*%
X192500000Y-39000000D03*
X192500000Y-37000000D03*
%TD*%
D19*
%TO.C,R17*%
X219202000Y-47784000D03*
X219202000Y-49784000D03*
%TD*%
D45*
%TO.C,U1*%
X217084000Y-85678500D03*
X217734000Y-85678500D03*
X218384000Y-85678500D03*
X219034000Y-85678500D03*
D46*
X219921500Y-86566000D03*
X219921500Y-87216000D03*
X219921500Y-87866000D03*
X219921500Y-88516000D03*
D45*
X219034000Y-89403500D03*
X218384000Y-89403500D03*
X217734000Y-89403500D03*
X217084000Y-89403500D03*
D46*
X216196500Y-88516000D03*
X216196500Y-87866000D03*
X216196500Y-87216000D03*
X216196500Y-86566000D03*
D47*
X218059000Y-87541000D03*
%TD*%
D48*
%TO.C,C11*%
X200787000Y-53340000D03*
X198712000Y-53340000D03*
%TD*%
D27*
%TO.C,C9*%
X212518000Y-45947000D03*
X212518000Y-48022000D03*
%TD*%
D49*
%TO.C,D4*%
X191614000Y-74240000D03*
X189564000Y-74240000D03*
%TD*%
D19*
%TO.C,R16*%
X217202000Y-47784000D03*
X217202000Y-49784000D03*
%TD*%
D24*
%TO.C,R3*%
X193000000Y-34500000D03*
X195000000Y-34500000D03*
%TD*%
%TO.C,R11*%
X195802000Y-74240000D03*
X193802000Y-74240000D03*
%TD*%
D50*
%TO.C,D8*%
X193125000Y-27750000D03*
X194875000Y-27750000D03*
X194875000Y-31250000D03*
X193125000Y-31250000D03*
%TD*%
D24*
%TO.C,R1*%
X229000000Y-34000000D03*
X231000000Y-34000000D03*
%TD*%
D51*
%TO.C,Q2*%
X210500000Y-63000000D03*
X213500000Y-62050000D03*
X213500000Y-63950000D03*
%TD*%
D48*
%TO.C,C12*%
X193400000Y-52018000D03*
X191325000Y-52018000D03*
%TD*%
D52*
%TO.C,U4*%
X203702000Y-57766000D03*
D53*
X194552000Y-60306000D03*
D52*
X203702000Y-62846000D03*
%TD*%
D54*
%TO.C,C18*%
X219000000Y-98500000D03*
D55*
X219000000Y-103500000D03*
%TD*%
D23*
%TO.C,C25*%
X227584000Y-72555000D03*
X229659000Y-72555000D03*
%TD*%
D49*
%TO.C,D2*%
X191614000Y-68652000D03*
X189564000Y-68652000D03*
%TD*%
D24*
%TO.C,R10*%
X195786000Y-71446000D03*
X193786000Y-71446000D03*
%TD*%
D49*
%TO.C,D3*%
X191614000Y-71446000D03*
X189564000Y-71446000D03*
%TD*%
D56*
%TO.C,U3*%
X205218000Y-45872000D03*
X207518000Y-45872000D03*
D57*
X207518000Y-52172000D03*
D56*
X209818000Y-45872000D03*
%TD*%
D48*
%TO.C,C10*%
X207264000Y-43022000D03*
X205189000Y-43022000D03*
%TD*%
D19*
%TO.C,R5*%
X203708000Y-78500000D03*
X203708000Y-80500000D03*
%TD*%
D24*
%TO.C,R9*%
X195786000Y-68652000D03*
X193786000Y-68652000D03*
%TD*%
D33*
%TO.C,SW3*%
X215265000Y-30500000D03*
D34*
X210185000Y-30500000D03*
%TD*%
D58*
%TO.C,D5*%
X206248000Y-80650000D03*
X206248000Y-77350000D03*
%TD*%
M02*
