%TF.GenerationSoftware,KiCad,Pcbnew,9.0.4*%
%TF.CreationDate,2025-10-03T16:52:29+02:00*%
%TF.ProjectId,pami_2026,70616d69-5f32-4303-9236-2e6b69636164,rev?*%
%TF.SameCoordinates,Original*%
%TF.FileFunction,Copper,L2,Inr*%
%TF.FilePolarity,Positive*%
%FSLAX46Y46*%
G04 Gerber Fmt 4.6, Leading zero omitted, Abs format (unit mm)*
G04 Created by KiCad (PCBNEW 9.0.4) date 2025-10-03 16:52:29*
%MOMM*%
%LPD*%
G01*
G04 APERTURE LIST*
G04 Aperture macros list*
%AMRoundRect*
0 Rectangle with rounded corners*
0 $1 Rounding radius*
0 $2 $3 $4 $5 $6 $7 $8 $9 X,Y pos of 4 corners*
0 Add a 4 corners polygon primitive as box body*
4,1,4,$2,$3,$4,$5,$6,$7,$8,$9,$2,$3,0*
0 Add four circle primitives for the rounded corners*
1,1,$1+$1,$2,$3*
1,1,$1+$1,$4,$5*
1,1,$1+$1,$6,$7*
1,1,$1+$1,$8,$9*
0 Add four rect primitives between the rounded corners*
20,1,$1+$1,$2,$3,$4,$5,0*
20,1,$1+$1,$4,$5,$6,$7,0*
20,1,$1+$1,$6,$7,$8,$9,0*
20,1,$1+$1,$8,$9,$2,$3,0*%
G04 Aperture macros list end*
%TA.AperFunction,ComponentPad*%
%ADD10C,3.000000*%
%TD*%
%TA.AperFunction,ComponentPad*%
%ADD11R,3.000000X3.000000*%
%TD*%
%TA.AperFunction,ComponentPad*%
%ADD12C,0.800000*%
%TD*%
%TA.AperFunction,ComponentPad*%
%ADD13C,6.400000*%
%TD*%
%TA.AperFunction,ComponentPad*%
%ADD14RoundRect,0.250000X-0.600000X-0.725000X0.600000X-0.725000X0.600000X0.725000X-0.600000X0.725000X0*%
%TD*%
%TA.AperFunction,ComponentPad*%
%ADD15O,1.700000X1.950000*%
%TD*%
%TA.AperFunction,ComponentPad*%
%ADD16RoundRect,0.250000X-0.625000X0.350000X-0.625000X-0.350000X0.625000X-0.350000X0.625000X0.350000X0*%
%TD*%
%TA.AperFunction,ComponentPad*%
%ADD17O,1.750000X1.200000*%
%TD*%
%TA.AperFunction,ComponentPad*%
%ADD18RoundRect,0.250000X-0.350000X-0.625000X0.350000X-0.625000X0.350000X0.625000X-0.350000X0.625000X0*%
%TD*%
%TA.AperFunction,ComponentPad*%
%ADD19O,1.200000X1.750000*%
%TD*%
%TA.AperFunction,ComponentPad*%
%ADD20R,1.700000X1.700000*%
%TD*%
%TA.AperFunction,ComponentPad*%
%ADD21C,1.700000*%
%TD*%
%TA.AperFunction,ComponentPad*%
%ADD22C,0.600000*%
%TD*%
%TA.AperFunction,ComponentPad*%
%ADD23O,0.900000X1.900000*%
%TD*%
%TA.AperFunction,ComponentPad*%
%ADD24RoundRect,0.250000X-0.600000X-0.750000X0.600000X-0.750000X0.600000X0.750000X-0.600000X0.750000X0*%
%TD*%
%TA.AperFunction,ComponentPad*%
%ADD25O,1.700000X2.000000*%
%TD*%
%TA.AperFunction,ComponentPad*%
%ADD26R,2.000000X2.591000*%
%TD*%
%TA.AperFunction,ComponentPad*%
%ADD27RoundRect,0.250000X-0.550000X0.550000X-0.550000X-0.550000X0.550000X-0.550000X0.550000X0.550000X0*%
%TD*%
%TA.AperFunction,ComponentPad*%
%ADD28C,1.600000*%
%TD*%
%TA.AperFunction,ComponentPad*%
%ADD29RoundRect,0.250000X0.600000X0.750000X-0.600000X0.750000X-0.600000X-0.750000X0.600000X-0.750000X0*%
%TD*%
%TA.AperFunction,HeatsinkPad*%
%ADD30C,0.500000*%
%TD*%
%TA.AperFunction,ComponentPad*%
%ADD31RoundRect,0.250000X-0.450000X-0.450000X0.450000X-0.450000X0.450000X0.450000X-0.450000X0.450000X0*%
%TD*%
%TA.AperFunction,ComponentPad*%
%ADD32C,1.400000*%
%TD*%
%TA.AperFunction,ViaPad*%
%ADD33C,0.600000*%
%TD*%
%TA.AperFunction,ViaPad*%
%ADD34C,1.200000*%
%TD*%
%TA.AperFunction,Conductor*%
%ADD35C,1.600000*%
%TD*%
%TA.AperFunction,Conductor*%
%ADD36C,0.600000*%
%TD*%
%TA.AperFunction,Conductor*%
%ADD37C,1.000000*%
%TD*%
%TA.AperFunction,Conductor*%
%ADD38C,0.200000*%
%TD*%
G04 APERTURE END LIST*
D10*
%TO.N,Net-(J4-Pin_2)*%
%TO.C,J4*%
X64008000Y-116600000D03*
D11*
%TO.N,Net-(J4-Pin_1)*%
X58928000Y-116600000D03*
%TD*%
D12*
%TO.N,N/C*%
%TO.C,H2*%
X80297056Y-63000000D03*
X81000000Y-61302944D03*
X81000000Y-64697056D03*
X82697056Y-60600000D03*
D13*
X82697056Y-63000000D03*
D12*
X82697056Y-65400000D03*
X84394112Y-61302944D03*
X84394112Y-64697056D03*
X85097056Y-63000000D03*
%TD*%
D14*
%TO.N,+3.3V*%
%TO.C,J9*%
X44500000Y-117000000D03*
D15*
%TO.N,I2C_scl*%
X47000000Y-117000000D03*
%TO.N,I2C_sda*%
X49500000Y-117000000D03*
%TO.N,GND*%
X52000000Y-117000000D03*
%TD*%
D16*
%TO.N,+5V*%
%TO.C,J7*%
X56039318Y-43548682D03*
D17*
%TO.N,Net-(D8-DOUT)*%
X56039318Y-45548682D03*
%TO.N,GND*%
X56039318Y-47548682D03*
%TD*%
D12*
%TO.N,N/C*%
%TO.C,H4*%
X84600000Y-103000000D03*
X85302944Y-101302944D03*
X85302944Y-104697056D03*
X87000000Y-100600000D03*
D13*
X87000000Y-103000000D03*
D12*
X87000000Y-105400000D03*
X88697056Y-101302944D03*
X88697056Y-104697056D03*
X89400000Y-103000000D03*
%TD*%
D18*
%TO.N,Net-(J12-Pin_1)*%
%TO.C,J12*%
X78000000Y-109000000D03*
D19*
%TO.N,GND*%
X80000000Y-109000000D03*
%TO.N,motor_enc_b+*%
X82000000Y-109000000D03*
%TO.N,motor_enc_b-*%
X84000000Y-109000000D03*
%TO.N,+3.3V*%
X86000000Y-109000000D03*
%TO.N,Net-(J12-Pin_6)*%
X88000000Y-109000000D03*
%TD*%
D20*
%TO.N,Net-(J1-Pin_1)*%
%TO.C,J1*%
X69810000Y-74000000D03*
D21*
%TO.N,+3.3V*%
X67270000Y-74000000D03*
%TO.N,I2C_scl*%
X64730000Y-74000000D03*
%TO.N,I2C_sda*%
X62190000Y-74000000D03*
%TD*%
D22*
%TO.N,GND*%
%TO.C,J8*%
X47858963Y-46209000D03*
%TO.N,Net-(D1-A)*%
X47858963Y-47109000D03*
%TO.N,Net-(J8-CC1)*%
X47858963Y-48009000D03*
%TO.N,usb_d+*%
X47858963Y-48909000D03*
%TO.N,usb_d-*%
X47858963Y-49809000D03*
%TO.N,Net-(D1-A)*%
X47858963Y-50709000D03*
%TO.N,GND*%
X47858963Y-51609000D03*
X47078963Y-51159000D03*
%TO.N,Net-(D1-A)*%
X47078963Y-50259000D03*
%TO.N,Net-(J8-CC2)*%
X47078963Y-49359000D03*
%TO.N,usb_d+*%
X47078963Y-48459000D03*
%TO.N,usb_d-*%
X47078963Y-47559000D03*
%TO.N,Net-(D1-A)*%
X47078963Y-46659000D03*
%TO.N,GND*%
X47078963Y-45759000D03*
D23*
%TO.N,N/C*%
X48898963Y-46259000D03*
X46038963Y-46259000D03*
X48898963Y-51059000D03*
X46038963Y-51059000D03*
%TD*%
D20*
%TO.N,GND*%
%TO.C,J14*%
X83540000Y-95000000D03*
D21*
%TO.N,+5V*%
X81000000Y-95000000D03*
%TO.N,SERVO2*%
X78460000Y-95000000D03*
%TD*%
D12*
%TO.N,N/C*%
%TO.C,H1*%
X46600000Y-63000000D03*
X47302944Y-61302944D03*
X47302944Y-64697056D03*
X49000000Y-60600000D03*
D13*
X49000000Y-63000000D03*
D12*
X49000000Y-65400000D03*
X50697056Y-61302944D03*
X50697056Y-64697056D03*
X51400000Y-63000000D03*
%TD*%
D20*
%TO.N,tft_rst*%
%TO.C,J10*%
X58380000Y-86000000D03*
D21*
%TO.N,tft_cs*%
X60920000Y-86000000D03*
%TO.N,tft_dc*%
X63460000Y-86000000D03*
%TO.N,tft_scl*%
X66000000Y-86000000D03*
%TO.N,tft_sda*%
X68540000Y-86000000D03*
%TO.N,Net-(J1-Pin_1)*%
X71080000Y-86000000D03*
%TO.N,+3.3V*%
X73620000Y-86000000D03*
%TD*%
D14*
%TO.N,RX_lidar*%
%TO.C,J3*%
X80000000Y-117000000D03*
D15*
%TO.N,TX_lidar*%
X82500000Y-117000000D03*
%TO.N,+3.3V*%
X85000000Y-117000000D03*
%TO.N,GND*%
X87500000Y-117000000D03*
%TD*%
D24*
%TO.N,Net-(J4-Pin_1)*%
%TO.C,J6*%
X59944000Y-108458000D03*
D25*
%TO.N,Net-(J4-Pin_2)*%
X62444000Y-108458000D03*
%TD*%
D26*
%TO.N,GND*%
%TO.C,SW4*%
X42577318Y-43000000D03*
%TO.N,sw_tirette*%
X42577318Y-57503500D03*
%TD*%
D20*
%TO.N,GND*%
%TO.C,J5*%
X75692000Y-62611000D03*
D21*
%TO.N,EN*%
X73152000Y-62611000D03*
%TO.N,GPIO0*%
X70612000Y-62611000D03*
%TO.N,RX0*%
X68072000Y-62611000D03*
%TO.N,TX0*%
X65532000Y-62611000D03*
%TD*%
D20*
%TO.N,GND*%
%TO.C,J2*%
X48460000Y-95000000D03*
D21*
%TO.N,+5V*%
X51000000Y-95000000D03*
%TO.N,SERVO1*%
X53540000Y-95000000D03*
%TD*%
D27*
%TO.N,+BATT*%
%TO.C,C18*%
X72000000Y-113500000D03*
D28*
%TO.N,GND*%
X72000000Y-118500000D03*
%TD*%
D12*
%TO.N,N/C*%
%TO.C,H3*%
X42600000Y-103000000D03*
X43302944Y-101302944D03*
X43302944Y-104697056D03*
X45000000Y-100600000D03*
D13*
X45000000Y-103000000D03*
D12*
X45000000Y-105400000D03*
X46697056Y-101302944D03*
X46697056Y-104697056D03*
X47400000Y-103000000D03*
%TD*%
D18*
%TO.N,Net-(J11-Pin_1)*%
%TO.C,J11*%
X44000000Y-109000000D03*
D19*
%TO.N,GND*%
X46000000Y-109000000D03*
%TO.N,motor_enc_a+*%
X48000000Y-109000000D03*
%TO.N,motor_enc_a-*%
X50000000Y-109000000D03*
%TO.N,+3.3V*%
X52000000Y-109000000D03*
%TO.N,Net-(J11-Pin_6)*%
X54000000Y-109000000D03*
%TD*%
D29*
%TO.N,Net-(SW3-A)*%
%TO.C,SW3*%
X70231000Y-57785000D03*
D25*
%TO.N,Net-(J4-Pin_2)*%
X67731000Y-57785000D03*
%TD*%
D30*
%TO.N,GND*%
%TO.C,U1*%
X71859000Y-101741000D03*
X71059000Y-101741000D03*
X70259000Y-101741000D03*
X71859000Y-102541000D03*
X71059000Y-102541000D03*
X70259000Y-102541000D03*
X71859000Y-103341000D03*
X71059000Y-103341000D03*
X70259000Y-103341000D03*
%TD*%
D31*
%TO.N,sw_team*%
%TO.C,SW2*%
X72600000Y-45591000D03*
D32*
%TO.N,GND*%
X75100000Y-45591000D03*
%TO.N,N/C*%
X77600000Y-45591000D03*
X77600000Y-42291000D03*
X75100000Y-42291000D03*
X72600000Y-42291000D03*
%TD*%
D33*
%TO.N,Net-(J4-Pin_1)*%
X55851000Y-105000000D03*
%TO.N,GND*%
X89674042Y-119774000D03*
X89674042Y-118494000D03*
X89674042Y-117214000D03*
X89674042Y-115934000D03*
X89674042Y-114654000D03*
X89674042Y-113374000D03*
X89674042Y-112094000D03*
X89674042Y-110814000D03*
X89674042Y-109534000D03*
X89674042Y-108254000D03*
X89674042Y-106974000D03*
X89674042Y-99294000D03*
X89674042Y-54494000D03*
X89674042Y-45534000D03*
X89674042Y-44254000D03*
X88394042Y-119774000D03*
X88394042Y-114654000D03*
X88394042Y-113374000D03*
X88394042Y-112094000D03*
X88394042Y-110814000D03*
X88394042Y-54494000D03*
X87114042Y-119774000D03*
X87114042Y-114654000D03*
X87114042Y-113374000D03*
X87114042Y-54494000D03*
X87114042Y-42974000D03*
X85834042Y-119774000D03*
X85834042Y-45534000D03*
X85834042Y-44254000D03*
X85834042Y-42974000D03*
X84554042Y-119774000D03*
X84554042Y-78814000D03*
X84554042Y-77534000D03*
X84554042Y-76254000D03*
X84554042Y-74974000D03*
X84554042Y-73694000D03*
X84554042Y-72414000D03*
X84554042Y-71134000D03*
X84554042Y-58334000D03*
X84554042Y-54494000D03*
X84554042Y-44254000D03*
X84554042Y-42974000D03*
X83274042Y-119774000D03*
X83274042Y-113374000D03*
X83274042Y-112094000D03*
X83274042Y-110814000D03*
X83274042Y-96734000D03*
X83274042Y-92894000D03*
X83274042Y-91614000D03*
X83274042Y-77534000D03*
X83274042Y-76254000D03*
X83274042Y-74974000D03*
X83274042Y-73694000D03*
X83274042Y-72414000D03*
X83274042Y-71134000D03*
X83274042Y-58334000D03*
X83274042Y-54494000D03*
X83274042Y-48094000D03*
X83274042Y-42974000D03*
X81994042Y-119774000D03*
X81994042Y-112094000D03*
X81994042Y-110814000D03*
X81994042Y-92894000D03*
X81994042Y-91614000D03*
X81994042Y-72414000D03*
X81994042Y-58334000D03*
X81994042Y-54494000D03*
X80714042Y-119774000D03*
X80714042Y-110814000D03*
X80714042Y-58334000D03*
X80714042Y-57054000D03*
X80714042Y-45534000D03*
X80714042Y-44254000D03*
X79434042Y-119774000D03*
X79434042Y-106974000D03*
X79434042Y-96734000D03*
X79434042Y-46814000D03*
X79434042Y-45534000D03*
X79434042Y-44254000D03*
X79434042Y-42974000D03*
X78154042Y-119774000D03*
X78154042Y-118494000D03*
X78154042Y-117214000D03*
X78154042Y-113374000D03*
X78154042Y-96734000D03*
X76874042Y-119774000D03*
X76874042Y-118494000D03*
X76874042Y-117214000D03*
X76874042Y-113374000D03*
X76874042Y-112094000D03*
X75594042Y-119774000D03*
X75594042Y-118494000D03*
X75594042Y-117214000D03*
X75594042Y-113374000D03*
X75594042Y-112094000D03*
X75594042Y-110814000D03*
X75594042Y-55774000D03*
X75594042Y-54494000D03*
X75594042Y-53214000D03*
X74314042Y-119774000D03*
X74314042Y-118494000D03*
X74314042Y-117214000D03*
X74314042Y-113374000D03*
X74314042Y-112094000D03*
X74314042Y-50654000D03*
X73034042Y-64734000D03*
X70474042Y-119774000D03*
X70474042Y-89054000D03*
X70474042Y-87774000D03*
X69194042Y-119774000D03*
X69194042Y-113374000D03*
X69194042Y-90334000D03*
X69194042Y-89054000D03*
X69194042Y-87774000D03*
X69194042Y-53214000D03*
X67914042Y-114654000D03*
X67914042Y-113374000D03*
X67914042Y-112094000D03*
X67914042Y-91614000D03*
X67914042Y-90334000D03*
X67914042Y-89054000D03*
X67914042Y-87774000D03*
X66634042Y-115934000D03*
X66634042Y-114654000D03*
X66634042Y-113374000D03*
X66634042Y-112094000D03*
X66634042Y-110814000D03*
X66634042Y-92894000D03*
X66634042Y-91614000D03*
X66634042Y-90334000D03*
X66634042Y-89054000D03*
X66634042Y-87774000D03*
X65354042Y-94174000D03*
X65354042Y-92894000D03*
X65354042Y-91614000D03*
X65354042Y-90334000D03*
X65354042Y-89054000D03*
X65354042Y-87774000D03*
X65354042Y-68574000D03*
X65354042Y-58334000D03*
X64074042Y-95454000D03*
X64074042Y-94174000D03*
X64074042Y-92894000D03*
X64074042Y-91614000D03*
X64074042Y-90334000D03*
X64074042Y-89054000D03*
X64074042Y-87774000D03*
X64074042Y-68574000D03*
X62794042Y-99294000D03*
X62794042Y-98014000D03*
X62794042Y-95454000D03*
X62794042Y-94174000D03*
X62794042Y-92894000D03*
X62794042Y-91614000D03*
X62794042Y-90334000D03*
X62794042Y-89054000D03*
X62794042Y-87774000D03*
X61514042Y-117214000D03*
X61514042Y-115934000D03*
X61514042Y-114654000D03*
X61514042Y-113374000D03*
X61514042Y-112094000D03*
X61514042Y-99294000D03*
X61514042Y-98014000D03*
X61514042Y-95454000D03*
X61514042Y-94174000D03*
X61514042Y-92894000D03*
X61514042Y-91614000D03*
X61514042Y-90334000D03*
X61514042Y-89054000D03*
X61514042Y-87774000D03*
X60234042Y-94174000D03*
X60234042Y-90334000D03*
X60234042Y-89054000D03*
X60234042Y-87774000D03*
X60234042Y-76254000D03*
X60234042Y-74974000D03*
X60234042Y-73694000D03*
X60234042Y-72414000D03*
X58954042Y-90334000D03*
X58954042Y-89054000D03*
X58954042Y-87774000D03*
X58954042Y-71134000D03*
X58954042Y-42974000D03*
X57674042Y-90334000D03*
X57674042Y-89054000D03*
X57674042Y-87774000D03*
X56394042Y-57054000D03*
X55114042Y-119774000D03*
X53834042Y-119774000D03*
X53834042Y-118494000D03*
X53834042Y-117214000D03*
X53834042Y-115934000D03*
X53834042Y-76254000D03*
X53834042Y-74974000D03*
X53834042Y-71134000D03*
X53834042Y-69854000D03*
X52554042Y-119774000D03*
X51274042Y-119774000D03*
X49994042Y-119774000D03*
X49994042Y-96734000D03*
X49994042Y-42974000D03*
X48714042Y-119774000D03*
X48714042Y-110814000D03*
X48714042Y-42974000D03*
X47434042Y-119774000D03*
X47434042Y-112094000D03*
X47434042Y-110814000D03*
X47434042Y-42974000D03*
X46154042Y-119774000D03*
X46154042Y-112094000D03*
X46154042Y-110814000D03*
X46154042Y-42974000D03*
X44874042Y-119774000D03*
X44874042Y-112094000D03*
X44874042Y-110814000D03*
X44874042Y-66014000D03*
X44874042Y-64734000D03*
X44874042Y-42974000D03*
X43594042Y-119774000D03*
X43594042Y-113374000D03*
X43594042Y-112094000D03*
X43594042Y-110814000D03*
X43594042Y-106974000D03*
X43594042Y-98014000D03*
X43594042Y-48094000D03*
X43594042Y-46814000D03*
X43594042Y-45534000D03*
X42314042Y-119774000D03*
X42314042Y-118494000D03*
X42314042Y-117214000D03*
X42314042Y-115934000D03*
X42314042Y-114654000D03*
X42314042Y-113374000D03*
X42314042Y-112094000D03*
X42314042Y-110814000D03*
X42314042Y-109534000D03*
X42314042Y-108254000D03*
X42314042Y-106974000D03*
X42314042Y-99294000D03*
X42314042Y-98014000D03*
X42314042Y-96734000D03*
X42314042Y-95454000D03*
X42314042Y-94174000D03*
X42314042Y-59614000D03*
X42314042Y-54494000D03*
X42314042Y-53214000D03*
X42314042Y-51934000D03*
X42314042Y-50654000D03*
X42314042Y-49374000D03*
X42314042Y-48094000D03*
X42314042Y-46814000D03*
X42314042Y-45534000D03*
%TO.N,NEOPIXEL*%
X70866000Y-70866000D03*
%TO.N,I2C_scl*%
X54803000Y-90438000D03*
X61417264Y-80034264D03*
%TO.N,Net-(J1-Pin_1)*%
X64114293Y-79034293D03*
D34*
%TO.N,+3.3V*%
X79337461Y-50985221D03*
X53406000Y-85358000D03*
X79568000Y-90057000D03*
D33*
%TO.N,I2C_sda*%
X55880000Y-86755000D03*
X62550000Y-80151000D03*
%TO.N,GND*%
X70653862Y-106445668D03*
X79026318Y-76155682D03*
%TO.N,tft_scl*%
X76867318Y-71621685D03*
%TO.N,Net-(D8-DOUT)*%
X52070000Y-45593000D03*
%TO.N,Net-(D8-DIN)*%
X56642000Y-50635000D03*
X53015526Y-44760526D03*
%TO.N,tft_dc*%
X76867318Y-70821682D03*
%TO.N,tft_cs*%
X76450000Y-70059682D03*
%TO.N,NEOPIXEL*%
X68439682Y-64529318D03*
X55658318Y-52152682D03*
%TO.N,tft_rst*%
X75597318Y-70059682D03*
%TO.N,sw_team*%
X69501318Y-71837682D03*
%TO.N,sw_tirette*%
X70266000Y-69684682D03*
%TO.N,motor_enable*%
X68138000Y-101868000D03*
X72456000Y-88152000D03*
%TO.N,motor_a+*%
X74016521Y-81584521D03*
X65217000Y-97677000D03*
%TO.N,motor_a-*%
X65125000Y-98737000D03*
X73415479Y-80983479D03*
%TO.N,motor_b-*%
X77886411Y-101615800D03*
X83009839Y-79665161D03*
%TO.N,SERVO1*%
X73338000Y-88533000D03*
X57343000Y-97042000D03*
D34*
%TO.N,+5V*%
X60727500Y-52973000D03*
X49088000Y-92470000D03*
X54884000Y-63306000D03*
X61747596Y-57647278D03*
X74500000Y-104641000D03*
X64963000Y-103880000D03*
X53914000Y-79643000D03*
X49723000Y-68467000D03*
D33*
%TO.N,RX_lidar*%
X74200318Y-74123682D03*
%TO.N,TX_lidar*%
X74723318Y-73483510D03*
%TO.N,SERVO2*%
X78740000Y-87757000D03*
D34*
%TO.N,+BATT*%
X73660000Y-57785000D03*
X51628000Y-81802000D03*
X57089000Y-75452000D03*
X57343000Y-66308000D03*
D33*
%TO.N,Net-(SW3-A)*%
X57216000Y-92216000D03*
X63942000Y-56442000D03*
%TO.N,LEVEL_BATTERY*%
X76352318Y-60096318D03*
X76212083Y-75373447D03*
X76200000Y-50673000D03*
%TO.N,motor_b+*%
X77290938Y-101081556D03*
X82408797Y-80266203D03*
%TO.N,motor_a_sense*%
X69408000Y-96915000D03*
X78126793Y-86098207D03*
%TO.N,button_user*%
X86138318Y-51390682D03*
X69501318Y-70694682D03*
%TO.N,tft_sda*%
X73692318Y-74758682D03*
%TO.N,TX0*%
X79036986Y-67961750D03*
%TO.N,EN*%
X86561000Y-53000000D03*
X85122318Y-66884682D03*
X79026318Y-66249682D03*
X71120000Y-64770000D03*
%TO.N,RX0*%
X79026318Y-67049685D03*
%TO.N,GPIO0*%
X82489000Y-51517682D03*
X81185318Y-81743682D03*
%TO.N,motor_b_sense*%
X71984000Y-99269682D03*
X78139967Y-86995000D03*
%TO.N,motor_fault*%
X76774000Y-100471000D03*
X81820318Y-80854682D03*
%TO.N,usb_d-*%
X73992839Y-70648161D03*
X51206401Y-49399018D03*
%TO.N,usb_d+*%
X49828586Y-49130093D03*
X73391797Y-71249203D03*
%TO.N,Net-(D1-A)*%
X45693981Y-48874019D03*
X51374000Y-57037000D03*
%TO.N,Net-(J11-Pin_1)*%
X59535261Y-105136739D03*
X67249000Y-100217000D03*
%TO.N,Net-(J11-Pin_6)*%
X59883000Y-106059000D03*
X70069954Y-97730715D03*
%TO.N,motor_enc_a-*%
X56962000Y-103563000D03*
X78750000Y-85090000D03*
%TO.N,motor_enc_a+*%
X56962000Y-102713000D03*
X78750000Y-84215000D03*
%TO.N,motor_enc_b-*%
X83043521Y-101821479D03*
X77663000Y-92597000D03*
%TO.N,Net-(J12-Pin_6)*%
X73347614Y-97075511D03*
%TO.N,motor_enc_b+*%
X77061958Y-91995958D03*
X82442479Y-102422521D03*
%TO.N,Net-(J12-Pin_1)*%
X74838053Y-101558417D03*
%TD*%
D35*
%TO.N,Net-(J4-Pin_2)*%
X63947000Y-116600000D02*
X63947000Y-107710000D01*
X63947000Y-107710000D02*
X57597000Y-101360000D01*
X57597000Y-101360000D02*
X50612000Y-101360000D01*
X50612000Y-101360000D02*
X45024000Y-95772000D01*
X45024000Y-95772000D02*
X45024000Y-73674000D01*
X45024000Y-73674000D02*
X42484000Y-71134000D01*
X42484000Y-71134000D02*
X42484000Y-62787000D01*
X42484000Y-62787000D02*
X46583000Y-58688000D01*
X46583000Y-58688000D02*
X58152000Y-58688000D01*
X58152000Y-58688000D02*
X63105000Y-53735000D01*
X63105000Y-53735000D02*
X66068000Y-53735000D01*
X66068000Y-53735000D02*
X67437000Y-55104000D01*
X67437000Y-55104000D02*
X67437000Y-57491000D01*
X67437000Y-57491000D02*
X67731000Y-57785000D01*
D36*
%TO.N,Net-(J1-Pin_1)*%
X64114293Y-79034293D02*
X71080000Y-86000000D01*
D37*
%TO.N,+3.3V*%
X73652237Y-67137682D02*
X68613318Y-67137682D01*
X76794884Y-99234000D02*
X74488000Y-96927116D01*
X79337461Y-50985221D02*
X79179222Y-50985221D01*
X67270000Y-78500000D02*
X67270000Y-74000000D01*
X56039318Y-114255682D02*
X52000000Y-110216364D01*
X54168000Y-85358000D02*
X62608318Y-76917682D01*
X57309318Y-119208682D02*
X56039318Y-117938682D01*
X79060000Y-90565000D02*
X74488000Y-90565000D01*
X86000000Y-107844000D02*
X77390000Y-99234000D01*
X74328318Y-67137682D02*
X73652237Y-67137682D01*
X77390000Y-99234000D02*
X76794884Y-99234000D01*
X67270000Y-79650000D02*
X67270000Y-78500000D01*
X83204577Y-115174000D02*
X70488000Y-115174000D01*
X74488000Y-96927116D02*
X74488000Y-90565000D01*
X79179222Y-50985221D02*
X77502318Y-52662125D01*
X85000000Y-116969423D02*
X83204577Y-115174000D01*
X85000000Y-117000000D02*
X85000000Y-116969423D01*
X66453318Y-119208682D02*
X57309318Y-119208682D01*
X70488000Y-115174000D02*
X66453318Y-119208682D01*
X68613318Y-67137682D02*
X67270000Y-68481000D01*
X56039318Y-117938682D02*
X56039318Y-114255682D01*
X79568000Y-90057000D02*
X79060000Y-90565000D01*
X67270000Y-68481000D02*
X67270000Y-74000000D01*
X73620000Y-86000000D02*
X67270000Y-79650000D01*
X52000000Y-110216364D02*
X52000000Y-109000000D01*
X86000000Y-109000000D02*
X86000000Y-107844000D01*
X77502318Y-52662125D02*
X77502318Y-63963682D01*
X62608318Y-76917682D02*
X67270000Y-76917682D01*
X74488000Y-90565000D02*
X74488000Y-86868000D01*
X53406000Y-85358000D02*
X54168000Y-85358000D01*
X73620000Y-86000000D02*
X73620000Y-86014000D01*
X74488000Y-86868000D02*
X73620000Y-86000000D01*
X77502318Y-63963682D02*
X74328318Y-67137682D01*
D38*
%TO.N,Net-(D8-DOUT)*%
X52114318Y-45548682D02*
X52070000Y-45593000D01*
X56039318Y-45548682D02*
X52114318Y-45548682D01*
%TO.N,sw_team*%
X73025000Y-47498000D02*
X72430000Y-46903000D01*
X78453318Y-64357599D02*
X78453318Y-53499682D01*
X78453318Y-53499682D02*
X80391000Y-51562000D01*
X72430000Y-46903000D02*
X72430000Y-45951500D01*
X69617909Y-68433000D02*
X74377918Y-68433000D01*
X74377918Y-68433000D02*
X78453318Y-64357599D01*
X80391000Y-49657000D02*
X78232000Y-47498000D01*
X68900318Y-69150591D02*
X69617909Y-68433000D01*
X80391000Y-51562000D02*
X80391000Y-49657000D01*
X69501318Y-71837682D02*
X68900318Y-71236682D01*
X78232000Y-47498000D02*
X73025000Y-47498000D01*
X68900318Y-71236682D02*
X68900318Y-69150591D01*
%TO.N,motor_enable*%
X72456000Y-92886000D02*
X71059000Y-94283000D01*
X71059000Y-98947000D02*
X68138000Y-101868000D01*
X71059000Y-94283000D02*
X71059000Y-98947000D01*
X72456000Y-88152000D02*
X72456000Y-92886000D01*
%TO.N,SERVO1*%
X53540000Y-95000000D02*
X55582000Y-97042000D01*
X55582000Y-97042000D02*
X57343000Y-97042000D01*
D37*
%TO.N,+5V*%
X66083000Y-105000000D02*
X64963000Y-103880000D01*
X51000000Y-94382000D02*
X51000000Y-95000000D01*
X51120000Y-76849000D02*
X53914000Y-79643000D01*
X58166000Y-44800364D02*
X56914318Y-43548682D01*
X49733000Y-68467000D02*
X49723000Y-68467000D01*
X72846699Y-105000000D02*
X66083000Y-105000000D01*
X54884000Y-63306000D02*
X54884000Y-63226000D01*
X57531000Y-60579000D02*
X58848433Y-60579000D01*
X48072000Y-79897000D02*
X51120000Y-76849000D01*
X49070000Y-92470000D02*
X48072000Y-91472000D01*
X54884000Y-63316000D02*
X49733000Y-68467000D01*
X73205699Y-104641000D02*
X72846699Y-105000000D01*
X60727500Y-52973000D02*
X58166000Y-50411500D01*
X49723000Y-68467000D02*
X49723000Y-75452000D01*
X48072000Y-91472000D02*
X48072000Y-79897000D01*
X49088000Y-92470000D02*
X49070000Y-92470000D01*
X74500000Y-104641000D02*
X73205699Y-104641000D01*
X49088000Y-92470000D02*
X51000000Y-94382000D01*
X58166000Y-50411500D02*
X58166000Y-44800364D01*
X49723000Y-75452000D02*
X51120000Y-76849000D01*
X61747596Y-57679837D02*
X61747596Y-57647278D01*
X58848433Y-60579000D02*
X61747596Y-57679837D01*
X54884000Y-63306000D02*
X54884000Y-63316000D01*
X54884000Y-63226000D02*
X57531000Y-60579000D01*
X56914318Y-43548682D02*
X56039318Y-43548682D01*
D38*
%TO.N,SERVO2*%
X80619000Y-92841000D02*
X78460000Y-95000000D01*
X78740000Y-87757000D02*
X80619000Y-89636000D01*
X80619000Y-89636000D02*
X80619000Y-92841000D01*
D37*
%TO.N,+BATT*%
X63996000Y-59690000D02*
X71755000Y-59690000D01*
X71755000Y-59690000D02*
X73660000Y-57785000D01*
X57089000Y-78520024D02*
X57089000Y-75452000D01*
X72000000Y-113428133D02*
X72000000Y-113500000D01*
X54102398Y-93299000D02*
X56267000Y-93299000D01*
X51628000Y-81802000D02*
X50531000Y-82899000D01*
X58994000Y-96026000D02*
X58994000Y-100422133D01*
X51628000Y-81802000D02*
X53807024Y-81802000D01*
X58994000Y-100422133D02*
X72000000Y-113428133D01*
X50531000Y-82899000D02*
X50531000Y-89727603D01*
X50531000Y-89727603D02*
X54102398Y-93299000D01*
X56267000Y-93299000D02*
X58994000Y-96026000D01*
X53807024Y-81802000D02*
X57089000Y-78520024D01*
X57343000Y-66308000D02*
X57378000Y-66308000D01*
X57378000Y-66308000D02*
X63996000Y-59690000D01*
%TO.N,Net-(SW3-A)*%
X63405318Y-58370080D02*
X59775398Y-62000000D01*
X63942000Y-56442000D02*
X63405318Y-56978682D01*
X59775398Y-62000000D02*
X59200000Y-62000000D01*
X51882000Y-89168000D02*
X54422000Y-91708000D01*
X54422000Y-91708000D02*
X56708000Y-91708000D01*
X51955000Y-84756976D02*
X51955000Y-84777000D01*
X55692000Y-70753000D02*
X58613000Y-73674000D01*
X63405318Y-56978682D02*
X63405318Y-58370080D01*
X56708000Y-91708000D02*
X57216000Y-92216000D01*
X58613000Y-73674000D02*
X58613000Y-78906627D01*
X53612627Y-83907000D02*
X52804976Y-83907000D01*
X51882000Y-84850000D02*
X51882000Y-89168000D01*
X55692000Y-65508000D02*
X55692000Y-70753000D01*
X59200000Y-62000000D02*
X55692000Y-65508000D01*
X52804976Y-83907000D02*
X51955000Y-84756976D01*
X51955000Y-84777000D02*
X51882000Y-84850000D01*
X58613000Y-78906627D02*
X53612627Y-83907000D01*
D38*
%TO.N,LEVEL_BATTERY*%
X76581000Y-59417000D02*
X76581000Y-51054000D01*
X76581000Y-51054000D02*
X76200000Y-50673000D01*
X76352318Y-60096318D02*
X76352318Y-59645682D01*
X76352318Y-59645682D02*
X76581000Y-59417000D01*
%TO.N,button_user*%
X74738917Y-68834000D02*
X78867000Y-64705917D01*
X78867000Y-64705917D02*
X78867000Y-54610000D01*
X69912918Y-68834000D02*
X74738917Y-68834000D01*
X82677000Y-52324000D02*
X83610318Y-51390682D01*
X69501318Y-70694682D02*
X69501318Y-69245600D01*
X81153000Y-52324000D02*
X82677000Y-52324000D01*
X83610318Y-51390682D02*
X86138318Y-51390682D01*
X69501318Y-69245600D02*
X69912918Y-68834000D01*
X78867000Y-54610000D02*
X81153000Y-52324000D01*
D37*
%TO.N,Net-(D1-A)*%
X44516000Y-55005000D02*
X46548000Y-57037000D01*
X46548000Y-57037000D02*
X51374000Y-57037000D01*
X44516000Y-50052000D02*
X44516000Y-55005000D01*
D38*
X45693981Y-48874019D02*
X47078963Y-50259000D01*
D37*
X45693981Y-48874019D02*
X44516000Y-50052000D01*
D36*
%TO.N,Net-(J11-Pin_1)*%
X45526000Y-107474000D02*
X44000000Y-109000000D01*
X59535261Y-105136739D02*
X58740000Y-105932000D01*
X46276000Y-107474000D02*
X45526000Y-107474000D01*
X47818000Y-105932000D02*
X46276000Y-107474000D01*
X58740000Y-105932000D02*
X47818000Y-105932000D01*
%TO.N,Net-(J11-Pin_6)*%
X54000000Y-109000000D02*
X54000000Y-108894000D01*
X56161000Y-106733000D02*
X59209000Y-106733000D01*
X59209000Y-106733000D02*
X59883000Y-106059000D01*
X54000000Y-108894000D02*
X56161000Y-106733000D01*
D38*
%TO.N,motor_enc_b-*%
X78772199Y-97833000D02*
X77375198Y-97833000D01*
X77380157Y-92597000D02*
X77663000Y-92597000D01*
X75983000Y-96440802D02*
X75983000Y-93994157D01*
X75983000Y-93994157D02*
X77380157Y-92597000D01*
X83043521Y-101821479D02*
X82760678Y-101821479D01*
X77375198Y-97833000D02*
X75983000Y-96440802D01*
X82760678Y-101821479D02*
X78772199Y-97833000D01*
%TO.N,motor_enc_b+*%
X82442479Y-102139678D02*
X78585801Y-98283000D01*
X77188802Y-98283000D02*
X75533000Y-96627198D01*
X78585801Y-98283000D02*
X77188802Y-98283000D01*
X75533000Y-93807759D02*
X77061958Y-92278801D01*
X77061958Y-92278801D02*
X77061958Y-91995958D01*
X75533000Y-96627198D02*
X75533000Y-93807759D01*
X82442479Y-102422521D02*
X82442479Y-102139678D01*
%TD*%
M02*
